<svg width="170" height="24" fill="none" xmlns="http://www.w3.org/2000/svg">
  <g clip-path="url(#clip0)">
    <path d="M10.702 22.694c5.91 0 10.701-4.787 10.701-10.692S16.612 1.31 10.702 1.31 0 6.097 0 12.002s4.791 10.692 10.702 10.692z" fill="#FF001A"/>
    <path d="M41.982 10.8l4.83-6.068h-4.877l-5.063 6.62v-6.62h-4.176V19.27h4.176v-3.178l.024-.031 2.037-2.51 3.383 5.72h4.978l-5.359-8.408.047-.063zM55.126 4.258a7.527 7.527 0 00-7.259 4.755 7.508 7.508 0 00-.519 3.015 7.508 7.508 0 004.76 7.252c.96.378 1.987.554 3.018.518a7.37 7.37 0 004.534-1.554l.14-.116.218 1.212h3.546V4.732h-3.546l-.195 1.228-.148-.117a7.307 7.307 0 00-4.55-1.585zm.428 11.927a3.993 3.993 0 01-3.806-2.59 3.982 3.982 0 01-.246-1.606 3.962 3.962 0 014.036-4.165 4.024 4.024 0 013.794 2.574c.195.507.286 1.048.266 1.591a3.983 3.983 0 01-2.45 3.89 3.993 3.993 0 01-1.595.306zM70.501 5.96l-.132.109-.31-1.337h-3.314v19.566h4.176v-5.983l.18.132a7.004 7.004 0 004.16 1.29 7.41 7.41 0 005.583-2.178 7.396 7.396 0 002.14-5.593 7.499 7.499 0 00-2.21-5.55 7.515 7.515 0 00-5.567-2.181A7.346 7.346 0 0070.5 5.96zm8.26 6.045a3.961 3.961 0 01-4.029 4.165 4.023 4.023 0 01-3.786-2.575 4.013 4.013 0 01-.266-1.59 4.039 4.039 0 014.04-4.218 4.048 4.048 0 013.786 2.618c.192.51.279 1.055.255 1.6zM88.063 19.27h4.153V8.252h4.044v-3.52H84.018v3.52h4.045V19.27zM105.118 4.258a7.527 7.527 0 00-5.579 2.196 7.512 7.512 0 00-2.198 5.574 7.506 7.506 0 002.198 5.574 7.523 7.523 0 005.579 2.197 7.383 7.383 0 004.534-1.555l.14-.116.218 1.212h3.539V4.732h-3.539l-.202 1.228-.148-.117a7.299 7.299 0 00-4.542-1.585zm.428 11.927a3.999 3.999 0 01-4.06-4.196 3.983 3.983 0 011.117-2.96 3.97 3.97 0 012.927-1.205 4.028 4.028 0 012.918 1.218 4.025 4.025 0 011.134 2.947 3.975 3.975 0 01-4.036 4.196zM138.852 4.74h-12.444l-.35 3.808c-.288 3.45-1.205 5.672-2.971 7.187h-1.112v6.597h3.578l.653-3.108h9.963l.653 3.108h3.585v-6.566h-1.555V4.74zm-4.169 11.026h-7.349l.202-.194c1.555-1.445 2.24-3 2.512-5.517l.187-1.795h4.448v7.506zM145.253 19.278h4.153V8.26h4.044V4.74h-12.242v3.52h4.045v11.018zM159.431 8.307h6.377v10.971H170V4.74h-14.777v14.538h4.208V8.307z" fill="#18334A"/>
  </g>
  <defs>
    <clipPath id="clip0">
      <path fill="#fff" d="M0 0h170v24H0z"/>
    </clipPath>
  </defs>
</svg>