<?xml version="1.0" encoding="utf-8"?><!DOCTYPE svg PUBLIC "-//W3C//DTD SVG 1.1//EN" "http://www.w3.org/Graphics/SVG/1.1/DTD/svg11.dtd"><svg xmlns="http://www.w3.org/2000/svg" xmlns:xlink="http://www.w3.org/1999/xlink"><symbol viewBox="0 0 14 12" id="arrow-back" xmlns="http://www.w3.org/2000/svg"><path d="M12.833 6H1.167m0 0l5 5m-5-5l5-5"/></symbol><symbol fill="none" viewBox="0 0 14 9" id="arrow-up" xmlns="http://www.w3.org/2000/svg"><path d="M1.167 7.057L7 1.223l5.833 5.834" stroke="#18334A" stroke-width="2" stroke-linecap="round" stroke-linejoin="round"/></symbol><symbol viewBox="0 0 24 15" id="bike" xmlns="http://www.w3.org/2000/svg"><path d="M22.562 6.26a4.856 4.856 0 00-3.463-1.439 5.21 5.21 0 00-1.705.293L15.263.613A1.086 1.086 0 0014.304 0h-1.279a.42.42 0 00-.426.426c0 .24.187.426.426.426h1.28c.079 0 .159.054.186.107l.639 1.332-5.727-.027-.16-.426h.266a.42.42 0 00.427-.426.42.42 0 00-.427-.426H7.592a.42.42 0 00-.427.426c0 .24.187.426.427.426h.719l.32.8-1.599 2.636a4.693 4.693 0 00-2.104-.48C2.21 4.822 0 7.007 0 9.697c0 1.305.506 2.53 1.412 3.436a4.856 4.856 0 003.463 1.438H4.9a4.906 4.906 0 004.875-4.368H11.8c.16 0 .293-.08.373-.213l3.543-6.393.906 1.891a4.57 4.57 0 00-.986.746 4.75 4.75 0 00-1.438 3.436c0 1.306.506 2.53 1.411 3.436a4.856 4.856 0 003.463 1.439h.027A4.912 4.912 0 0024 9.696a5.074 5.074 0 00-1.438-3.436zm-17.66 7.458s-.027 0 0 0a4.03 4.03 0 01-2.878-1.199A3.991 3.991 0 01.852 9.696c0-2.211 1.812-3.996 4.05-3.996h.026a4.26 4.26 0 011.651.347L4.422 9.563a.409.409 0 000 .426c.08.133.213.213.373.213h4.128c-.266 1.971-1.97 3.516-4.022 3.516zM5.54 9.35l1.758-2.877c.16.133.32.24.479.4A3.978 3.978 0 018.923 9.35H5.541zm4.235 0a4.761 4.761 0 00-1.412-3.09 5.854 5.854 0 00-.613-.533l1.252-2.051 2.185 5.674H9.776zm2.104-.586L9.75 3.17l5.247.026-3.117 5.568zm7.192 4.954a4.03 4.03 0 01-2.877-1.199 3.992 3.992 0 01-1.172-2.823c0-1.066.427-2.078 1.199-2.824.24-.24.48-.426.746-.586l1.705 3.596c.08.16.24.24.4.24.052 0 .132 0 .186-.053.213-.107.293-.346.213-.56l-1.705-3.596a4.359 4.359 0 011.332-.213h.026c1.093 0 2.105.427 2.85 1.199a3.943 3.943 0 011.173 2.85c-.027 2.184-1.838 3.97-4.076 3.97z" fill="#fff"/></symbol><symbol viewBox="0 0 20 20" id="block" xmlns="http://www.w3.org/2000/svg"><path fill-rule="evenodd" clip-rule="evenodd" d="M10 .833c1.895 0 3.545.387 4.903 1.113a7.572 7.572 0 013.15 3.15c.727 1.358 1.113 3.009 1.113 4.904s-.386 3.546-1.113 4.903a7.573 7.573 0 01-3.15 3.15c-1.358.727-3.008 1.114-4.903 1.114-1.896 0-3.546-.387-4.904-1.113a7.572 7.572 0 01-3.15-3.15C1.22 13.545.833 11.894.833 10s.387-3.546 1.113-4.904a7.572 7.572 0 013.15-3.15C6.454 1.22 8.104.833 10 .833zM3.563 5.961C2.977 7.056 2.666 8.414 2.666 10c0 1.585.311 2.944.897 4.039a5.74 5.74 0 002.398 2.398c1.094.585 2.453.896 4.039.896 1.585 0 2.944-.31 4.039-.896l.158-.09a.417.417 0 00.082-.653L4.306 5.72a.417.417 0 00-.654.083l-.09.158zM10 2.667c-1.586 0-2.945.31-4.04.896l-.157.09a.417.417 0 00-.083.653l9.974 9.974a.417.417 0 00.653-.083l.09-.158c.585-1.095.896-2.454.896-4.039 0-1.586-.31-2.944-.896-4.039a5.74 5.74 0 00-2.398-2.398c-1.095-.585-2.454-.896-4.04-.896z"/></symbol><symbol viewBox="0 0 20 20" id="calendar" xmlns="http://www.w3.org/2000/svg"><path d="M4 4V1m4 3V1m4 3V1m4 3V1m3 7H1m2 11h14a2 2 0 002-2V5a2 2 0 00-2-2H3a2 2 0 00-2 2v12a2 2 0 002 2z"/></symbol><symbol viewBox="0 0 24 20" id="car" xmlns="http://www.w3.org/2000/svg"><path d="M23.948 8.347l-.31-.91c-.172-.5-.716-.908-1.22-.908h-1.06a71.565 71.565 0 00-1.575-4.06c-.415-.944-1.744-1.144-2.476-1.352 0 0-1.221-.375-5.296-.375-4.076 0-5.296.375-5.296.375-.856.29-2.047.475-2.52 1.395-.189.364-.885 2.08-1.56 4.017H1.587c-.501 0-1.049.408-1.221.909l-.312.909c-.173.504.096 1.089.597 1.089h1.048c-.279.816-.468 1.192-.468 1.192-.076.135-.132.749-.132.915v6.804c0 .504.405.91.908.91h2.527a.908.908 0 00.91-.91v-1.275h13.132v1.275a.91.91 0 00.909.91h2.527a.908.908 0 00.91-.91v-6.804c0-.165-.056-.78-.136-.915 0 0-.192-.38-.475-1.192h1.04c.5 0 .768-.585.595-1.09h.002zM6.645 13.804H5.436c-1.08 0-2.157-.16-2.157-.91v-.908c0-.876.463-.91.967-.91.49 0 1.461.454 2.103.766.7.34 1.476.624 1.476 1.192 0 .528-.271.771-1.179.771l-.001-.001zM4.12 7.5c.64-2.532 1.335-3.483 1.485-3.88.123-.292.243-1.186 6.401-1.186 6.163 0 6.305 1.025 6.324 1.035.189.543.944 1.697 1.548 4.032 0 0-2.604.848-7.869.848-5.268-.003-7.889-.848-7.889-.848v-.001zm16.62 5.394c0 .748-1.08.909-2.16.909h-1.207c-.912 0-1.179-.243-1.179-.765 0-.569.78-.852 1.476-1.193.64-.312 1.611-.765 2.1-.765.501 0 .969.032.969.91v.904h.002z"/></symbol><symbol viewBox="0 0 32 32" id="cc" xmlns="http://www.w3.org/2000/svg"><path d="M15.97 0c4.476 0 8.286 1.563 11.429 4.686a15.387 15.387 0 013.428 5.157C31.608 11.777 32 13.829 32 16c0 2.19-.386 4.243-1.156 6.157a14.689 14.689 0 01-3.415 5.071 16.443 16.443 0 01-5.314 3.543A15.928 15.928 0 0115.971 32 15.55 15.55 0 019.9 30.785c-1.933-.809-3.667-1.98-5.2-3.514-1.534-1.533-2.7-3.262-3.5-5.186C.4 20.162 0 18.134 0 16c0-2.114.405-4.148 1.214-6.1.81-1.953 1.986-3.7 3.528-5.243C7.79 1.553 11.532 0 15.971 0zm.059 2.886c-3.658 0-6.734 1.276-9.23 3.829a13.756 13.756 0 00-2.9 4.3A12.602 12.602 0 002.886 16c0 1.715.338 3.367 1.015 4.957a13.255 13.255 0 002.9 4.258 13.186 13.186 0 004.257 2.858c1.58.657 3.238.985 4.972.985 1.713 0 3.375-.332 4.986-1a13.819 13.819 0 004.357-2.885c2.494-2.438 3.741-5.495 3.741-9.172 0-1.772-.323-3.448-.971-5.029a12.793 12.793 0 00-2.827-4.228c-2.573-2.572-5.668-3.858-9.287-3.858zm-.201 10.457l-2.143 1.115c-.23-.476-.51-.81-.843-1-.334-.19-.643-.286-.929-.286-1.428 0-2.143.943-2.143 2.829 0 .857.181 1.542.543 2.056.361.515.895.773 1.6.773.934 0 1.59-.458 1.972-1.372l1.971 1a4.7 4.7 0 01-1.743 1.843 4.664 4.664 0 01-2.457.672c-1.429 0-2.582-.438-3.458-1.315-.876-.876-1.314-2.095-1.314-3.657 0-1.524.443-2.733 1.329-3.628.886-.895 2.005-1.343 3.357-1.343 1.982-.001 3.4.77 4.258 2.314zm9.229 0l-2.115 1.115c-.229-.476-.51-.81-.843-1-.334-.19-.654-.286-.957-.286-1.428 0-2.143.943-2.143 2.829 0 .857.181 1.542.543 2.056.361.515.894.773 1.6.773.933 0 1.59-.458 1.97-1.372l2 1a4.912 4.912 0 01-1.77 1.843 4.617 4.617 0 01-2.428.672c-1.449 0-2.605-.438-3.471-1.315-.868-.876-1.301-2.095-1.301-3.657 0-1.524.442-2.733 1.329-3.628.885-.895 2.004-1.343 3.357-1.343 1.98-.001 3.391.77 4.229 2.314z" fill="#18334A" fill-opacity=".5"/></symbol><symbol fill="none" viewBox="0 0 12 10" id="check" xmlns="http://www.w3.org/2000/svg"><path d="M1 4.5L4.5 8 11 1" stroke="#fff" stroke-width="2"/></symbol><symbol fill="none" viewBox="0 0 193 60" id="cityprojects" xmlns="http://www.w3.org/2000/svg"><path d="M76.247 16.147h-4.232v11.557H70.64v-12.82h5.606v1.263zm-1.209 6.98c0-1.65.284-2.863.852-3.638a2.832 2.832 0 012.428-1.162c1.123 0 1.95.397 2.48 1.191.531.794.793 1.997.784 3.609 0 1.66-.286 2.879-.86 3.655a2.841 2.841 0 01-2.417 1.155c-1.126 0-1.954-.397-2.483-1.191-.53-.794-.79-1.997-.784-3.609v-.01zm1.374 0c-.004.49.03.98.102 1.465.052.393.163.775.329 1.136.132.293.337.549.595.741.257.18.566.271.88.261a1.54 1.54 0 001.428-.854c.315-.565.474-1.484.476-2.754a10.09 10.09 0 00-.1-1.457 3.978 3.978 0 00-.331-1.144 1.875 1.875 0 00-.596-.744 1.452 1.452 0 00-.877-.262 1.543 1.543 0 00-1.42.862c-.326.576-.489 1.493-.489 2.75h.003zm6.943-4.58h.932l.204.99h.073a2.264 2.264 0 012.123-1.21 2.442 2.442 0 012.172 1.081c.48.721.722 1.9.724 3.536a8.437 8.437 0 01-.238 2.089 5.06 5.06 0 01-.679 1.567c-.27.412-.638.752-1.07.99a2.946 2.946 0 01-1.403.339 4.242 4.242 0 01-.843-.066 2.448 2.448 0 01-.676-.26v3.767h-1.32V18.547zm1.319 7.713c.172.146.367.263.577.348.273.095.562.138.85.127.648 0 1.16-.331 1.539-.99.379-.657.567-1.597.567-2.82a8.722 8.722 0 00-.1-1.394 3.863 3.863 0 00-.32-1.07 1.828 1.828 0 00-.56-.695 1.371 1.371 0 00-.833-.248c-.89 0-1.463.543-1.72 1.63v5.112zm6.245-3.133c0-1.65.284-2.863.852-3.638a2.835 2.835 0 012.428-1.162c1.123 0 1.95.397 2.48 1.191.532.794.797 1.997.797 3.609 0 1.66-.287 2.879-.861 3.655a2.834 2.834 0 01-2.416 1.155c-1.126 0-1.954-.397-2.483-1.191-.53-.794-.795-1.997-.796-3.609v-.01zm1.374 0c-.003.49.03.98.102 1.465.051.393.162.776.329 1.136.132.293.337.549.595.741.257.18.566.272.88.261a1.54 1.54 0 001.428-.854c.317-.565.476-1.484.476-2.754A9.719 9.719 0 0096 21.665a3.898 3.898 0 00-.33-1.144 1.875 1.875 0 00-.595-.742 1.452 1.452 0 00-.877-.26 1.543 1.543 0 00-1.42.86c-.324.575-.486 1.49-.486 2.748zm13.623 6.904h-.917l-.219-2.327h-5.434l-.24 2.327h-.896v-3.515h.862c.115-.24.215-.488.3-.741.161-.492.287-.995.376-1.505.122-.64.229-1.43.321-2.37.092-.94.144-2.058.154-3.353h4.598v7.97h1.095v3.514zm-2.4-3.515v-6.789h-2.071a82.721 82.721 0 01-.099 1.723c-.044.622-.107 1.24-.193 1.857a23.148 23.148 0 01-.311 1.768 8.79 8.79 0 01-.423 1.43l3.097.011zm8.828.731a3.09 3.09 0 01-1.044.523 4.55 4.55 0 01-1.23.164 3.016 3.016 0 01-1.483-.34 2.627 2.627 0 01-.979-.97 4.744 4.744 0 01-.551-1.52 10.4 10.4 0 01-.173-1.97c0-1.566.278-2.757.833-3.572a2.72 2.72 0 012.389-1.227c.413-.007.825.036 1.228.128.306.072.601.183.88.33l-.366 1.153a3.155 3.155 0 00-1.593-.42 1.624 1.624 0 00-1.493.87c-.338.58-.506 1.492-.504 2.739-.003.472.034.943.109 1.41.06.398.183.784.366 1.143.156.306.382.57.661.77.297.2.65.3 1.008.285.303.003.605-.053.887-.164.243-.091.469-.222.669-.387l.386 1.055zm3.463-3.655h-.677v4.12h-1.321v-9.165h1.321v4.141l.622-.261 2.235-3.883h1.41l-2.18 3.682-.64.606.783.73 2.35 4.14h-1.566l-2.337-4.11zm9.661-1.155l.11-1.391h-.073l-.64 1.538-3.097 5.128h-.862v-9.165h1.319v5.441l-.11 1.337h.073l.606-1.504 3.134-5.274h.861v9.157h-1.342l.021-5.267zm8.935 4.651a2.944 2.944 0 01-1.117.621c-.461.15-.943.225-1.428.222a3.133 3.133 0 01-1.494-.34 2.85 2.85 0 01-1.044-.97 4.496 4.496 0 01-.604-1.512 9.307 9.307 0 01-.193-1.977c0-1.567.287-2.757.862-3.572a2.8 2.8 0 012.436-1.227c.343 0 .684.042 1.016.128.343.091.656.271.908.522.297.306.52.675.651 1.08a5.59 5.59 0 01.243 1.803c0 .206-.001.43-.027.668-.026.238-.041.486-.065.742h-4.648a7.28 7.28 0 00.128 1.428c.069.385.205.754.402 1.091.172.288.415.527.705.695.329.175.698.26 1.071.248.336 0 .668-.062.982-.183a2.07 2.07 0 00.741-.441l.475.974zm-1.026-4.91c.026-.916-.104-1.587-.384-2.012a1.303 1.303 0 00-1.154-.643 1.597 1.597 0 00-1.337.643c-.329.424-.524 1.096-.585 2.013h3.46zm11.395-2.435h-3.083v7.966h-1.306v-9.162h5.716v9.157h-1.319l-.008-7.961zm3.479-1.191h.934l.204.99h.071a2.266 2.266 0 012.125-1.21c.964 0 1.689.361 2.17 1.082.48.72.726 1.898.726 3.535a8.306 8.306 0 01-.24 2.09 4.991 4.991 0 01-.677 1.566 3.001 3.001 0 01-1.073.99 2.927 2.927 0 01-1.399.339 4.244 4.244 0 01-.844-.065 2.5 2.5 0 01-.679-.261v3.762h-1.318V18.552zm1.318 7.713c.174.146.37.263.58.348.273.095.562.139.851.128.645 0 1.16-.332 1.538-.99.379-.658.567-1.598.567-2.82a9.037 9.037 0 00-.099-1.394 3.857 3.857 0 00-.322-1.071 1.816 1.816 0 00-.551-.69 1.373 1.373 0 00-.833-.247c-.893 0-1.467.543-1.723 1.629l-.008 5.107zm6.249-3.133c0-1.65.284-2.863.851-3.637a2.833 2.833 0 012.426-1.162c1.125 0 1.95.397 2.483 1.19.533.794.796 1.998.796 3.609 0 1.66-.287 2.88-.861 3.656a2.845 2.845 0 01-2.418 1.154c-1.123 0-1.95-.397-2.481-1.19-.531-.795-.796-1.998-.796-3.61v-.01zm1.373 0c-.004.49.029.98.099 1.465.054.392.165.775.329 1.136.134.293.339.547.596.741.257.18.566.271.88.261a1.535 1.535 0 001.428-.853c.319-.566.478-1.484.478-2.755a9.6 9.6 0 00-.102-1.457 3.967 3.967 0 00-.329-1.144 1.895 1.895 0 00-.603-.75 1.46 1.46 0 00-.88-.26 1.552 1.552 0 00-1.421.861c-.322.575-.483 1.49-.483 2.747l.008.008zm12.419 3.956a2.948 2.948 0 01-1.118.621c-.461.15-.943.225-1.428.222a3.132 3.132 0 01-1.493-.34 2.814 2.814 0 01-1.045-.97 4.494 4.494 0 01-.603-1.512 9.243 9.243 0 01-.193-1.977c0-1.567.287-2.757.861-3.572a2.8 2.8 0 012.437-1.227c.342 0 .683.042 1.015.128.343.091.655.272.906.522.298.305.521.675.651 1.08.182.588.266 1.201.248 1.816 0 .206 0 .43-.026.668-.027.238-.042.486-.066.742h-4.653a7.28 7.28 0 00.128 1.428c.072.375.208.736.402 1.065.174.288.417.526.708.695.329.175.698.261 1.07.248.335 0 .667-.063.98-.183.275-.093.528-.243.741-.441l.478.987zm-1.026-4.914c.022-.916-.106-1.587-.387-2.014a1.301 1.301 0 00-1.151-.642 1.599 1.599 0 00-1.337.642c-.331.425-.527 1.096-.588 2.014h3.463zm5.11 1.41h-.671v4.12h-1.319v-9.157h1.319v4.141l.624-.261 2.235-3.883h1.41l-2.18 3.684-.64.606.783.732 2.35 4.138h-1.566l-2.345-4.12zm9.854-3.846h-2.253v7.966h-1.319v-7.966h-2.253v-1.191h5.825v1.19zm2.418 6.788c.332.07.67.107 1.008.11.585 0 .994-.156 1.228-.467.257-.4.378-.873.347-1.348a2.154 2.154 0 00-.34-1.29c-.224-.311-.624-.467-1.198-.467-.159 0-.329 0-.522.026a2.93 2.93 0 00-.523.102v3.334zm0-4.47a6.31 6.31 0 011.319-.128c.431-.012.86.06 1.264.212.316.12.596.319.815.577.207.253.355.55.43.87.088.35.131.71.128 1.07 0 1.112-.247 1.918-.741 2.418-.495.5-1.315.75-2.463.752a18.45 18.45 0 01-2.07-.112v-9.168h1.318v3.51zm5.056-3.499h1.324v9.158h-1.319l-.005-9.158zM73.63 39.361l.052-.804h-.026l-.308.804-2.269 3.998h-.439v-6.136h.658v4.076l-.062.783h.036l.306-.825 2.28-4.042h.43v6.136h-.658v-3.99zm3.638.204h-.956c-.017.496-.041.977-.07 1.441a8.57 8.57 0 01-.155 1.233c-.052.3-.157.59-.31.854a.61.61 0 01-.523.32 1.73 1.73 0 01-.26-.017.838.838 0 01-.194-.06l.097-.554a.454.454 0 00.329-.021c.096-.052.18-.204.26-.457a6.57 6.57 0 00.17-1.167c.044-.522.075-1.236.094-2.141h2.165v4.381h-.632l-.015-3.812zm2.295 3.243c.159.032.32.05.483.052.55 0 .825-.289.825-.867a.92.92 0 00-.193-.619.785.785 0 00-.614-.221 1.377 1.377 0 00-.507.047l.006 1.608zm0-2.139c.117-.023.23-.039.334-.05.104-.01.206 0 .298 0 .211-.005.422.03.621.103a1.045 1.045 0 01.642.692c.05.17.073.345.071.522a1.527 1.527 0 01-.386 1.16 1.731 1.731 0 01-1.212.357 8.815 8.815 0 01-.998-.052v-4.413h.63v1.681zm4.857.183l.052-.666h-.034l-.306.742-1.483 2.454h-.41v-4.394h.63v2.611l-.053.64h.034l.29-.718 1.499-2.525h.413v4.381h-.632v-2.525zm6.611-2.217c0 .154-.019.308-.055.457a1.58 1.58 0 01-.164.428 1.456 1.456 0 01-.285.36c-.12.109-.263.189-.418.236v.029c.141.028.278.076.405.143.132.07.248.167.342.282.105.13.185.277.235.436.064.2.094.41.089.62.007.28-.044.559-.149.819a1.49 1.49 0 01-.407.564c-.175.149-.378.26-.598.326a2.359 2.359 0 01-.713.105h-.633c-.123 0-.243-.021-.363-.034a2.608 2.608 0 01-.329-.065v-6.056a7.712 7.712 0 011.384-.123c.2.002.399.02.595.058.187.037.364.11.523.214a1.1 1.1 0 01.38.444c.108.235.158.492.147.75l.013.007zm-1.666 4.207c.15.002.298-.023.439-.073a1.011 1.011 0 00.595-.588c.063-.16.093-.331.089-.504.007-.2-.03-.398-.11-.582a.926.926 0 00-.284-.347 1.093 1.093 0 00-.4-.167 2.439 2.439 0 00-.462-.045h-.588v2.246a.71.71 0 00.136.026l.186.018h.206l.193.016zm-.36-2.872h.282c.104 0 .193-.016.26-.026.22-.092.41-.239.555-.426.159-.207.241-.463.232-.723a1.307 1.307 0 00-.078-.486.784.784 0 00-.215-.313.865.865 0 00-.32-.162 1.543 1.543 0 00-.385-.047c-.154 0-.29 0-.412.013a2.284 2.284 0 00-.282.031v2.146l.363-.007zm3.026-.71c.191-.114.4-.197.616-.246.252-.059.51-.087.768-.086.203-.009.406.029.593.11a.872.872 0 01.35.297c.084.13.141.276.167.428.026.168.04.337.039.507 0 .35 0 .692-.023 1.023-.024.332-.021.65-.021.948 0 .222 0 .429.02.62.015.18.043.36.084.537h-.48l-.152-.522h-.034c-.095.16-.227.294-.384.394-.208.12-.446.178-.686.167a1.002 1.002 0 01-.784-.329 1.282 1.282 0 01-.303-.908 1.406 1.406 0 01.126-.63 1.08 1.08 0 01.36-.412c.167-.111.354-.188.551-.225.236-.046.475-.068.716-.065h.36c.016-.16.025-.32.026-.48a1.23 1.23 0 00-.149-.703.642.642 0 00-.546-.201 2.286 2.286 0 00-.522.073c-.169.04-.332.105-.483.19l-.209-.488zm1.914 2.112c-.06 0-.117 0-.175-.013-.057-.013-.117 0-.175 0-.138 0-.276.01-.412.034-.127.02-.249.063-.36.125a.651.651 0 00-.262.235.692.692 0 00-.094.376.783.783 0 00.173.546.56.56 0 00.44.19.847.847 0 00.573-.175.961.961 0 00.28-.383l.012-.935zm1.648-2.384h.441l.097.472h.036a1.084 1.084 0 011.016-.58 1.163 1.163 0 011.044.523c.234.348.35.911.348 1.69.003.335-.035.67-.115.997a2.39 2.39 0 01-.324.752 1.43 1.43 0 01-1.19.637 2.063 2.063 0 01-.405-.031 1.17 1.17 0 01-.324-.128v1.807h-.632l.008-6.14zm.632 3.69c.082.07.176.126.276.166.132.045.27.065.408.06a.823.823 0 00.736-.472c.2-.42.29-.885.261-1.35a3.975 3.975 0 00-.044-.676 1.766 1.766 0 00-.154-.523.846.846 0 00-.261-.334.658.658 0 00-.4-.117c-.426 0-.7.26-.822.783v2.462zm5.084-3.134h-.956a65.92 65.92 0 01-.071 1.441 8.378 8.378 0 01-.154 1.233c-.05.301-.156.59-.31.854a.606.606 0 01-.522.32 1.73 1.73 0 01-.262-.017.878.878 0 01-.193-.06l.097-.554a.455.455 0 00.329-.02c.096-.053.18-.205.26-.458a6.57 6.57 0 00.17-1.167c.046-.522.076-1.236.092-2.141h2.167v4.381h-.632l-.015-3.812zm1.621-.308c.193-.113.401-.196.619-.246.252-.058.509-.087.768-.086.202-.008.404.03.59.11a.874.874 0 01.35.298c.087.128.144.274.167.428.027.167.04.337.039.506 0 .35 0 .692-.021 1.024-.021.332-.021.65-.021.948 0 .222 0 .428.021.619.014.18.042.36.084.538h-.483l-.149-.523h-.034c-.097.16-.229.295-.387.395-.207.12-.444.178-.684.167a1.007 1.007 0 01-.783-.33 1.307 1.307 0 01-.303-.908 1.366 1.366 0 01.128-.63c.081-.166.204-.308.358-.412.167-.11.356-.187.553-.224.236-.046.476-.068.716-.066h.357c.017-.16.026-.32.027-.48a1.236 1.236 0 00-.149-.703.633.633 0 00-.543-.2 2.291 2.291 0 00-.536.072c-.168.041-.33.105-.48.191l-.204-.488zm1.904 2.123c-.06 0-.118 0-.178-.013s-.115 0-.175 0c-.138 0-.276.01-.412.034-.126.02-.247.063-.358.125a.679.679 0 00-.261.235.716.716 0 00-.092.376.787.787 0 00.173.546.565.565 0 00.441.19.835.835 0 00.569-.175.932.932 0 00.282-.383l.011-.935zm4.556-.606l.063-.833h-.037l-.261.744-.814 1.684h-.23l-.849-1.681-.237-.744h-.045l.071.825v2.61h-.572v-4.37h.632l.955 1.9.191.57h.018l.212-.587.885-1.883h.648v4.381h-.643l.013-2.616zm1.473.413c0-.79.137-1.37.41-1.742a1.357 1.357 0 011.162-.556 1.325 1.325 0 011.185.572c.262.378.382.955.382 1.726 0 .77-.136 1.376-.413 1.744a1.352 1.352 0 01-1.154.553 1.334 1.334 0 01-1.191-.572c-.261-.378-.381-.955-.381-1.725zm.658 0c-.001.235.016.47.05.702.024.187.077.37.156.54a.94.94 0 00.285.358.71.71 0 00.423.126.734.734 0 00.681-.408c.179-.41.258-.858.23-1.305a4.784 4.784 0 00-.049-.698 1.906 1.906 0 00-.157-.548.94.94 0 00-.287-.355.695.695 0 00-.418-.125.737.737 0 00-.682.41c-.18.41-.26.858-.232 1.305v-.002zm3.314-2.17c.161 0 .339-.027.522-.045s.425-.026.694-.026c.359-.035.719.057 1.016.261a1.01 1.01 0 01.308.81 1.312 1.312 0 01-.146.595.935.935 0 01-.486.439v.036c.237.037.45.165.596.355.127.213.188.458.175.706a1.174 1.174 0 01-.402.99 1.96 1.96 0 01-1.202.307c-.198 0-.389 0-.569-.023-.18-.024-.355-.032-.522-.047l.016-4.358zm.629 3.83c.089 0 .172.021.261.026.089.006.178 0 .295 0a.967.967 0 00.653-.182.924.924 0 00.029-1.118.805.805 0 00-.64-.206h-.601l.003 1.48zm.65-1.971c.082 0 .163-.02.235-.058a.687.687 0 00.206-.154.713.713 0 00.147-.222.73.73 0 00.052-.26.665.665 0 00-.162-.5.783.783 0 00-.556-.159h-.335l-.237.016v1.334l.65.003zm2.209-1.606c.193-.113.401-.196.619-.245.251-.059.508-.088.765-.087.203-.008.406.03.593.11a.873.873 0 01.35.298c.086.128.144.274.167.428.026.167.04.337.039.507 0 .35 0 .691-.021 1.023-.021.332-.023.65-.023.948 0 .223.007.429.023.619.012.181.04.361.084.538h-.483l-.149-.523h-.034c-.097.16-.229.295-.387.395-.207.12-.444.178-.684.167a1.004 1.004 0 01-.783-.33 1.302 1.302 0 01-.303-.908 1.367 1.367 0 01.128-.63c.08-.166.204-.308.358-.412.167-.11.356-.187.553-.224.235-.046.474-.068.713-.066h.36c.017-.16.026-.32.027-.48a1.236 1.236 0 00-.149-.702.64.64 0 00-.543-.201 2.286 2.286 0 00-.536.073 1.907 1.907 0 00-.483.19l-.201-.488zm1.901 2.123c-.057 0-.117 0-.175-.013-.057-.013-.117 0-.175 0-.138 0-.276.01-.412.034-.126.02-.247.063-.358.125a.64.64 0 00-.261.235.717.717 0 00-.092.376.786.786 0 00.17.546.563.563 0 00.444.19.838.838 0 00.569-.175.938.938 0 00.28-.383l.01-.935zm5.69-.522l.052-.666h-.034l-.311.744-1.48 2.454h-.413v-4.394h.632v2.611l-.052.64h.034l.29-.718 1.499-2.525h.412v4.381h-.632l.003-2.527zm7.374-1.507l.078-.93h-.034l-.282.867-1.243 2.661h-.219l-1.306-2.666-.261-.867h-.042l.123.93v4.031h-.629v-6.136h.551l1.48 3.016.22.718h.018l.211-.726 1.421-3.008h.577v6.136h-.655l-.008-4.026zm1.689-.089c.193-.112.402-.195.619-.245.252-.059.509-.088.768-.087.202-.008.404.03.59.11a.878.878 0 01.352.298c.086.129.143.275.168.428.026.168.039.337.039.507 0 .35 0 .692-.024 1.023-.023.332-.021.65-.021.948 0 .222 0 .428.021.619a3.5 3.5 0 00.084.538h-.481l-.149-.522h-.036a1.21 1.21 0 01-.4.407 1.24 1.24 0 01-.681.167 1.013 1.013 0 01-.783-.329 1.302 1.302 0 01-.303-.909 1.394 1.394 0 01.128-.629 1.07 1.07 0 01.36-.413c.167-.11.354-.187.551-.224.236-.046.475-.068.715-.065h.361c.015-.18.026-.342.026-.48a1.204 1.204 0 00-.152-.703.627.627 0 00-.54-.201 2.251 2.251 0 00-1.005.264l-.207-.502zm1.904 2.123c-.058 0-.118 0-.175-.013-.058-.013-.118 0-.175 0-.138 0-.276.01-.413.034-.126.02-.248.063-.36.125a.678.678 0 00-.261.235.716.716 0 00-.092.376.787.787 0 00.173.546.563.563 0 00.441.19.835.835 0 00.569-.174.931.931 0 00.282-.384l.011-.935zm2.611.026h-.324v1.972h-.632v-4.387h.632v1.98l.298-.124 1.07-1.856h.671l-1.044 1.76-.308.29.376.35 1.123 1.981h-.755l-1.107-1.966zm4.786 1.752a1.46 1.46 0 01-.498.246c-.192.053-.389.08-.588.08a1.42 1.42 0 01-.71-.164 1.238 1.238 0 01-.47-.462 2.28 2.28 0 01-.261-.728 4.968 4.968 0 01-.084-.943 3.07 3.07 0 01.397-1.71 1.306 1.306 0 011.146-.588c.198-.003.395.018.588.063a1.9 1.9 0 01.42.156l-.175.554a1.492 1.492 0 00-.762-.201.783.783 0 00-.716.415c-.187.409-.27.857-.24 1.306a4 4 0 00.052.673c.027.192.086.377.175.549.074.146.183.272.316.368.142.095.31.142.481.136a1.223 1.223 0 00.746-.261l.183.511zm2.873-2.305l.052-.666h-.037l-.303.744-1.48 2.454h-.413v-4.394h.632v2.611l-.055.64h.037l.287-.718 1.501-2.525h.41v4.381h-.629l-.002-2.527zm4.574-.079l.063-.833h-.037l-.261.744-.814 1.685h-.228l-.851-1.7-.235-.744h-.044l.07.825v2.61h-.569v-4.37h.629l.956 1.9.204.562.209-.587.885-1.883h.65v4.382h-.632l.005-2.59zm1.622-1.517c.192-.113.401-.196.619-.245a3.32 3.32 0 01.767-.087c.204-.008.406.03.593.11a.86.86 0 01.347.298c.087.129.145.275.17.428.025.168.037.337.037.507 0 .35 0 .692-.021 1.023-.021.332-.029.645-.029.946 0 .221 0 .428.021.618.014.182.042.361.084.538h-.484l-.148-.522h-.034c-.097.16-.229.294-.387.394-.207.12-.445.179-.684.167a1.002 1.002 0 01-.783-.329 1.302 1.302 0 01-.303-.908 1.394 1.394 0 01.128-.63c.081-.167.205-.31.36-.412.167-.111.354-.188.551-.225.236-.046.475-.068.716-.065h.357c.019-.18.029-.342.029-.48a1.253 1.253 0 00-.149-.703.645.645 0 00-.546-.2 2.283 2.283 0 00-.522.072c-.169.04-.332.105-.483.19l-.206-.485zm1.903 2.123c-.06 0-.117 0-.175-.013-.057-.013-.117 0-.174 0-.139 0-.277.01-.413.034-.127.02-.248.063-.36.125a.642.642 0 00-.248.235.68.68 0 00-.094.376.781.781 0 00.172.546.563.563 0 00.441.19.833.833 0 00.569-.174.931.931 0 00.282-.384v-.935zm4.523-.843h-.313v2.84h-.658v-6.136h.658v2.857l.308-.12 1.595-2.737h.755l-1.606 2.645-.308.28.36.352 1.794 2.854h-.833l-1.752-2.835zm3.261-1.28c.193-.113.402-.196.619-.245.251-.059.508-.087.765-.087.204-.008.406.03.593.11a.874.874 0 01.35.298c.087.128.144.275.167.428.027.168.04.337.039.507 0 .35 0 .692-.021 1.023-.021.332-.023.65-.023.948 0 .223.008.43.023.619.013.181.041.361.084.538h-.483l-.149-.522h-.029c-.096.16-.229.294-.386.394a1.25 1.25 0 01-.684.167 1.009 1.009 0 01-.784-.329 1.312 1.312 0 01-.303-.909 1.38 1.38 0 01.128-.629 1.05 1.05 0 01.361-.412 1.47 1.47 0 01.551-.225c.234-.046.473-.068.712-.065h.361c.017-.16.025-.32.026-.48a1.236 1.236 0 00-.149-.703.636.636 0 00-.543-.201 2.247 2.247 0 00-1.016.263l-.209-.488zm1.901 2.123c-.057 0-.115 0-.175-.013-.06-.013-.115 0-.175 0-.137 0-.274.01-.41.034-.126.02-.248.063-.36.125a.654.654 0 00-.261.235.716.716 0 00-.091.376.807.807 0 00.169.546.572.572 0 00.444.19.833.833 0 00.569-.174.938.938 0 00.28-.384l.01-.935zm4.868 3.11h-.439l-.105-1.112h-2.671v-4.387h.629V42.8h1.447v-3.812h.632V42.8h.509l-.002 1.687zm.613-5.222c.193-.114.401-.196.619-.246.251-.058.508-.087.765-.086.203-.008.406.03.593.11a.874.874 0 01.35.297c.087.129.144.275.167.428.026.168.04.337.039.507 0 .35 0 .692-.021 1.024-.021.331-.023.65-.023.948 0 .222.007.429.023.618.012.182.04.362.084.538h-.47l-.149-.522h-.037a1.17 1.17 0 01-.384.394c-.207.12-.444.178-.684.168a1.006 1.006 0 01-.783-.33 1.281 1.281 0 01-.303-.908 1.366 1.366 0 01.128-.63c.081-.166.204-.309.358-.412a1.5 1.5 0 01.548-.235c.235-.046.474-.068.713-.065h.36c.017-.16.026-.32.026-.48a1.227 1.227 0 00-.148-.703.64.64 0 00-.544-.201c-.18.003-.36.027-.535.073a1.86 1.86 0 00-.483.19l-.209-.477zm1.901 2.123c-.057 0-.117 0-.175-.014-.057-.013-.115 0-.175 0-.138 0-.276.011-.412.034a1.085 1.085 0 00-.358.126.638.638 0 00-.261.235.688.688 0 00-.092.376.786.786 0 00.17.545.562.562 0 00.444.191.837.837 0 00.569-.175.964.964 0 00.28-.384l.01-.934z" fill="#2C2C2C"/><path d="M15.312 20.859v-.075c0-1.318.01-1.897 1.492-2.225l4.635-1.03a.311.311 0 01.155-.133c.51-.207 1.961-1.046 2.916-.932 1.737.21 1.48.84.113 1.308-1.077.369-2.569.187-2.852.196h-.051a.343.343 0 01-.121-.022l-4.69 1.04c-1.121.249-1.125.721-1.13 1.797v.073h.32a.22.22 0 01.169.382.22.22 0 01-.168.058h-.075v7.954h.08a.221.221 0 01.215.115.221.221 0 01-.024.242.218.218 0 01-.148.08v10.212c0 1.144.556 2.074 1.243 2.074a.685.685 0 00.098-.008v.323a.105.105 0 01-.032.072.103.103 0 01-.073.028h-3.485a.104.104 0 01-.105-.1v-.318c.655-.058 1.178-.962 1.178-2.07 0-3.403-.027-6.81-.028-10.213a.22.22 0 01.045-.437h.079v-7.951h-.08a.22.22 0 01-.239-.22.22.22 0 01.24-.22h.323z" fill="#9E79B4"/><path d="M37.89 27.292c-.764 0-1.515.202-2.176.587l-.01-.01v-2.435c0-.643-.56-1.307-.9-1.821a1.71 1.71 0 10-1.465-.036c-.272.412-1.058 1.638-1.058 2.137 0 .369-.044 2.885.064 4.133l-1.433.845v-2.407c0-.644-.56-1.307-.899-1.823a1.71 1.71 0 10-1.465-.035c-.272.41-1.059 1.637-1.059 2.137 0 .364-.043 2.85.062 4.107l-1.448.853v-2.516c0-.644-.56-1.307-.897-1.822a1.71 1.71 0 10-1.465-.035c-.273.411-1.06 1.636-1.06 2.137 0 .374-.046 2.991.071 4.208l-.485.286a4.343 4.343 0 00-5.634 3.443 4.341 4.341 0 004.284 5.024c.391 0 1.45-.074 2.29-.45 3.886-1.732 11.138-6.848 13.228-8.082a4.341 4.341 0 101.46-8.428l-.005.003zm0 7.553c-.612 0-1.21-.175-1.727-.503-3.837 2.38-9.745 6.578-13.574 8.355-.407.19-.836.295-1.677.295a3.083 3.083 0 111.285-5.887l13.909-8.144a3.213 3.213 0 111.783 5.884h.001z" fill="#48AC37"/><path d="M34.054 5.235h-5.452V4.98a.139.139 0 00-.137-.136h-1.032a.137.137 0 00-.136.136v.254h-2.044c-1.244 0-1.14 6.431 0 6.431h8.801c1.146 0 1.253-6.431 0-6.431zm-.556 5.617h-7.681c-.912 0-.998-4.801 0-4.801h7.692c.99 0 .904 4.8-.006 4.8h-.005z" fill="#E43D3D"/><path d="M29.63 6.361a1.897 1.897 0 100 3.795 1.897 1.897 0 000-3.795zm0 3.15a1.253 1.253 0 110-2.505 1.253 1.253 0 010 2.506zm3.87-3.026h-1.033a.137.137 0 00-.137.137v.675c0 .075.062.136.137.136H33.5a.137.137 0 00.137-.136v-.675a.137.137 0 00-.137-.137z" fill="#E43D3D"/><path d="M49.618 7.012h-5.655l2.342-2.443a23.57 23.57 0 00-.73-.449l-2.817 2.892h-1.17l3.246-3.327c-.49-.276-.99-.537-1.496-.785L39.31 7.003l-2.115.01c-2.695.01-2.535 8.99-2.38 8.99h1.9a1.327 1.327 0 002.65 0h11.716a1.328 1.328 0 002.65 0h1.741a1.326 1.326 0 001.07-.545 30.287 30.287 0 00-2.473-3.78h-1.63V9.735a33.089 33.089 0 00-1.087-1.134v3.077h-3.31v-3.35h3.03c-.47-.453-.955-.892-1.455-1.316zM43.61 8.33h3.304v3.349H43.61v-3.35zm-4.451 0h3.304v3.349h-3.304v-3.35zm-2.169 0h1.135v3.349H36.99v-3.35z" fill="#0AB4DB"/><path d="M33.054 5.845v1.367a.645.645 0 01-1.288 0v-2.14a2.053 2.053 0 012.047-2.047h3.219l.017-.014 1.837-1.416a.491.491 0 01.6.777l-1.399 1.077.403 1.661c.033.06.057.124.071.19l.348 1.756a.643.643 0 11-1.262.25l-.219-1.103-.31 1.133A.643.643 0 1135.873 7l.31-1.151-3.13-.004zm-4.082-3.689h.508a1.37 1.37 0 01.487-.913L30.364 0c.541.407 2.053 1.699 1.988 2.625-.026.358-.415 1.024-1.137 1.024h-2.243a.75.75 0 010-1.501v.008zM36.216.477l-2.75 2.126a.31.31 0 01-.377-.485L35.411.323c.268.047.537.1.805.155V.477z" fill="#9E79B4"/><path d="M18.992 28.71c-.175-.633-.537-1.194-1.195-1.194H12.46l2.097-2.095-3.15-3.148-3.153 3.148 2.095 2.095H.071c-.03.367-.054.737-.071 1.109h2.815v3.18H.017c.086 1.476.28 2.942.58 4.389h.022l-.014.034c.052.255.11.508.169.761a.684.684 0 001.079-.795h.85a.682.682 0 101.234 0h.898a.684.684 0 101.233 0h6.324a.683.683 0 101.232 0h.847a.682.682 0 00.95.884.683.683 0 00.293-.885h.886a.682.682 0 101.234 0c.64-.014 1.022-.562 1.17-1.193l.795-3.41-.807-2.88zM7.084 31.806H3.892v-3.181h3.192v3.18zm4.291 0H8.181v-3.181h3.194v3.18zm.033-4.554l-1.833-1.83 1.833-1.833 1.832 1.832-1.832 1.831zm4.184 4.554h-3.194v-3.181h3.194v3.18zm2.205 0H16.68v-3.181h1.117v3.18z" fill="#F07F22"/><path d="M29.236 8.966a.693.693 0 01-.014.976c-.577.563-1.215 1.181-1.888 1.833h.814a.689.689 0 110 1.378h-2.146a.585.585 0 01-.092 0c-.622.595-1.251 1.202-1.885 1.81h1.34a.69.69 0 010 1.38h-2.781l-1.358 1.299c-.667.636-.838 1.21-.837 1.723v3.264h-2.884v-.012h-.101v-3.264c0-.513-.17-1.088-.835-1.724l-1.361-1.299h-2.78a.69.69 0 110-1.378h1.339l-1.884-1.81a.585.585 0 01-.091 0H9.653a.69.69 0 010-1.38h.814c-.674-.65-1.311-1.27-1.89-1.832a.69.69 0 01.963-.989c.61.596 1.22 1.192 1.827 1.788v-.597a.69.69 0 011.38 0v1.742a.67.67 0 01-.024.179l2.124 2.082v-1.243a.69.69 0 111.379 0v2.6l1.975 1.935v-3.73l-.022-.02a1555.172 1555.172 0 01-6.061-5.93H9.787a30.29 30.29 0 013.002-2.4v1.128c1.804 1.762 3.608 3.527 5.412 5.295V9.307l-2.22-2.164a.69.69 0 01.964-.987l1.256 1.223V5.166h-3.659a.693.693 0 01-.677-.552c.45-.287.906-.562 1.37-.826h1.598l-.572-.557c.421-.217.848-.425 1.28-.621.202.19.44.374.66.589V2.31c.457-.197.92-.383 1.391-.56v1.455c.533-.519 1.163-.86 1.163-1.512v-.346a29.509 29.509 0 013.598-.933.705.705 0 01-.156.23l-.963.933h.691a.69.69 0 010 1.378h-2.107l-.857.836h2.291a.69.69 0 110 1.38H19.6v2.22l1.243-1.223a.689.689 0 11.962.987L19.6 9.319v2.463a1421.37 1421.37 0 005.412-5.3V1.693a.69.69 0 111.38 0V5.13l1.075-1.049a.69.69 0 01.962.987l-1.344 1.314h1.37a.69.69 0 010 1.38h-2.786a4648.078 4648.078 0 01-6.061 5.929l-.022.02v3.73a910.08 910.08 0 001.982-1.936V12.9a.69.69 0 011.38 0v1.244l2.124-2.083a.679.679 0 01-.025-.178v-1.74a.69.69 0 011.38 0v.596l1.828-1.785a.693.693 0 01.976.011h.005z" fill="#48AC37"/><path d="M54.611 40.877l-.015.027-.662-.406-.757-.466.016-.025a12.373 12.373 0 012.186-3.595l.013.008.757.466.652.4a12.395 12.395 0 00-2.186 3.593l-.004-.002zm-2.968 4.851l.015-.025-.663-.406-.757-.466-.016.025a12.39 12.39 0 00-2.203 3.575l.012.008.755.466.653.4a12.352 12.352 0 012.206-3.582l-.002.005zm2.46-1.634a5.934 5.934 0 01-1.994 1.93 15.032 15.032 0 00-1.148 1.63 14.539 14.539 0 00-.995 1.92c1.416.64 3.826-.905 5.722-3.617.17-.245.335-.496.495-.759 1.955-3.194 2.412-6.501 1.088-7.563a14.903 14.903 0 00-1.258 1.76c-.349.566-.66 1.156-.932 1.764a5.998 5.998 0 01-.906 2.813l-.078.122h.006z" fill="#DA261D"/><path d="M56.484 35.305l-2.269-.057a.434.434 0 10-.021.867l2.269.057a.431.431 0 00.444-.422.434.434 0 00-.422-.445zm-2.16-19.235l.631 14.476a.324.324 0 01-.645.028l-.643-14.48c-.812.147-1.276.796-1.72 2.437l-4.506 20.107a.439.439 0 11-.857-.192l4.498-20.072c.286-1.659 1.338-3.147 2.953-3.147 1.502 0 2.538 1.087 2.981 2.755a.41.41 0 01.013.047l.007.034c.027.106.05.213.072.322l3.088 13.775c-.064.896-.168 1.78-.31 2.653l-3.65-16.333c-.391-1.612-.976-2.313-1.913-2.41zm-.05 15.09l1.452.39.067-.281a.962.962 0 011.874.44l-.455 1.947c-.124.532-.387 1.304-1.125 1.28l-1.424-.049c-.653 0-.61-.118-1.18.198l-1.069.592c-1.167.645-1.422-.588-.793-.94.63-.353 1.332-.795 1.956-1.089.477-.248 1.594.279 1.76-.427l.184-.777-1.48-.396a.454.454 0 01.235-.877l-.002-.01zm2.74-3.172a1.12 1.12 0 110 2.239 1.12 1.12 0 010-2.239z" fill="#E43D3D"/><path d="M25.288 54.272a5.864 5.864 0 01-10.905-.16 5.867 5.867 0 012.668-7.225v1.417a4.672 4.672 0 107.423 4.476l.814 1.492zm-5.97-10.716a1.58 1.58 0 011.573 1.578v1.045h2.884a.777.777 0 010 1.555h-2.883v1.213h3.824c.19 0 .377.05.541.147a.96.96 0 01.392.376l2.452 4.249a.979.979 0 11-1.695.98l-2.078-3.597h-5.006c-.121 0-.242-.02-.356-.061a1.583 1.583 0 01-1.225-1.535v-4.373a1.58 1.58 0 011.576-1.576v-.001zm.074-3.615a1.616 1.616 0 110 3.233 1.616 1.616 0 010-3.233z" fill="#AD4983"/><path d="M24.884 58.452h6.161l.013-2.619-5.93-.021 4.885-4.14-2.906-.032 3.641-3.352-1.628-.014 2.603-2.451.477-.459.18.179 2.894 2.73-1.627.015 3.64 3.352-2.905.031 4.891 4.136-5.654.01-.01 2.629h4.614a15.142 15.142 0 01-13.35.008l.011-.002z" fill="#48AC37"/><path d="M1.16 35.312l.013-.933 1.88.024-.013.94-1.88-.031zm2.819.037l.012-.932 1.88.025-.013.932-1.88-.025zm2.817.036l.013-.933 1.877.024-.01.94-1.88-.031zm2.818.037l.013-.932 1.879.025-.013.932-1.879-.025zm2.818.036l.012-.932.667.007h.466v1.676h-.932v-.748l-.213-.003zm.204 1.69h.932v1.878h-.932v-1.879zm0 2.817h.932v1.88h-.932v-1.88zm1.027 2.73v-.932h1.879v.933h-1.88zm2.818 0v-.932h1.879v.933h-1.88zm2.817 0v-.94h1.88v.933l-1.88.008zm2.818 0v-.94h1.88v.933l-1.88.008zm2.82 0v-.932h1.879v.933h-1.88zm2.817 0v-.932h1.88v.933h-1.88zm2.818 0v-.94h1.88v.933l-1.88.008zm2.818 0v-.932h1.877v.933H33.39zm2.818 0v-.932h1.877v.933h-1.877zm2.82-.047v-.933h1.88v.933h-1.88zm1.782.095h.932v1.879h-.932v-1.88zm.007 2.817h.94v1.88h-.932l-.008-1.88zm.01 2.818h.932v1.88h-.932v-1.88zm.004 2.818h.933v1.879h-.933v-1.88zm.01 2.818h.932v1.877h-.94l.008-1.877zm0 2.817h.94v1.01c-.31.13-.622.255-.933.374l-.007-1.384z" fill="#9E79B4"/><path d="M8.582 38.665c-3.164 0-5.732.738-5.732 1.65 0 .06.012.12.033.175l.398 2.755a31.156 31.156 0 001.615 2.899l-.128-.947c.652.128 1.31.214 1.973.26l.102 1.413a8.126 8.126 0 01-1.682-.311c.268.407.543.809.826 1.204.301.045.612.081.932.108l.084 1.147H6.94c.34.424.689.839 1.05 1.243l-.013-.188c.536.014 1.079 0 1.612-.03l-.086 1.224c-.177.014-.36.024-.548.03.494.51 1.006 1.001 1.535 1.476 1.233-.187 2.097-.548 2.192-.97 0-.017 0-.033.007-.048l.404-2.821c.028-.106.043-.215.046-.324l1.173-8.172a.593.593 0 00.005-.122c0-.913-2.568-1.651-5.734-1.651zm-3.97 5.43L4.37 42.31c.709.222 1.437.374 2.176.455l.12 1.685a9.636 9.636 0 01-2.052-.355zm-.465-3.44c.05-.448 2.02-.807 4.432-.807 1.929 0 3.575.228 4.18.548l-.027.02c-1.383 1.208-6.654 1.491-8.582.238h-.003zm5.506 8.364c-.583.05-1.168.069-1.753.055l-.08-1.149a17.06 17.06 0 001.912-.051l-.079 1.145zm.156-2.176c-.683.072-1.37.1-2.057.081l-.1-1.416c.752.022 1.504.005 2.253-.05l-.096 1.385zm.169-2.423a19.62 19.62 0 01-2.395.081l-.115-1.655c.876.046 1.754.02 2.625-.08l-.115 1.654zm1.71 6.062c0 .276-.51.519-1.294.67l.088-1.188c.452-.054.89-.126 1.305-.218l-.1.736zm.26-1.93c-.45.165-.916.282-1.39.349l.082-1.135c.49-.066.975-.161 1.453-.284l-.146 1.07zm.322-2.383c-.32.225-.876.405-1.554.533l.098-1.34c.56-.068 1.099-.155 1.6-.27l-.144 1.077zm.311-2.346a6.1 6.1 0 01-1.695.467l.12-1.674c.59-.1 1.17-.246 1.735-.435a.317.317 0 00.078-.045l-.238 1.687zM8.41 15.003c-.155 1.05-.504 2.316-.748 3.373a260.55 260.55 0 00-.747 3.327c-.386 1.778-.227 1.592-1.07 3.01l-1.543 2.585c-.281.467-.524.949-.192 1.555a1.243 1.243 0 001.398.58c.712-.204 1.29-1.476 1.775-2.3.512-.868 1.014-1.698 1.519-2.562.447-.768.606-2.852.862-3.264.52.497 1.582 1.72 2.116 2.313.679.755.44.265.766 1.936.179.917.332 2.133.576 2.99a1.253 1.253 0 00.883.891 1.267 1.267 0 001.301-.452c.45-.647.06-1.91-.137-2.904-.11-.56-.43-2.623-.612-2.953-.082-.155-1.458-1.742-1.623-1.944-.27-.334-.56-.622-.819-.965-.26-.33-.536-.646-.83-.947l.798-3.644c.065.054.027.015.088.092.392.497.322 1.11 1.046 1.614.55.384 1.97 1.4 2.474 1.71a.896.896 0 001.04-.044.833.833 0 00.156-1.055c-.185-.297-2.083-1.518-2.456-1.775-.373-.256-.264-.194-.573-.803l-1.424-2.798c-.668-1.333-1.924-1.53-3.175-.517l-1.937 1.557c-.185.141-1.46 1.173-1.53 1.273-.187.266-.481 1.796-.587 2.269-.121.549-.547 1.83-.238 2.265.31.433 1.284.696 1.555-.59.166-.777.334-1.526.499-2.301.155-.7.125-.529.548-.882.256-.237.533-.451.827-.64h.014zm2.558-7.597c-2.396.476-1.734 3.987.622 3.593 2.41-.4 1.699-4.055-.622-3.593zm2.342 24.011h1.885V29.92h-1.899l.014 1.497z" fill="#E21F2C"/><path d="M5.03 25.99h1.98l.214-.022V24.28l-.213-.032H5.037l-.008 1.743zm.738 5.427h1.88V29.92H5.775l-.007 1.497zm-3.769 0h1.88V29.92H2.005L2 31.417zm15.033 0h1.884V29.92h-1.873l-.01 1.497zm-.644-5.427h2.185v-1.735h-2.176l-.01 1.736z" fill="#E21F2C"/><path d="M45.978 46.959c.07.155 1.214 1.254 1.43 1.473.25.255.475.48.729.73.95.941 1.468 1.432.222 2.607-.762.717-1.46 1.441-2.205 2.13l-.73.732c-.19.18-.503.528-.834.621a1.089 1.089 0 01-1.334-1.378c.176-.537 1.755-1.735 2.074-2.207-2.176-.058-4.413 0-6.591 0-.622 0-4.442.088-4.862-.098a1.08 1.08 0 01-.633-1.014c.04-1.265 1.49-1.038 2.265-1.04H42.1c1.076 0 2.215.035 3.283 0-.117-.24-.45-.497-.65-.699-.932-.948-1.618-1.266-1.335-2.331l.017-.019.017-.02.086-.12a.868.868 0 01.126-.14c1.049-.978 1.95.577 2.33.789l.004-.016zm-1.624-3.317l.008.932-1.879.017-.008-.94 1.88-.01zm14.462-5.285v.94H56.94v-.94h1.877zm-2.818 0v.94H54.12v-.94H56zm-2.817 0v.94h-1.875v-.94h1.875zm-2.818 0v.94h-.52v.414h-.933V38.36l1.453-.002zm-1.453 2.297h.932l.01 1.88h-.933l-.01-1.88zm.014 2.818h.932v1.063h-.466l-1.28.011-.007-.932.811-.008.01-.134zm-1.752.146l.008.933-1.878.015-.007-.932 1.877-.016z" fill="#9E79B4"/><path d="M35.69 24.619a4.71 4.71 0 01.778-2.114c.27-.407 1.02-1.243 1.482-1.385.22.311 1.163 2.09 1.442 2.582.185.291.344.599.474.918l-4.176-.001zm-10.744-3.227c1.72 1.186 2.675 4.155 1.045 6.51-.16.224-.335.436-.526.633-.182.208-.39.39-.621.543-3.976 2.844-9.411-1.365-7.105-6.127 1.466-3.021 5.484-2.87 6.202-2.139-.1.268-1.051 1.909-1.256 2.262-.437.754-1.36 2.002-.622 2.331.541.241.777-.322.975-.688.296-.541 1.748-3.176 1.902-3.32l.006-.005zm14.04-.761c.755-.457 2.452-.237 3.226.068 2.915 1.147 3.986 4.778 2.196 7.249-2.706 3.73-8.292 1.99-8.72-2.215 1.118.011 2.24 0 3.358 0 1.009 0 2.728.263 2.292-.797-.242-.588-2.224-3.886-2.351-4.305zm-11.91-3.123l2.847 4.92c.466.848.943 1.633 1.416 2.488.33.607.31.812 1.176.805.535 0 1.345-.045 1.848.014.208.898.215 1.29.59 2.096a6.709 6.709 0 001.432 1.926c2.04 1.74 5.093 2.104 7.367.587 5.527-3.69 2.279-12.035-4.09-11.223-.496.064-.932.245-1.353.311l-1.195-2.12c-.168-.334-.01-.474.356-1.116.141-.247.466-.932.656-1.067.56 0 2.06.155 2.364-.184a.56.56 0 00-.156-.854c-.26-.122-3.481-.075-3.865-.063-.418.016-.707.212-.622.681.084.445.445.403.919.43l-.466.873h-8.351l1.448-2.622c.804-.022 1.623 0 2.428 0 1.088 0 .956-1.088.123-1.104-.805-.018-1.635 0-2.445 0-.963 0-.761.034-1.355 1.071-.608 1.063-1.147 2.081-1.763 3.12-.615 1.038-1.159 2.144-1.78 3.165-.98-.343-1.508-.584-2.732-.566a6.023 6.023 0 00-2.662.664 6.12 6.12 0 00-.621 10.528c5.666 3.81 12.575-3.374 8.176-8.907-.466-.584-.904-.864-1.2-1.166l1.51-2.687zm5.834 7.123c.028-.213 1.466-2.783 1.7-3.19.392-.683 1.443-2.735 1.75-3.166.179.155.854 1.423.942 1.71-.275.09-.912.62-1.102.79-.569.516-1.197 1.517-1.478 2.305-.674 1.896.297 1.519-1.812 1.554v-.003zm-1.052-1.026c-.5-.83-3.622-6.352-3.665-6.5l7.522.01-3.682 6.71-.175-.22z" fill="#A6237F"/><path d="M41.576 23.305a1.435 1.435 0 11.003 2.87 1.435 1.435 0 01-.003-2.87zm3.901 7.032v2.612a.837.837 0 11-1.67 0v-3.357a6.207 6.207 0 00-.299 1.94v9.22a.836.836 0 01-.817.834h-.04a.836.836 0 01-.817-.835v-6.447a.249.249 0 00-.242-.23.247.247 0 00-.241.23v6.449a.838.838 0 01-.818.834h-.04a.838.838 0 01-.818-.834v-9.22a6.119 6.119 0 00-.301-1.941v3.357a.836.836 0 11-1.67 0v-2.612c.155-2.977 1.386-3.857 3.885-3.782 2.502-.075 3.73.805 3.885 3.782h.003zm-2.805 11.25h-2.16 2.16zm7.818-4.888h-.391v4.064a.838.838 0 01-.817.835h-.039a.836.836 0 01-.818-.835v-4.324a11.48 11.48 0 01-1.418-.421l1.428-5.848a1.865 1.865 0 00-.064-.21l-.796 2.825c-.11.39-.379.765-.89.631-.804-.21-.457-1.15-.311-1.588.511-1.598.709-2.916 1.44-4.148.294-.494.933-.832 2.44-.802h.243c1.503-.03 2.145.31 2.439.802.733 1.232.932 2.55 1.44 4.148.14.438.485 1.378-.31 1.588-.512.134-.777-.24-.89-.63l-.798-2.826a1.865 1.865 0 00-.064.21l1.428 5.848c-.463.17-.937.312-1.419.421v4.313a.836.836 0 01-.816.835h-.046a.836.836 0 01-.818-.835v-4.064h-.146l-.008.01zm.982 4.888h-2.209 2.209zm-1.013-17.942a1.435 1.435 0 11.003 2.87 1.435 1.435 0 01-.003-2.87z" fill="#F07F22"/><path d="M25.853 43.996c.458-.139.735-.243 1.224-.243l12.383-.015c.58 0 .721-.084 1.26-.296l1.78-.698a.51.51 0 11.37.947l-1.907.747c-.423.165-.676.311-1.133.311a1.044 1.044 0 11-1.174 0H28.71a1.044 1.044 0 11-1.176 0h-.522a1.242 1.242 0 00-.467.08l-.407.122a.502.502 0 01-.287-.96l.003.005zm-.084-5.583h.017a.489.489 0 10.977 0 .49.49 0 10.978 0h.015a.515.515 0 00.488.5.496.496 0 00.467-.355.157.157 0 00.059.01.496.496 0 00.457.346.518.518 0 00.49-.51.514.514 0 00.489.51.549.549 0 000-1.088.466.466 0 00-.35.163l-.02-.023c.204-.415.117-1.02-.022-1.648-.13-.594-.289-1.385-.356-1.442-.175-.156-1.666-.213-1.865-.078-.199.135-.224.598-.562.933-.608.613-2.472.58-2.71 1.524a.846.846 0 00.018.566h-.04a.548.548 0 000 1.088.514.514 0 00.487-.485.489.489 0 00.975 0l.008-.01z" fill="#0AB4DB"/><path d="M46.205 34.693v.398h1.382a.855.855 0 110 1.71h-1.382v1.302h2.311a.585.585 0 01.566.599.598.598 0 01-.393.568.206.206 0 010 .055v4.1a.298.298 0 01-.516.225.298.298 0 01-.08-.225v-4.131h-.665v2.709a.299.299 0 01-.596 0v-2.71H31.684v2.71a.298.298 0 11-.596 0v-2.71h-.666v4.133a.299.299 0 01-.596 0v-4.133a.6.6 0 01.05-1.194h2.314v-1.302h-1.38a.855.855 0 110-1.71h1.38v-.397h-1.38a.855.855 0 110-1.71h16.786a.855.855 0 010 1.71l-1.39.004zM45.61 38.1v-1.303H32.785V38.1h12.824zm-12.825-3.01h12.824v-.398H32.785v.398z" fill="#F8AA38"/><path d="M48.367 18.258v.398a.983.983 0 01-.98.98h-4.974a.984.984 0 01-.98-.98v-4.647h7.034c1.302 0 2.359.943 2.359 2.106 0 1.162-1.057 2.107-2.36 2.107h-.104l.005.036zm-9.524 1.893h12.249a1.375 1.375 0 01-1.373 1.372h-9.504a1.376 1.376 0 01-1.372-1.372zm9.524-5.493v2.915h.104c.905 0 1.637-.653 1.637-1.461 0-.809-.732-1.461-1.637-1.461h-.104v.007z" fill="#FEEB17"/><path d="M9.459 31.417h1.883V29.92H9.445l.014 1.497zM1.354 25.99H3.32l.22-.024V24.28l-.21-.032H1.348l.005 1.742zm22.812 0h1.976l.211-.024V24.28l-.21-.032H24.17l-.003 1.742zm-3.778 0h1.975l.213-.024V24.28l-.211-.032H20.39l-.003 1.742z" fill="#E21F2C"/></symbol><symbol viewBox="0 0 12 12" id="decline" xmlns="http://www.w3.org/2000/svg"><path d="M1.333 1.333L6 6m4.667 4.667L6 6m0 0l4.667-4.667-9.334 9.334"/></symbol><symbol viewBox="0 0 20 20" id="edit" xmlns="http://www.w3.org/2000/svg"><path d="M11.341 10.073a1 1 0 00-1.414-1.414l1.414 1.414zm-5.898 3.07a1 1 0 101.414 1.414l-1.414-1.415zm-3.776-.079h-1 1zm0 5h1-1zM18.07 6.042l-.708.707.708-.707zm-4.113-4.113l.707-.707-.707.707zM7.126 18.255l-.707-.707.707.707zM18.07 7.31l.707.707-.707-.707zM1.745 12.874l-.707-.707.707.707zM12.69 1.93l-.707-.707.707.707zM9.927 8.66l-4.484 4.483 1.414 1.415 4.484-4.484-1.414-1.414zm-9.26 4.405v5h2v-5h-2zm6.269 4.27h-5v2h5v-2zm11.842-12l-4.112-4.112-1.415 1.414 4.112 4.113 1.415-1.414zM7.833 18.962l8.889-8.889-1.415-1.414-8.888 8.888 1.414 1.415zm8.889-8.889l2.056-2.056-1.415-1.414-2.056 2.056 1.415 1.414zm-14.27 3.508l8.89-8.888-1.415-1.415-8.889 8.889 1.415 1.414zm8.89-8.888l2.055-2.057-1.414-1.414-2.056 2.056 1.414 1.415zm5.38 3.966l-5.38-5.38-1.415 1.414 5.38 5.38 1.415-1.414zM.667 18.064c0 .701.568 1.27 1.269 1.27v-2a.73.73 0 01.73.73h-2zm2-5c0 .194-.077.38-.214.517l-1.415-1.414a1.27 1.27 0 00-.371.897h2zM17.363 6.75a.103.103 0 010-.146l1.415 1.414c.74-.74.74-1.942 0-2.682l-1.415 1.414zM6.936 19.333c.336 0 .659-.133.897-.371l-1.414-1.415a.73.73 0 01.517-.214v2zm7.73-18.11a1.897 1.897 0 00-2.683 0l1.414 1.413a.103.103 0 01-.146 0l1.415-1.414z"/></symbol><symbol viewBox="0 0 28 28" id="heat" xmlns="http://www.w3.org/2000/svg"><path fill-rule="evenodd" clip-rule="evenodd" d="M24.442 15.934C26.581 14.456 28 11.855 28 8.893 28 4.29 24.574.56 20.349.56c-2.302 0-4.367 1.107-5.77 2.859a9.534 9.534 0 00-.286-.004c-5.647 0-10.225 4.991-10.225 11.149 0 .794.076 1.568.221 2.315C1.855 17.325 0 19.625 0 22.395c0 3.09 2.307 5.594 5.152 5.594 2.117 0 3.935-1.385 4.728-3.366a9.49 9.49 0 004.413 1.09c5.222 0 9.53-4.268 10.15-9.78z" fill-opacity=".22"/><path fill-rule="evenodd" clip-rule="evenodd" d="M21.772 12.106c.997-.673 1.657-1.85 1.657-3.19 0-2.09-1.607-3.785-3.59-3.785-1.265 0-2.377.69-3.017 1.733a4.94 4.94 0 00-.234-.005c-2.867 0-5.191 2.481-5.191 5.543 0 3.06 2.324 5.542 5.191 5.542s5.191-2.481 5.191-5.542c0-.1-.002-.198-.007-.296zM5.477 24.56c1.447 0 2.62-1.238 2.62-2.765 0-1.527-1.173-2.764-2.62-2.764s-2.62 1.238-2.62 2.764c0 1.527 1.173 2.765 2.62 2.765z" fill-opacity=".72"/></symbol><symbol fill="none" viewBox="0 0 176 32" id="hq" xmlns="http://www.w3.org/2000/svg"><path d="M24.867 23.594h-6.543V.161H12.64v23.433H6.033V.161H.345v29.117h30.21V.161h-5.688v23.433zm33.697 5.688h5.684v-6.544h6.543v6.544h5.688V.165H58.564v29.117zm12.227-23.43v11.199h-6.543V5.853h6.543zm29.448 5.512H88.008V5.853h12.231V.165H82.324v29.117h17.915V11.364zm-5.67 12.23h-6.561v-6.543h6.562v6.543zM54.408.165v5.684h-6.907v23.43h-5.688V5.848h-7.107V.165h19.702zm62.615 7.471V6.044h-5.098V.165h.98v4.974h3.225V.165h.964v4.974h.868v2.497h-.939zM122.181 0c2.253 0 3.101 1.85 2.733 3.518h-4.681c.124 1.238 1.239 1.753 2.425 1.753a4.133 4.133 0 001.945-.462v.954a4.71 4.71 0 01-2.084.428c-1.738 0-3.258-.992-3.258-3.086A2.927 2.927 0 01122.181 0zm.064.908c-1.006 0-1.937.601-2.012 1.754h3.81c.087-.612-.304-1.738-1.798-1.738V.908zm4.61 5.136V.165h.98V2.65h3.405V.165h.98v5.879h-.98V3.559h-3.405v2.485h-.98zm9.126 0V1.07h-2.169V.165h5.304v.905h-2.155v4.974h-.98zm8-6.044c1.678 0 2.94 1.325 2.94 3.09 0 1.764-1.262 3.086-2.94 3.086a2.89 2.89 0 01-2.279-1.03v3.579h-.979V.165h.882v.98A3.004 3.004 0 01143.981 0zm-.109.909a2.385 2.385 0 00-2.17 1.445v1.471a2.391 2.391 0 002.17 1.446 2.045 2.045 0 002.069-2.181 2.052 2.052 0 00-1.25-2.007 2.047 2.047 0 00-.819-.16V.91zm-31.947 16.765v-5.879h4.302v.905h-3.322v4.974h-.98zm8.417-6.036c1.606 0 3.138 1.08 3.138 3.09 0 2.008-1.532 3.085-3.138 3.085-1.607 0-3.135-1.077-3.135-3.086 0-2.008 1.543-3.09 3.135-3.09zm0 .934a2.047 2.047 0 00-2.155 2.155 2.157 2.157 0 003.651 1.468 2.157 2.157 0 00.526-2.309 2.046 2.046 0 00-2.022-1.306v-.008zm8.296-.934c1.679 0 2.944 1.325 2.944 3.09 0 1.764-1.265 3.085-2.944 3.085a2.902 2.902 0 01-2.278-1.028v3.577h-.98v-8.566h.882v.968a3.029 3.029 0 012.376-1.126zm-.108.908a2.384 2.384 0 00-2.17 1.446v1.471a2.378 2.378 0 002.17 1.446 2.045 2.045 0 002.079-2.174 2.044 2.044 0 00-2.079-2.181v-.008zm7.684-.908c1.603 0 3.135 1.08 3.135 3.09 0 2.008-1.532 3.085-3.135 3.085-1.603 0-3.138-1.077-3.138-3.086 0-2.008 1.543-3.09 3.138-3.09zm0 .934a2.048 2.048 0 00-2.159 2.155 2.162 2.162 0 002.157 2.069 2.156 2.156 0 002.157-2.069 2.042 2.042 0 00-2.155-2.147v-.008zm4.287 6.694v-2.474h.785c.751-1.299 1.029-2.804 1.006-4.997h4.385v4.997h.86v2.474h-.958v-1.592h-5.12v1.592h-.958zm1.851-2.474h3.345v-4.13h-2.463a9.63 9.63 0 01-.882 4.13zm9.656-5.155a3.325 3.325 0 011.813.481v.954a2.807 2.807 0 00-1.689-.526c-1.126 0-2.328.638-2.328 2.181 0 1.543 1.149 2.181 2.301 2.181a3.56 3.56 0 001.78-.47v.98a4.303 4.303 0 01-1.911.402c-1.543 0-3.146-.968-3.146-3.063s1.637-3.12 3.18-3.12zm3.787 6.037v-5.879h.98v2.448h1.19l1.877-2.448h1.127l-2.23 2.929 2.5 2.95h-1.153l-2.155-2.522h-1.156v2.522h-.98zm6.9 0v-5.879h.98v4.299l3.6-4.299h.834v5.88h-.98v-4.3l-3.6 4.3h-.834zm12.536-5.878l-2.155 2.845 2.278 3.026h-1.126l-1.715-2.328-1.727 2.328h-1.127l2.29-3.026-2.166-2.853h1.127l1.603 2.166 1.595-2.166 1.123.008zm-63.306 17.508v-5.879h5.368v5.88h-.983V24.33h-3.405v4.974h-.98zm10.932-6.028c1.678 0 2.94 1.325 2.94 3.09 0 1.764-1.262 3.085-2.94 3.085a2.883 2.883 0 01-2.279-1.029V32h-.979v-8.574h.874v.976a3.01 3.01 0 012.384-1.126zm-.112.908a2.382 2.382 0 00-2.167 1.445v1.472a2.385 2.385 0 002.167 1.43 2.043 2.043 0 001.955-1.35c.096-.266.136-.549.117-.83a2.057 2.057 0 00-.564-1.535 2.056 2.056 0 00-1.508-.632zm7.684-.909c1.603 0 3.135 1.082 3.135 3.09 0 2.009-1.532 3.086-3.135 3.086-1.603 0-3.135-1.078-3.135-3.086s1.543-3.09 3.135-3.09zm0 .931a2.157 2.157 0 00-2.121 2.578 2.158 2.158 0 004.276-.419 2.04 2.04 0 00-.596-1.56 2.044 2.044 0 00-1.559-.599zm7.561-.931c2.252 0 3.101 1.851 2.733 3.518h-4.682c.124 1.239 1.239 1.753 2.426 1.753a4.13 4.13 0 001.937-.477v.954a4.72 4.72 0 01-2.084.428c-1.738 0-3.258-.991-3.258-3.086a2.932 2.932 0 01.798-2.176 2.92 2.92 0 012.13-.914zm.06.909c-1.002 0-1.934.6-2.009 1.753h3.811c.086-.627-.308-1.753-1.802-1.753zm4.598 5.12v-5.879h.98v2.448h1.187l1.877-2.448h1.126l-2.23 2.928 2.5 2.951h-1.152l-2.159-2.522h-1.149v2.522h-.98zm8.369 0V24.33h-2.17v-.905h5.304v.905h-2.143v4.974h-.991zm7.279-6.029c1.603 0 3.134 1.082 3.134 3.09 0 2.009-1.531 3.086-3.134 3.086s-3.139-1.078-3.139-3.086 1.547-3.09 3.139-3.09zm0 .931a2.162 2.162 0 00-1.997 1.33 2.157 2.157 0 003.787 2.029c.238-.355.365-.773.365-1.2a2.054 2.054 0 00-2.155-2.159zm5.038 5.098v-5.879h3.221c1.028 0 1.813.548 1.813 1.592a1.401 1.401 0 01-.785 1.299 1.411 1.411 0 01.969 1.359c0 .968-.627 1.63-1.9 1.63h-3.318zm.98-3.378h2.143c.514 0 .92-.196.92-.796a.803.803 0 00-.57-.806.808.808 0 00-.35-.028h-2.143v1.63zm0 2.537h2.203c.612 0 1.055-.184 1.055-.833 0-.65-.529-.86-1.017-.86h-2.253l.012 1.693z" fill="#100C08"/></symbol><symbol viewBox="0 0 18 18" id="layers" xmlns="http://www.w3.org/2000/svg"><path fill-rule="evenodd" clip-rule="evenodd" d="M16.985 5.71L10.842.934a3 3 0 00-3.684 0L1.015 5.71a1 1 0 000 1.578l6.143 4.779a3 3 0 003.684 0l6.143-4.779a1 1 0 000-1.578zm-.3 4.767a1 1 0 00-1.227 0l-4.616 3.59a3 3 0 01-3.684 0l-4.615-3.59a1 1 0 00-1.228 0l-.3.234a1 1 0 000 1.579l6.143 4.777a3 3 0 003.684 0l6.143-4.778a1.001 1.001 0 000-1.578l-.3-.234z"/></symbol><symbol viewBox="0 0 20 24" id="location" xmlns="http://www.w3.org/2000/svg"><path fill-rule="evenodd" clip-rule="evenodd" d="M10.45 23.194c2.234-2.086 9.05-8.823 9.05-13.363C19.5 4.401 15.135 0 9.75 0S0 4.402 0 9.831c0 4.54 6.816 11.277 9.05 13.363a1.017 1.017 0 001.4 0zm-.7-9.11a4.333 4.333 0 100-8.667 4.333 4.333 0 000 8.666z"/></symbol><symbol viewBox="0 0 18 19" id="location-arrow" xmlns="http://www.w3.org/2000/svg"><path d="M16.07.677L1.324 5.852c-.847.297-.904 1.473-.09 1.85l6.15 2.854 2.889 6.975c.354.855 1.578.812 1.872-.065L17.35 1.938A1 1 0 0016.07.677z"/></symbol><symbol viewBox="0 0 32 32" id="man" xmlns="http://www.w3.org/2000/svg"><path d="M15.972 0c4.493 0 8.284 1.542 11.37 4.628C30.448 7.734 32 11.524 32 16c0 4.495-1.524 8.238-4.573 11.228C24.19 30.409 20.371 32 15.972 32c-4.325 0-8.077-1.572-11.258-4.715C1.572 24.142 0 20.381 0 16c0-4.38 1.572-8.171 4.715-11.371C7.8 1.543 11.552 0 15.971 0zm.057 2.886c-3.639 0-6.714 1.276-9.229 3.829C4.19 9.381 2.886 12.476 2.886 16c0 3.544 1.295 6.61 3.885 9.2 2.59 2.59 5.676 3.885 9.256 3.885 3.562 0 6.668-1.303 9.315-3.914 2.515-2.419 3.771-5.476 3.771-9.171 0-3.639-1.276-6.733-3.828-9.286-2.552-2.552-5.637-3.828-9.256-3.828zm4.285 9.142v6.543h-1.828v7.771h-4.972v-7.77h-1.827v-6.543c0-.287.1-.529.299-.729.2-.2.444-.3.728-.3h6.572c.267 0 .505.1.714.3.209.2.314.443.314.728zm-6.543-4.114c0-1.503.742-2.256 2.229-2.256 1.486 0 2.229.752 2.229 2.256 0 1.486-.744 2.229-2.229 2.229-1.486 0-2.229-.743-2.229-2.229z" fill="#18334A" fill-opacity=".5"/></symbol><symbol fill="none" viewBox="0 0 20 20" id="map" xmlns="http://www.w3.org/2000/svg"><g clip-path="url(#arclip0)"><path d="M.833 5v13.333L6.667 15l6.666 3.333L19.167 15V1.667L13.333 5 6.667 1.667.833 5z" stroke="#18334A" stroke-width="2" stroke-linecap="round" stroke-linejoin="round"/><path d="M6.667 1.667V15M13.333 5v13.333"/></g><defs><clipPath id="arclip0"><path d="M0 0h20v20H0z"/></clipPath></defs></symbol><symbol viewBox="0 0 24 14" id="motorbike" xmlns="http://www.w3.org/2000/svg"><path d="M8.145 10.65h5.184l2.981-5.873 1.083 2.065a3.735 3.735 0 10.994-.49L15.054.001h-2.502v1.107h1.833l.556 1.06h-4.74l-.83 1.936H2.364l-.83 1.476 4.576-.077c.897.571 2.496 1.83 2.826 3.673h-.79a3.735 3.735 0 00-7.396.738 3.73 3.73 0 002.116 3.361c.49.237 1.038.373 1.619.374a3.735 3.735 0 003.66-2.997zm9.941-2.485l1.124 2.143.98-.513-1.1-2.1a2.262 2.262 0 012.685 2.217 2.26 2.26 0 01-2.26 2.26 2.262 2.262 0 01-2.259-2.26 2.26 2.26 0 01.83-1.747zM6.617 10.651a2.261 2.261 0 01-2.132 1.52 2.262 2.262 0 01-2.26-2.258 2.263 2.263 0 012.26-2.26 2.262 2.262 0 012.132 1.522H4.392v1.476h2.225z" fill="#fff"/><path d="M16.938 2.277c.138.468.566.812 1.08.812V.83a1.13 1.13 0 00-1.13 1.13c0 .112.02.217.05.318z" fill="#fff"/></symbol><symbol viewBox="0 0 11 22" id="pedestrian" xmlns="http://www.w3.org/2000/svg"><path d="M7.013 1.017c.566 1.18.437 2.882-.386 3.294-.822.44-2.134-.576-2.648-1.757-.36-.906-.026-1.977.797-2.389.849-.411 1.826-.027 2.237.852zM10.24 17.26c.284 1.38.611 2.966.733 3.662.257 1.346-1.389 1.318-1.671.494-.232-.768-1.132-4.585-1.286-5.244 0-.055-.026-.11-.077-.164l-3.831-4.201c-.129-.137-.257-.33-.257-.522V7.167c0-.138-.052-.192-.129-.138l-1.157.824c-.206.11-.257.247-.257.687v3.02c0 1.016-1.543.96-1.543 0L.842 7.44c0-.22.103-.439.283-.549l3.343-2.196c.463-.302 1.028-.192 1.388.22l.9 1.098c.129.192.18.631.18.878v4.942l2.674 2.828c.077.11.154.247.18.385.074.394.252 1.254.45 2.214z" fill="#fff"/><path d="M7.707 10.736V8.814c0-.22.18-.274.258-.274.147.177.435.536.765.948.589.734 1.313 1.638 1.626 1.99.565.63-.412 1.674-.977 1.07-.283-.302-1.672-1.812-1.672-1.812zM3.953 13.042c-.178.345-.622 1.22-1.147 2.258C1.739 17.404.338 20.17.148 20.483c-.643 1.098.977 2.114 1.594 1.098.386-.631 3.78-7.166 3.78-7.166l-1.363-1.4c-.051-.082-.154-.055-.206.027z" fill="#fff"/></symbol><symbol viewBox="0 0 16 12" id="photo" xmlns="http://www.w3.org/2000/svg"><path fill-rule="evenodd" clip-rule="evenodd" d="M14.943 11.61c.25-.25.39-.59.39-.943V3.333A1.334 1.334 0 0014 2h-2.667L10 0H6L4.667 2H2A1.333 1.333 0 00.667 3.333v7.334A1.333 1.333 0 002 12h12c.354 0 .693-.14.943-.39zm-4.276-4.943a2.667 2.667 0 11-5.334 0 2.667 2.667 0 015.334 0z"/></symbol><symbol fill="none" viewBox="0 0 36 50" id="pin" xmlns="http://www.w3.org/2000/svg"><path fill-rule="evenodd" clip-rule="evenodd" d="M18 50c2.21 0 4-.895 4-2s-1.79-2-4-2-4 .895-4 2 1.79 2 4 2z" fill="#18334A"/><rect x="17" y="30" width="2" height="18" rx="1" fill="#18334A"/><path d="M17.89 0h.22c3.768 0 6.962.752 9.602 2.164a14.72 14.72 0 016.124 6.124C35.248 10.928 36 14.122 36 17.89v.22c0 3.768-.752 6.962-2.164 9.602a14.72 14.72 0 01-6.124 6.124C25.072 35.248 21.878 36 18.11 36h-.22c-3.768 0-6.963-.752-9.602-2.164a14.72 14.72 0 01-6.124-6.124C.814 25.187.067 22.155.004 18.6L0 17.889c0-3.767.752-6.961 2.164-9.601a14.72 14.72 0 016.124-6.124C10.928.752 14.122 0 17.89 0z" fill="#18334A"/><path d="M17.926 6h.148c2.511 0 4.641.501 6.401 1.443a9.814 9.814 0 014.082 4.082C29.5 13.285 30 15.415 30 17.926v.148c0 2.511-.501 4.641-1.442 6.401a9.814 9.814 0 01-4.083 4.082C22.715 29.5 20.585 30 18.074 30h-.148c-2.511 0-4.641-.501-6.401-1.442a9.814 9.814 0 01-4.082-4.083c-.9-1.684-1.399-3.705-1.44-6.076L6 17.926c0-2.511.501-4.641 1.443-6.401a9.813 9.813 0 014.082-4.082C13.285 6.5 15.415 6 17.926 6z" fill="#F4F8FA"/><path d="M17.963 12h.074c1.256 0 2.32.25 3.2.721.88.47 1.571 1.162 2.042 2.041.47.88.721 1.945.721 3.201v.074c0 1.256-.25 2.32-.721 3.2a4.906 4.906 0 01-2.041 2.042c-.88.47-1.945.721-3.201.721h-.074c-1.256 0-2.32-.25-3.2-.721a4.906 4.906 0 01-2.042-2.041c-.45-.842-.699-1.853-.72-3.038L12 17.963c0-1.256.25-2.32.721-3.2a4.906 4.906 0 012.041-2.042c.88-.47 1.945-.721 3.201-.721zM18 43.998s.417-1.33 1-2.998c0-2.223 2.056-4.863 6-6H11.018C14.95 36.137 17 38.836 17 41c.581 1.668 1 2.998 1 2.998z" fill="#18334A"/></symbol><symbol viewBox="0 0 54 37" id="pointer" xmlns="http://www.w3.org/2000/svg"><path d="M39 10H15c4.2 0 9 7 12 7s7.8-7 12-7z"/></symbol><symbol viewBox="0 0 17 19" id="profile" xmlns="http://www.w3.org/2000/svg"><path d="M13.05 11.327c-1.265 1.9-2.936 3.23-4.907 3.23s-3.643-1.33-4.907-3.232C1.895 11.868 0 12.897 0 14.584c0 1.657.794 3.164 2.382 3.638 1.372.41 3.308.778 5.76.778 2.453 0 4.39-.369 5.762-.778 1.588-.475 2.382-1.981 2.382-3.638 0-1.684-1.896-2.714-3.236-3.257z"/><path d="M3.798 9.633C3.114 8.02 2.714 6.074 2.714 4.108 2.714 1.875 5.104 0 8.143 0c3.038 0 5.428 1.875 5.428 4.108 0 1.966-.4 3.913-1.083 5.525l-.004-.002c-1.246 2.314-2.796 3.57-4.341 3.57-1.545 0-3.095-1.256-4.341-3.57l-.004.002z"/></symbol><symbol viewBox="0 0 24 24" id="profile-circle" xmlns="http://www.w3.org/2000/svg"><path fill-rule="evenodd" clip-rule="evenodd" d="M2 12C2 6.477 6.477 2 12 2s10 4.477 10 10c0 2.261-.75 4.347-2.016 6.022a3.12 3.12 0 00.087-.706c0-1.453-1.831-2.372-3.223-2.888-1.154 1.894-2.824 3.322-4.848 3.322-2.022 0-3.69-1.424-4.844-3.314-1.355.516-3.116 1.433-3.116 2.88 0 .287.045.592.128.902A9.957 9.957 0 012 12zM12 0C5.373 0 0 5.373 0 12s5.373 12 12 12 12-5.373 12-12S18.627 0 12 0zm4.946 7.744c0 2.217-.548 4.414-1.46 6.035-1.02 1.613-2.257 2.471-3.486 2.471s-2.466-.858-3.486-2.471c-.912-1.621-1.459-3.818-1.459-6.035C7.055 5.705 9.225 4 12 4c2.774 0 4.946 1.705 4.946 3.744z"/></symbol><symbol viewBox="0 0 31.357 31.357" id="question" xmlns="http://www.w3.org/2000/svg"><path d="M15.255 0c5.424 0 10.764 2.498 10.764 8.473 0 5.51-6.314 7.629-7.67 9.62-1.018 1.481-.678 3.562-3.475 3.562-1.822 0-2.712-1.482-2.712-2.838 0-5.046 7.414-6.188 7.414-10.343 0-2.287-1.522-3.643-4.066-3.643-5.424 0-3.306 5.592-7.414 5.592-1.483 0-2.756-.89-2.756-2.584C5.339 3.683 10.084 0 15.255 0zm-.211 24.406a3.492 3.492 0 013.475 3.476 3.49 3.49 0 01-3.475 3.476 3.49 3.49 0 01-3.476-3.476 3.491 3.491 0 013.476-3.476z"/></symbol><symbol viewBox="0 0 20 20" id="search" xmlns="http://www.w3.org/2000/svg"><path d="M13.5 13.5l5 5m-3-10a7 7 0 11-14 0 7 7 0 0114 0z"/></symbol><symbol viewBox="0 0 24 20" id="telegram" xmlns="http://www.w3.org/2000/svg"><path d="M1.147 9.61l5.184 1.881 2.007 6.276c.13.402.634.551.967.284l2.89-2.288a.884.884 0 011.052-.031l5.21 3.68c.36.254.87.062.96-.358l3.82-17.865c.099-.46-.37-.845-.82-.674L1.144 8.498a.589.589 0 00.004 1.111zm6.867.883l10.133-6.07c.18-.11.37.131.212.271l-8.36 7.559a1.678 1.678 0 00-.536 1.006l-.284 2.053c-.036.275-.432.302-.513.035l-1.093-3.742a.973.973 0 01.44-1.112z" fill="#fff"/></symbol><symbol viewBox="0 0 22 18" id="twitter" xmlns="http://www.w3.org/2000/svg"><path d="M21.4 2.55a8.519 8.519 0 01-2.451.672A4.275 4.275 0 0020.825.86a8.556 8.556 0 01-2.71 1.036 4.268 4.268 0 00-7.271 3.891 12.115 12.115 0 01-8.797-4.46 4.257 4.257 0 00-.577 2.147c0 1.48.753 2.787 1.898 3.551a4.259 4.259 0 01-1.933-.533v.053a4.268 4.268 0 003.423 4.184 4.269 4.269 0 01-1.927.074 4.273 4.273 0 003.987 2.964 8.559 8.559 0 01-6.319 1.767 12.081 12.081 0 006.542 1.917c7.85 0 12.14-6.502 12.14-12.142 0-.184-.003-.368-.011-.552A8.684 8.684 0 0021.4 2.55z" fill="#fff"/></symbol><symbol viewBox="0 0 20 16" id="videocamera" xmlns="http://www.w3.org/2000/svg"><path d="M14.583 12.98l2.775 1.648c.376.228.818.372 1.216.372.862 0 1.426-.432 1.426-1.055v-7.89C20 5.433 19.436 5 18.574 5c-.398 0-.84.144-1.216.372l-2.775 1.642v5.967z"/><path fill-rule="evenodd" clip-rule="evenodd" d="M13.333 6.667a2.5 2.5 0 00-2.5-2.5H2.5a2.5 2.5 0 00-2.5 2.5v6.666a2.5 2.5 0 002.5 2.5h8.333a2.5 2.5 0 002.5-2.5V6.667z"/></symbol><symbol viewBox="0 0 19 20" id="warning" xmlns="http://www.w3.org/2000/svg"><path fill-rule="evenodd" clip-rule="evenodd" d="M9.521.833c1.895 0 3.546.387 4.904 1.114a7.572 7.572 0 013.15 3.15C18.3 6.455 18.688 8.105 18.688 10c0 1.895-.387 3.546-1.113 4.904a7.573 7.573 0 01-3.15 3.15c-1.358.726-3.009 1.113-4.904 1.113s-3.545-.387-4.903-1.113a7.572 7.572 0 01-3.15-3.15C.74 13.546.354 11.895.354 10s.387-3.545 1.114-4.903a7.572 7.572 0 013.15-3.15C5.976 1.22 7.626.833 9.52.833zm-1.25 13.75a1.25 1.25 0 112.5 0 1.25 1.25 0 01-2.5 0zM9.521 3.75c-.892 0-1.59.77-1.5 1.659l.584 5.845a.92.92 0 001.832 0l.585-5.845a1.508 1.508 0 00-1.5-1.659z"/></symbol><symbol viewBox="0 0 22 22" id="wheel" xmlns="http://www.w3.org/2000/svg"><path d="M11 0C4.95 0 0 4.95 0 11s4.95 11 11 11 11-4.95 11-11S17.05 0 11 0zM2.338 7.15C3.85 3.85 7.15 1.65 11 1.65c3.85 0 7.15 2.2 8.663 5.5.137.275.137.412 0 .688-.138.275-.276.412-.55.412l-3.163.688c-.412.137-.825-.138-1.1-.413-.825-1.375-2.2-2.2-3.85-2.2a4.57 4.57 0 00-3.85 2.062c-.275.413-.688.55-1.1.413l-3.162-.688c-.138 0-.413-.137-.55-.412v-.55zM9.9 19.525c0 .275-.138.413-.275.55-.137.137-.412.137-.688.137-4.262-.825-7.424-4.675-7.424-9.212 0-.275.137-.412.275-.55.137-.137.412-.137.687-.137L5.638 11c.412 0 .687.275.825.688.274 1.65 1.375 3.024 2.887 3.574.412.138.688.55.688.963v3.3H9.9zm3.162.688c-.274 0-.412 0-.687-.138-.137-.137-.275-.412-.275-.55v-3.162c0-.413.275-.825.688-.963 1.512-.55 2.612-1.925 2.887-3.575 0-.412.412-.688.825-.825l3.163-.688c.274 0 .412 0 .687.138.137.138.275.413.275.55-.137 4.537-3.3 8.387-7.563 9.212z"/></symbol><symbol viewBox="0 0 20 162" id="zones" xmlns="http://www.w3.org/2000/svg"><path d="M0 0h20v2H0zM7 8h6v2H7V8zM4 16h12v2H4v-2zM7 24h6v2H7v-2zM4 32h12v2H4v-2zM7 40h6v2H7v-2zM4 48h12v2H4v-2zM7 56h6v2H7v-2zM4 64h12v2H4v-2zM7 72h6v2H7v-2zM4 80h12v2H4v-2zM7 88h6v2H7v-2zM4 96h12v2H4v-2zM7 104h6v2H7v-2zM4 112h12v2H4v-2zM7 120h6v2H7v-2zM4 128h12v2H4v-2zM7 136h6v2H7v-2zM4 144h12v2H4v-2zM7 152h6v2H7v-2zM0 160h20v2H0z"/></symbol></svg>