<svg width="24" height="20" viewBox="0 0 24 20" fill="none" xmlns="http://www.w3.org/2000/svg">
<path d="M23.9475 8.34694L23.6385 7.43794C23.466 6.93694 22.9215 6.52894 22.4175 6.52894H21.3585C20.6955 4.65244 20.007 2.98444 19.7835 2.46994C19.368 1.52494 18.039 1.32544 17.307 1.11694C17.307 1.11694 16.086 0.741943 12.0105 0.741943C7.93499 0.741943 6.71549 1.11694 6.71549 1.11694C5.85899 1.40794 4.66799 1.59244 4.19549 2.51194C4.00649 2.87644 3.31049 4.59244 2.63549 6.52894H1.58699C1.08599 6.52894 0.538494 6.93694 0.365994 7.43794L0.0539941 8.34694C-0.118506 8.85094 0.149994 9.43594 0.650994 9.43594H1.69949C1.42049 10.2519 1.23149 10.6284 1.23149 10.6284C1.15499 10.7634 1.09949 11.3769 1.09949 11.5434V18.3474C1.09949 18.8514 1.50449 19.2564 2.00699 19.2564H4.53449C5.03549 19.2564 5.44349 18.8514 5.44349 18.3474V17.0724H18.576V18.3474C18.576 18.8484 18.984 19.2564 19.485 19.2564H22.0125C22.5135 19.2564 22.9215 18.8514 22.9215 18.3474V11.5434C22.9215 11.3784 22.866 10.7634 22.7865 10.6284C22.7865 10.6284 22.5945 10.2489 22.311 9.43594H23.3505C23.8515 9.43594 24.1185 8.85094 23.946 8.34694H23.9475ZM6.64499 13.8039H5.43599C4.35599 13.8039 3.27899 13.6449 3.27899 12.8949V11.9859C3.27899 11.1099 3.74249 11.0769 4.24649 11.0769C4.73549 11.0769 5.70749 11.5299 6.34949 11.8419C7.04849 12.1824 7.82549 12.4659 7.82549 13.0344C7.82549 13.5624 7.55399 13.8054 6.64649 13.8054L6.64499 13.8039ZM4.12049 7.50094C4.75949 4.96894 5.45549 4.01794 5.60549 3.62044C5.72849 3.32944 5.84849 2.43544 12.006 2.43544C18.1695 2.43544 18.3105 3.45994 18.33 3.47044C18.519 4.01344 19.2735 5.16694 19.878 7.50244C19.878 7.50244 17.274 8.34994 12.009 8.34994C6.74099 8.34694 4.12049 7.50244 4.12049 7.50244V7.50094ZM20.7405 12.8949C20.7405 13.6434 19.6605 13.8039 18.5805 13.8039H17.373C16.461 13.8039 16.194 13.5609 16.194 13.0389C16.194 12.4704 16.974 12.1869 17.67 11.8464C18.3105 11.5344 19.281 11.0814 19.77 11.0814C20.271 11.0814 20.739 11.1129 20.739 11.9904V12.8949H20.7405Z" fill="#18334A" fill-opacity="0.5"/>
</svg>
