<svg width="19" height="20" viewBox="0 0 19 20" fill="none" xmlns="http://www.w3.org/2000/svg">
<path fill-rule="evenodd" clip-rule="evenodd" d="M9.52116 0.833496C11.4164 0.833496 13.0667 1.22027 14.4247 1.94655C15.7827 2.67283 16.8485 3.73861 17.5748 5.09664C18.3011 6.45466 18.6878 8.10493 18.6878 10.0002C18.6878 11.8954 18.3011 13.5457 17.5748 14.9037C16.8485 16.2617 15.7827 17.3275 14.4247 18.0538C13.0667 18.7801 11.4164 19.1668 9.52116 19.1668C7.62592 19.1668 5.97566 18.7801 4.61763 18.0538C3.25961 17.3275 2.19382 16.2617 1.46755 14.9037C0.741266 13.5457 0.354492 11.8954 0.354492 10.0002C0.354492 8.10493 0.741266 6.45466 1.46755 5.09664C2.19382 3.73861 3.25961 2.67283 4.61763 1.94655C5.97566 1.22027 7.62592 0.833496 9.52116 0.833496ZM8.27116 14.5835C8.27116 13.8931 8.8308 13.3335 9.52116 13.3335C10.2115 13.3335 10.7712 13.8931 10.7712 14.5835C10.7712 15.2739 10.2115 15.8335 9.52116 15.8335C8.8308 15.8335 8.27116 15.2739 8.27116 14.5835ZM9.52116 3.75016C8.62881 3.75016 7.93154 4.52064 8.02033 5.40856L8.60491 11.2543C8.65198 11.725 9.04808 12.0835 9.52116 12.0835C9.99423 12.0835 10.3903 11.725 10.4374 11.2543L11.022 5.40856C11.1108 4.52064 10.4135 3.75016 9.52116 3.75016Z" fill="#18334A" fill-opacity="0.72"/>
</svg>
