<svg width="32" height="32" viewBox="0 0 32 32" fill="none" xmlns="http://www.w3.org/2000/svg">
<path d="M15.9018 0H16.0982C19.4473 0 22.2866 0.668344 24.6333 1.92336C26.98 3.17837 28.8216 5.02004 30.0766 7.36671C31.3317 9.71338 32 12.5527 32 15.9018V16.0982C32 19.4473 31.3317 22.2866 30.0766 24.6333C28.8216 26.98 26.98 28.8216 24.6333 30.0766C22.2866 31.3317 19.4473 32 16.0982 32H15.9018C12.5527 32 9.71338 31.3317 7.36671 30.0766C5.02004 28.8216 3.17837 26.98 1.92336 24.6333C0.72291 22.3887 0.0592259 19.6933 0.00378352 16.5321L0 15.9018C0 12.5527 0.668344 9.71338 1.92336 7.36671C3.17837 5.02004 5.02004 3.17837 7.36671 1.92336C9.71338 0.668344 12.5527 0 15.9018 0Z" fill="currentColor"/>
</svg>
