<svg width="16" height="16" viewBox="0 0 16 16" fill="none" xmlns="http://www.w3.org/2000/svg">
<path fill-rule="evenodd" clip-rule="evenodd" d="M14.9429 13.6095C15.1929 13.3594 15.3334 13.0203 15.3334 12.6667V5.33333C15.3334 4.97971 15.1929 4.64057 14.9429 4.39052C14.6928 4.14048 14.3537 4 14.0001 4H11.3334L10.0001 2H6.00008L4.66675 4H2.00008C1.64646 4 1.30732 4.14048 1.05727 4.39052C0.807224 4.64057 0.666748 4.97971 0.666748 5.33333V12.6667C0.666748 13.0203 0.807224 13.3594 1.05727 13.6095C1.30732 13.8595 1.64646 14 2.00008 14H14.0001C14.3537 14 14.6928 13.8595 14.9429 13.6095ZM10.6666 8.66667C10.6666 10.1394 9.47268 11.3333 7.99992 11.3333C6.52716 11.3333 5.33325 10.1394 5.33325 8.66667C5.33325 7.19391 6.52716 6 7.99992 6C9.47268 6 10.6666 7.19391 10.6666 8.66667Z" fill="white"/>
</svg>
