<svg width="24" height="24" viewBox="0 0 24 24" fill="none" xmlns="http://www.w3.org/2000/svg">
<path d="M23.9475 10.3469L23.6385 9.43794C23.466 8.93694 22.9215 8.52894 22.4175 8.52894H21.3585C20.6955 6.65244 20.007 4.98444 19.7835 4.46994C19.368 3.52494 18.039 3.32544 17.307 3.11694C17.307 3.11694 16.086 2.74194 12.0105 2.74194C7.93499 2.74194 6.71549 3.11694 6.71549 3.11694C5.85899 3.40794 4.66799 3.59244 4.19549 4.51194C4.00649 4.87644 3.31049 6.59244 2.63549 8.52894H1.58699C1.08599 8.52894 0.538494 8.93694 0.365994 9.43794L0.0539941 10.3469C-0.118506 10.8509 0.149994 11.4359 0.650994 11.4359H1.69949C1.42049 12.2519 1.23149 12.6284 1.23149 12.6284C1.15499 12.7634 1.09949 13.3769 1.09949 13.5434V20.3474C1.09949 20.8514 1.50449 21.2564 2.00699 21.2564H4.53449C5.03549 21.2564 5.44349 20.8514 5.44349 20.3474V19.0724H18.576V20.3474C18.576 20.8484 18.984 21.2564 19.485 21.2564H22.0125C22.5135 21.2564 22.9215 20.8514 22.9215 20.3474V13.5434C22.9215 13.3784 22.866 12.7634 22.7865 12.6284C22.7865 12.6284 22.5945 12.2489 22.311 11.4359H23.3505C23.8515 11.4359 24.1185 10.8509 23.946 10.3469H23.9475ZM6.64499 15.8039H5.43599C4.35599 15.8039 3.27899 15.6449 3.27899 14.8949V13.9859C3.27899 13.1099 3.74249 13.0769 4.24649 13.0769C4.73549 13.0769 5.70749 13.5299 6.34949 13.8419C7.04849 14.1824 7.82549 14.4659 7.82549 15.0344C7.82549 15.5624 7.55399 15.8054 6.64649 15.8054L6.64499 15.8039ZM4.12049 9.50094C4.75949 6.96894 5.45549 6.01794 5.60549 5.62044C5.72849 5.32944 5.84849 4.43544 12.006 4.43544C18.1695 4.43544 18.3105 5.45994 18.33 5.47044C18.519 6.01344 19.2735 7.16694 19.878 9.50244C19.878 9.50244 17.274 10.3499 12.009 10.3499C6.74099 10.3469 4.12049 9.50244 4.12049 9.50244V9.50094ZM20.7405 14.8949C20.7405 15.6434 19.6605 15.8039 18.5805 15.8039H17.373C16.461 15.8039 16.194 15.5609 16.194 15.0389C16.194 14.4704 16.974 14.1869 17.67 13.8464C18.3105 13.5344 19.281 13.0814 19.77 13.0814C20.271 13.0814 20.739 13.1129 20.739 13.9904V14.8949H20.7405Z" fill="#18334A" fill-opacity="0.5"/>
</svg>
