<svg width="24" height="24" viewBox="0 0 24 24" fill="none" xmlns="http://www.w3.org/2000/svg">
<path d="M22.5616 11.2597C21.6293 10.3274 20.404 9.82131 19.0988 9.82131C18.5128 9.82131 17.9267 9.92786 17.394 10.1143L15.263 5.61265C15.0766 5.23973 14.7037 5 14.3041 5H13.0255C12.7858 5 12.5993 5.18646 12.5993 5.42619C12.5993 5.66593 12.7858 5.85239 13.0255 5.85239H14.3041C14.384 5.85239 14.4639 5.90566 14.4906 5.95893L15.1299 7.29079L9.40289 7.26415L9.24306 6.83796H9.50943C9.74917 6.83796 9.93563 6.6515 9.93563 6.41176C9.93563 6.17203 9.74917 5.98557 9.50943 5.98557H7.59157C7.35183 5.98557 7.16537 6.17203 7.16537 6.41176C7.16537 6.6515 7.35183 6.83796 7.59157 6.83796H8.31077L8.63041 7.63707L7.03219 10.2741C6.3929 9.9545 5.6737 9.79467 4.92786 9.79467C2.21088 9.82131 0 12.0055 0 14.6959C0 16.0011 0.506104 17.2264 1.41176 18.1321C2.34406 19.0644 3.56937 19.5705 4.87458 19.5705C4.87458 19.5705 4.87458 19.5705 4.90122 19.5705C7.43174 19.5705 9.50943 17.6526 9.7758 15.202H11.8002C11.96 15.202 12.0932 15.1221 12.1731 14.9889L15.7159 8.596L16.6215 10.4872C16.2486 10.7003 15.929 10.9401 15.636 11.2331C14.7037 12.1387 14.1976 13.364 14.1976 14.6693C14.1976 15.9745 14.7037 17.1998 15.6093 18.1054C16.5416 19.0377 17.7669 19.5438 19.0721 19.5438C19.0721 19.5438 19.0721 19.5438 19.0988 19.5438C21.7891 19.5438 23.9734 17.3596 24 14.6959C23.9734 13.4173 23.4673 12.192 22.5616 11.2597ZM4.90122 18.7181C4.90122 18.7181 4.87458 18.7181 4.90122 18.7181C3.8091 18.7181 2.79689 18.2919 2.02442 17.5194C1.27858 16.7736 0.852386 15.7614 0.852386 14.6959C0.852386 12.485 2.66371 10.7003 4.90122 10.7003C4.90122 10.7003 4.90122 10.7003 4.92786 10.7003C5.51387 10.7003 6.07325 10.8335 6.57936 11.0466L4.42175 14.5627C4.34184 14.6959 4.34184 14.8557 4.42175 14.9889C4.50167 15.1221 4.63485 15.202 4.79467 15.202H8.92342C8.65705 17.1731 6.95228 18.7181 4.90122 18.7181ZM5.54051 14.3496L7.29856 11.4728C7.45838 11.606 7.6182 11.7125 7.77802 11.8724C8.44395 12.5383 8.84351 13.4173 8.92342 14.3496H5.54051ZM9.7758 14.3496C9.69589 13.1776 9.21643 12.1121 8.36404 11.2597C8.17758 11.0733 7.96448 10.8868 7.75139 10.727L9.00333 8.67592L11.1876 14.3496H9.7758ZM11.8801 13.7636L9.74917 8.16981L14.9967 8.19645L11.8801 13.7636ZM19.0721 18.7181C17.98 18.7181 16.9678 18.2919 16.1953 17.5194C15.4495 16.7736 15.0233 15.7614 15.0233 14.6959C15.0233 13.6304 15.4495 12.6182 16.222 11.8724C16.4617 11.6326 16.7014 11.4462 16.9678 11.2863L18.6726 14.8824C18.7525 15.0422 18.9123 15.1221 19.0721 15.1221C19.1254 15.1221 19.2053 15.1221 19.2586 15.0688C19.4717 14.9623 19.5516 14.7225 19.4717 14.5094L17.7669 10.9134C18.1931 10.7802 18.6193 10.7003 19.0988 10.7003C19.0988 10.7003 19.0988 10.7003 19.1254 10.7003C20.2175 10.7003 21.2297 11.1265 21.9756 11.899C22.7481 12.6715 23.1476 13.657 23.1476 14.7492C23.121 16.9334 21.3097 18.7181 19.0721 18.7181Z" fill="white"/>
</svg>
