<svg width="32" height="32" viewBox="0 0 32 32" fill="none" xmlns="http://www.w3.org/2000/svg">
<path d="M15.9018 0H16.0982C19.4473 0 22.2866 0.668344 24.6333 1.92336C26.98 3.17837 28.8216 5.02004 30.0766 7.36671C31.3317 9.71338 32 12.5527 32 15.9018V16.0982C32 19.4473 31.3317 22.2866 30.0766 24.6333C28.8216 26.98 26.98 28.8216 24.6333 30.0766C22.2866 31.3317 19.4473 32 16.0982 32H15.9018C12.5527 32 9.71338 31.3317 7.36671 30.0766C5.02004 28.8216 3.17837 26.98 1.92336 24.6333C0.72291 22.3887 0.0592259 19.6933 0.00378352 16.5321L0 15.9018C0 12.5527 0.668344 9.71338 1.92336 7.36671C3.17837 5.02004 5.02004 3.17837 7.36671 1.92336C9.71338 0.668344 12.5527 0 15.9018 0Z" fill="#FF001A"/>
<path d="M16 5C9.95 5 5 9.95 5 16C5 22.05 9.95 27 16 27C22.05 27 27 22.05 27 16C27 9.95 22.05 5 16 5ZM7.3375 12.15C8.85 8.85 12.15 6.65 16 6.65C19.85 6.65 23.15 8.85 24.6625 12.15C24.8 12.425 24.8 12.5625 24.6625 12.8375C24.525 13.1125 24.3875 13.25 24.1125 13.25L20.95 13.9375C20.5375 14.075 20.125 13.8 19.85 13.525C19.025 12.15 17.65 11.325 16 11.325C14.35 11.325 12.975 12.15 12.15 13.3875C11.875 13.8 11.4625 13.9375 11.05 13.8L7.8875 13.1125C7.75 13.1125 7.475 12.975 7.3375 12.7C7.3375 12.5625 7.3375 12.2875 7.3375 12.15ZM14.9 24.525C14.9 24.8 14.7625 24.9375 14.625 25.075C14.4875 25.2125 14.2125 25.2125 13.9375 25.2125C9.675 24.3875 6.5125 20.5375 6.5125 16C6.5125 15.725 6.65 15.5875 6.7875 15.45C6.925 15.3125 7.2 15.3125 7.475 15.3125L10.6375 16C11.05 16 11.325 16.275 11.4625 16.6875C11.7375 18.3375 12.8375 19.7125 14.35 20.2625C14.7625 20.4 15.0375 20.8125 15.0375 21.225V24.525H14.9ZM18.0625 25.2125C17.7875 25.2125 17.65 25.2125 17.375 25.075C17.2375 24.9375 17.1 24.6625 17.1 24.525V21.3625C17.1 20.95 17.375 20.5375 17.7875 20.4C19.3 19.85 20.4 18.475 20.675 16.825C20.675 16.4125 21.0875 16.1375 21.5 16L24.6625 15.3125C24.9375 15.3125 25.075 15.3125 25.35 15.45C25.4875 15.5875 25.625 15.8625 25.625 16C25.4875 20.5375 22.325 24.3875 18.0625 25.2125Z" fill="white"/>
</svg>
