<svg width="467" height="554" viewBox="0 0 467 554" fill="none" xmlns="http://www.w3.org/2000/svg">
<path d="M21.47 442.45H5.25999V486.71H0V437.61H21.47V442.45ZM16.84 469.18C16.84 462.86 17.9267 458.217 20.1 455.25C21.1595 453.795 22.5642 452.627 24.1877 451.85C25.8112 451.073 27.6024 450.713 29.4 450.8C33.7 450.8 36.8667 452.32 38.9 455.36C40.9333 458.4 41.9333 463.007 41.9 469.18C41.9 475.54 40.8033 480.207 38.61 483.18C37.5491 484.622 36.149 485.78 34.5338 486.551C32.9185 487.322 31.138 487.682 29.35 487.6C25.0367 487.6 21.8667 486.08 19.84 483.04C17.8133 480 16.8133 475.394 16.84 469.22V469.18ZM22.1 469.18C22.087 471.058 22.2173 472.933 22.49 474.79C22.6919 476.295 23.1165 477.761 23.75 479.14C24.256 480.266 25.0407 481.243 26.03 481.98C27.0159 482.669 28.1982 483.02 29.4 482.98C30.5291 483.016 31.6448 482.727 32.6145 482.147C33.5841 481.568 34.367 480.722 34.87 479.71C36.0767 477.544 36.6833 474.027 36.69 469.16C36.6983 467.294 36.5713 465.429 36.31 463.58C36.109 462.065 35.6809 460.588 35.04 459.2C34.5382 458.07 33.7528 457.088 32.76 456.35C31.7771 455.663 30.5985 455.313 29.4 455.35C28.2729 455.324 27.1619 455.621 26.198 456.206C25.2341 456.79 24.4576 457.639 23.96 458.65C22.7133 460.857 22.09 464.367 22.09 469.18H22.1ZM48.69 451.64H52.26L53.04 455.43H53.32C54.0905 453.962 55.2659 452.745 56.7069 451.925C58.1479 451.104 59.794 450.714 61.45 450.8C63.0774 450.705 64.7013 451.037 66.1608 451.763C67.6202 452.49 68.8644 453.585 69.77 454.94C71.61 457.7 72.5333 462.214 72.54 468.48C72.5713 471.175 72.2656 473.862 71.63 476.48C71.1096 478.613 70.2304 480.642 69.03 482.48C67.9938 484.06 66.586 485.361 64.93 486.27C63.2754 487.142 61.4301 487.589 59.56 487.57C58.4777 487.595 57.3956 487.511 56.33 487.32C55.4218 487.117 54.5489 486.78 53.74 486.32V500.75H48.69V451.64ZM53.74 481.18C54.4007 481.739 55.1469 482.188 55.95 482.51C56.9966 482.876 58.1023 483.042 59.21 483C61.69 483 63.65 481.73 65.1 479.21C66.55 476.69 67.27 473.09 67.27 468.41C67.2863 466.623 67.1593 464.837 66.89 463.07C66.681 461.651 66.2667 460.27 65.66 458.97C65.1771 457.921 64.4419 457.007 63.52 456.31C62.5878 455.656 61.4682 455.323 60.33 455.36C56.9233 455.36 54.7267 457.44 53.74 461.6V481.18ZM77.66 469.18C77.66 462.86 78.7467 458.217 80.92 455.25C81.9801 453.796 83.3849 452.628 85.0083 451.851C86.6316 451.075 88.4225 450.713 90.22 450.8C94.52 450.8 97.6867 452.32 99.72 455.36C101.753 458.4 102.77 463.007 102.77 469.18C102.77 475.54 101.67 480.207 99.47 483.18C98.4119 484.622 97.0138 485.781 95.3999 486.552C93.7861 487.323 92.0067 487.683 90.22 487.6C85.9067 487.6 82.7367 486.08 80.71 483.04C78.6833 480 77.6667 475.394 77.66 469.22V469.18ZM82.92 469.18C82.907 471.058 83.0373 472.933 83.31 474.79C83.5074 476.296 83.9323 477.762 84.57 479.14C85.076 480.266 85.8607 481.243 86.85 481.98C87.8353 482.67 89.018 483.021 90.22 482.98C91.3491 483.016 92.4648 482.727 93.4345 482.147C94.4041 481.568 95.187 480.722 95.69 479.71C96.9033 477.544 97.51 474.027 97.51 469.16C97.5202 467.293 97.3898 465.428 97.12 463.58C96.9268 462.064 96.5018 460.587 95.86 459.2C95.3567 458.073 94.5715 457.095 93.58 456.36C92.5971 455.673 91.4185 455.323 90.22 455.36C89.0929 455.334 87.9819 455.631 87.018 456.216C86.0541 456.801 85.2776 457.649 84.78 458.66C83.54 460.86 82.92 464.367 82.92 469.18V469.18ZM135.09 495.62H131.58L130.74 486.71H109.93L109.01 495.62H105.58V482.16H108.88C109.321 481.238 109.705 480.29 110.03 479.32C110.648 477.438 111.129 475.513 111.47 473.56C111.937 471.107 112.347 468.08 112.7 464.48C113.053 460.88 113.25 456.6 113.29 451.64H130.9V482.16H135.09V495.62ZM125.9 482.16V456.16H117.97C117.877 458.16 117.75 460.36 117.59 462.76C117.42 465.14 117.18 467.51 116.85 469.87C116.52 472.23 116.13 474.5 115.66 476.64C115.276 478.51 114.734 480.343 114.04 482.12L125.9 482.16ZM159.71 484.96C158.516 485.875 157.158 486.554 155.71 486.96C154.176 487.385 152.591 487.597 151 487.59C149.027 487.65 147.071 487.202 145.32 486.29C143.761 485.407 142.466 484.122 141.57 482.57C140.54 480.765 139.826 478.796 139.46 476.75C139 474.264 138.779 471.739 138.8 469.21C138.8 463.21 139.863 458.65 141.99 455.53C142.977 454.022 144.34 452.795 145.944 451.971C147.548 451.147 149.338 450.754 151.14 450.83C152.721 450.802 154.299 450.966 155.84 451.32C157.012 451.597 158.144 452.02 159.21 452.58L157.81 457C155.955 455.933 153.85 455.378 151.71 455.39C150.54 455.351 149.382 455.642 148.37 456.231C147.358 456.82 146.533 457.683 145.99 458.72C144.697 460.94 144.053 464.437 144.06 469.21C144.051 471.019 144.192 472.825 144.48 474.61C144.708 476.136 145.181 477.615 145.88 478.99C146.476 480.161 147.344 481.173 148.41 481.94C149.549 482.702 150.901 483.084 152.27 483.03C153.433 483.04 154.587 482.826 155.67 482.4C156.599 482.052 157.464 481.551 158.23 480.92L159.71 484.96ZM172.97 470.96H170.38V486.74H165.32V451.64H170.38V467.5L172.76 466.5L181.32 451.63H186.72L178.37 465.73L175.92 468.05L178.92 470.85L187.92 486.7H181.92L172.97 470.96ZM209.97 466.54L210.39 461.21H210.11L207.66 467.1L195.8 486.74H192.5V451.64H197.55V472.48L197.13 477.6H197.41L199.73 471.84L211.73 451.64H215.03V486.71H209.89L209.97 466.54ZM244.19 484.35C242.955 485.448 241.494 486.26 239.91 486.73C238.144 487.305 236.297 487.592 234.44 487.58C232.455 487.627 230.49 487.18 228.72 486.28C227.094 485.399 225.717 484.119 224.72 482.56C223.604 480.787 222.821 478.825 222.41 476.77C221.894 474.281 221.645 471.743 221.67 469.2C221.67 463.2 222.77 458.64 224.97 455.52C225.997 454.008 227.392 452.782 229.025 451.959C230.658 451.137 232.473 450.745 234.3 450.82C235.612 450.819 236.919 450.983 238.19 451.31C239.505 451.662 240.705 452.351 241.67 453.31C242.806 454.481 243.658 455.898 244.16 457.45C244.848 459.683 245.162 462.015 245.09 464.35C245.09 465.14 245.09 466 244.99 466.91C244.89 467.82 244.83 468.77 244.74 469.75H226.94C226.922 471.585 227.087 473.418 227.43 475.22C227.692 476.694 228.213 478.109 228.97 479.4C229.629 480.502 230.558 481.418 231.67 482.06C232.93 482.73 234.344 483.058 235.77 483.01C237.056 483.009 238.33 482.772 239.53 482.31C240.585 481.952 241.552 481.377 242.37 480.62L244.19 484.35ZM240.26 465.55C240.36 462.04 239.86 459.47 238.79 457.84C238.339 457.074 237.691 456.443 236.914 456.01C236.137 455.578 235.259 455.36 234.37 455.38C233.381 455.346 232.399 455.552 231.507 455.98C230.616 456.409 229.841 457.047 229.25 457.84C227.99 459.467 227.243 462.037 227.01 465.55H240.26ZM283.9 456.22H272.09V486.73H267.09V451.64H288.98V486.71H283.93L283.9 456.22ZM297.22 451.66H300.8L301.58 455.45H301.85C302.622 453.981 303.799 452.764 305.242 451.943C306.685 451.123 308.333 450.733 309.99 450.82C313.68 450.82 316.46 452.2 318.3 454.96C320.14 457.72 321.08 462.23 321.08 468.5C321.113 471.195 320.804 473.883 320.16 476.5C319.647 478.634 318.771 480.664 317.57 482.5C316.533 484.083 315.121 485.384 313.46 486.29C311.809 487.163 309.967 487.61 308.1 487.59C307.018 487.615 305.936 487.531 304.87 487.34C303.959 487.136 303.083 486.799 302.27 486.34V500.75H297.22V451.66ZM302.27 481.2C302.936 481.757 303.685 482.206 304.49 482.53C305.536 482.897 306.642 483.063 307.75 483.02C310.22 483.02 312.19 481.75 313.64 479.23C315.09 476.71 315.81 473.11 315.81 468.43C315.821 466.643 315.694 464.858 315.43 463.09C315.221 461.671 314.807 460.29 314.2 458.99C313.723 457.951 312.998 457.045 312.09 456.35C311.157 455.697 310.038 455.364 308.9 455.4C305.48 455.4 303.28 457.48 302.3 461.64L302.27 481.2ZM326.2 469.2C326.2 462.88 327.287 458.237 329.46 455.27C330.518 453.816 331.921 452.648 333.543 451.871C335.164 451.095 336.954 450.733 338.75 450.82C343.06 450.82 346.22 452.34 348.26 455.38C350.3 458.42 351.31 463.03 351.31 469.2C351.31 475.56 350.21 480.227 348.01 483.2C346.95 484.643 345.55 485.801 343.934 486.572C342.319 487.343 340.538 487.703 338.75 487.62C334.45 487.62 331.283 486.1 329.25 483.06C327.217 480.02 326.2 475.414 326.2 469.24V469.2ZM331.46 469.2C331.444 471.077 331.571 472.953 331.84 474.81C332.047 476.314 332.471 477.779 333.1 479.16C333.613 480.281 334.396 481.257 335.38 482C336.367 482.687 337.548 483.038 338.75 483C339.879 483.037 340.996 482.749 341.965 482.169C342.935 481.589 343.718 480.743 344.22 479.73C345.44 477.564 346.05 474.047 346.05 469.18C346.06 467.313 345.93 465.448 345.66 463.6C345.462 462.085 345.037 460.609 344.4 459.22C343.889 458.081 343.094 457.093 342.09 456.35C341.103 455.663 339.922 455.313 338.72 455.35C337.593 455.327 336.483 455.625 335.52 456.209C334.556 456.793 333.78 457.64 333.28 458.65C332.047 460.85 331.43 464.357 331.43 469.17L331.46 469.2ZM379.02 484.35C377.785 485.448 376.324 486.26 374.74 486.73C372.974 487.304 371.127 487.591 369.27 487.58C367.285 487.627 365.32 487.18 363.55 486.28C361.919 485.404 360.542 484.123 359.55 482.56C358.434 480.787 357.651 478.825 357.24 476.77C356.724 474.281 356.475 471.743 356.5 469.2C356.5 463.2 357.6 458.64 359.8 455.52C360.825 454.006 362.221 452.78 363.854 451.957C365.487 451.134 367.303 450.743 369.13 450.82C370.442 450.819 371.749 450.984 373.02 451.31C374.332 451.662 375.528 452.352 376.49 453.31C377.63 454.479 378.482 455.896 378.98 457.45C379.68 459.698 380.001 462.047 379.93 464.4C379.93 465.19 379.93 466.05 379.83 466.96C379.73 467.87 379.67 468.82 379.58 469.8H361.76C361.742 471.635 361.907 473.468 362.25 475.27C362.527 476.708 363.048 478.088 363.79 479.35C364.456 480.45 365.388 481.365 366.5 482.01C367.759 482.683 369.174 483.01 370.6 482.96C371.882 482.958 373.153 482.721 374.35 482.26C375.406 481.905 376.374 481.329 377.19 480.57L379.02 484.35ZM375.09 465.53C375.177 462.024 374.683 459.454 373.61 457.82C373.159 457.056 372.513 456.425 371.738 455.993C370.963 455.56 370.087 455.342 369.2 455.36C368.211 455.325 367.229 455.531 366.337 455.959C365.445 456.388 364.67 457.026 364.08 457.82C362.813 459.447 362.063 462.017 361.83 465.53H375.09ZM394.66 470.93H392.09V486.71H387.04V451.64H392.09V467.5L394.48 466.5L403.04 451.63H408.44L400.09 465.74L397.64 468.06L400.64 470.86L409.64 486.71H403.64L394.66 470.93ZM432.4 456.2H423.77V486.71H418.72V456.2H410.09V451.64H432.4V456.2ZM441.66 482.2C442.93 482.466 444.223 482.607 445.52 482.62C447.76 482.62 449.327 482.024 450.22 480.83C451.204 479.297 451.671 477.488 451.55 475.67C451.651 473.928 451.196 472.198 450.25 470.73C449.39 469.537 447.86 468.94 445.66 468.94C445.05 468.94 444.4 468.94 443.66 469.04C442.983 469.109 442.313 469.24 441.66 469.43V482.2ZM441.66 465.08C442.542 464.898 443.433 464.768 444.33 464.69C445.17 464.63 445.96 464.59 446.71 464.59C448.361 464.544 450.005 464.819 451.55 465.4C452.761 465.861 453.834 466.621 454.67 467.61C455.465 468.581 456.029 469.72 456.32 470.94C456.655 472.281 456.82 473.658 456.81 475.04C456.81 479.3 455.863 482.387 453.97 484.3C452.077 486.214 448.933 487.174 444.54 487.18C441.891 487.185 439.243 487.042 436.61 486.75V451.64H441.66V465.08ZM461.02 451.68H466.09V486.75H461.04L461.02 451.68Z" fill="#2C2C2C"/>
<path d="M47.2901 531.35L47.4901 528.27H47.3901L46.2101 531.35L37.5201 546.66H35.8401V523.16H38.3601V538.77L38.1201 541.77H38.2601L39.4301 538.61L48.1601 523.13H49.8101V546.63H47.2901V531.35ZM61.2201 532.13H57.5601C57.4934 534.03 57.4034 535.87 57.2901 537.65C57.2079 539.236 57.0108 540.813 56.7001 542.37C56.5008 543.522 56.0979 544.629 55.5101 545.64C55.3154 546.004 55.0277 546.309 54.6763 546.526C54.325 546.742 53.9225 546.861 53.5101 546.87C53.1755 546.872 52.8411 546.849 52.5101 546.8C52.255 546.754 52.0066 546.676 51.7701 546.57L52.1401 544.45C52.5553 544.582 53.0049 544.554 53.4001 544.37C53.7701 544.17 54.0901 543.59 54.4001 542.62C54.7479 541.152 54.9654 539.656 55.0501 538.15C55.2168 536.15 55.3368 533.417 55.4101 529.95H63.7001V546.73H61.2801L61.2201 532.13ZM70.0101 544.55C70.6191 544.675 71.2385 544.742 71.8601 544.75C73.9668 544.75 75.0201 543.644 75.0201 541.43C75.0695 540.577 74.8064 539.734 74.2801 539.06C73.9725 538.758 73.6033 538.526 73.1978 538.379C72.7923 538.232 72.3599 538.175 71.9301 538.21C71.617 538.192 71.3031 538.192 70.9901 538.21C70.6518 538.238 70.3169 538.298 69.9901 538.39L70.0101 544.55ZM70.0101 536.36C70.4601 536.27 70.8901 536.21 71.2901 536.17C71.6901 536.13 72.0801 536.17 72.4301 536.17C73.241 536.147 74.0488 536.28 74.8101 536.56C75.4143 536.781 75.9563 537.145 76.3901 537.62C76.8036 538.074 77.105 538.619 77.2701 539.21C77.4562 539.86 77.5472 540.534 77.5401 541.21C77.6123 542.012 77.5181 542.821 77.2634 543.585C77.0088 544.349 76.5991 545.052 76.0601 545.65C74.7412 546.675 73.0841 547.164 71.4201 547.02C70.144 547.026 68.8686 546.959 67.6001 546.82V529.92H70.0101V536.36ZM88.6101 537.06L88.8101 534.51H88.6801L87.5101 537.35L81.8301 546.75H80.2601V529.92H82.6701V539.92L82.4701 542.37H82.6001L83.7101 539.62L89.4501 529.95H91.0301V546.73H88.6101V537.06ZM113.93 528.57C113.929 529.16 113.858 529.747 113.72 530.32C113.591 530.895 113.379 531.447 113.09 531.96C112.802 532.475 112.434 532.941 112 533.34C111.539 533.753 110.993 534.06 110.4 534.24V534.35C110.94 534.46 111.462 534.645 111.95 534.9C112.454 535.17 112.899 535.537 113.26 535.98C113.661 536.476 113.967 537.042 114.16 537.65C114.403 538.416 114.518 539.217 114.5 540.02C114.526 541.095 114.332 542.163 113.93 543.16C113.588 543.993 113.053 544.733 112.37 545.32C111.701 545.89 110.921 546.316 110.08 546.57C109.196 546.842 108.275 546.977 107.35 546.97H106.26C105.84 546.97 105.4 546.97 104.93 546.97C104.46 546.97 104 546.89 103.54 546.84C103.115 546.784 102.694 546.7 102.28 546.59V523.4C102.947 523.273 103.737 523.163 104.65 523.07C105.55 522.98 106.53 522.93 107.58 522.93C108.345 522.934 109.108 523.008 109.86 523.15C110.574 523.29 111.253 523.569 111.86 523.97C112.491 524.395 112.996 524.982 113.32 525.67C113.729 526.57 113.921 527.553 113.88 528.54L113.93 528.57ZM107.55 544.68C108.122 544.686 108.691 544.592 109.23 544.4C109.739 544.212 110.202 543.919 110.59 543.54C110.991 543.147 111.304 542.673 111.51 542.15C111.75 541.536 111.865 540.88 111.85 540.22C111.876 539.455 111.732 538.694 111.43 537.99C111.182 537.464 110.807 537.007 110.34 536.66C109.878 536.347 109.358 536.129 108.81 536.02C108.227 535.907 107.634 535.85 107.04 535.85H104.79V544.45C104.96 544.5 105.134 544.533 105.31 544.55L106.02 544.62H106.81L107.55 544.68ZM106.17 533.68H107.25C107.65 533.68 107.99 533.62 108.25 533.58C109.087 533.231 109.817 532.669 110.37 531.95C110.981 531.159 111.296 530.179 111.26 529.18C111.279 528.547 111.177 527.916 110.96 527.32C110.789 526.859 110.508 526.447 110.14 526.12C109.778 525.83 109.359 525.619 108.91 525.5C108.43 525.379 107.936 525.318 107.44 525.32C106.85 525.32 106.33 525.32 105.86 525.37C105.498 525.388 105.137 525.428 104.78 525.49V533.71L106.17 533.68ZM117.76 530.96C118.493 530.525 119.289 530.208 120.12 530.02C121.084 529.796 122.071 529.686 123.06 529.69C123.839 529.658 124.614 529.802 125.33 530.11C125.871 530.364 126.333 530.757 126.67 531.25C126.994 531.747 127.212 532.305 127.31 532.89C127.412 533.532 127.462 534.18 127.46 534.83C127.46 536.17 127.46 537.48 127.37 538.75C127.28 540.02 127.29 541.24 127.29 542.38C127.29 543.23 127.29 544.02 127.37 544.75C127.427 545.444 127.534 546.132 127.69 546.81H125.85L125.27 544.81H125.14C124.774 545.421 124.271 545.938 123.67 546.32C122.872 546.78 121.96 547.002 121.04 546.96C120.478 546.983 119.918 546.881 119.4 546.664C118.882 546.446 118.417 546.117 118.04 545.7C117.218 544.734 116.803 543.486 116.88 542.22C116.852 541.391 117.017 540.566 117.36 539.81C117.677 539.174 118.152 538.63 118.74 538.23C119.379 537.805 120.096 537.512 120.85 537.37C121.753 537.194 122.671 537.11 123.59 537.12H124.26H124.97C125.034 536.509 125.067 535.895 125.07 535.28C125.152 534.347 124.953 533.41 124.5 532.59C124.237 532.306 123.91 532.089 123.547 531.955C123.184 531.821 122.794 531.775 122.41 531.82C121.735 531.836 121.064 531.93 120.41 532.1C119.762 532.256 119.14 532.502 118.56 532.83L117.76 530.96ZM125.09 539.05C124.86 539.05 124.64 539.05 124.42 539C124.2 538.95 123.97 539 123.75 539C123.221 538.998 122.692 539.041 122.17 539.13C121.686 539.209 121.219 539.372 120.79 539.61C120.38 539.813 120.035 540.124 119.79 540.51C119.535 540.946 119.41 541.446 119.43 541.95C119.379 542.705 119.614 543.452 120.09 544.04C120.3 544.279 120.561 544.469 120.853 544.595C121.145 544.721 121.462 544.781 121.78 544.77C122.567 544.821 123.346 544.583 123.97 544.1C124.444 543.707 124.812 543.202 125.04 542.63L125.09 539.05ZM131.4 529.92H133.09L133.46 531.73H133.6C133.968 531.027 134.53 530.444 135.22 530.05C135.909 529.657 136.697 529.469 137.49 529.51C138.274 529.461 139.057 529.62 139.76 529.971C140.462 530.322 141.059 530.853 141.49 531.51C142.383 532.843 142.827 535 142.82 537.98C142.833 539.267 142.685 540.55 142.38 541.8C142.136 542.824 141.716 543.799 141.14 544.68C140.635 545.441 139.947 546.063 139.14 546.49C138.354 546.913 137.473 547.13 136.58 547.12C136.061 547.131 135.542 547.091 135.03 547C134.595 546.9 134.177 546.734 133.79 546.51V553.43H131.37L131.4 529.92ZM133.82 544.05C134.136 544.32 134.494 544.536 134.88 544.69C135.382 544.86 135.911 544.937 136.44 544.92C137.033 544.914 137.612 544.741 138.111 544.421C138.61 544.101 139.008 543.647 139.26 543.11C140.025 541.499 140.369 539.72 140.26 537.94C140.277 537.074 140.22 536.207 140.09 535.35C139.998 534.657 139.799 533.982 139.5 533.35C139.281 532.846 138.937 532.405 138.5 532.07C138.052 531.758 137.515 531.601 136.97 531.62C135.337 531.62 134.287 532.62 133.82 534.62V544.05ZM153.29 532.05H149.63C149.557 533.95 149.467 535.79 149.36 537.57C149.278 539.156 149.081 540.733 148.77 542.29C148.575 543.443 148.172 544.552 147.58 545.56C147.386 545.925 147.099 546.231 146.747 546.447C146.396 546.663 145.993 546.782 145.58 546.79C145.245 546.792 144.911 546.769 144.58 546.72C144.325 546.672 144.077 546.595 143.84 546.49L144.21 544.37C144.625 544.502 145.075 544.474 145.47 544.29C145.84 544.09 146.16 543.51 146.47 542.54C146.818 541.072 147.035 539.576 147.12 538.07C147.293 536.07 147.41 533.337 147.47 529.87H155.77V546.65H153.35L153.29 532.05ZM159.5 530.87C160.237 530.437 161.036 530.12 161.87 529.93C162.834 529.706 163.821 529.595 164.81 529.6C165.585 529.568 166.358 529.712 167.07 530.02C167.611 530.274 168.073 530.667 168.41 531.16C168.743 531.653 168.961 532.213 169.05 532.8C169.152 533.442 169.202 534.091 169.2 534.74C169.2 536.08 169.2 537.39 169.12 538.66C169.04 539.93 169.04 541.15 169.04 542.29C169.04 543.14 169.04 543.93 169.12 544.66C169.172 545.354 169.279 546.043 169.44 546.72H167.59L167.02 544.72H166.89C166.52 545.331 166.014 545.848 165.41 546.23C164.617 546.691 163.707 546.913 162.79 546.87C162.228 546.892 161.669 546.79 161.15 546.573C160.632 546.355 160.168 546.026 159.79 545.61C158.976 544.639 158.562 543.395 158.63 542.13C158.6 541.299 158.768 540.473 159.12 539.72C159.429 539.081 159.901 538.536 160.49 538.14C161.132 537.715 161.853 537.422 162.61 537.28C163.513 537.104 164.431 537.02 165.35 537.03H166.02H166.72C166.784 536.419 166.817 535.805 166.82 535.19C166.902 534.257 166.703 533.32 166.25 532.5C165.989 532.217 165.664 531.999 165.303 531.865C164.941 531.731 164.553 531.685 164.17 531.73C163.478 531.742 162.79 531.836 162.12 532.01C161.475 532.166 160.856 532.412 160.28 532.74L159.5 530.87ZM166.79 539C166.56 539 166.34 539 166.11 538.95C165.88 538.9 165.67 538.95 165.44 538.95C164.911 538.948 164.382 538.992 163.86 539.08C163.379 539.159 162.915 539.322 162.49 539.56C162.083 539.767 161.738 540.077 161.49 540.46C161.243 540.899 161.122 541.397 161.14 541.9C161.089 542.655 161.324 543.402 161.8 543.99C162.01 544.229 162.271 544.419 162.563 544.545C162.855 544.671 163.172 544.731 163.49 544.72C164.274 544.772 165.05 544.534 165.67 544.05C166.15 543.661 166.522 543.155 166.75 542.58L166.79 539ZM184.24 536.68L184.48 533.49H184.34L183.34 536.34L180.22 542.79H179.34L176.09 536.35L175.18 533.5H175.01L175.28 536.66V546.66H173.09V529.92H175.51L179.17 537.2L179.9 539.38H179.97L180.78 537.13L184.17 529.92H186.65V546.7H184.19L184.24 536.68ZM189.88 538.26C189.88 535.24 190.403 533.017 191.45 531.59C191.956 530.893 192.628 530.333 193.405 529.961C194.182 529.589 195.04 529.417 195.9 529.46C196.782 529.398 197.665 529.567 198.462 529.951C199.258 530.335 199.94 530.921 200.44 531.65C201.44 533.1 201.9 535.31 201.9 538.26C201.9 541.21 201.38 543.53 200.32 544.94C199.815 545.63 199.147 546.185 198.376 546.555C197.605 546.925 196.754 547.098 195.9 547.06C195.015 547.122 194.13 546.953 193.33 546.569C192.531 546.185 191.845 545.6 191.34 544.87C190.34 543.42 189.88 541.21 189.88 538.26V538.26ZM192.4 538.26C192.398 539.16 192.461 540.059 192.59 540.95C192.684 541.667 192.886 542.365 193.19 543.02C193.436 543.559 193.81 544.03 194.28 544.39C194.755 544.718 195.323 544.886 195.9 544.87C196.439 544.888 196.972 544.75 197.434 544.474C197.897 544.197 198.271 543.793 198.51 543.31C199.194 541.736 199.495 540.023 199.39 538.31C199.392 537.417 199.328 536.524 199.2 535.64C199.107 534.914 198.905 534.206 198.6 533.54C198.352 533.003 197.974 532.535 197.5 532.18C197.032 531.853 196.471 531.684 195.9 531.7C195.36 531.685 194.828 531.824 194.365 532.102C193.902 532.381 193.529 532.786 193.29 533.27C192.599 534.842 192.294 536.556 192.4 538.27V538.26ZM205.09 529.95C205.71 529.95 206.39 529.85 207.09 529.78C207.79 529.71 208.72 529.68 209.75 529.68C211.124 529.544 212.502 529.898 213.64 530.68C214.053 531.078 214.373 531.562 214.577 532.098C214.781 532.634 214.864 533.208 214.82 533.78C214.817 534.574 214.625 535.355 214.26 536.06C213.863 536.826 213.202 537.423 212.4 537.74V537.88C213.307 538.023 214.124 538.51 214.68 539.24C215.169 540.053 215.402 540.993 215.35 541.94C215.414 542.649 215.308 543.363 215.04 544.022C214.772 544.681 214.351 545.267 213.81 545.73C212.445 546.611 210.831 547.025 209.21 546.91C208.45 546.91 207.72 546.91 207.03 546.82C206.34 546.73 205.67 546.7 205.03 546.64L205.09 529.95ZM207.5 544.62C207.84 544.62 208.16 544.7 208.5 544.72C208.84 544.74 209.18 544.72 209.63 544.72C210.521 544.796 211.409 544.548 212.13 544.02C212.616 543.418 212.891 542.673 212.911 541.899C212.93 541.125 212.695 540.366 212.24 539.74C211.913 539.439 211.525 539.212 211.102 539.076C210.679 538.94 210.231 538.897 209.79 538.95H207.49L207.5 544.62ZM209.99 537.07C210.304 537.072 210.613 536.997 210.89 536.85C211.188 536.704 211.456 536.504 211.68 536.26C211.918 536.014 212.108 535.726 212.24 535.41C212.368 535.092 212.436 534.753 212.44 534.41C212.47 534.067 212.43 533.72 212.324 533.392C212.217 533.064 212.046 532.761 211.82 532.5C211.214 532.033 210.452 531.814 209.69 531.89C209.15 531.89 208.69 531.89 208.41 531.89L207.5 531.95V537.06L209.99 537.07ZM218.45 530.92C219.187 530.487 219.986 530.17 220.82 529.98C221.781 529.756 222.764 529.646 223.75 529.65C224.529 529.618 225.304 529.762 226.02 530.07C226.561 530.324 227.023 530.717 227.36 531.21C227.693 531.702 227.911 532.263 228 532.85C228.102 533.492 228.152 534.141 228.15 534.79C228.15 536.13 228.15 537.44 228.07 538.71C227.99 539.98 227.98 541.2 227.98 542.34C227.98 543.193 228.01 543.983 228.07 544.71C228.118 545.405 228.225 546.094 228.39 546.77H226.54L225.97 544.77H225.84C225.47 545.381 224.964 545.898 224.36 546.28C223.566 546.741 222.657 546.963 221.74 546.92C221.178 546.942 220.619 546.84 220.1 546.623C219.582 546.405 219.118 546.076 218.74 545.66C217.926 544.689 217.512 543.445 217.58 542.18C217.55 541.349 217.718 540.523 218.07 539.77C218.379 539.131 218.851 538.586 219.44 538.19C220.082 537.765 220.803 537.472 221.56 537.33C222.459 537.154 223.374 537.07 224.29 537.08H224.97H225.67C225.734 536.469 225.767 535.855 225.77 535.24C225.852 534.307 225.653 533.37 225.2 532.55C224.939 532.267 224.614 532.049 224.253 531.915C223.891 531.781 223.503 531.735 223.12 531.78C222.428 531.792 221.74 531.886 221.07 532.06C220.423 532.218 219.8 532.463 219.22 532.79L218.45 530.92ZM225.73 539.05C225.51 539.05 225.28 539.05 225.06 539C224.84 538.95 224.61 539 224.39 539C223.861 538.998 223.332 539.042 222.81 539.13C222.329 539.209 221.865 539.372 221.44 539.61C221.029 539.811 220.683 540.123 220.44 540.51C220.193 540.949 220.072 541.447 220.09 541.95C220.036 542.704 220.268 543.45 220.74 544.04C220.952 544.28 221.215 544.469 221.508 544.595C221.802 544.722 222.12 544.781 222.44 544.77C223.224 544.821 224 544.583 224.62 544.1C225.097 543.71 225.465 543.204 225.69 542.63L225.73 539.05ZM247.52 537.05L247.72 534.5H247.59L246.4 537.35L240.73 546.75H239.15V529.92H241.57V539.92L241.37 542.37H241.5L242.61 539.62L248.35 529.95H249.93V546.73H247.51L247.52 537.05ZM275.76 531.28L276.06 527.72H275.93L274.85 531.04L270.09 541.23H269.25L264.25 531.02L263.25 527.7H263.09L263.56 531.26V546.7H261.15V523.2H263.26L268.93 534.75L269.77 537.5H269.84L270.65 534.72L276.09 523.2H278.3V546.7H275.79L275.76 531.28ZM282.23 530.94C282.969 530.51 283.768 530.193 284.6 530C285.564 529.776 286.551 529.666 287.54 529.67C288.315 529.638 289.088 529.782 289.8 530.09C290.343 530.343 290.809 530.737 291.15 531.23C291.479 531.725 291.697 532.284 291.79 532.87C291.892 533.512 291.942 534.161 291.94 534.81C291.94 536.15 291.94 537.46 291.85 538.73C291.76 540 291.77 541.22 291.77 542.36C291.77 543.21 291.77 544 291.85 544.73C291.902 545.424 292.009 546.113 292.17 546.79H290.33L289.76 544.79H289.62C289.242 545.425 288.717 545.96 288.09 546.35C287.3 546.811 286.394 547.034 285.48 546.99C284.919 547.01 284.36 546.907 283.842 546.69C283.324 546.472 282.859 546.145 282.48 545.73C281.667 544.759 281.252 543.515 281.32 542.25C281.295 541.42 281.463 540.595 281.81 539.84C282.127 539.204 282.602 538.66 283.19 538.26C283.829 537.835 284.546 537.542 285.3 537.4C286.203 537.224 287.121 537.14 288.04 537.15H288.71H289.42C289.48 536.46 289.52 535.84 289.52 535.31C289.604 534.375 289.402 533.437 288.94 532.62C288.681 532.337 288.358 532.119 287.998 531.985C287.638 531.851 287.251 531.805 286.87 531.85C286.195 531.865 285.524 531.959 284.87 532.13C284.222 532.286 283.6 532.532 283.02 532.86L282.23 530.94ZM289.52 539.07C289.3 539.07 289.07 539.07 288.85 539.02C288.63 538.97 288.4 539.02 288.18 539.02C287.651 539.017 287.122 539.061 286.6 539.15C286.116 539.229 285.649 539.392 285.22 539.63C284.813 539.837 284.468 540.147 284.22 540.53C283.973 540.969 283.852 541.467 283.87 541.97C283.819 542.725 284.054 543.472 284.53 544.06C284.74 544.299 285.001 544.489 285.293 544.615C285.585 544.741 285.902 544.801 286.22 544.79C287.004 544.842 287.78 544.604 288.4 544.12C288.88 543.731 289.252 543.225 289.48 542.65L289.52 539.07ZM299.52 539.17H298.28V546.72H295.86V529.92H298.28V537.5L299.42 537.03L303.52 529.92H306.09L302.09 536.66L300.91 537.77L302.35 539.11L306.65 546.7H303.76L299.52 539.17ZM317.85 545.88C317.28 546.313 316.631 546.632 315.94 546.82C315.208 547.025 314.451 547.13 313.69 547.13C312.744 547.16 311.807 546.943 310.97 546.5C310.222 546.083 309.6 545.471 309.17 544.73C308.68 543.864 308.342 542.92 308.17 541.94C307.949 540.75 307.842 539.541 307.85 538.33C307.708 536.045 308.236 533.769 309.37 531.78C309.845 531.058 310.499 530.47 311.268 530.076C312.038 529.682 312.896 529.494 313.76 529.53C314.517 529.518 315.273 529.598 316.01 529.77C316.568 529.906 317.109 530.108 317.62 530.37L316.95 532.49C316.063 531.977 315.055 531.711 314.03 531.72C313.471 531.703 312.917 531.843 312.433 532.124C311.949 532.405 311.553 532.816 311.29 533.31C310.573 534.875 310.257 536.593 310.37 538.31C310.362 539.174 310.429 540.038 310.57 540.89C310.673 541.623 310.9 542.333 311.24 542.99C311.524 543.551 311.939 544.034 312.45 544.4C312.993 544.764 313.637 544.946 314.29 544.92C314.848 544.926 315.401 544.824 315.92 544.62C316.363 544.45 316.778 544.214 317.15 543.92L317.85 545.88ZM328.85 537.05L329.05 534.5H328.91L327.75 537.35L322.08 546.75H320.5V529.92H322.92V539.92L322.71 542.37H322.85L323.95 539.62L329.7 529.95H331.27V546.73H328.86L328.85 537.05ZM346.37 536.75L346.61 533.56H346.47L345.47 536.41L342.35 542.86H341.48L338.22 536.35L337.32 533.5H337.15L337.42 536.66V546.66H335.24V529.92H337.65L341.31 537.2L342.09 539.35L342.89 537.1L346.28 529.89H348.77V546.67H346.35L346.37 536.75ZM352.58 530.94C353.317 530.507 354.116 530.19 354.95 530C355.914 529.776 356.901 529.666 357.89 529.67C358.669 529.639 359.444 529.783 360.16 530.09C360.698 530.344 361.157 530.738 361.49 531.23C361.822 531.724 362.043 532.283 362.14 532.87C362.234 533.513 362.28 534.161 362.28 534.81C362.28 536.15 362.28 537.46 362.2 538.73C362.12 540 362.09 541.2 362.09 542.35C362.09 543.2 362.09 543.99 362.17 544.72C362.222 545.414 362.329 546.103 362.49 546.78H360.64L360.07 544.78H359.94C359.57 545.391 359.064 545.908 358.46 546.29C357.667 546.751 356.757 546.973 355.84 546.93C355.278 546.952 354.719 546.85 354.2 546.633C353.682 546.415 353.218 546.086 352.84 545.67C352.027 544.699 351.612 543.455 351.68 542.19C351.655 541.36 351.823 540.535 352.17 539.78C352.481 539.14 352.958 538.595 353.55 538.2C354.189 537.775 354.906 537.482 355.66 537.34C356.563 537.164 357.481 537.08 358.4 537.09H359.07H359.77C359.84 536.4 359.88 535.78 359.88 535.25C359.957 534.317 359.759 533.382 359.31 532.56C359.046 532.278 358.719 532.061 358.356 531.927C357.993 531.794 357.604 531.747 357.22 531.79C356.545 531.806 355.874 531.9 355.22 532.07C354.572 532.224 353.949 532.47 353.37 532.8L352.58 530.94ZM359.87 539.07C359.64 539.07 359.42 539.07 359.2 539.02C358.98 538.97 358.75 539.02 358.53 539.02C358.001 539.017 357.472 539.061 356.95 539.15C356.466 539.229 355.999 539.392 355.57 539.63C355.179 539.84 354.851 540.151 354.62 540.53C354.365 540.966 354.24 541.466 354.26 541.97C354.209 542.725 354.444 543.472 354.92 544.06C355.13 544.299 355.391 544.489 355.683 544.615C355.975 544.741 356.292 544.801 356.61 544.79C357.394 544.842 358.17 544.604 358.79 544.12C359.27 543.731 359.642 543.225 359.87 542.65V539.07ZM377.19 535.84H375.99V546.72H373.47V523.22H375.99V534.16L377.17 533.7L383.28 523.22H386.17L380.02 533.35L378.84 534.42L380.22 535.77L387.09 546.7H383.9L377.19 535.84ZM389.68 530.94C390.417 530.507 391.216 530.19 392.05 530C393.011 529.777 393.994 529.666 394.98 529.67C395.759 529.638 396.534 529.782 397.25 530.09C397.791 530.344 398.253 530.737 398.59 531.23C398.923 531.723 399.141 532.283 399.23 532.87C399.332 533.512 399.382 534.161 399.38 534.81C399.38 536.15 399.38 537.46 399.3 538.73C399.22 540 399.21 541.22 399.21 542.36C399.21 543.214 399.24 544.003 399.3 544.73C399.348 545.425 399.455 546.114 399.62 546.79H397.77L397.2 544.79H397.09C396.72 545.401 396.214 545.918 395.61 546.3C394.816 546.761 393.907 546.983 392.99 546.94C392.428 546.962 391.869 546.86 391.35 546.643C390.832 546.425 390.368 546.096 389.99 545.68C389.176 544.709 388.762 543.465 388.83 542.2C388.8 541.369 388.968 540.543 389.32 539.79C389.631 539.15 390.108 538.605 390.7 538.21C391.338 537.783 392.056 537.491 392.81 537.35C393.709 537.174 394.624 537.091 395.54 537.1H396.22H396.92C396.984 536.489 397.017 535.875 397.02 535.26C397.102 534.327 396.903 533.39 396.45 532.57C396.189 532.287 395.864 532.069 395.503 531.935C395.141 531.801 394.753 531.755 394.37 531.8C393.678 531.812 392.99 531.906 392.32 532.08C391.675 532.236 391.056 532.482 390.48 532.81L389.68 530.94ZM396.96 539.07C396.74 539.07 396.52 539.07 396.29 539.02C396.06 538.97 395.85 539.02 395.62 539.02C395.094 539.018 394.569 539.061 394.05 539.15C393.565 539.228 393.098 539.39 392.67 539.63C392.261 539.834 391.916 540.145 391.67 540.53C391.423 540.969 391.302 541.467 391.32 541.97C391.275 542.723 391.506 543.466 391.97 544.06C392.182 544.3 392.445 544.489 392.738 544.615C393.032 544.742 393.35 544.801 393.67 544.79C394.454 544.842 395.23 544.604 395.85 544.12C396.327 543.73 396.695 543.224 396.92 542.65L396.96 539.07ZM415.6 550.98H413.92L413.52 546.72H403.29V529.92H405.7V544.52H411.24V529.92H413.66V544.52H415.61L415.6 550.98ZM417.95 530.98C418.687 530.547 419.486 530.23 420.32 530.04C421.28 529.816 422.264 529.705 423.25 529.71C424.029 529.678 424.804 529.822 425.52 530.13C426.061 530.384 426.523 530.777 426.86 531.27C427.193 531.762 427.411 532.323 427.5 532.91C427.602 533.552 427.652 534.201 427.65 534.85C427.65 536.19 427.65 537.5 427.57 538.77C427.49 540.04 427.48 541.26 427.48 542.4C427.48 543.253 427.51 544.043 427.57 544.77C427.618 545.465 427.725 546.154 427.89 546.83H426.09L425.52 544.83H425.38C425.017 545.443 424.513 545.961 423.91 546.34C423.116 546.8 422.207 547.022 421.29 546.98C420.728 547.002 420.169 546.9 419.65 546.683C419.132 546.465 418.668 546.136 418.29 545.72C417.468 544.754 417.053 543.506 417.13 542.24C417.1 541.409 417.268 540.583 417.62 539.83C417.929 539.191 418.401 538.646 418.99 538.25C419.623 537.813 420.337 537.507 421.09 537.35C421.989 537.174 422.904 537.091 423.82 537.1H424.49H425.2C425.264 536.489 425.297 535.875 425.3 535.26C425.382 534.327 425.183 533.39 424.73 532.57C424.469 532.287 424.144 532.069 423.783 531.935C423.421 531.801 423.033 531.755 422.65 531.8C421.958 531.812 421.27 531.906 420.6 532.08C419.952 532.236 419.33 532.482 418.75 532.81L417.95 530.98ZM425.23 539.11C425.01 539.11 424.78 539.11 424.56 539.06C424.34 539.01 424.12 539.06 423.89 539.06C423.361 539.058 422.832 539.101 422.31 539.19C421.829 539.269 421.365 539.432 420.94 539.67C420.529 539.871 420.183 540.183 419.94 540.57C419.689 541.007 419.567 541.507 419.59 542.01C419.536 542.764 419.768 543.51 420.24 544.1C420.452 544.34 420.715 544.529 421.008 544.655C421.302 544.782 421.62 544.841 421.94 544.83C422.724 544.881 423.5 544.643 424.12 544.16C424.594 543.767 424.962 543.262 425.19 542.69L425.23 539.11Z" fill="#2C2C2C"/>
<g style="mix-blend-mode:multiply">
<path d="M134.5 135.16V134.68C134.5 126.2 134.56 122.47 144.1 120.36L173.92 113.74C174.146 113.349 174.499 113.045 174.92 112.88C178.2 111.55 187.54 106.15 193.68 106.88C204.86 108.23 203.2 112.29 194.41 115.3C187.48 117.67 177.88 116.5 176.06 116.56H175.73C175.464 116.561 175.199 116.513 174.95 116.42L144.78 123.11C137.56 124.71 137.54 127.75 137.51 134.67V135.14H139.57C139.766 135.124 139.963 135.148 140.149 135.212C140.335 135.275 140.505 135.377 140.65 135.51C140.795 135.643 140.91 135.804 140.989 135.984C141.068 136.164 141.109 136.359 141.109 136.555C141.109 136.752 141.068 136.946 140.989 137.126C140.91 137.306 140.795 137.467 140.65 137.6C140.505 137.733 140.335 137.835 140.149 137.899C139.963 137.962 139.766 137.987 139.57 137.97H139.09V189.15H139.6C139.784 189.132 139.971 189.15 140.148 189.203C140.326 189.257 140.491 189.345 140.634 189.463C140.778 189.58 140.897 189.725 140.984 189.888C141.072 190.051 141.127 190.231 141.145 190.415C141.163 190.6 141.145 190.786 141.092 190.963C141.038 191.141 140.95 191.306 140.832 191.45C140.715 191.593 140.57 191.712 140.407 191.8C140.244 191.887 140.064 191.942 139.88 191.96C139.88 213.86 139.88 235.77 139.88 257.67C139.88 265.03 143.46 271.01 147.88 271.01C148.091 271.008 148.301 270.992 148.51 270.96V273.04C148.507 273.127 148.488 273.212 148.452 273.291C148.417 273.37 148.366 273.442 148.303 273.501C148.239 273.56 148.165 273.607 148.084 273.638C148.003 273.668 147.917 273.683 147.83 273.68H125.41C125.236 273.683 125.067 273.618 124.94 273.498C124.813 273.379 124.738 273.214 124.73 273.04V270.99C128.95 270.62 132.31 264.8 132.31 257.67C132.31 235.78 132.14 213.86 132.13 191.96C131.757 191.922 131.415 191.737 131.179 191.446C130.943 191.155 130.832 190.783 130.87 190.41C130.908 190.037 131.093 189.695 131.384 189.459C131.675 189.223 132.047 189.112 132.42 189.15H132.93V137.99H132.42C132.224 138.007 132.027 137.982 131.841 137.919C131.655 137.855 131.485 137.753 131.34 137.62C131.195 137.487 131.08 137.326 131.001 137.146C130.922 136.966 130.881 136.772 130.881 136.575C130.881 136.379 130.922 136.184 131.001 136.004C131.08 135.824 131.195 135.663 131.34 135.53C131.485 135.397 131.655 135.295 131.841 135.232C132.027 135.168 132.224 135.144 132.42 135.16H134.5Z" fill="#9E79B4"/>
</g>
<g style="mix-blend-mode:multiply">
<path d="M279.77 176.55C274.851 176.55 270.02 177.854 265.77 180.33L265.7 180.27V164.6C265.7 160.46 262.1 156.19 259.92 152.88C262.201 151.865 264.07 150.103 265.217 147.885C266.365 145.667 266.723 143.125 266.234 140.676C265.745 138.227 264.437 136.017 262.525 134.41C260.614 132.803 258.212 131.895 255.715 131.834C253.219 131.773 250.776 132.563 248.788 134.075C246.8 135.587 245.386 137.73 244.778 140.152C244.17 142.575 244.404 145.131 245.443 147.403C246.481 149.674 248.261 151.525 250.49 152.65C248.74 155.3 243.68 163.19 243.68 166.4C243.68 168.77 243.4 184.96 244.09 192.99L234.87 198.43V182.94C234.87 178.8 231.27 174.53 229.09 171.21C231.37 170.192 233.237 168.429 234.382 166.21C235.527 163.99 235.883 161.447 235.391 158.999C234.899 156.551 233.589 154.342 231.676 152.737C229.762 151.133 227.36 150.226 224.863 150.168C222.367 150.11 219.924 150.903 217.938 152.417C215.952 153.931 214.54 156.076 213.935 158.498C213.329 160.921 213.566 163.478 214.607 165.748C215.647 168.018 217.429 169.867 219.66 170.99C217.91 173.63 212.85 181.52 212.85 184.74C212.85 187.08 212.57 203.07 213.25 211.16L203.93 216.65V200.46C203.93 196.32 200.33 192.05 198.16 188.74C200.441 187.725 202.31 185.963 203.457 183.745C204.605 181.527 204.963 178.985 204.474 176.536C203.985 174.087 202.677 171.877 200.765 170.27C198.854 168.663 196.452 167.755 193.955 167.694C191.459 167.633 189.016 168.423 187.028 169.935C185.04 171.447 183.626 173.59 183.018 176.012C182.41 178.435 182.644 180.991 183.683 183.263C184.721 185.534 186.501 187.385 188.73 188.51C186.98 191.16 181.91 199.04 181.91 202.26C181.91 204.67 181.62 221.51 182.37 229.34L179.25 231.18C175.411 229.927 171.346 229.52 167.335 229.989C163.324 230.458 159.463 231.791 156.017 233.897C152.571 236.003 149.622 238.83 147.375 242.185C145.127 245.54 143.634 249.343 142.998 253.331C142.362 257.319 142.598 261.397 143.69 265.285C144.783 269.173 146.705 272.777 149.325 275.85C151.945 278.923 155.2 281.392 158.866 283.085C162.532 284.779 166.522 285.657 170.56 285.66C173.08 285.66 179.89 285.18 185.3 282.76C210.3 271.62 256.96 238.7 270.41 230.76C274.244 232.131 278.332 232.647 282.387 232.271C286.442 231.896 290.366 230.638 293.883 228.586C297.401 226.535 300.427 223.739 302.751 220.394C305.074 217.05 306.638 213.238 307.332 209.225C308.027 205.213 307.836 201.097 306.773 197.166C305.709 193.235 303.799 189.585 301.176 186.47C298.553 183.355 295.28 180.851 291.588 179.134C287.895 177.417 283.872 176.528 279.8 176.53L279.77 176.55ZM279.77 225.15C275.834 225.149 271.98 224.025 268.66 221.91C243.97 237.23 205.96 264.24 181.32 275.67C178.7 276.89 175.94 277.57 170.53 277.57C167.566 277.568 164.641 276.902 161.968 275.622C159.295 274.341 156.944 272.477 155.086 270.168C153.228 267.86 151.911 265.164 151.231 262.279C150.552 259.394 150.527 256.394 151.159 253.498C151.791 250.603 153.064 247.886 154.884 245.547C156.704 243.208 159.025 241.306 161.676 239.982C164.327 238.657 167.242 237.944 170.205 237.893C173.168 237.843 176.105 238.457 178.8 239.69L268.29 187.29C268.979 186.83 269.693 186.409 270.43 186.03V186.03C273.216 184.623 276.285 183.865 279.405 183.813C282.526 183.761 285.618 184.417 288.45 185.731C291.281 187.044 293.778 188.983 295.753 191.399C297.729 193.816 299.131 196.649 299.855 199.685C300.579 202.721 300.606 205.882 299.934 208.93C299.262 211.978 297.909 214.834 295.975 217.285C294.042 219.735 291.578 221.716 288.77 223.078C285.962 224.44 282.881 225.149 279.76 225.15H279.77Z" fill="#48AC37"/>
</g>
<g style="mix-blend-mode:multiply">
<path d="M255.09 34.6301H220.01V33.0001C220.007 32.7675 219.914 32.5452 219.749 32.3807C219.585 32.2163 219.363 32.1227 219.13 32.1201H212.49C212.257 32.1201 212.033 32.2128 211.868 32.3779C211.703 32.5429 211.61 32.7667 211.61 33.0001V34.6301H198.46C190.46 34.6301 191.12 76.0101 198.46 76.0101H255.09C262.46 76.0101 263.15 34.6301 255.09 34.6301ZM251.51 70.7701H202.09C196.22 70.7701 195.67 39.8801 202.09 39.8801H251.58C257.95 39.8801 257.4 70.7701 251.54 70.7701H251.51Z" fill="#E43D3D"/>
</g>
<g style="mix-blend-mode:multiply">
<path d="M226.62 41.8799C224.205 41.8799 221.844 42.596 219.836 43.9376C217.828 45.2793 216.263 47.1862 215.339 49.4173C214.415 51.6484 214.173 54.1034 214.645 56.4719C215.116 58.8404 216.279 61.0161 217.986 62.7237C219.694 64.4313 221.869 65.5941 224.238 66.0653C226.606 66.5364 229.061 66.2946 231.292 65.3705C233.524 64.4463 235.431 62.8813 236.772 60.8734C238.114 58.8655 238.83 56.5048 238.83 54.0899C238.83 50.8516 237.544 47.7459 235.254 45.4561C232.964 43.1663 229.858 41.8799 226.62 41.8799V41.8799ZM226.62 62.1499C225.026 62.1499 223.467 61.6772 222.142 60.7915C220.817 59.9059 219.783 58.6471 219.173 57.1743C218.563 55.7015 218.404 54.0809 218.715 52.5175C219.026 50.954 219.793 49.5178 220.921 48.3906C222.048 47.2634 223.484 46.4958 225.047 46.1848C226.611 45.8738 228.232 46.0334 229.704 46.6434C231.177 47.2535 232.436 48.2865 233.322 49.612C234.207 50.9374 234.68 52.4958 234.68 54.0899C234.68 56.2275 233.831 58.2776 232.319 59.7892C230.808 61.3007 228.758 62.1499 226.62 62.1499Z" fill="#E43D3D"/>
</g>
<g style="mix-blend-mode:multiply">
<path d="M251.52 42.6802H244.88C244.394 42.6802 244 43.0742 244 43.5602V47.9002C244 48.3862 244.394 48.7802 244.88 48.7802H251.52C252.006 48.7802 252.4 48.3862 252.4 47.9002V43.5602C252.4 43.0742 252.006 42.6802 251.52 42.6802Z" fill="#E43D3D"/>
</g>
<g style="mix-blend-mode:multiply">
<path d="M355.23 46.0704H318.84L333.91 30.3504C332.36 29.3504 330.79 28.4004 329.21 27.4604L311.09 46.0704H303.56L324.45 24.6604C321.29 22.887 318.08 21.2037 314.82 19.6104L288.91 46.0104L275.3 46.0704C257.96 46.1404 258.99 103.92 259.99 103.92H272.21C272.339 106.094 273.293 108.136 274.878 109.629C276.462 111.123 278.558 111.954 280.735 111.954C282.912 111.954 285.007 111.123 286.592 109.629C288.177 108.136 289.131 106.094 289.26 103.92H364.65C364.779 106.094 365.733 108.136 367.318 109.629C368.902 111.123 370.998 111.954 373.175 111.954C375.352 111.954 377.447 111.123 379.032 109.629C380.617 108.136 381.571 106.094 381.7 103.92H392.9C394.244 103.919 395.568 103.601 396.766 102.991C397.963 102.381 398.999 101.497 399.79 100.41C395.096 91.9186 389.775 83.7894 383.87 76.0904H373.39V63.5904C371.117 61.1037 368.783 58.6704 366.39 56.2904V76.0904H345.09V54.5404H364.59C361.563 51.6204 358.443 48.797 355.23 46.0704ZM316.57 54.5404H337.83V76.0904H316.57V54.5404ZM287.93 54.5404H309.19V76.0904H287.93V54.5404ZM273.98 54.5404H281.28V76.0904H273.98V54.5404Z" fill="#0AB4DB"/>
</g>
<g style="mix-blend-mode:multiply">
<path d="M248.66 38.5601V47.3501C248.608 48.4142 248.148 49.4174 247.377 50.1521C246.605 50.8867 245.58 51.2964 244.515 51.2964C243.45 51.2964 242.425 50.8867 241.654 50.1521C240.882 49.4174 240.422 48.4142 240.37 47.3501V33.5801C240.381 30.0904 241.772 26.7467 244.239 24.2791C246.707 21.8116 250.05 20.4206 253.54 20.4101H274.25L274.36 20.3201L286.18 11.2101C286.845 10.7304 287.671 10.5282 288.483 10.6462C289.294 10.7641 290.028 11.193 290.53 11.8423C291.031 12.4915 291.26 13.3101 291.169 14.1252C291.077 14.9403 290.673 15.6879 290.04 16.2101L281.04 23.1401L283.63 33.8301C283.843 34.2116 283.998 34.6228 284.09 35.0501L286.33 46.3501C286.449 46.8883 286.459 47.4448 286.36 47.9871C286.261 48.5293 286.055 49.0462 285.753 49.5076C285.451 49.969 285.061 50.3655 284.604 50.6739C284.147 50.9823 283.633 51.1964 283.093 51.3036C282.552 51.4108 281.995 51.409 281.455 51.2982C280.916 51.1874 280.403 50.97 279.948 50.6585C279.494 50.3471 279.106 49.948 278.807 49.4846C278.509 49.0212 278.306 48.5029 278.21 47.9601L276.8 40.8601L274.8 48.1501C274.658 48.6754 274.414 49.1676 274.082 49.5986C273.75 50.0296 273.337 50.391 272.865 50.6622C272.393 50.9333 271.873 51.1089 271.333 51.1789C270.793 51.2489 270.245 51.2119 269.72 51.0701C269.195 50.9283 268.703 50.6844 268.272 50.3523C267.841 50.0203 267.479 49.6066 267.208 49.1348C266.937 48.6631 266.761 48.1426 266.691 47.603C266.621 47.0634 266.658 46.5154 266.8 45.9901L268.8 38.5801L248.66 38.5601Z" fill="#9E79B4"/>
</g>
<g style="mix-blend-mode:multiply">
<path d="M222.39 14.8202H225.66C225.894 12.529 227.018 10.4213 228.79 8.9502L231.35 0.950195C234.83 3.5702 244.56 11.8802 244.14 17.8402C243.97 20.1402 241.47 24.4302 236.82 24.4302H222.39C221.756 24.4302 221.128 24.3053 220.542 24.0625C219.956 23.8198 219.423 23.464 218.975 23.0155C218.526 22.567 218.17 22.0346 217.928 21.4486C217.685 20.8626 217.56 20.2345 217.56 19.6002C217.56 18.9659 217.685 18.3378 217.928 17.7518C218.17 17.1658 218.526 16.6334 218.975 16.1849C219.423 15.7364 219.956 15.3806 220.542 15.1379C221.128 14.8951 221.756 14.7702 222.39 14.7702V14.8202Z" fill="#9E79B4"/>
</g>
<g style="mix-blend-mode:multiply">
<path d="M269 4.02027L251.3 17.7003C250.883 17.9276 250.399 17.9991 249.934 17.902C249.469 17.8048 249.054 17.5453 248.762 17.17C248.471 16.7947 248.323 16.328 248.345 15.8535C248.366 15.379 248.556 14.9277 248.88 14.5803L263.82 3.03027C265.547 3.33694 267.273 3.67027 269 4.03027V4.02027Z" fill="#9E79B4"/>
</g>
<g style="mix-blend-mode:multiply">
<path d="M158.18 185.67C157.05 181.6 154.72 177.99 150.49 177.99H116.15L129.64 164.51L109.38 144.25L89.09 164.51L102.57 177.99H36.44C36.24 180.35 36.0866 182.727 35.98 185.12H54.09V205.59H36.09C36.6401 215.079 37.8868 224.514 39.82 233.82H39.96L39.87 234.04C40.21 235.68 40.58 237.31 40.96 238.94C41.713 239.621 42.6782 240.02 43.692 240.071C44.7058 240.121 45.7059 239.819 46.5227 239.217C47.3396 238.614 47.9229 237.748 48.1739 236.764C48.4249 235.78 48.3281 234.74 47.9 233.82H53.37C53.0542 234.489 52.9126 235.227 52.9584 235.966C53.0042 236.704 53.2359 237.419 53.632 238.044C54.0281 238.669 54.5757 239.184 55.224 239.54C55.8722 239.897 56.6001 240.084 57.34 240.084C58.0799 240.084 58.8077 239.897 59.456 239.54C60.1043 239.184 60.6519 238.669 61.048 238.044C61.444 237.419 61.6757 236.704 61.7216 235.966C61.7674 235.227 61.6258 234.489 61.31 233.82H67.09C66.7673 234.491 66.62 235.232 66.662 235.976C66.7039 236.719 66.9337 237.439 67.3298 238.069C67.726 238.699 68.2755 239.219 68.927 239.579C69.5785 239.939 70.3106 240.128 71.055 240.128C71.7993 240.128 72.5315 239.939 73.183 239.579C73.8345 239.219 74.384 238.699 74.7801 238.069C75.1763 237.439 75.406 236.719 75.448 235.976C75.4899 235.232 75.3427 234.491 75.02 233.82H115.71C115.387 234.491 115.24 235.232 115.282 235.976C115.324 236.719 115.554 237.439 115.95 238.069C116.346 238.699 116.896 239.219 117.547 239.579C118.198 239.939 118.931 240.128 119.675 240.128C120.419 240.128 121.151 239.939 121.803 239.579C122.454 239.219 123.004 238.699 123.4 238.069C123.796 237.439 124.026 236.719 124.068 235.976C124.11 235.232 123.963 234.491 123.64 233.82H129.09C128.783 234.49 128.649 235.227 128.701 235.963C128.753 236.698 128.989 237.409 129.387 238.029C129.785 238.65 130.333 239.161 130.98 239.514C131.627 239.868 132.353 240.053 133.09 240.053C133.827 240.053 134.553 239.868 135.2 239.514C135.847 239.161 136.395 238.65 136.793 238.029C137.191 237.409 137.427 236.698 137.479 235.963C137.531 235.227 137.397 234.49 137.09 233.82H142.79C142.474 234.489 142.333 235.227 142.378 235.966C142.424 236.704 142.656 237.419 143.052 238.044C143.448 238.669 143.996 239.184 144.644 239.54C145.292 239.897 146.02 240.084 146.76 240.084C147.5 240.084 148.228 239.897 148.876 239.54C149.524 239.184 150.072 238.669 150.468 238.044C150.864 237.419 151.096 236.704 151.142 235.966C151.187 235.227 151.046 234.489 150.73 233.82C154.85 233.73 157.3 230.2 158.25 226.14L163.37 204.2L158.18 185.67ZM81.56 205.59H61.02V185.12H81.56V205.59ZM109.17 205.59H88.62V185.12H109.17V205.59ZM109.38 176.29L97.59 164.51L109.38 152.72L121.17 164.51L109.38 176.29ZM136.3 205.59H115.75V185.12H136.3V205.59ZM150.49 205.59H143.3V185.12H150.49V205.59Z" fill="#F07F22"/>
</g>
<g style="mix-blend-mode:multiply">
<path d="M224.09 58.6401C224.906 59.4872 225.355 60.6224 225.338 61.7986C225.321 62.9748 224.84 64.0968 224 64.9201C220.29 68.5401 216.18 72.5201 211.85 76.7101H217.09C217.69 76.6816 218.29 76.7752 218.853 76.9852C219.416 77.1952 219.93 77.5173 220.365 77.9319C220.8 78.3466 221.146 78.8451 221.382 79.3974C221.619 79.9498 221.741 80.5443 221.741 81.1451C221.741 81.7459 221.619 82.3405 221.382 82.8928C221.146 83.4451 220.8 83.9437 220.365 84.3583C219.93 84.7729 219.416 85.095 218.853 85.305C218.29 85.515 217.69 85.6086 217.09 85.5801H203.28C203.084 85.5954 202.886 85.5954 202.69 85.5801C198.69 89.4101 194.64 93.3101 190.56 97.2201H199.18C200.357 97.2201 201.487 97.6879 202.319 98.5206C203.152 99.3532 203.62 100.483 203.62 101.66C203.62 102.838 203.152 103.967 202.319 104.8C201.487 105.632 200.357 106.1 199.18 106.1H181.29L172.55 114.46C168.26 118.55 167.16 122.25 167.17 125.55V146.55H148.61V146.47H147.96V125.47C147.96 122.17 146.87 118.47 142.59 114.38L133.83 106.02H115.95C115.35 106.049 114.75 105.955 114.187 105.745C113.624 105.535 113.11 105.213 112.675 104.798C112.24 104.384 111.894 103.885 111.658 103.333C111.421 102.78 111.299 102.186 111.299 101.585C111.299 100.984 111.421 100.39 111.658 99.8374C111.894 99.2851 112.24 98.7866 112.675 98.3719C113.11 97.9573 113.624 97.6352 114.187 97.4252C114.75 97.2152 115.35 97.1216 115.95 97.1501H124.56L112.44 85.5101C112.244 85.5254 112.046 85.5254 111.85 85.5101H98.0899C96.9124 85.5101 95.783 85.0423 94.9504 84.2097C94.1177 83.377 93.6499 82.2477 93.6499 81.0701C93.6499 79.8926 94.1177 78.7632 94.9504 77.9306C95.783 77.0979 96.9124 76.6301 98.0899 76.6301H103.33C98.9899 72.4401 94.8899 68.4601 91.1699 64.8401C90.372 64.0096 89.9279 62.9014 89.9317 61.7496C89.9354 60.5979 90.3865 59.4926 91.1899 58.6672C91.9932 57.8418 93.0858 57.3609 94.2371 57.326C95.3883 57.2911 96.5081 57.7049 97.3599 58.4801C101.293 62.3134 105.213 66.1468 109.12 69.9801V66.1401C109.12 64.9626 109.588 63.8332 110.42 63.0006C111.253 62.1679 112.382 61.7001 113.56 61.7001C114.737 61.7001 115.867 62.1679 116.699 63.0006C117.532 63.8332 118 64.9626 118 66.1401V77.3501C117.999 77.7389 117.945 78.1257 117.84 78.5001L131.51 91.9001V83.9001C131.481 83.3 131.575 82.7003 131.785 82.1374C131.995 81.5745 132.317 81.0601 132.732 80.6253C133.146 80.1905 133.645 79.8444 134.197 79.6079C134.75 79.3714 135.344 79.2495 135.945 79.2495C136.546 79.2495 137.14 79.3714 137.693 79.6079C138.245 79.8444 138.743 80.1905 139.158 80.6253C139.573 81.0601 139.895 81.5745 140.105 82.1374C140.315 82.7003 140.408 83.3 140.38 83.9001V100.63L153.09 113.08V89.0801L152.95 88.9501C139.93 76.2835 126.93 63.5668 113.95 50.8001H98.9499C105.056 45.2463 111.509 40.0859 118.27 35.3501V42.6101C129.877 53.9501 141.483 65.3068 153.09 76.6801V60.8301L138.81 46.9101C138.014 46.0781 137.573 44.9696 137.578 43.8183C137.584 42.667 138.037 41.563 138.842 40.7392C139.646 39.9154 140.739 39.4363 141.89 39.4029C143.04 39.3695 144.159 39.7844 145.01 40.5601L153.09 48.4301V34.1901H129.55C128.526 34.1887 127.534 33.8351 126.74 33.1887C125.946 32.5423 125.399 31.6424 125.19 30.6401C128.083 28.7935 131.023 27.0201 134.01 25.3201H144.29L140.61 21.7401C143.317 20.3401 146.06 19.0068 148.84 17.7401C150.14 18.9601 151.67 20.1501 153.09 21.5301V15.8201C156.03 14.5535 159.013 13.3534 162.04 12.2201V21.5801C165.47 18.2401 169.52 16.0401 169.52 11.8501V9.62012C177.103 7.13555 184.835 5.13157 192.67 3.62012C192.438 4.1748 192.098 4.67787 191.67 5.10012L185.47 11.1001H189.92C191.06 11.1543 192.135 11.6452 192.922 12.4709C193.71 13.2967 194.149 14.394 194.149 15.5351C194.149 16.6762 193.71 17.7735 192.922 18.5993C192.135 19.4251 191.06 19.916 189.92 19.9701H176.36L170.85 25.3501H185.59C186.767 25.3501 187.897 25.8179 188.729 26.6506C189.562 27.4832 190.03 28.6126 190.03 29.7901C190.03 30.9677 189.562 32.097 188.729 32.9297C187.897 33.7623 186.767 34.2301 185.59 34.2301H162.09V48.5101L170.09 40.6401C170.507 40.2337 171 39.9133 171.541 39.6974C172.081 39.4815 172.659 39.3741 173.241 39.3816C173.824 39.389 174.399 39.511 174.934 39.7407C175.469 39.9704 175.953 40.3032 176.36 40.7201C176.766 41.1371 177.087 41.63 177.303 42.1707C177.519 42.7115 177.626 43.2895 177.618 43.8717C177.611 44.4539 177.489 45.029 177.259 45.564C177.03 46.0991 176.697 46.5837 176.28 46.9901L162.09 60.9101V76.7601C173.723 65.4268 185.33 54.0568 196.91 42.6501V11.8501C196.91 10.6726 197.378 9.54322 198.21 8.71056C199.043 7.8779 200.172 7.41012 201.35 7.41012C202.527 7.41012 203.657 7.8779 204.489 8.71056C205.322 9.54322 205.79 10.6726 205.79 11.8501V33.9601L212.71 27.2101C213.127 26.8037 213.62 26.4833 214.161 26.2674C214.701 26.0515 215.279 25.9441 215.862 25.9516C216.444 25.959 217.019 26.081 217.554 26.3107C218.089 26.5404 218.574 26.8732 218.98 27.2901C219.386 27.7071 219.707 28.2 219.923 28.7407C220.139 29.2815 220.246 29.8595 220.238 30.4417C220.231 31.0239 220.109 31.599 219.879 32.134C219.65 32.6691 219.317 33.1537 218.9 33.5601L210.25 42.0101H219.06C220.237 42.0101 221.367 42.4779 222.199 43.3106C223.032 44.1432 223.5 45.2726 223.5 46.4501C223.5 47.6277 223.032 48.757 222.199 49.5897C221.367 50.4223 220.237 50.8901 219.06 50.8901H201.14C188.16 63.6101 175.16 76.3268 162.14 89.0401L162 89.1701V113.17C166.26 109.017 170.51 104.863 174.75 100.71V83.9601C174.75 82.7826 175.218 81.6532 176.05 80.8206C176.883 79.9879 178.012 79.5201 179.19 79.5201C180.367 79.5201 181.497 79.9879 182.329 80.8206C183.162 81.6532 183.63 82.7826 183.63 83.9601V91.9601L197.3 78.5601C197.196 78.1856 197.142 77.7989 197.14 77.4101V66.2201C197.14 65.0426 197.608 63.9132 198.44 63.0806C199.273 62.2479 200.402 61.7801 201.58 61.7801C202.757 61.7801 203.887 62.2479 204.719 63.0806C205.552 63.9132 206.02 65.0426 206.02 66.2201V70.0501L217.78 58.5701C218.624 57.7513 219.758 57.2992 220.934 57.3123C222.111 57.3254 223.234 57.8027 224.06 58.6401H224.09Z" fill="#48AC37"/>
</g>
<g style="mix-blend-mode:multiply">
<path d="M387.36 263.96L387.26 264.13L383 261.52L378.13 258.52L378.23 258.36C381.565 249.903 386.324 242.08 392.3 235.23L392.38 235.28L397.25 238.28L401.45 240.85C395.477 247.699 390.718 255.518 387.38 263.97L387.36 263.96ZM368.26 295.17L368.36 295.01L364.09 292.4L359.22 289.4L359.12 289.56C353.119 296.364 348.324 304.142 344.94 312.56L345.02 312.61L349.88 315.61L354.08 318.19C357.457 309.752 362.257 301.955 368.27 295.14L368.26 295.17ZM384.09 284.66C380.855 289.756 376.458 294.013 371.26 297.08C368.568 300.406 366.099 303.907 363.87 307.56C361.433 311.516 359.294 315.647 357.47 319.92C366.58 324.03 382.09 314.09 394.29 296.64C395.38 295.07 396.44 293.45 397.47 291.76C410.05 271.21 412.99 249.93 404.47 243.1C401.503 246.672 398.799 250.456 396.38 254.42C394.132 258.067 392.128 261.859 390.38 265.77C389.977 272.195 387.973 278.417 384.55 283.87L384.05 284.66H384.09Z" fill="#DA261D"/>
</g>
<g style="mix-blend-mode:multiply">
<path d="M399.41 228.11L384.81 227.74C384.07 227.722 383.353 227.998 382.817 228.508C382.28 229.018 381.968 229.72 381.95 230.46C381.931 231.2 382.207 231.917 382.718 232.454C383.228 232.99 383.93 233.302 384.67 233.32L399.27 233.69C399.636 233.7 400.001 233.637 400.343 233.505C400.685 233.373 400.998 233.175 401.263 232.923C401.529 232.67 401.742 232.368 401.891 232.033C402.039 231.698 402.121 231.337 402.13 230.97C402.139 230.604 402.076 230.239 401.944 229.897C401.813 229.555 401.615 229.243 401.362 228.977C401.11 228.712 400.807 228.498 400.472 228.35C400.137 228.201 399.776 228.12 399.41 228.11V228.11ZM385.51 104.35L389.57 197.49C389.564 198.023 389.355 198.532 388.985 198.915C388.614 199.297 388.112 199.523 387.58 199.546C387.049 199.569 386.528 199.387 386.126 199.039C385.725 198.69 385.472 198.2 385.42 197.67L381.28 104.5C376.06 105.45 373.07 109.62 370.22 120.18L341.22 249.55C341.139 249.912 340.988 250.255 340.775 250.558C340.562 250.861 340.291 251.12 339.978 251.318C339.665 251.517 339.316 251.652 338.951 251.716C338.586 251.78 338.212 251.771 337.85 251.69C337.488 251.61 337.146 251.458 336.842 251.245C336.539 251.032 336.281 250.762 336.082 250.449C335.883 250.136 335.748 249.787 335.684 249.422C335.62 249.056 335.629 248.682 335.71 248.32L364.65 119.17C366.49 108.5 373.26 98.9204 383.65 98.9204C393.31 98.9204 399.98 105.92 402.83 116.65C402.862 116.749 402.889 116.849 402.91 116.95L402.96 117.17C403.13 117.85 403.28 118.54 403.42 119.24L423.29 207.87C422.877 213.637 422.21 219.327 421.29 224.94L397.82 119.86C395.3 109.49 391.54 104.98 385.51 104.35V104.35ZM385.19 201.44L394.53 203.95L394.96 202.14C395.335 200.541 396.33 199.156 397.727 198.291C399.123 197.426 400.806 197.15 402.405 197.525C404.004 197.901 405.389 198.896 406.254 200.292C407.12 201.688 407.395 203.371 407.02 204.97L404.09 217.5C403.29 220.92 401.6 225.89 396.85 225.73L387.69 225.42C383.49 225.42 383.77 224.66 380.1 226.69L373.22 230.5C365.71 234.65 364.07 226.72 368.12 224.45C372.17 222.18 376.69 219.34 380.7 217.45C383.77 215.85 390.96 219.24 392.03 214.7L393.21 209.7L383.69 207.15C382.957 206.937 382.336 206.445 381.962 205.78C381.587 205.115 381.488 204.329 381.685 203.592C381.883 202.854 382.361 202.223 383.018 201.834C383.675 201.445 384.458 201.329 385.2 201.51L385.19 201.44ZM402.82 181.03C404.244 181.03 405.637 181.453 406.821 182.245C408.005 183.036 408.928 184.161 409.473 185.477C410.017 186.794 410.159 188.242 409.881 189.639C409.602 191.036 408.915 192.319 407.908 193.325C406.9 194.332 405.616 195.017 404.218 195.293C402.821 195.57 401.373 195.426 400.058 194.879C398.742 194.333 397.618 193.409 396.828 192.223C396.039 191.038 395.618 189.645 395.62 188.22C395.623 186.313 396.382 184.484 397.732 183.136C399.082 181.788 400.912 181.03 402.82 181.03V181.03Z" fill="#E43D3D"/>
</g>
<g style="mix-blend-mode:multiply">
<path d="M198.69 350.15C196.385 355.728 192.776 360.671 188.165 364.566C183.555 368.46 178.078 371.192 172.194 372.532C166.309 373.873 160.189 373.783 154.347 372.269C148.505 370.756 143.111 367.863 138.618 363.834C134.124 359.806 130.663 354.758 128.523 349.115C126.383 343.472 125.628 337.398 126.321 331.403C127.014 325.408 129.134 319.666 132.504 314.66C135.875 309.653 140.396 305.528 145.69 302.63V311.75C141.762 314.709 138.619 318.586 136.538 323.042C134.457 327.498 133.501 332.396 133.753 337.308C134.006 342.219 135.46 346.994 137.988 351.212C140.515 355.431 144.039 358.965 148.251 361.504C152.462 364.044 157.233 365.512 162.143 365.778C167.054 366.045 171.955 365.103 176.417 363.034C180.879 360.966 184.765 357.834 187.734 353.914C190.704 349.994 192.667 345.406 193.45 340.55L198.69 350.15ZM160.27 281.2C162.957 281.211 165.53 282.284 167.428 284.186C169.326 286.088 170.395 288.664 170.4 291.35V298.08H188.95C190.276 298.08 191.548 298.607 192.486 299.545C193.423 300.483 193.95 301.754 193.95 303.08C193.95 304.407 193.423 305.678 192.486 306.616C191.548 307.554 190.276 308.08 188.95 308.08H170.4V315.89H195.01C196.233 315.889 197.434 316.214 198.49 316.83C199.546 317.377 200.421 318.218 201.01 319.25L216.79 346.59C217.22 347.307 217.502 348.103 217.622 348.93C217.741 349.758 217.694 350.6 217.485 351.41C217.275 352.219 216.906 352.978 216.4 353.644C215.894 354.309 215.26 354.867 214.537 355.285C213.813 355.703 213.013 355.973 212.184 356.078C211.354 356.184 210.512 356.124 209.707 355.901C208.901 355.678 208.148 355.297 207.491 354.78C206.834 354.264 206.286 353.621 205.88 352.89L192.51 329.75H160.3C159.52 329.751 158.746 329.619 158.01 329.36C155.776 328.841 153.783 327.582 152.353 325.79C150.923 323.997 150.14 321.774 150.13 319.48V291.35C150.138 288.664 151.209 286.089 153.109 284.189C155.009 282.289 157.583 281.218 160.27 281.21V281.2ZM160.75 257.94C162.807 257.94 164.818 258.55 166.528 259.693C168.238 260.836 169.571 262.46 170.358 264.361C171.145 266.261 171.351 268.352 170.95 270.369C170.549 272.387 169.558 274.24 168.104 275.694C166.649 277.149 164.796 278.139 162.779 278.541C160.761 278.942 158.67 278.736 156.77 277.949C154.87 277.162 153.245 275.829 152.103 274.118C150.96 272.408 150.35 270.397 150.35 268.34C150.35 265.582 151.446 262.937 153.396 260.987C155.346 259.036 157.992 257.94 160.75 257.94Z" fill="#AD4983"/>
</g>
<g style="mix-blend-mode:multiply">
<path d="M196.09 377.04H235.73L235.81 360.19L197.66 360.05L229.09 333.41L210.39 333.21L233.82 311.64L223.34 311.55L240.09 295.78L243.16 292.83L244.32 293.98L262.94 311.55L252.47 311.64L275.89 333.21L257.2 333.41L288.67 360.02L252.29 360.08L252.22 377H281.91C268.549 383.571 253.86 386.992 238.971 387C224.082 387.009 209.389 383.605 196.02 377.05L196.09 377.04Z" fill="#48AC37"/>
</g>
<g style="mix-blend-mode:multiply">
<path d="M43.45 228.15L43.53 222.15L55.6199 222.3L55.5399 228.35L43.45 228.15ZM61.5799 228.39L61.66 222.39L73.75 222.55L73.67 228.55L61.5799 228.39ZM79.7099 228.62L79.7899 222.62L91.8699 222.77L91.8 228.82L79.7099 228.62ZM97.84 228.86L97.92 222.86L110.01 223.02L109.93 229.02L97.84 228.86ZM115.97 229.09L116.05 223.09L120.34 223.14H123.34V233.92H117.34V229.11L115.97 229.09ZM117.28 239.96H123.28V252.05H117.28V239.96ZM117.28 258.09H123.28V270.18H117.28V258.09ZM123.89 275.66V269.66H135.98V275.66H123.89ZM142.02 275.66V269.66H154.11V275.66H142.02ZM160.15 275.66V269.61H172.24V275.61L160.15 275.66ZM178.28 275.66V269.61H190.37V275.61L178.28 275.66ZM196.42 275.66V269.66H208.51V275.66H196.42ZM214.55 275.66V269.66H226.64V275.66H214.55ZM232.68 275.66V269.61H244.77V275.61L232.68 275.66ZM250.81 275.66V269.66H262.89V275.66H250.81ZM268.94 275.66V269.66H281.02V275.66H268.94ZM287.09 275.35V269.35H299.18V275.35H287.09ZM298.55 275.96H304.55V288.05H298.55V275.96ZM298.6 294.09H304.65V306.18H298.65L298.6 294.09ZM298.66 312.22H304.66V324.31H298.66V312.22ZM298.69 330.35H304.69V342.44H298.69V330.35ZM298.75 348.48H304.75V360.56H298.7L298.75 348.48ZM298.75 366.61H304.8V373.1C302.8 373.94 300.8 374.744 298.8 375.51L298.75 366.61Z" fill="#9E79B4"/>
</g>
<g style="mix-blend-mode:multiply">
<path d="M91.2001 249.73C70.8401 249.73 54.3201 254.48 54.3201 260.35C54.3209 260.733 54.3921 261.113 54.5301 261.47L57.0901 279.2C60.2196 285.597 63.6878 291.822 67.4801 297.85L66.6601 291.76C70.8513 292.58 75.0895 293.137 79.3501 293.43L80.0101 302.52C76.3431 302.236 72.7164 301.565 69.1901 300.52C70.9101 303.14 72.6801 305.723 74.5001 308.27C76.4401 308.56 78.4401 308.79 80.5001 308.96L81.0401 316.34H80.6301C82.8101 319.073 85.0601 321.74 87.3801 324.34L87.3001 323.13C90.7501 323.22 94.2401 323.13 97.6701 322.94L97.1201 330.81C95.9801 330.9 94.8001 330.97 93.5901 331.01C96.7701 334.283 100.063 337.447 103.47 340.5C111.4 339.3 116.96 336.98 117.57 334.26C117.57 334.15 117.57 334.05 117.62 333.95L120.22 315.8C120.397 315.12 120.494 314.422 120.51 313.72L128.06 261.14C128.097 260.878 128.107 260.614 128.09 260.35C128.09 254.48 111.57 249.73 91.2001 249.73ZM65.6601 284.67L64.0901 273.18C68.6504 274.609 73.3393 275.591 78.0901 276.11L78.8701 286.95C74.3973 286.67 69.9681 285.905 65.6601 284.67ZM62.6601 262.53C62.9801 259.65 75.6601 257.34 91.1801 257.34C103.59 257.34 114.18 258.81 118.08 260.87L117.9 261C109 268.77 75.0901 270.59 62.6801 262.53H62.6601ZM98.0901 316.35C94.3393 316.673 90.5736 316.79 86.8101 316.7L86.2901 309.31C90.3963 309.431 94.5061 309.32 98.6001 308.98L98.0901 316.35ZM99.0901 302.35C94.6962 302.812 90.2767 302.986 85.8601 302.87L85.2201 293.76C90.0524 293.899 94.8886 293.792 99.7101 293.44L99.0901 302.35ZM100.18 286.76C95.0588 287.247 89.9125 287.421 84.7701 287.28L84.0301 276.63C89.6645 276.926 95.3138 276.755 100.92 276.12L100.18 286.76ZM111.18 325.76C111.18 327.54 107.9 329.1 102.86 330.07L103.42 322.43C106.33 322.08 109.15 321.62 111.82 321.03L111.18 325.76ZM112.85 313.35C109.956 314.406 106.96 315.157 103.91 315.59L104.44 308.29C107.589 307.859 110.711 307.248 113.79 306.46L112.85 313.35ZM114.93 298.01C112.87 299.46 109.29 300.62 104.93 301.44L105.56 292.82C109.16 292.38 112.63 291.82 115.86 291.08L114.93 298.01ZM116.93 282.92C113.457 284.442 109.783 285.452 106.02 285.92L106.8 275.15C110.586 274.505 114.317 273.568 117.96 272.35C118.14 272.277 118.308 272.18 118.46 272.06L116.93 282.92Z" fill="#E21F2C"/>
</g>
<g style="mix-blend-mode:multiply">
<path d="M90.0901 97.4802C89.0901 104.23 86.8501 112.38 85.2801 119.18C83.6401 126.24 82.0201 133.46 80.4701 140.59C77.9901 152.03 79.0101 150.83 73.5901 159.95C70.2967 165.47 66.9867 171.017 63.6601 176.59C61.8501 179.59 60.2901 182.69 62.4201 186.59C63.3003 188.116 64.6595 189.309 66.2868 189.983C67.9141 190.658 69.7185 190.776 71.4201 190.32C76.0001 189.01 79.7201 180.83 82.8401 175.52C86.1301 169.94 89.3601 164.6 92.6101 159.04C95.4901 154.1 96.5101 140.69 98.1601 138.04C101.51 141.24 108.34 149.11 111.77 152.92C116.14 157.78 114.6 154.63 116.7 165.38C117.85 171.28 118.84 179.1 120.41 184.62C120.77 185.99 121.484 187.241 122.481 188.247C123.479 189.253 124.723 189.978 126.09 190.35C127.617 190.724 129.22 190.648 130.705 190.132C132.19 189.616 133.494 188.681 134.46 187.44C137.35 183.28 134.85 175.15 133.58 168.76C132.87 165.16 130.81 151.88 129.64 149.76C129.11 148.76 120.26 138.55 119.2 137.25C117.46 135.1 115.59 133.25 113.93 131.04C112.262 128.915 110.479 126.882 108.59 124.95L113.72 101.5C114.14 101.85 113.9 101.6 114.29 102.09C116.81 105.29 116.36 109.23 121.02 112.48C124.56 114.95 133.7 121.48 136.94 123.48C137.945 124.136 139.13 124.462 140.33 124.412C141.529 124.362 142.683 123.938 143.63 123.2C144.565 122.364 145.177 121.227 145.359 119.986C145.542 118.746 145.284 117.48 144.63 116.41C143.44 114.5 131.23 106.64 128.83 104.99C126.43 103.34 127.13 103.74 125.14 99.8202L115.98 81.8202C111.68 73.2402 103.6 71.9802 95.5501 78.4902L83.0901 88.5102C81.9001 89.4202 73.7001 96.0602 73.2501 96.7002C72.0401 98.4102 70.1501 108.26 69.4701 111.3C68.6901 114.83 65.9501 123.08 67.9401 125.87C69.9301 128.66 76.2001 130.35 77.9401 122.08C79.0101 117.08 80.0901 112.26 81.1501 107.27C82.1501 102.77 81.9601 103.87 84.6801 101.6C86.3291 100.073 88.1093 98.6948 90.0001 97.4802H90.0901Z" fill="#E21F2C"/>
</g>
<g style="mix-blend-mode:multiply">
<path d="M106.55 48.6002C91.13 51.6602 95.39 74.2502 110.55 71.7202C126.05 69.1402 121.48 45.6302 106.55 48.6002Z" fill="#E21F2C"/>
</g>
<g style="mix-blend-mode:multiply">
<path d="M121.62 203.09H133.75V193.46H121.53L121.62 203.09Z" fill="#E21F2C"/>
</g>
<g style="mix-blend-mode:multiply">
<path d="M68.3401 168.18H81.0901L82.4601 168.03V157.17L81.0901 156.97H68.3901L68.3401 168.18Z" fill="#E21F2C"/>
</g>
<g style="mix-blend-mode:multiply">
<path d="M73.0901 203.09H85.1901V193.46H73.1401L73.0901 203.09Z" fill="#E21F2C"/>
</g>
<g style="mix-blend-mode:multiply">
<path d="M48.8401 203.09H60.9401V193.46H48.8701L48.8401 203.09Z" fill="#E21F2C"/>
</g>
<g style="mix-blend-mode:multiply">
<path d="M145.57 203.09H157.69V193.46H145.64L145.57 203.09Z" fill="#E21F2C"/>
</g>
<g style="mix-blend-mode:multiply">
<path d="M141.42 168.18H155.48V157.01H141.48L141.42 168.18Z" fill="#E21F2C"/>
</g>
<g style="mix-blend-mode:multiply">
<path d="M331.81 303.09C332.26 304.09 339.62 311.16 341.01 312.57C342.62 314.21 344.07 315.65 345.7 317.27C351.81 323.32 355.15 326.48 347.13 334.04C342.23 338.65 337.74 343.31 332.94 347.74L328.25 352.45C327.02 353.61 325.01 355.85 322.88 356.45C321.662 356.796 320.372 356.806 319.149 356.477C317.926 356.148 316.815 355.494 315.935 354.584C315.054 353.673 314.437 352.541 314.149 351.308C313.861 350.074 313.913 348.786 314.3 347.58C315.43 344.13 325.59 336.42 327.64 333.38C313.64 333.01 299.25 333.38 285.23 333.38C281.23 333.38 256.65 333.95 253.95 332.75C252.705 332.185 251.654 331.265 250.93 330.105C250.206 328.945 249.841 327.597 249.88 326.23C250.13 318.09 259.46 319.55 264.45 319.54H306.86C313.78 319.54 321.11 319.76 327.98 319.54C327.23 317.99 325.09 316.34 323.8 315.04C317.8 308.94 313.39 306.89 315.21 300.04L315.32 299.92L315.43 299.79L315.98 299.02C316.216 298.688 316.488 298.383 316.79 298.11C323.54 291.82 329.34 301.83 331.79 303.19L331.81 303.09Z" fill="#9E79B4"/>
</g>
<g style="mix-blend-mode:multiply">
<path d="M321.36 281.75L321.41 287.75L309.32 287.86L309.27 281.81L321.36 281.75ZM414.41 247.75V253.8H402.33V247.75H414.41ZM396.28 247.75V253.8H384.19V247.75H396.28ZM378.15 247.75V253.8H366.09V247.75H378.15ZM360.02 247.75V253.8H356.67V256.46H350.67V250.76V247.76L360.02 247.75ZM350.67 262.53H356.67L356.73 274.62H350.73L350.67 262.53ZM350.76 280.66H356.76V284.5V287.5H353.76L345.53 287.57L345.48 281.57L350.7 281.52L350.76 280.66ZM339.49 281.6L339.54 287.6L327.46 287.7L327.41 281.7L339.49 281.6Z" fill="#9E79B4"/>
</g>
<g style="mix-blend-mode:multiply">
<path d="M265.62 159.35C266.161 154.479 267.877 149.812 270.62 145.75C272.36 143.13 277.19 137.75 280.16 136.84C281.58 138.84 287.64 150.29 289.44 153.45C290.629 155.326 291.65 157.304 292.49 159.36L265.62 159.35ZM196.49 138.59C207.55 146.22 213.7 165.32 203.21 180.48C202.186 181.919 201.056 183.279 199.83 184.55C198.66 185.888 197.314 187.062 195.83 188.04C170.25 206.34 135.28 179.26 150.12 148.62C159.55 129.18 185.4 130.15 190.02 134.86C189.38 136.58 183.26 147.14 181.94 149.41C179.13 154.26 173.19 162.29 177.94 164.41C181.42 165.96 182.94 162.34 184.21 159.98C186.12 156.5 195.46 139.55 196.45 138.62L196.49 138.59ZM286.83 133.69C291.68 130.75 302.6 132.17 307.58 134.13C326.34 141.51 333.23 164.87 321.71 180.77C304.3 204.77 268.36 193.57 265.61 166.52C272.8 166.59 280.02 166.52 287.21 166.52C293.7 166.52 304.76 168.21 301.96 161.39C300.4 157.61 287.65 136.39 286.83 133.69V133.69ZM210.19 113.6L228.51 145.26C231.51 150.71 234.58 155.76 237.62 161.26C239.75 165.17 239.62 166.49 245.19 166.44C248.63 166.44 253.84 166.15 257.08 166.53C258.42 172.31 258.46 174.83 260.87 180.02C263.173 184.671 266.297 188.868 270.09 192.41C283.21 203.6 302.86 205.95 317.49 196.19C353.05 172.44 332.15 118.75 291.18 123.98C287.98 124.39 285.18 125.55 282.47 125.98L274.78 112.34C273.7 110.19 274.72 109.29 277.07 105.16C277.98 103.57 280.07 99.1601 281.29 98.2901C284.9 98.2901 294.54 99.2901 296.5 97.1101C296.849 96.7036 297.102 96.2245 297.242 95.7075C297.383 95.1906 297.406 94.6489 297.31 94.122C297.214 93.595 297.002 93.0961 296.689 92.6616C296.376 92.227 295.97 91.8678 295.5 91.6101C293.83 90.8301 273.1 91.1301 270.63 91.2101C267.94 91.3101 266.08 92.5701 266.63 95.5901C267.17 98.4501 269.49 98.1801 272.54 98.3501L269.54 103.97H215.81L225.13 87.1001C230.3 86.9601 235.57 87.1001 240.75 87.1001C247.75 87.1001 246.9 80.1001 241.54 80.0001C236.36 79.8801 231.02 80.0001 225.81 80.0001C219.61 80.0001 220.91 80.2201 217.09 86.8901C213.18 93.7301 209.71 100.28 205.75 106.96C201.79 113.64 198.29 120.76 194.29 127.33C187.99 125.12 184.59 123.57 176.72 123.69C170.758 123.776 164.895 125.238 159.59 127.96C153.488 131.083 148.307 135.745 144.559 141.485C140.812 147.225 138.628 153.844 138.224 160.687C137.82 167.53 139.21 174.359 142.256 180.5C145.301 186.641 149.898 191.881 155.59 195.7C192.05 220.21 236.5 173.99 208.2 138.39C205.2 134.63 202.38 132.83 200.48 130.89L210.19 113.6ZM247.73 159.43C247.91 158.06 257.16 141.52 258.67 138.91C261.19 134.51 267.95 121.31 269.93 118.53C271.08 119.53 275.42 127.69 275.99 129.53C274.22 130.12 270.12 133.53 268.9 134.62C265.24 137.94 261.2 144.38 259.39 149.45C255.05 161.65 261.3 159.22 247.73 159.45V159.43ZM240.96 152.83C237.74 147.49 217.66 111.96 217.38 111.01L265.78 111.07L242.09 154.24L240.96 152.83Z" fill="#A6237F"/>
</g>
<g style="mix-blend-mode:multiply">
<path d="M303.48 150.9C305.306 150.898 307.091 151.438 308.611 152.451C310.13 153.464 311.314 154.905 312.015 156.591C312.715 158.278 312.899 160.134 312.544 161.925C312.189 163.716 311.311 165.362 310.02 166.653C308.73 167.945 307.085 168.825 305.294 169.182C303.504 169.539 301.647 169.357 299.96 168.659C298.273 167.96 296.831 166.777 295.816 165.259C294.802 163.741 294.26 161.956 294.26 160.13C294.263 157.685 295.235 155.34 296.963 153.61C298.691 151.88 301.035 150.906 303.48 150.9Z" fill="#F07F22"/>
</g>
<g style="mix-blend-mode:multiply">
<path d="M328.59 196.14V212.95C328.621 213.676 328.505 214.4 328.249 215.079C327.993 215.759 327.602 216.379 327.1 216.904C326.598 217.428 325.995 217.845 325.327 218.13C324.66 218.415 323.941 218.562 323.215 218.562C322.489 218.562 321.77 218.415 321.103 218.13C320.435 217.845 319.832 217.428 319.33 216.904C318.827 216.379 318.437 215.759 318.181 215.079C317.924 214.4 317.809 213.676 317.84 212.95V191.35C316.542 195.382 315.894 199.595 315.92 203.83V263.15C315.918 264.555 315.366 265.903 314.383 266.906C313.4 267.91 312.064 268.489 310.66 268.52H310.41C309.006 268.489 307.669 267.91 306.687 266.906C305.704 265.903 305.152 264.555 305.15 263.15V221.67C305.12 221.274 304.944 220.903 304.656 220.629C304.367 220.356 303.987 220.199 303.59 220.19V220.19C303.194 220.199 302.815 220.356 302.528 220.63C302.241 220.904 302.067 221.275 302.04 221.67V263.16C302.035 264.564 301.483 265.911 300.501 266.914C299.518 267.917 298.183 268.497 296.78 268.53H296.52C295.117 268.497 293.782 267.917 292.799 266.914C291.817 265.911 291.265 264.564 291.26 263.16V203.84C291.29 199.6 290.635 195.382 289.32 191.35V212.95C289.351 213.676 289.235 214.4 288.979 215.079C288.723 215.759 288.332 216.379 287.83 216.904C287.328 217.428 286.725 217.845 286.057 218.13C285.389 218.415 284.671 218.562 283.945 218.562C283.219 218.562 282.5 218.415 281.833 218.13C281.165 217.845 280.562 217.428 280.06 216.904C279.557 216.379 279.166 215.759 278.91 215.079C278.654 214.4 278.539 213.676 278.57 212.95V196.14C279.57 176.99 287.49 171.33 303.57 171.81C319.67 171.33 327.57 176.99 328.57 196.14H328.59ZM310.54 268.53H296.64Z" fill="#F07F22"/>
</g>
<g style="mix-blend-mode:multiply">
<path d="M360.84 237.08H359.27H358.33V263.23C358.325 264.634 357.773 265.98 356.79 266.983C355.808 267.986 354.473 268.566 353.07 268.6H352.82C351.416 268.569 350.079 267.989 349.097 266.986C348.114 265.983 347.562 264.635 347.56 263.23V235.41C344.461 234.704 341.412 233.799 338.43 232.7L347.62 195.07C347.51 194.612 347.373 194.162 347.21 193.72L342.09 211.9C341.38 214.41 339.65 216.82 336.36 215.96C331.19 214.61 333.42 208.56 334.36 205.74C337.65 195.46 338.92 186.98 343.63 179.05C345.52 175.87 349.63 173.7 359.32 173.89H360.1H360.89C370.56 173.7 374.69 175.89 376.58 179.05C381.3 186.98 382.58 195.46 385.85 205.74C386.75 208.56 388.97 214.61 383.85 215.96C380.56 216.82 378.85 214.41 378.12 211.9L372.99 193.72C372.827 194.162 372.69 194.612 372.58 195.07L381.77 232.7C378.788 233.799 375.738 234.704 372.64 235.41V263.16C372.638 264.563 372.088 265.909 371.107 266.913C370.126 267.916 368.792 268.496 367.39 268.53H367.09C365.686 268.499 364.349 267.919 363.367 266.916C362.384 265.913 361.832 264.565 361.83 263.16V237.01H360.89L360.84 237.08ZM367.16 268.53H352.95Z" fill="#F07F22"/>
</g>
<g style="mix-blend-mode:multiply">
<path d="M360.64 153.09C362.466 153.088 364.252 153.628 365.772 154.642C367.291 155.655 368.476 157.097 369.175 158.784C369.875 160.471 370.059 162.327 369.703 164.119C369.347 165.91 368.468 167.555 367.177 168.847C365.885 170.138 364.24 171.018 362.448 171.373C360.657 171.729 358.8 171.546 357.113 170.846C355.426 170.146 353.985 168.961 352.971 167.442C351.958 165.923 351.418 164.137 351.42 162.31C351.42 159.865 352.391 157.52 354.12 155.791C355.85 154.062 358.195 153.09 360.64 153.09Z" fill="#F07F22"/>
</g>
<g style="mix-blend-mode:multiply">
<path d="M202.32 284.02C205.27 283.13 207.05 282.46 210.2 282.46L289.87 282.36C293.6 282.36 294.51 281.82 297.98 280.46L309.43 275.97C309.832 275.803 310.263 275.718 310.698 275.72C311.134 275.722 311.564 275.811 311.965 275.981C312.365 276.152 312.728 276.4 313.031 276.713C313.334 277.025 313.572 277.395 313.73 277.8C313.889 278.205 313.964 278.638 313.953 279.073C313.942 279.508 313.844 279.937 313.666 280.334C313.487 280.731 313.231 281.088 312.912 281.384C312.593 281.681 312.219 281.911 311.81 282.06L299.54 286.87C296.82 287.93 295.19 288.87 292.25 288.87C293.439 289.678 294.338 290.845 294.815 292.201C295.291 293.557 295.321 295.031 294.898 296.405C294.476 297.778 293.624 298.981 292.468 299.835C291.312 300.689 289.912 301.15 288.475 301.15C287.038 301.15 285.638 300.689 284.482 299.835C283.326 298.981 282.474 297.778 282.052 296.405C281.629 295.031 281.659 293.557 282.135 292.201C282.612 290.845 283.511 289.678 284.7 288.87H220.7C221.887 289.679 222.783 290.847 223.258 292.203C223.732 293.559 223.76 295.031 223.337 296.404C222.913 297.776 222.061 298.977 220.906 299.83C219.75 300.683 218.351 301.143 216.915 301.143C215.479 301.143 214.08 300.683 212.924 299.83C211.769 298.977 210.917 297.776 210.494 296.404C210.07 295.031 210.098 293.559 210.572 292.203C211.047 290.847 211.943 289.679 213.13 288.87H209.77C208.747 288.847 207.728 289.02 206.77 289.38L204.15 290.17C203.346 290.365 202.498 290.245 201.781 289.833C201.064 289.421 200.532 288.75 200.294 287.958C200.057 287.165 200.133 286.312 200.506 285.574C200.879 284.836 201.521 284.269 202.3 283.99L202.32 284.02Z" fill="#0AB4DB"/>
</g>
<g style="mix-blend-mode:multiply">
<path d="M201.78 248.11H201.89C201.866 248.538 201.929 248.966 202.076 249.369C202.224 249.771 202.451 250.14 202.746 250.451C203.04 250.763 203.395 251.011 203.789 251.18C204.182 251.35 204.606 251.438 205.035 251.438C205.464 251.438 205.888 251.35 206.281 251.18C206.675 251.011 207.03 250.763 207.324 250.451C207.619 250.14 207.846 249.771 207.994 249.369C208.141 248.966 208.204 248.538 208.18 248.11V248.11C208.156 248.538 208.219 248.966 208.366 249.369C208.514 249.771 208.741 250.14 209.036 250.451C209.33 250.763 209.685 251.011 210.079 251.18C210.472 251.35 210.896 251.438 211.325 251.438C211.754 251.438 212.178 251.35 212.571 251.18C212.965 251.011 213.32 250.763 213.614 250.451C213.909 250.14 214.136 249.771 214.284 249.369C214.431 248.966 214.494 248.538 214.47 248.11H214.57C214.592 248.944 214.927 249.738 215.509 250.335C216.091 250.932 216.877 251.288 217.71 251.33C218.389 251.317 219.045 251.088 219.585 250.676C220.125 250.265 220.519 249.691 220.71 249.04C220.831 249.088 220.96 249.112 221.09 249.11C221.29 249.739 221.681 250.29 222.207 250.687C222.734 251.085 223.371 251.31 224.03 251.33C224.873 251.285 225.667 250.92 226.252 250.312C226.837 249.703 227.169 248.894 227.18 248.05C227.187 248.896 227.517 249.707 228.103 250.317C228.688 250.927 229.485 251.289 230.33 251.33C231.179 251.219 231.959 250.802 232.524 250.158C233.089 249.514 233.401 248.687 233.401 247.83C233.401 246.973 233.089 246.146 232.524 245.502C231.959 244.858 231.179 244.442 230.33 244.33C229.902 244.334 229.479 244.43 229.091 244.611C228.703 244.793 228.358 245.055 228.08 245.38L227.95 245.23C229.26 242.56 228.7 238.67 227.81 234.63C226.97 230.81 225.95 225.72 225.52 225.35C224.39 224.35 214.8 223.98 213.52 224.85C212.24 225.72 212.08 228.7 209.9 230.85C205.99 234.8 194 234.59 192.47 240.66C192.087 241.85 192.126 243.135 192.58 244.3H192.32C191.471 244.412 190.691 244.828 190.126 245.472C189.561 246.116 189.249 246.943 189.249 247.8C189.249 248.657 189.561 249.484 190.126 250.128C190.691 250.772 191.471 251.189 192.32 251.3C193.136 251.259 193.909 250.918 194.488 250.342C195.068 249.766 195.414 248.996 195.46 248.18C195.505 248.981 195.855 249.734 196.438 250.285C197.021 250.836 197.793 251.143 198.595 251.143C199.397 251.143 200.169 250.836 200.752 250.285C201.335 249.734 201.685 248.981 201.73 248.18L201.78 248.11Z" fill="#0AB4DB"/>
</g>
<g style="mix-blend-mode:multiply">
<path d="M333.27 224.17V226.73H342.16C343.619 226.73 345.018 227.31 346.049 228.341C347.081 229.372 347.66 230.771 347.66 232.23C347.66 233.689 347.081 235.088 346.049 236.119C345.018 237.151 343.619 237.73 342.16 237.73H333.27V246.11H348.14C349.132 246.142 350.071 246.564 350.753 247.285C351.435 248.006 351.804 248.968 351.78 249.96C351.789 250.757 351.55 251.537 351.097 252.193C350.644 252.848 349.999 253.347 349.25 253.62C349.265 253.736 349.265 253.854 349.25 253.97V280.35C349.269 280.613 349.234 280.877 349.146 281.126C349.058 281.375 348.921 281.603 348.741 281.796C348.561 281.99 348.344 282.144 348.102 282.249C347.86 282.354 347.599 282.409 347.335 282.409C347.071 282.409 346.81 282.354 346.568 282.249C346.327 282.144 346.109 281.99 345.929 281.796C345.75 281.603 345.612 281.375 345.524 281.126C345.436 280.877 345.401 280.613 345.42 280.35V253.77H341.14V271.2C341.14 271.709 340.938 272.198 340.578 272.558C340.218 272.918 339.729 273.12 339.22 273.12C338.711 273.12 338.223 272.918 337.862 272.558C337.502 272.198 337.3 271.709 337.3 271.2V253.77H239.84V271.2C239.84 271.452 239.79 271.702 239.694 271.935C239.597 272.168 239.456 272.379 239.278 272.558C239.099 272.736 238.888 272.877 238.655 272.974C238.422 273.07 238.172 273.12 237.92 273.12C237.668 273.12 237.418 273.07 237.185 272.974C236.952 272.877 236.741 272.736 236.562 272.558C236.384 272.379 236.243 272.168 236.146 271.935C236.05 271.702 236 271.452 236 271.2V253.77H231.72C231.72 253.83 231.72 253.89 231.72 253.94V280.35C231.72 280.859 231.518 281.348 231.158 281.708C230.798 282.068 230.309 282.27 229.8 282.27C229.291 282.27 228.803 282.068 228.442 281.708C228.082 281.348 227.88 280.859 227.88 280.35V253.94C227.875 253.88 227.875 253.82 227.88 253.76C226.927 253.631 226.057 253.151 225.439 252.414C224.822 251.676 224.501 250.735 224.541 249.774C224.581 248.813 224.979 247.902 225.655 247.219C226.332 246.536 227.24 246.129 228.2 246.08H243.09V237.7H234.22C232.761 237.7 231.362 237.121 230.331 236.089C229.3 235.058 228.72 233.659 228.72 232.2C228.72 230.741 229.3 229.343 230.331 228.311C231.362 227.28 232.761 226.7 234.22 226.7H243.09V224.14H234.22C232.761 224.14 231.362 223.561 230.331 222.529C229.3 221.498 228.72 220.099 228.72 218.64C228.72 217.181 229.3 215.783 230.331 214.751C231.362 213.72 232.761 213.14 234.22 213.14H342.22C343.679 213.14 345.078 213.72 346.109 214.751C347.141 215.783 347.72 217.181 347.72 218.64C347.72 220.099 347.141 221.498 346.109 222.529C345.078 223.561 343.679 224.14 342.22 224.14L333.27 224.17ZM329.43 246.08V237.7H246.92V246.08H329.43ZM246.92 226.73H329.43V224.17H246.92V226.73Z" fill="#F8AA38"/>
</g>
<g style="mix-blend-mode:multiply">
<path d="M347.18 118.43V120.99C347.175 122.662 346.508 124.264 345.326 125.446C344.144 126.629 342.542 127.295 340.87 127.3H308.87C307.198 127.295 305.596 126.629 304.414 125.446C303.232 124.264 302.565 122.662 302.56 120.99V91.0903H347.15H347.82C356.2 91.0903 363 97.1603 363 104.64C363 112.12 356.2 118.2 347.82 118.2H347.15L347.18 118.43ZM285.9 130.61H364.71C364.705 132.951 363.773 135.193 362.118 136.848C360.463 138.503 358.22 139.435 355.88 139.44H294.73C292.39 139.435 290.147 138.503 288.492 136.848C286.837 135.193 285.905 132.951 285.9 130.61V130.61ZM347.18 95.2703V114.02H347.85C353.67 114.02 358.38 109.82 358.38 104.62C358.38 99.4203 353.67 95.2203 347.85 95.2203C347.63 95.2203 347.4 95.2203 347.18 95.2203V95.2703Z" fill="#FEEB17"/>
</g>
<g style="mix-blend-mode:multiply">
<path d="M96.84 203.09H108.96V193.46H96.75L96.84 203.09Z" fill="#E21F2C"/>
</g>
<g style="mix-blend-mode:multiply">
<path d="M44.6899 168.18H57.3499L58.7699 168.02V157.18L57.4099 156.97H44.6599L44.6899 168.18Z" fill="#E21F2C"/>
</g>
<g style="mix-blend-mode:multiply">
<path d="M191.47 168.18H204.18L205.54 168.02V157.18L204.19 156.97H191.49L191.47 168.18Z" fill="#E21F2C"/>
</g>
<g style="mix-blend-mode:multiply">
<path d="M167.16 168.18H179.87L181.24 168.02V157.18L179.88 156.97H167.18L167.16 168.18Z" fill="#E21F2C"/>
</g>
</svg>
