<svg width="193" height="60" viewBox="0 0 193 60" fill="none" xmlns="http://www.w3.org/2000/svg">
<path d="M76.2473 16.1476H72.0146V27.7047H70.6411V14.8838H76.2473V16.1476ZM75.0383 23.1273C75.0383 21.477 75.3221 20.2646 75.8896 19.4899C76.1662 19.11 76.533 18.8049 76.957 18.6021C77.3809 18.3992 77.8486 18.305 78.318 18.3279C79.4408 18.3279 80.2677 18.7248 80.7986 19.5186C81.3295 20.3124 81.5907 21.5153 81.582 23.1273C81.582 24.788 81.2956 26.0065 80.7229 26.7829C80.4459 27.1593 80.0803 27.4616 79.6585 27.6629C79.2367 27.8643 78.7718 27.9584 78.3049 27.9371C77.1786 27.9371 76.3509 27.5402 75.8217 26.7464C75.2925 25.9526 75.0314 24.7497 75.0383 23.1377V23.1273ZM76.4118 23.1273C76.4084 23.6174 76.4425 24.1072 76.5137 24.5922C76.5664 24.985 76.6773 25.3678 76.8427 25.728C76.9748 26.0218 77.1797 26.2771 77.438 26.4696C77.6955 26.6493 78.0042 26.7409 78.318 26.7307C78.6128 26.7401 78.9041 26.6646 79.1573 26.5132C79.4105 26.3618 79.6149 26.141 79.7463 25.8768C80.0614 25.3111 80.2198 24.3928 80.2215 23.1221C80.2237 22.6346 80.1905 22.1477 80.1223 21.665C80.0698 21.2693 79.958 20.8837 79.7907 20.5213C79.6596 20.2261 79.4546 19.9698 79.1953 19.7771C78.9387 19.5978 78.6309 19.5062 78.318 19.516C78.0237 19.5092 77.7336 19.5867 77.4819 19.7394C77.2302 19.8921 77.0274 20.1135 76.8975 20.3777C76.572 20.9539 76.4092 21.8704 76.4092 23.1273H76.4118ZM83.3549 18.5473H84.2871L84.4908 19.5369H84.5639C84.7651 19.1535 85.072 18.8358 85.4483 18.6215C85.8246 18.4072 86.2544 18.3053 86.6868 18.3279C87.1117 18.3031 87.5358 18.3898 87.9169 18.5794C88.298 18.7691 88.6228 19.055 88.8593 19.409C89.3398 20.1296 89.5809 21.3082 89.5826 22.9445C89.5908 23.648 89.511 24.3498 89.345 25.0334C89.2091 25.5904 88.9795 26.1202 88.6661 26.6001C88.3955 27.0126 88.0279 27.3524 87.5955 27.5898C87.1635 27.8174 86.6816 27.9341 86.1933 27.9292C85.9107 27.9357 85.6281 27.9138 85.3499 27.864C85.1127 27.811 84.8848 27.723 84.6736 27.6028V31.3708H83.3549V18.5473ZM84.6736 26.2607C84.8461 26.4066 85.0409 26.5239 85.2507 26.608C85.5239 26.7034 85.8127 26.7468 86.1019 26.7359C86.7495 26.7359 87.2613 26.4043 87.6399 25.7463C88.0185 25.0883 88.2065 24.1483 88.2065 22.9262C88.2108 22.4595 88.1776 21.9932 88.1073 21.5318C88.0527 21.1613 87.9445 20.8007 87.7861 20.4613C87.66 20.1872 87.4681 19.9485 87.2273 19.7667C86.9839 19.5958 86.6916 19.5088 86.3944 19.5186C85.5048 19.5186 84.9312 20.0618 84.6736 21.148V26.2607ZM90.9195 23.1273C90.9195 21.477 91.2033 20.2646 91.7708 19.4899C92.0476 19.1102 92.4144 18.8052 92.8383 18.6024C93.2622 18.3996 93.7298 18.3053 94.1992 18.3279C95.322 18.3279 96.1489 18.7248 96.6798 19.5186C97.2107 20.3124 97.4762 21.5153 97.4762 23.1273C97.4762 24.788 97.189 26.0065 96.6145 26.7829C96.3382 27.1595 95.9731 27.4619 95.5517 27.6633C95.1303 27.8646 94.6657 27.9587 94.1992 27.9371C93.0729 27.9371 92.2451 27.5402 91.7159 26.7464C91.1867 25.9526 90.9213 24.7497 90.9195 23.1377V23.1273ZM92.293 23.1273C92.2896 23.6174 92.3236 24.1072 92.3948 24.5922C92.4464 24.9852 92.5573 25.3682 92.7239 25.728C92.856 26.0218 93.0609 26.2771 93.3192 26.4696C93.5765 26.6497 93.8853 26.7413 94.1992 26.7307C94.494 26.7401 94.7853 26.6646 95.0385 26.5132C95.2917 26.3618 95.4961 26.141 95.6275 25.8768C95.9443 25.3111 96.1027 24.3928 96.1027 23.1221C96.1054 22.6345 96.0713 22.1475 96.0009 21.665C95.9504 21.2692 95.8395 20.8835 95.6719 20.5213C95.5405 20.2271 95.3354 19.9717 95.0765 19.7798C94.8199 19.6004 94.5121 19.5088 94.1992 19.5186C93.9049 19.5118 93.6148 19.5893 93.3631 19.742C93.1114 19.8947 92.9086 20.1162 92.7787 20.3803C92.4549 20.9548 92.293 21.8704 92.293 23.1273ZM105.916 30.0312H104.999L104.78 27.7047H99.3458L99.1056 30.0312H98.2099V26.5166H99.0716C99.1867 26.2757 99.287 26.0281 99.3719 25.775C99.5333 25.2834 99.659 24.7807 99.7479 24.271C99.8698 23.6304 99.9768 22.8401 100.069 21.9C100.161 20.96 100.213 19.8424 100.223 18.5473H104.821V26.5166H105.916V30.0312ZM103.516 26.5166V19.7275H101.445C101.421 20.2498 101.388 20.8242 101.346 21.4509C101.302 22.0724 101.239 22.6912 101.153 23.3074C101.067 23.9237 100.965 24.5164 100.842 25.0752C100.742 25.5633 100.6 26.042 100.419 26.5061L103.516 26.5166ZM112.344 27.2477C112.032 27.4867 111.678 27.6639 111.3 27.77C110.899 27.8808 110.485 27.9362 110.07 27.9345C109.555 27.9499 109.044 27.8331 108.587 27.595C108.18 27.3642 107.842 27.0289 107.608 26.6236C107.339 26.1522 107.152 25.6382 107.057 25.1039C106.937 24.4546 106.879 23.7954 106.884 23.1351C106.884 21.5684 107.162 20.3777 107.717 19.563C107.975 19.169 108.331 18.8488 108.75 18.6337C109.169 18.4185 109.636 18.3159 110.106 18.3358C110.519 18.3284 110.931 18.3713 111.334 18.4637C111.64 18.5359 111.935 18.6465 112.214 18.7927L111.848 19.9469C111.364 19.6682 110.814 19.5232 110.255 19.5265C109.95 19.5161 109.647 19.5922 109.383 19.7461C109.119 19.8999 108.904 20.1252 108.762 20.396C108.424 20.9757 108.256 21.8887 108.258 23.1351C108.255 23.6073 108.292 24.079 108.367 24.5452C108.427 24.9435 108.55 25.3297 108.733 25.6889C108.889 25.9946 109.115 26.2587 109.394 26.4591C109.691 26.6581 110.044 26.7577 110.402 26.7438C110.705 26.7462 111.007 26.6904 111.289 26.5793C111.532 26.4882 111.758 26.3576 111.958 26.1928L112.344 27.2477ZM115.807 23.5921H115.13V27.7125H113.809V18.5473H115.13V22.6886L115.752 22.4275L117.987 18.5447H119.397L117.217 22.2264L116.577 22.8322L117.36 23.5633L119.71 27.7021H118.144L115.807 23.5921ZM125.468 22.4379L125.578 21.0462H125.505L124.865 22.5842L121.768 27.7125H120.906V18.5473H122.225V23.989L122.115 25.3259H122.188L122.794 23.8219L125.928 18.5473H126.789V27.7047H125.447L125.468 22.4379ZM134.403 27.0884C134.081 27.3749 133.699 27.5871 133.286 27.7099C132.825 27.8598 132.343 27.9348 131.858 27.9319C131.339 27.944 130.826 27.8274 130.364 27.5924C129.939 27.3621 129.58 27.0279 129.32 26.621C129.028 26.158 128.824 25.6456 128.716 25.1092C128.581 24.4591 128.517 23.7964 128.523 23.1325C128.523 21.5658 128.81 20.3751 129.385 19.5604C129.653 19.1654 130.017 18.8454 130.444 18.6306C130.87 18.4158 131.344 18.3135 131.821 18.3332C132.164 18.3327 132.505 18.3757 132.837 18.4611C133.18 18.5528 133.493 18.7329 133.745 18.9833C134.042 19.2891 134.265 19.659 134.396 20.0644C134.575 20.6475 134.657 21.2562 134.639 21.8661C134.639 22.0724 134.638 22.2969 134.612 22.5345C134.586 22.7722 134.571 23.0202 134.547 23.2761H129.899C129.895 23.7553 129.937 24.2337 130.027 24.7044C130.096 25.0892 130.232 25.4588 130.429 25.7959C130.601 26.0836 130.844 26.3227 131.134 26.4905C131.463 26.6655 131.832 26.751 132.205 26.7385C132.541 26.7382 132.873 26.6762 133.187 26.5558C133.462 26.4623 133.715 26.3119 133.928 26.1145L134.403 27.0884ZM133.377 22.1794C133.403 21.2629 133.273 20.5918 132.993 20.1662C132.876 19.9662 132.706 19.8012 132.504 19.6883C132.301 19.5754 132.071 19.5186 131.839 19.5239C131.581 19.5149 131.325 19.5687 131.092 19.6805C130.859 19.7924 130.657 19.959 130.502 20.1662C130.173 20.591 129.978 21.262 129.917 22.1794H133.377ZM144.772 19.7432H141.689V27.7099H140.383V18.5473H146.099V27.7047H144.78L144.772 19.7432ZM148.251 18.5525H149.185L149.389 19.5421H149.46C149.661 19.1585 149.969 18.8407 150.345 18.6264C150.722 18.4121 151.152 18.3104 151.585 18.3332C152.549 18.3332 153.274 18.6935 153.755 19.4142C154.235 20.1349 154.481 21.3125 154.481 22.9497C154.49 23.6534 154.409 24.3553 154.241 25.0387C154.107 25.5958 153.878 26.1258 153.564 26.6054C153.293 27.0185 152.925 27.3584 152.491 27.595C152.06 27.823 151.579 27.9396 151.092 27.9345C150.809 27.9409 150.526 27.919 150.248 27.8692C150.01 27.8158 149.782 27.7278 149.569 27.6081V31.3708H148.251V18.5525ZM149.569 26.2659C149.743 26.4113 149.939 26.5285 150.149 26.6132C150.422 26.7088 150.711 26.7523 151 26.7412C151.645 26.7412 152.16 26.4095 152.538 25.7515C152.917 25.0935 153.105 24.1535 153.105 22.9314C153.108 22.4648 153.075 21.9986 153.006 21.5371C152.951 21.1665 152.843 20.8059 152.684 20.4665C152.56 20.1952 152.371 19.9585 152.133 19.7771C151.89 19.6066 151.598 19.5196 151.3 19.5291C150.407 19.5291 149.833 20.0722 149.577 21.1585L149.569 26.2659ZM155.818 23.1325C155.818 21.4822 156.102 20.2698 156.669 19.4951C156.945 19.1154 157.312 18.8104 157.735 18.6076C158.159 18.4048 158.626 18.3104 159.095 18.3332C160.22 18.3332 161.045 18.7301 161.578 19.5239C162.111 20.3177 162.374 21.5214 162.374 23.1325C162.374 24.7932 162.087 26.0118 161.513 26.7882C161.236 27.1647 160.87 27.4671 160.449 27.6685C160.027 27.8698 159.562 27.9639 159.095 27.9423C157.972 27.9423 157.145 27.5454 156.614 26.7516C156.083 25.9578 155.818 24.7549 155.818 23.143V23.1325ZM157.191 23.1325C157.187 23.6226 157.22 24.1123 157.29 24.5974C157.344 24.99 157.455 25.3726 157.619 25.7332C157.753 26.026 157.958 26.2808 158.215 26.4748C158.472 26.6542 158.781 26.7458 159.095 26.7359C159.39 26.7456 159.681 26.6703 159.934 26.5189C160.188 26.3675 160.392 26.1464 160.523 25.8821C160.842 25.3163 161.001 24.3981 161.001 23.1273C161.004 22.6397 160.97 22.1527 160.899 21.6702C160.847 21.2747 160.737 20.8891 160.57 20.5265C160.437 20.2291 160.229 19.971 159.967 19.7771C159.709 19.5977 159.401 19.5062 159.087 19.516C158.793 19.5098 158.503 19.5876 158.251 19.7402C158 19.8928 157.797 20.114 157.666 20.3777C157.344 20.9522 157.183 21.8678 157.183 23.1247L157.191 23.1325ZM169.61 27.0884C169.287 27.3749 168.906 27.5871 168.492 27.7099C168.031 27.8596 167.549 27.9346 167.064 27.9319C166.546 27.944 166.033 27.8274 165.571 27.5924C165.145 27.3637 164.785 27.0291 164.526 26.621C164.235 26.158 164.03 25.6456 163.923 25.1092C163.788 24.4591 163.723 23.7964 163.73 23.1325C163.73 21.5658 164.017 20.3751 164.591 19.5604C164.859 19.1651 165.223 18.8447 165.65 18.6299C166.076 18.4151 166.551 18.313 167.028 18.3332C167.37 18.3329 167.711 18.3759 168.043 18.4611C168.386 18.5529 168.698 18.733 168.949 18.9833C169.247 19.2884 169.47 19.6585 169.6 20.0644C169.782 20.6513 169.866 21.2646 169.848 21.8791C169.848 22.0854 169.848 22.31 169.822 22.5476C169.795 22.7852 169.78 23.0333 169.756 23.2892H165.103C165.099 23.7683 165.141 24.2468 165.231 24.7175C165.303 25.0929 165.439 25.4532 165.633 25.7828C165.807 26.0701 166.05 26.309 166.341 26.4774C166.67 26.653 167.039 26.7386 167.411 26.7255C167.746 26.7249 168.078 26.6629 168.391 26.5427C168.666 26.4499 168.919 26.2995 169.132 26.1014L169.61 27.0884ZM168.584 22.1742C168.606 21.2585 168.478 20.5875 168.197 20.161C168.08 19.9614 167.911 19.7966 167.709 19.6838C167.506 19.5709 167.278 19.5139 167.046 19.5186C166.788 19.5094 166.531 19.5631 166.298 19.675C166.065 19.7869 165.863 19.9537 165.709 20.161C165.378 20.5857 165.182 21.2568 165.121 22.1742H168.584ZM173.694 23.5842H173.023V27.7047H171.704V18.5473H173.023V22.6886L173.647 22.4275L175.882 18.5447H177.292L175.112 22.229L174.472 22.8348L175.255 23.566L177.605 27.7047H176.039L173.694 23.5842ZM183.548 19.738H181.295V27.7047H179.976V19.738H177.723V18.5473H183.548V19.738ZM185.966 26.527C186.298 26.5965 186.636 26.6332 186.974 26.6367C187.559 26.6367 187.968 26.4809 188.202 26.1693C188.459 25.7689 188.58 25.2967 188.549 24.8219C188.575 24.3669 188.456 23.9152 188.209 23.532C187.985 23.2204 187.585 23.0646 187.011 23.0646C186.852 23.0646 186.682 23.0646 186.489 23.0907C186.312 23.1087 186.137 23.1428 185.966 23.1926V26.527ZM185.966 22.0567C186.197 22.0091 186.429 21.9751 186.664 21.9549C186.883 21.9392 187.089 21.9287 187.285 21.9287C187.716 21.9165 188.145 21.9884 188.549 22.1403C188.865 22.2604 189.145 22.459 189.364 22.7173C189.571 22.9708 189.719 23.2681 189.794 23.5868C189.882 23.9369 189.925 24.2966 189.922 24.6574C189.922 25.7698 189.675 26.5758 189.181 27.0754C188.686 27.575 187.866 27.8257 186.718 27.8274C186.027 27.8287 185.335 27.7913 184.648 27.7151V18.5473H185.966V22.0567ZM191.022 18.5577H192.346V27.7151H191.027L191.022 18.5577Z" fill="#2C2C2C"/>
<path d="M73.6302 39.3617L73.6824 38.5574H73.6563L73.3482 39.3617L71.0791 43.3594H70.6404V37.2231H71.2984V41.2992L71.2357 42.0825H71.2723L71.5778 41.2574L73.8574 37.2153H74.2882V43.3516H73.6302V39.3617ZM77.2676 39.5654H76.3119C76.2945 40.0615 76.271 40.5419 76.2414 41.0067C76.2199 41.4207 76.1684 41.8327 76.0873 42.2392C76.0353 42.54 75.93 42.8292 75.7766 43.0931C75.7257 43.188 75.6506 43.2678 75.5589 43.3243C75.4671 43.3807 75.362 43.4117 75.2543 43.4142C75.167 43.4148 75.0797 43.4087 74.9932 43.396C74.9266 43.3838 74.8617 43.3636 74.8 43.3359L74.8966 42.7823C75.005 42.8168 75.1224 42.8094 75.2256 42.7615C75.3222 42.7092 75.4058 42.5578 75.4867 42.3045C75.5776 41.9212 75.6344 41.5306 75.6565 41.1373C75.7 40.6151 75.7313 39.9013 75.7505 38.9961H77.9151V43.3777H77.2832L77.2676 39.5654ZM79.5628 42.8085C79.7218 42.841 79.8835 42.8585 80.0458 42.8607C80.5959 42.8607 80.871 42.5717 80.871 41.9938C80.8839 41.7709 80.8152 41.5509 80.6778 41.3749C80.5974 41.296 80.501 41.2353 80.3951 41.197C80.2893 41.1587 80.1763 41.1437 80.0641 41.153C79.9824 41.1481 79.9004 41.1481 79.8187 41.153C79.7303 41.1602 79.6429 41.176 79.5576 41.2L79.5628 42.8085ZM79.5628 40.6699C79.6803 40.6464 79.7926 40.6307 79.897 40.6203C80.0015 40.6098 80.1033 40.6203 80.1947 40.6203C80.4064 40.6143 80.6174 40.6489 80.8161 40.7221C80.9739 40.7799 81.1155 40.8748 81.2287 40.9989C81.3367 41.1174 81.4154 41.2596 81.4585 41.4141C81.5071 41.5838 81.5308 41.7597 81.529 41.9363C81.5479 42.1458 81.5233 42.3568 81.4568 42.5563C81.3903 42.7558 81.2833 42.9394 81.1425 43.0957C80.7982 43.3633 80.3655 43.491 79.931 43.4534C79.5977 43.4549 79.2647 43.4374 78.9335 43.4012V38.9883H79.5628V40.6699ZM84.4196 40.8527L84.4718 40.1868H84.4378L84.1323 40.9284L82.6492 43.3829H82.2392V38.9883H82.8685V41.5995L82.8163 42.2392H82.8503L83.1401 41.5211L84.6389 38.9961H85.0515V43.3777H84.4196V40.8527ZM91.0311 38.6358C91.0307 38.7897 91.0123 38.9431 90.9762 39.0927C90.9425 39.2427 90.8871 39.387 90.8117 39.521C90.7365 39.6554 90.6404 39.777 90.5271 39.8813C90.4066 39.9892 90.2641 40.0694 90.1093 40.1163V40.145C90.2503 40.1737 90.3866 40.222 90.5141 40.2887C90.6456 40.3591 90.7619 40.455 90.8561 40.5707C90.9609 40.7002 91.0406 40.848 91.0911 41.0067C91.1545 41.2067 91.1845 41.4158 91.1799 41.6256C91.1866 41.9062 91.136 42.1852 91.0311 42.4455C90.9417 42.663 90.8021 42.8563 90.6237 43.0095C90.449 43.1583 90.2455 43.2695 90.0258 43.3359C89.7949 43.4069 89.5545 43.4421 89.3129 43.4404H89.0283C88.9186 43.4404 88.8037 43.4404 88.681 43.4404C88.5583 43.4404 88.4382 43.4195 88.3181 43.4064C88.2071 43.3917 88.0972 43.3699 87.9891 43.3411V37.2858C88.1631 37.2527 88.3694 37.224 88.6079 37.1996C88.8429 37.1761 89.0988 37.1631 89.373 37.1631C89.5728 37.1641 89.772 37.1833 89.9683 37.2205C90.1547 37.257 90.3322 37.3298 90.4906 37.4346C90.6554 37.5455 90.7872 37.6989 90.8718 37.8785C90.9785 38.1135 91.0286 38.3701 91.018 38.628L91.0311 38.6358ZM89.3651 42.8424C89.5145 42.844 89.663 42.8193 89.8038 42.7693C89.9366 42.7201 90.0576 42.6436 90.1589 42.5447C90.2636 42.4419 90.3455 42.3183 90.3992 42.1818C90.4617 42.0213 90.4919 41.85 90.488 41.6778C90.4946 41.478 90.4572 41.2792 90.3783 41.0955C90.3134 40.9581 90.2156 40.8388 90.0937 40.7482C89.973 40.6664 89.8372 40.6096 89.6942 40.5811C89.5419 40.5516 89.3871 40.5368 89.232 40.5367H88.6445V42.7823C88.6888 42.7953 88.7343 42.804 88.7802 42.8085L88.9656 42.8267H89.1719L89.3651 42.8424ZM89.0048 39.9701H89.2868C89.3913 39.9701 89.48 39.9544 89.5479 39.944C89.7663 39.8527 89.9571 39.706 90.1015 39.5184C90.261 39.3118 90.3433 39.0559 90.3339 38.7951C90.3388 38.6297 90.3122 38.4648 90.2556 38.3094C90.2109 38.189 90.1374 38.0814 90.0414 37.9961C89.9469 37.9202 89.8375 37.8651 89.7203 37.8342C89.5948 37.8025 89.4658 37.7867 89.3364 37.7871C89.1824 37.7871 89.0466 37.7872 88.9239 37.8002C88.8293 37.8048 88.7351 37.8152 88.6418 37.8315V39.9779L89.0048 39.9701ZM92.0312 39.2599C92.2224 39.1463 92.4304 39.0634 92.6474 39.0144C92.8991 38.956 93.1567 38.9271 93.4151 38.9282C93.6184 38.9199 93.821 38.9574 94.0078 39.0379C94.149 39.1041 94.2698 39.2069 94.3577 39.3356C94.4424 39.4653 94.4993 39.6111 94.5248 39.7638C94.5515 39.9313 94.5646 40.1007 94.564 40.2704C94.564 40.6203 94.564 40.9624 94.5405 41.294C94.517 41.6256 94.5196 41.9442 94.5196 42.2418C94.5196 42.4638 94.5196 42.6701 94.5405 42.8607C94.5555 43.0417 94.5834 43.2215 94.6241 43.3986H94.1436L93.9922 42.8763H93.9582C93.8626 43.0358 93.7312 43.1707 93.5744 43.2706C93.3661 43.3906 93.1278 43.4486 92.8876 43.4377C92.7409 43.4436 92.5947 43.4172 92.4594 43.3603C92.324 43.3035 92.2028 43.2176 92.1043 43.1087C91.8897 42.8563 91.7812 42.5307 91.8014 42.2C91.7941 41.9834 91.837 41.7681 91.9267 41.5708C92.0094 41.4046 92.1335 41.2625 92.2871 41.1582C92.4538 41.0471 92.6412 40.9708 92.838 40.9336C93.0737 40.8876 93.3134 40.8657 93.5535 40.8683H93.7284H93.9138C93.9305 40.7087 93.9392 40.5484 93.9399 40.3879C93.9613 40.1442 93.9095 39.8996 93.7911 39.6855C93.7224 39.6114 93.6371 39.5546 93.5423 39.5196C93.4475 39.4847 93.3457 39.4726 93.2454 39.4844C93.069 39.4885 92.8938 39.513 92.7231 39.5575C92.554 39.5982 92.3914 39.6623 92.2401 39.7481L92.0312 39.2599ZM93.9452 41.3723C93.8851 41.3723 93.8277 41.3723 93.7702 41.3593C93.7128 41.3462 93.6527 41.3593 93.5953 41.3593C93.457 41.3586 93.319 41.3699 93.1827 41.3932C93.0562 41.4139 92.9343 41.4563 92.8223 41.5185C92.7154 41.5714 92.6251 41.6527 92.5612 41.7535C92.4947 41.8674 92.4621 41.9978 92.4672 42.1295C92.4538 42.3267 92.5153 42.5216 92.6396 42.6753C92.6944 42.7377 92.7625 42.7873 92.8388 42.8202C92.9151 42.8532 92.9978 42.8688 93.0809 42.8659C93.2864 42.8791 93.4897 42.8169 93.6527 42.6909C93.7765 42.5884 93.8725 42.4564 93.9321 42.3071L93.9452 41.3723ZM95.5928 38.9883H96.0341L96.1307 39.4609H96.1673C96.2634 39.2773 96.4102 39.125 96.5902 39.0223C96.7703 38.9195 96.976 38.8706 97.183 38.8812C97.3877 38.8684 97.5922 38.9099 97.7756 39.0016C97.9591 39.0933 98.115 39.232 98.2275 39.4035C98.4608 39.7516 98.5765 40.3148 98.5748 41.0929C98.5781 41.4289 98.5395 41.764 98.4599 42.0904C98.396 42.3578 98.2865 42.6122 98.1361 42.8424C98.0041 43.041 97.8246 43.2035 97.6139 43.315C97.4085 43.4255 97.1785 43.4821 96.9454 43.4795C96.8098 43.4824 96.6742 43.4719 96.5407 43.4482C96.427 43.4219 96.3178 43.3788 96.2169 43.3202V45.1272H95.585L95.5928 38.9883ZM96.2247 42.6779C96.3072 42.7484 96.4007 42.8048 96.5015 42.845C96.6326 42.8892 96.7706 42.9096 96.9088 42.9051C97.0636 42.9036 97.2148 42.8584 97.3451 42.7748C97.4753 42.6912 97.5794 42.5725 97.6452 42.4324C97.8449 42.0118 97.9348 41.5473 97.9063 41.0825C97.9108 40.8562 97.8959 40.6299 97.8619 40.4062C97.8379 40.2252 97.7859 40.049 97.7079 39.8839C97.6506 39.7522 97.5608 39.6371 97.4467 39.5497C97.3298 39.4683 97.1896 39.4271 97.0472 39.4322C96.6207 39.4322 96.3466 39.6933 96.2247 40.2156V42.6779ZM101.309 39.5445H100.353C100.334 40.0406 100.31 40.5211 100.282 40.9858C100.261 41.3999 100.21 41.8118 100.128 42.2183C100.078 42.5195 99.9723 42.8088 99.8177 43.0722C99.7671 43.1673 99.692 43.2473 99.6002 43.3037C99.5084 43.3602 99.4032 43.3911 99.2955 43.3934C99.2081 43.3939 99.1208 43.3878 99.0343 43.3751C98.9678 43.3626 98.903 43.3424 98.8411 43.315L98.9377 42.7615C99.0461 42.7959 99.1636 42.7885 99.2667 42.7406C99.3634 42.6883 99.4469 42.5369 99.5279 42.2836C99.6187 41.9003 99.6755 41.5097 99.6976 41.1164C99.7428 40.5942 99.7733 39.8805 99.789 38.9752H101.956V43.3568H101.324L101.309 39.5445ZM102.93 39.2364C103.123 39.1232 103.331 39.0404 103.549 38.9909C103.801 38.9323 104.058 38.9034 104.317 38.9047C104.519 38.8964 104.721 38.9339 104.907 39.0144C105.048 39.0806 105.169 39.1834 105.257 39.3121C105.344 39.4406 105.401 39.5869 105.424 39.7403C105.451 39.9079 105.464 40.0773 105.463 40.2469C105.463 40.5968 105.463 40.9388 105.442 41.2705C105.421 41.6021 105.421 41.9207 105.421 42.2183C105.421 42.4403 105.421 42.6466 105.442 42.8372C105.456 43.0184 105.484 43.1982 105.526 43.3751H105.043L104.894 42.8528H104.86C104.763 43.0124 104.631 43.1473 104.473 43.2471C104.266 43.3675 104.029 43.4255 103.789 43.4142C103.643 43.4199 103.496 43.3934 103.361 43.3366C103.226 43.2797 103.105 43.1939 103.006 43.0852C102.794 42.8317 102.685 42.5069 102.703 42.1766C102.695 41.9596 102.739 41.7439 102.831 41.5472C102.912 41.3804 103.035 41.238 103.189 41.1347C103.356 41.0236 103.545 40.9473 103.742 40.9101C103.978 40.8641 104.218 40.8422 104.458 40.8448H104.633H104.815C104.832 40.6852 104.841 40.5249 104.842 40.3644C104.863 40.1207 104.811 39.8761 104.693 39.662C104.625 39.5879 104.54 39.5311 104.445 39.4962C104.351 39.4612 104.25 39.4491 104.15 39.4609C103.969 39.464 103.789 39.4885 103.614 39.534C103.446 39.5747 103.284 39.6388 103.134 39.7247L102.93 39.2364ZM104.834 41.3593C104.774 41.3593 104.716 41.3592 104.656 41.3462C104.596 41.3331 104.541 41.3462 104.481 41.3462C104.343 41.3457 104.205 41.3571 104.069 41.3801C103.943 41.4008 103.822 41.4433 103.711 41.5055C103.605 41.5594 103.515 41.6405 103.45 41.7405C103.385 41.855 103.354 41.9851 103.358 42.1165C103.345 42.3136 103.407 42.5086 103.531 42.6622C103.586 42.7247 103.654 42.7742 103.73 42.8071C103.806 42.8401 103.889 42.8557 103.972 42.8528C104.177 42.8664 104.379 42.8041 104.541 42.6779C104.667 42.5762 104.764 42.444 104.823 42.294L104.834 41.3593ZM109.39 40.7535L109.453 39.9205H109.416L109.155 40.6647L108.341 42.3489H108.111L107.262 40.6673L107.025 39.9231H106.98L107.051 40.7482V43.3594H106.479V38.9883H107.111L108.066 40.8892L108.257 41.4585H108.275L108.487 40.871L109.372 38.9883H110.02V43.3698H109.377L109.39 40.7535ZM110.863 41.166C110.863 40.3774 111 39.7969 111.273 39.4244C111.405 39.2423 111.581 39.0962 111.783 38.9991C111.986 38.9019 112.21 38.857 112.435 38.8682C112.665 38.8518 112.896 38.896 113.104 38.9963C113.312 39.0967 113.49 39.2496 113.62 39.44C113.882 39.8186 114.002 40.3957 114.002 41.166C114.002 41.9363 113.866 42.5421 113.589 42.9103C113.457 43.0905 113.283 43.2353 113.081 43.3319C112.88 43.4285 112.658 43.4738 112.435 43.4639C112.204 43.4801 111.973 43.4359 111.764 43.3356C111.555 43.2353 111.376 43.0825 111.244 42.892C110.983 42.5134 110.863 41.9363 110.863 41.166ZM111.521 41.166C111.52 41.401 111.537 41.6358 111.571 41.8684C111.595 42.0555 111.648 42.2377 111.727 42.4089C111.791 42.5497 111.889 42.6726 112.012 42.7667C112.136 42.8523 112.284 42.8962 112.435 42.892C112.576 42.8967 112.715 42.8607 112.836 42.7885C112.956 42.7163 113.054 42.6108 113.116 42.4847C113.295 42.0737 113.374 41.6263 113.346 41.1791C113.347 40.9458 113.33 40.7128 113.297 40.4819C113.272 40.2922 113.22 40.1074 113.14 39.9335C113.075 39.7932 112.976 39.6712 112.853 39.5784C112.731 39.4929 112.584 39.4489 112.435 39.4531C112.294 39.449 112.155 39.4855 112.034 39.5581C111.913 39.6308 111.816 39.7366 111.753 39.863C111.573 40.2735 111.493 40.7211 111.521 41.1686V41.166ZM114.835 38.9961C114.996 38.9961 115.174 38.97 115.357 38.9517C115.54 38.9335 115.782 38.9256 116.051 38.9256C116.41 38.8901 116.77 38.9826 117.067 39.1867C117.175 39.2906 117.259 39.4171 117.312 39.557C117.365 39.6969 117.387 39.8469 117.375 39.9962C117.374 40.2035 117.324 40.4075 117.229 40.5916C117.125 40.7915 116.953 40.9473 116.743 41.0302V41.0668C116.98 41.104 117.193 41.2312 117.339 41.4219C117.466 41.6341 117.527 41.8797 117.514 42.1269C117.53 42.312 117.503 42.4984 117.433 42.6706C117.363 42.8427 117.253 42.9957 117.112 43.1166C116.755 43.3467 116.334 43.4548 115.91 43.4247C115.712 43.4247 115.521 43.4247 115.341 43.4012C115.161 43.3777 114.986 43.3698 114.819 43.3542L114.835 38.9961ZM115.464 42.8267C115.553 42.8267 115.636 42.8476 115.725 42.8528C115.814 42.8581 115.903 42.8528 116.02 42.8528C116.253 42.8728 116.484 42.8078 116.673 42.6701C116.8 42.5128 116.871 42.3182 116.877 42.1161C116.882 41.9141 116.82 41.716 116.702 41.5525C116.616 41.4738 116.515 41.4147 116.404 41.379C116.294 41.3434 116.177 41.3322 116.062 41.3462H115.461L115.464 42.8267ZM116.114 40.8553C116.196 40.8558 116.277 40.8361 116.349 40.7978C116.427 40.7597 116.497 40.7074 116.555 40.6438C116.618 40.5796 116.667 40.5043 116.702 40.4218C116.735 40.3388 116.753 40.2502 116.754 40.1607C116.762 40.071 116.751 39.9806 116.723 39.8949C116.696 39.8093 116.651 39.7301 116.592 39.662C116.434 39.5399 116.235 39.4829 116.036 39.5027C115.895 39.5027 115.775 39.5027 115.701 39.5027L115.464 39.5184V40.8527L116.114 40.8553ZM118.323 39.2494C118.516 39.1363 118.724 39.0535 118.942 39.004C119.193 38.9455 119.45 38.9166 119.707 38.9178C119.91 38.9095 120.113 38.9469 120.3 39.0275C120.441 39.0936 120.562 39.1964 120.65 39.3251C120.736 39.4537 120.794 39.6 120.817 39.7534C120.843 39.9209 120.857 40.0903 120.856 40.2599C120.856 40.6098 120.856 40.9519 120.835 41.2835C120.814 41.6151 120.812 41.9337 120.812 42.2314C120.812 42.4542 120.819 42.6605 120.835 42.8502C120.847 43.0316 120.875 43.2116 120.919 43.3881H120.436L120.287 42.8659H120.253C120.156 43.0254 120.024 43.1604 119.866 43.2602C119.659 43.3805 119.422 43.4386 119.182 43.4273C119.036 43.433 118.889 43.4065 118.754 43.3496C118.619 43.2928 118.497 43.207 118.399 43.0983C118.186 42.8447 118.078 42.5199 118.096 42.1896C118.088 41.9727 118.132 41.757 118.224 41.5603C118.304 41.3935 118.428 41.2511 118.582 41.1477C118.749 41.0367 118.938 40.9603 119.135 40.9232C119.37 40.8772 119.609 40.8553 119.848 40.8579H120.026H120.208C120.225 40.6983 120.234 40.5379 120.235 40.3774C120.256 40.1337 120.204 39.8892 120.086 39.675C120.017 39.601 119.933 39.5442 119.838 39.5092C119.744 39.4743 119.643 39.4622 119.543 39.474C119.362 39.4771 119.182 39.5016 119.007 39.5471C118.838 39.5882 118.676 39.6524 118.524 39.7377L118.323 39.2494ZM120.224 41.3723C120.167 41.3723 120.107 41.3723 120.049 41.3593C119.992 41.3462 119.932 41.3593 119.874 41.3593C119.736 41.3588 119.598 41.3701 119.462 41.3932C119.336 41.4139 119.215 41.4563 119.104 41.5185C118.997 41.571 118.906 41.6524 118.843 41.7535C118.778 41.8681 118.747 41.9982 118.751 42.1295C118.737 42.3263 118.798 42.5212 118.921 42.6753C118.976 42.7378 119.045 42.7873 119.122 42.8203C119.198 42.8532 119.282 42.8688 119.365 42.8659C119.57 42.8792 119.772 42.817 119.934 42.6909C120.059 42.5891 120.155 42.4569 120.214 42.3071L120.224 41.3723ZM125.914 40.8501L125.966 40.1842H125.932L125.621 40.9284L124.141 43.3829H123.728V38.9883H124.36V41.5995L124.308 42.2392H124.342L124.632 41.5211L126.131 38.9961H126.543V43.3777H125.911L125.914 40.8501ZM133.288 39.3434L133.366 38.4138H133.332L133.05 39.2807L131.807 41.9415H131.588L130.282 39.2755L130.021 38.4086H129.979L130.102 39.3382V43.3698H129.473V37.2336H130.024L131.504 40.2495L131.724 40.9676H131.742L131.953 40.2417L133.374 37.2336H133.951V43.3698H133.296L133.288 39.3434ZM134.977 39.2546C135.17 39.1424 135.379 39.0597 135.596 39.0092C135.848 38.9508 136.105 38.9218 136.364 38.923C136.566 38.9146 136.768 38.9521 136.954 39.0327C137.096 39.0988 137.217 39.2016 137.306 39.3304C137.392 39.4595 137.449 39.6055 137.474 39.7586C137.5 39.9261 137.513 40.0955 137.513 40.2652C137.513 40.6151 137.513 40.9571 137.489 41.2887C137.466 41.6204 137.468 41.9389 137.468 42.2366C137.468 42.4586 137.468 42.6648 137.489 42.8555C137.503 43.0367 137.531 43.2165 137.573 43.3934H137.092L136.943 42.8711H136.907C136.808 43.0369 136.671 43.1766 136.507 43.2785C136.301 43.3989 136.064 43.4569 135.826 43.4456C135.679 43.4507 135.533 43.424 135.398 43.3672C135.263 43.3103 135.141 43.2249 135.043 43.1166C134.83 42.863 134.722 42.5382 134.74 42.2079C134.733 41.9911 134.777 41.7757 134.868 41.5786C134.95 41.4124 135.074 41.2703 135.228 41.166C135.395 41.055 135.582 40.9786 135.779 40.9415C136.015 40.8954 136.254 40.8736 136.494 40.8762H136.669H136.855C136.87 40.696 136.881 40.5341 136.881 40.3957C136.903 40.1516 136.85 39.9066 136.729 39.6933C136.662 39.6193 136.577 39.5625 136.483 39.5275C136.389 39.4926 136.288 39.4805 136.189 39.4923C136.012 39.4962 135.837 39.5207 135.667 39.5654C135.497 39.606 135.335 39.6702 135.184 39.756L134.977 39.2546ZM136.881 41.3775C136.823 41.3775 136.763 41.3775 136.706 41.3645C136.648 41.3514 136.588 41.3645 136.531 41.3645C136.393 41.3638 136.255 41.3751 136.118 41.3984C135.992 41.4191 135.87 41.4615 135.758 41.5238C135.652 41.5777 135.562 41.6588 135.497 41.7588C135.432 41.8733 135.401 42.0034 135.405 42.1348C135.392 42.3319 135.454 42.5268 135.578 42.6805C135.633 42.743 135.701 42.7925 135.777 42.8254C135.853 42.8584 135.936 42.874 136.019 42.8711C136.224 42.8847 136.426 42.8224 136.588 42.6962C136.714 42.5945 136.811 42.4623 136.87 42.3123L136.881 41.3775ZM139.492 41.4036H139.168V43.3751H138.536V38.9883H139.168V40.9676L139.466 40.8448L140.536 38.9883H141.207L140.163 40.7482L139.855 41.0381L140.231 41.388L141.354 43.3698H140.599L139.492 41.4036ZM144.278 43.1557C144.129 43.2688 143.96 43.3521 143.78 43.4012C143.588 43.4547 143.391 43.482 143.192 43.4821C142.945 43.49 142.7 43.4333 142.482 43.3176C142.286 43.2086 142.124 43.0489 142.012 42.8555C141.884 42.6292 141.796 42.3829 141.751 42.1269C141.693 41.8161 141.665 41.5004 141.667 41.1843C141.63 40.5877 141.768 39.9932 142.064 39.474C142.188 39.2853 142.359 39.132 142.56 39.029C142.761 38.926 142.985 38.8769 143.21 38.8865C143.408 38.8832 143.605 38.9042 143.798 38.9491C143.944 38.9847 144.085 39.0373 144.218 39.1058L144.043 39.6594C143.812 39.5253 143.548 39.4558 143.281 39.4583C143.135 39.4539 142.99 39.4904 142.864 39.5638C142.737 39.6371 142.634 39.7444 142.565 39.8735C142.378 40.282 142.295 40.7307 142.325 41.1791C142.323 41.4047 142.341 41.6301 142.377 41.8528C142.404 42.0441 142.463 42.2295 142.552 42.4011C142.626 42.5475 142.735 42.6738 142.868 42.7693C143.01 42.8644 143.178 42.9119 143.349 42.9051C143.494 42.9065 143.639 42.8799 143.774 42.8267C143.89 42.7823 143.998 42.7206 144.095 42.6439L144.278 43.1557ZM147.151 40.8501L147.203 40.1842H147.166L146.863 40.9284L145.383 43.3829H144.97V38.9883H145.602V41.5995L145.547 42.2392H145.584L145.871 41.5211L147.372 38.9961H147.782V43.3777H147.153L147.151 40.8501ZM151.725 40.7717L151.788 39.9388H151.751L151.49 40.683L150.676 42.3672H150.448L149.597 40.6673L149.362 39.9231H149.318L149.388 40.7482V43.3594H148.819V38.9883H149.448L150.404 40.8892L150.608 41.4506L150.817 40.8631L151.702 38.9805H152.352V43.362H151.72L151.725 40.7717ZM153.347 39.2546C153.539 39.1415 153.748 39.0587 153.966 39.0092C154.217 38.9508 154.475 38.9218 154.733 38.923C154.937 38.915 155.139 38.9524 155.326 39.0327C155.467 39.0989 155.586 39.2017 155.673 39.3304C155.76 39.4593 155.818 39.6054 155.843 39.7586C155.868 39.9263 155.88 40.0956 155.88 40.2652C155.88 40.6151 155.88 40.9571 155.859 41.2887C155.838 41.6204 155.83 41.9337 155.83 42.234C155.83 42.4559 155.83 42.6622 155.851 42.8528C155.865 43.0341 155.893 43.2139 155.935 43.3907H155.451L155.303 42.8685H155.269C155.172 43.028 155.04 43.163 154.882 43.2628C154.675 43.3832 154.437 43.4412 154.198 43.4299C154.051 43.4356 153.905 43.4091 153.77 43.3522C153.635 43.2954 153.513 43.2096 153.415 43.1009C153.202 42.8473 153.094 42.5226 153.112 42.1922C153.105 41.9754 153.149 41.76 153.24 41.5629C153.321 41.3958 153.445 41.2534 153.6 41.1503C153.767 41.0393 153.954 40.9629 154.151 40.9258C154.387 40.8798 154.626 40.8579 154.867 40.8605H155.042H155.224C155.243 40.6803 155.253 40.5185 155.253 40.3801C155.273 40.1364 155.221 39.8922 155.104 39.6777C155.035 39.6039 154.95 39.5473 154.855 39.5124C154.76 39.4775 154.659 39.4652 154.558 39.4766C154.382 39.4807 154.207 39.5052 154.036 39.5497C153.867 39.5899 153.704 39.6541 153.553 39.7403L153.347 39.2546ZM155.25 41.3775C155.19 41.3775 155.133 41.3775 155.075 41.3645C155.018 41.3514 154.958 41.3645 154.901 41.3645C154.762 41.3638 154.624 41.3751 154.488 41.3984C154.361 41.4191 154.24 41.4615 154.128 41.5238C154.025 41.5786 153.94 41.6597 153.88 41.7588C153.813 41.8726 153.78 42.003 153.786 42.1348C153.772 42.3319 153.834 42.5268 153.958 42.6805C154.013 42.743 154.081 42.7925 154.157 42.8254C154.233 42.8584 154.316 42.874 154.399 42.8711C154.604 42.8847 154.807 42.8224 154.968 42.6962C155.094 42.5945 155.191 42.4623 155.25 42.3123V41.3775ZM159.773 40.5341H159.46V43.3751H158.802V37.2388H159.46V40.0954L159.768 39.9753L161.363 37.2388H162.118L160.512 39.8839L160.204 40.1633L160.564 40.5158L162.358 43.3698H161.525L159.773 40.5341ZM163.034 39.2546C163.227 39.1415 163.436 39.0587 163.653 39.0092C163.904 38.9509 164.161 38.922 164.418 38.923C164.622 38.9147 164.824 38.9522 165.011 39.0327C165.152 39.0989 165.273 39.2016 165.361 39.3304C165.448 39.4589 165.505 39.6052 165.528 39.7586C165.555 39.9261 165.568 40.0955 165.567 40.2652C165.567 40.6151 165.567 40.9571 165.546 41.2887C165.525 41.6204 165.523 41.9389 165.523 42.2366C165.523 42.4594 165.531 42.6657 165.546 42.8555C165.559 43.0368 165.587 43.2168 165.63 43.3934H165.147L164.998 42.8711H164.969C164.873 43.0307 164.74 43.1656 164.583 43.2654C164.376 43.3858 164.138 43.4438 163.899 43.4325C163.752 43.4382 163.606 43.4117 163.47 43.3548C163.335 43.298 163.214 43.2122 163.115 43.1035C162.903 42.8499 162.795 42.5251 162.812 42.1948C162.805 41.9779 162.848 41.7622 162.94 41.5655C163.022 41.3984 163.146 41.256 163.301 41.153C163.467 41.0415 163.655 40.9651 163.852 40.9284C164.086 40.8825 164.325 40.8606 164.564 40.8631H164.742H164.925C164.942 40.7035 164.95 40.5431 164.951 40.3827C164.972 40.1389 164.92 39.8944 164.802 39.6803C164.734 39.6062 164.649 39.5494 164.555 39.5145C164.46 39.4795 164.359 39.4674 164.259 39.4792C164.078 39.4823 163.899 39.5068 163.724 39.5523C163.555 39.5929 163.394 39.6571 163.243 39.7429L163.034 39.2546ZM164.935 41.3775C164.878 41.3775 164.82 41.3775 164.76 41.3645C164.7 41.3514 164.645 41.3645 164.585 41.3645C164.448 41.3638 164.311 41.3751 164.175 41.3984C164.049 41.4187 163.927 41.4611 163.815 41.5238C163.708 41.577 163.618 41.6582 163.554 41.7588C163.49 41.8733 163.458 42.0034 163.463 42.1348C163.451 42.3313 163.511 42.5254 163.632 42.6805C163.688 42.743 163.756 42.7925 163.833 42.8255C163.91 42.8584 163.993 42.874 164.076 42.8711C164.281 42.8847 164.484 42.8224 164.645 42.6962C164.77 42.5943 164.866 42.4621 164.925 42.3123L164.935 41.3775ZM169.803 44.4874H169.364L169.259 43.3751H166.588V38.9883H167.217V42.8006H168.664V38.9883H169.296V42.8006H169.805L169.803 44.4874ZM170.416 39.2651C170.609 39.152 170.817 39.0692 171.035 39.0196C171.286 38.961 171.543 38.9321 171.8 38.9335C172.003 38.9251 172.206 38.9626 172.393 39.0431C172.534 39.1093 172.655 39.2121 172.743 39.3408C172.83 39.4694 172.887 39.6157 172.91 39.769C172.936 39.9366 172.95 40.106 172.949 40.2756C172.949 40.6255 172.949 40.9676 172.928 41.2992C172.907 41.6308 172.905 41.9494 172.905 42.247C172.905 42.4699 172.912 42.6761 172.928 42.8659C172.94 43.0473 172.968 43.2272 173.012 43.4038H172.542L172.393 42.8816H172.356C172.261 43.0416 172.13 43.1767 171.972 43.2758C171.765 43.3959 171.528 43.4539 171.288 43.443C171.142 43.4486 170.995 43.4221 170.86 43.3653C170.725 43.3085 170.604 43.2227 170.505 43.114C170.29 42.8616 170.182 42.5359 170.202 42.2053C170.194 41.9883 170.238 41.7726 170.33 41.576C170.411 41.4092 170.534 41.2668 170.688 41.1634C170.853 41.0493 171.039 40.9694 171.236 40.9284C171.471 40.8825 171.71 40.8606 171.949 40.8631H172.124H172.309C172.326 40.7035 172.335 40.5431 172.335 40.3827C172.357 40.1389 172.305 39.8944 172.187 39.6803C172.118 39.6062 172.034 39.5494 171.939 39.5145C171.845 39.4795 171.743 39.4674 171.643 39.4792C171.463 39.4823 171.283 39.5068 171.108 39.5523C170.939 39.593 170.776 39.6571 170.625 39.7429L170.416 39.2651ZM172.317 41.388C172.26 41.388 172.2 41.388 172.142 41.3749C172.085 41.3619 172.027 41.3749 171.967 41.3749C171.829 41.3743 171.691 41.3857 171.555 41.4089C171.429 41.4296 171.308 41.472 171.197 41.5342C171.09 41.5866 170.999 41.668 170.936 41.7692C170.87 41.8833 170.838 42.0137 170.844 42.1452C170.83 42.342 170.891 42.5369 171.014 42.6909C171.069 42.7535 171.138 42.803 171.215 42.8359C171.291 42.8689 171.375 42.8845 171.458 42.8816C171.663 42.8949 171.865 42.8326 172.027 42.7066C172.151 42.604 172.247 42.4721 172.307 42.3228L172.317 41.388Z" fill="#2C2C2C"/>
<g style="mix-blend-mode:multiply">
<path d="M15.3119 20.8589V20.7843C15.3119 19.4663 15.3212 18.8866 16.8039 18.5587L21.4386 17.5298C21.4738 17.469 21.5286 17.4218 21.594 17.3961C22.1038 17.1894 23.5554 16.3502 24.5097 16.4636C26.2473 16.6734 25.9893 17.3044 24.6231 17.7723C23.5461 18.1406 22.054 17.9588 21.7712 17.9681H21.7199C21.6785 17.9682 21.6374 17.9608 21.5987 17.9463L16.9096 18.9861C15.7875 19.2348 15.7844 19.7072 15.7797 20.7828V20.8558H16.0999C16.1303 20.8532 16.161 20.857 16.1899 20.8669C16.2188 20.8768 16.2453 20.8926 16.2678 20.9133C16.2903 20.9339 16.3082 20.959 16.3205 20.987C16.3328 21.015 16.3391 21.0452 16.3391 21.0757C16.3391 21.1063 16.3328 21.1365 16.3205 21.1644C16.3082 21.1924 16.2903 21.2175 16.2678 21.2382C16.2453 21.2589 16.2188 21.2746 16.1899 21.2845C16.161 21.2944 16.1303 21.2982 16.0999 21.2956H16.0253V29.25H16.1046C16.1332 29.2472 16.1622 29.25 16.1898 29.2583C16.2174 29.2667 16.243 29.2804 16.2653 29.2986C16.2876 29.3169 16.3061 29.3393 16.3197 29.3647C16.3333 29.3901 16.3418 29.418 16.3447 29.4466C16.3475 29.4753 16.3447 29.5043 16.3364 29.5319C16.3281 29.5595 16.3144 29.5851 16.2961 29.6074C16.2779 29.6297 16.2554 29.6482 16.23 29.6618C16.2046 29.6754 16.1767 29.6839 16.1481 29.6868C16.1481 33.0905 16.1481 36.4957 16.1481 39.8994C16.1481 41.0433 16.7045 41.9727 17.3914 41.9727C17.4242 41.9725 17.4569 41.9699 17.4894 41.965V42.2882C17.4889 42.3017 17.4859 42.315 17.4804 42.3273C17.4748 42.3396 17.4669 42.3506 17.4571 42.3599C17.4473 42.3691 17.4358 42.3763 17.4232 42.3811C17.4106 42.3859 17.3971 42.3881 17.3837 42.3877H13.8991C13.872 42.3881 13.8459 42.378 13.8261 42.3594C13.8064 42.3409 13.7947 42.3153 13.7935 42.2882V41.9696C14.4493 41.9121 14.9715 41.0076 14.9715 39.8994C14.9715 36.4973 14.9451 33.0905 14.9436 29.6868C14.8857 29.6808 14.8325 29.6521 14.7958 29.6069C14.759 29.5617 14.7418 29.5038 14.7477 29.4459C14.7537 29.388 14.7825 29.3348 14.8276 29.2981C14.8728 29.2613 14.9307 29.2441 14.9886 29.25H15.0679V21.2987H14.9886C14.9582 21.3013 14.9276 21.2975 14.8987 21.2876C14.8698 21.2777 14.8432 21.262 14.8208 21.2413C14.7983 21.2206 14.7803 21.1955 14.7681 21.1675C14.7558 21.1396 14.7494 21.1094 14.7494 21.0788C14.7494 21.0483 14.7558 21.0181 14.7681 20.9901C14.7803 20.9621 14.7983 20.937 14.8208 20.9164C14.8432 20.8957 14.8698 20.8799 14.8987 20.87C14.9276 20.8601 14.9582 20.8563 14.9886 20.8589H15.3119Z" fill="#9E79B4"/>
</g>
<g style="mix-blend-mode:multiply">
<path d="M37.89 27.2921C37.1255 27.2921 36.3746 27.4948 35.7141 27.8796L35.7032 27.8703V25.4349C35.7032 24.7914 35.1437 24.1278 34.8049 23.6133C35.1595 23.4555 35.4498 23.1817 35.6282 22.837C35.8065 22.4923 35.8622 22.0971 35.7862 21.7165C35.7102 21.3359 35.5069 20.9925 35.2098 20.7427C34.9127 20.493 34.5394 20.3518 34.1514 20.3423C33.7634 20.3328 33.3837 20.4557 33.0748 20.6907C32.7658 20.9256 32.546 21.2587 32.4515 21.6352C32.357 22.0116 32.3934 22.409 32.5548 22.762C32.7161 23.1151 32.9928 23.4027 33.3392 23.5776C33.0673 23.9895 32.2808 25.2157 32.2808 25.7146C32.2808 26.083 32.2373 28.5992 32.3446 29.8472L30.9116 30.6927V28.2853C30.9116 27.6418 30.3521 26.9782 30.0133 26.4622C30.3677 26.304 30.6578 26.0299 30.8357 25.685C31.0137 25.3401 31.0691 24.9449 30.9926 24.5643C30.9162 24.1838 30.7125 23.8406 30.4152 23.5911C30.1178 23.3417 29.7444 23.2009 29.3563 23.1918C28.9683 23.1828 28.5888 23.306 28.2801 23.5413C27.9714 23.7766 27.752 24.11 27.6579 24.4865C27.5638 24.8631 27.6006 25.2604 27.7623 25.6133C27.924 25.9661 28.201 26.2534 28.5476 26.428C28.2757 26.8383 27.4892 28.0646 27.4892 28.565C27.4892 28.9287 27.4457 31.4139 27.5514 32.6712L26.1029 33.5245V31.0082C26.1029 30.3648 25.5434 29.7011 25.2061 29.1867C25.5607 29.0289 25.8511 28.7551 26.0294 28.4104C26.2078 28.0656 26.2635 27.6705 26.1875 27.2899C26.1114 26.9093 25.9081 26.5658 25.611 26.3161C25.3139 26.0664 24.9407 25.9251 24.5526 25.9157C24.1646 25.9062 23.7849 26.0291 23.476 26.264C23.1671 26.499 22.9473 26.8321 22.8528 27.2085C22.7583 27.585 22.7947 27.9824 22.956 28.3354C23.1174 28.6884 23.394 28.976 23.7405 29.151C23.4685 29.5628 22.6805 30.7875 22.6805 31.288C22.6805 31.6625 22.6355 34.2798 22.752 35.4968L22.2671 35.7827C21.6705 35.5879 21.0387 35.5247 20.4153 35.5976C19.7919 35.6705 19.1918 35.8777 18.6562 36.205C18.1206 36.5322 17.6624 36.9717 17.3131 37.4932C16.9638 38.0146 16.7317 38.6056 16.6328 39.2254C16.5339 39.8452 16.5707 40.479 16.7404 41.0833C16.9102 41.6875 17.209 42.2478 17.6161 42.7254C18.0233 43.203 18.5293 43.5866 19.099 43.8499C19.6688 44.1131 20.2889 44.2496 20.9165 44.25C21.3082 44.25 22.3666 44.1754 23.2074 43.7993C27.0929 42.0679 34.3448 36.9515 36.4352 35.7175C37.0312 35.9305 37.6665 36.0107 38.2967 35.9523C38.9269 35.8939 39.5368 35.6985 40.0835 35.3796C40.6302 35.0608 41.1005 34.6262 41.4616 34.1064C41.8227 33.5866 42.0657 32.9941 42.1737 32.3705C42.2817 31.7469 42.252 31.1072 42.0867 30.4963C41.9214 29.8853 41.6245 29.3179 41.2169 28.8338C40.8092 28.3497 40.3006 27.9606 39.7267 27.6937C39.1528 27.4269 38.5275 27.2888 37.8946 27.289L37.89 27.2921ZM37.89 34.8456C37.2782 34.8454 36.6792 34.6707 36.1632 34.342C32.3259 36.723 26.4184 40.9209 22.5888 42.6974C22.1816 42.887 21.7527 42.9927 20.9118 42.9927C20.4512 42.9924 19.9965 42.8889 19.5812 42.6898C19.1658 42.4908 18.8003 42.2012 18.5115 41.8423C18.2227 41.4834 18.018 41.0645 17.9124 40.6161C17.8068 40.1678 17.803 39.7015 17.9012 39.2514C17.9995 38.8014 18.1973 38.3791 18.4802 38.0156C18.763 37.6521 19.1237 37.3565 19.5358 37.1507C19.9478 36.9448 20.4008 36.8339 20.8613 36.8261C21.3219 36.8182 21.7783 36.9137 22.1972 37.1054L36.1057 28.9613C36.2128 28.8898 36.3238 28.8244 36.4383 28.7655C36.8713 28.5468 37.3483 28.429 37.8333 28.4209C38.3184 28.4129 38.7989 28.5148 39.239 28.719C39.679 28.9232 40.0671 29.2244 40.3741 29.6C40.6811 29.9756 40.8991 30.4159 41.0116 30.8877C41.1241 31.3596 41.1284 31.8509 41.0239 32.3246C40.9195 32.7983 40.7091 33.2423 40.4086 33.6231C40.1081 34.0039 39.7252 34.3117 39.2888 34.5235C38.8523 34.7352 38.3735 34.8453 37.8884 34.8456H37.89Z" fill="#48AC37"/>
</g>
<g style="mix-blend-mode:multiply">
<path d="M34.0543 5.23483H28.6022V4.9815C28.6018 4.94535 28.5872 4.91079 28.5617 4.88523C28.5361 4.85967 28.5016 4.84513 28.4654 4.84473H27.4334C27.3971 4.84473 27.3624 4.85914 27.3367 4.88479C27.3111 4.91043 27.2966 4.94522 27.2966 4.9815V5.23483H25.2529C24.0095 5.23483 24.1121 11.6661 25.2529 11.6661H34.0543C35.1998 11.6661 35.307 5.23483 34.0543 5.23483ZM33.4979 10.8517H25.817C24.9047 10.8517 24.8192 6.05079 25.817 6.05079H33.5088C34.4988 6.05079 34.4133 10.8517 33.5026 10.8517H33.4979Z" fill="#E43D3D"/>
</g>
<g style="mix-blend-mode:multiply">
<path d="M29.6299 6.36133C29.2545 6.36133 28.8876 6.47262 28.5756 6.68114C28.2635 6.88966 28.0203 7.18604 27.8766 7.5328C27.733 7.87955 27.6954 8.26111 27.7686 8.62923C27.8419 8.99734 28.0226 9.33548 28.288 9.60087C28.5534 9.86627 28.8915 10.047 29.2596 10.1202C29.6278 10.1934 30.0093 10.1559 30.3561 10.0122C30.7028 9.86861 30.9992 9.62538 31.2077 9.3133C31.4162 9.00123 31.5275 8.63433 31.5275 8.25901C31.5275 7.75571 31.3276 7.27303 30.9717 6.91715C30.6158 6.56126 30.1332 6.36133 29.6299 6.36133ZM29.6299 9.5117C29.3821 9.5117 29.1399 9.43823 28.9339 9.30058C28.7279 9.16293 28.5673 8.96729 28.4725 8.73839C28.3777 8.50949 28.3529 8.25762 28.4012 8.01462C28.4496 7.77162 28.5689 7.54842 28.7441 7.37323C28.9193 7.19803 29.1425 7.07873 29.3855 7.03039C29.6285 6.98206 29.8803 7.00686 30.1092 7.10168C30.3381 7.19649 30.5338 7.35705 30.6714 7.56305C30.8091 7.76906 30.8825 8.01125 30.8825 8.25901C30.8825 8.59124 30.7506 8.90987 30.5156 9.14479C30.2807 9.37972 29.9621 9.5117 29.6299 9.5117Z" fill="#E43D3D"/>
</g>
<g style="mix-blend-mode:multiply">
<path d="M33.4991 6.48535H32.4671C32.3916 6.48535 32.3303 6.54659 32.3303 6.62212V7.29665C32.3303 7.37218 32.3916 7.43341 32.4671 7.43341H33.4991C33.5746 7.43341 33.6359 7.37218 33.6359 7.29665V6.62212C33.6359 6.54659 33.5746 6.48535 33.4991 6.48535Z" fill="#E43D3D"/>
</g>
<g style="mix-blend-mode:multiply">
<path d="M49.6184 7.01232H43.9626L46.3048 4.56912C46.0639 4.4137 45.8199 4.26605 45.5743 4.11995L42.7581 7.01232H41.5878L44.8345 3.68478C44.3434 3.40916 43.8445 3.14754 43.3378 2.8999L39.3109 7.003L37.1956 7.01232C34.5006 7.0232 34.6607 16.0034 34.8162 16.0034H36.7154C36.7354 16.3412 36.8838 16.6586 37.13 16.8907C37.3763 17.1228 37.7019 17.252 38.0403 17.252C38.3787 17.252 38.7044 17.1228 38.9507 16.8907C39.1969 16.6586 39.3453 16.3412 39.3653 16.0034H51.0824C51.1025 16.3412 51.2508 16.6586 51.4971 16.8907C51.7434 17.1228 52.069 17.252 52.4074 17.252C52.7458 17.252 53.0714 17.1228 53.3177 16.8907C53.564 16.6586 53.7123 16.3412 53.7323 16.0034H55.4731C55.6819 16.0032 55.8878 15.9537 56.0738 15.8589C56.2599 15.7641 56.421 15.6267 56.5439 15.4579C55.8144 14.1381 54.9873 12.8746 54.0696 11.678H52.4408V9.73528C52.0875 9.34881 51.7248 8.97062 51.3529 8.60072V11.678H48.0424V8.32873H51.0731C50.6027 7.87491 50.1178 7.4361 49.6184 7.01232ZM43.6098 8.32873H46.9141V11.678H43.6098V8.32873ZM39.1586 8.32873H42.4628V11.678H39.1586V8.32873ZM36.9905 8.32873H38.125V11.678H36.9905V8.32873Z" fill="#0AB4DB"/>
</g>
<g style="mix-blend-mode:multiply">
<path d="M33.0545 5.84545V7.2116C33.0464 7.37698 32.975 7.5329 32.8551 7.64708C32.7352 7.76126 32.5759 7.82494 32.4103 7.82494C32.2447 7.82494 32.0855 7.76126 31.9656 7.64708C31.8457 7.5329 31.7742 7.37698 31.7661 7.2116V5.07146C31.7678 4.5291 31.9839 4.00941 32.3674 3.6259C32.751 3.24239 33.2706 3.02621 33.813 3.02457H37.0318L37.0488 3.01059L38.8859 1.59471C38.9893 1.52016 39.1176 1.48873 39.2438 1.50706C39.3699 1.5254 39.484 1.59206 39.5619 1.69296C39.6398 1.79386 39.6754 1.9211 39.6612 2.04778C39.647 2.17446 39.5841 2.29065 39.4858 2.37181L38.0871 3.44887L38.4896 5.11031C38.5227 5.16961 38.5468 5.23352 38.5611 5.29993L38.9092 7.05618C38.9277 7.13983 38.9293 7.22632 38.9139 7.31059C38.8985 7.39486 38.8664 7.47521 38.8195 7.54692C38.7727 7.61863 38.712 7.68025 38.641 7.72819C38.5699 7.77612 38.4901 7.8094 38.4061 7.82606C38.322 7.84272 38.2355 7.84243 38.1516 7.82521C38.0677 7.808 37.9881 7.7742 37.9174 7.72579C37.8467 7.67739 37.7864 7.61536 37.74 7.54335C37.6936 7.47133 37.6621 7.39077 37.6472 7.3064L37.4281 6.20292L37.1172 7.33593C37.0952 7.41757 37.0573 7.49407 37.0057 7.56106C36.9541 7.62805 36.8898 7.68422 36.8165 7.72636C36.7431 7.76851 36.6622 7.79579 36.5784 7.80667C36.4945 7.81755 36.4093 7.8118 36.3277 7.78976C36.2461 7.76772 36.1696 7.72981 36.1026 7.6782C36.0356 7.62659 35.9794 7.5623 35.9373 7.48898C35.8951 7.41567 35.8678 7.33477 35.857 7.25091C35.8461 7.16705 35.8518 7.08186 35.8739 7.00022L36.1847 5.84856L33.0545 5.84545Z" fill="#9E79B4"/>
</g>
<g style="mix-blend-mode:multiply">
<path d="M28.9719 2.15568H29.4801C29.5165 1.79959 29.6912 1.47199 29.9666 1.24336L30.3644 0C30.9053 0.407201 32.4175 1.69874 32.3523 2.62505C32.3258 2.98251 31.9373 3.64927 31.2146 3.64927H28.9719C28.8733 3.64927 28.7757 3.62985 28.6846 3.59213C28.5935 3.5544 28.5108 3.49911 28.4411 3.4294C28.3714 3.35969 28.3161 3.27694 28.2783 3.18586C28.2406 3.09478 28.2212 2.99717 28.2212 2.89859C28.2212 2.80001 28.2406 2.70239 28.2783 2.61131C28.3161 2.52024 28.3714 2.43748 28.4411 2.36778C28.5108 2.29807 28.5935 2.24278 28.6846 2.20505C28.7757 2.16732 28.8733 2.14791 28.9719 2.14791V2.15568Z" fill="#9E79B4"/>
</g>
<g style="mix-blend-mode:multiply">
<path d="M36.2162 0.47662L33.4652 2.60277C33.4004 2.6381 33.3251 2.64921 33.2529 2.63412C33.1806 2.61902 33.1161 2.57869 33.0708 2.52036C33.0256 2.46202 33.0026 2.38949 33.0059 2.31574C33.0093 2.242 33.0388 2.17185 33.0891 2.11786L35.4111 0.322754C35.6795 0.370416 35.9478 0.422223 36.2162 0.478174V0.47662Z" fill="#9E79B4"/>
</g>
<g style="mix-blend-mode:multiply">
<path d="M18.9924 28.71C18.8167 28.0774 18.4546 27.5163 17.7972 27.5163H12.46L14.5567 25.4213L11.4078 22.2725L8.25437 25.4213L10.3494 27.5163H0.0714932C0.0404091 27.8831 0.0165782 28.2525 0 28.6245H2.81466V31.8059H0.0170963C0.102596 33.2807 0.296358 34.7471 0.596814 36.1935H0.618573L0.604585 36.2276C0.657428 36.4825 0.714934 36.7359 0.773993 36.9892C0.891026 37.095 1.04104 37.1571 1.19861 37.1649C1.35617 37.1727 1.5116 37.1259 1.63856 37.0322C1.76551 36.9385 1.85617 36.8039 1.89518 36.651C1.9342 36.4981 1.91915 36.3365 1.85261 36.1935H2.70276C2.65367 36.2974 2.63167 36.4122 2.63879 36.5269C2.64591 36.6417 2.68192 36.7528 2.74348 36.8499C2.80504 36.9471 2.89015 37.0271 2.9909 37.0825C3.09166 37.1379 3.20478 37.167 3.31978 37.167C3.43477 37.167 3.5479 37.1379 3.64865 37.0825C3.7494 37.0271 3.83451 36.9471 3.89607 36.8499C3.95763 36.7528 3.99364 36.6417 4.00076 36.5269C4.00788 36.4122 3.98588 36.2974 3.93679 36.1935H4.83512C4.78497 36.2977 4.76208 36.413 4.7686 36.5285C4.77512 36.644 4.81084 36.7559 4.8724 36.8539C4.93397 36.9518 5.01938 37.0325 5.12063 37.0885C5.22189 37.1444 5.33568 37.1738 5.45136 37.1738C5.56705 37.1738 5.68084 37.1444 5.7821 37.0885C5.88335 37.0325 5.96876 36.9518 6.03033 36.8539C6.09189 36.7559 6.12761 36.644 6.13413 36.5285C6.14065 36.413 6.11776 36.2977 6.06761 36.1935H12.3917C12.3415 36.2977 12.3186 36.413 12.3251 36.5285C12.3317 36.644 12.3674 36.7559 12.4289 36.8539C12.4905 36.9518 12.5759 37.0325 12.6772 37.0885C12.7784 37.1444 12.8922 37.1738 13.0079 37.1738C13.1236 37.1738 13.2374 37.1444 13.3386 37.0885C13.4399 37.0325 13.5253 36.9518 13.5869 36.8539C13.6484 36.7559 13.6841 36.644 13.6907 36.5285C13.6972 36.413 13.6743 36.2977 13.6241 36.1935H14.4712C14.4234 36.2976 14.4026 36.4121 14.4107 36.5265C14.4188 36.6408 14.4554 36.7512 14.5173 36.8477C14.5792 36.9441 14.6644 37.0235 14.7649 37.0784C14.8655 37.1334 14.9783 37.1622 15.0929 37.1622C15.2075 37.1622 15.3202 37.1334 15.4208 37.0784C15.5214 37.0235 15.6065 36.9441 15.6684 36.8477C15.7303 36.7512 15.767 36.6408 15.775 36.5265C15.7831 36.4121 15.7623 36.2976 15.7145 36.1935H16.6004C16.5514 36.2974 16.5293 36.4122 16.5365 36.5269C16.5436 36.6417 16.5796 36.7528 16.6412 36.8499C16.7027 36.9471 16.7878 37.0271 16.8886 37.0825C16.9893 37.1379 17.1025 37.167 17.2175 37.167C17.3324 37.167 17.4456 37.1379 17.5463 37.0825C17.6471 37.0271 17.7322 36.9471 17.7937 36.8499C17.8553 36.7528 17.8913 36.6417 17.8984 36.5269C17.9056 36.4122 17.8836 36.2974 17.8345 36.1935C18.4748 36.1795 18.8556 35.6308 19.0032 34.9998L19.799 31.5899L18.9924 28.71ZM7.08405 31.8059H3.89172V28.6245H7.08405V31.8059ZM11.3752 31.8059H8.18132V28.6245H11.3752V31.8059ZM11.4078 27.2521L9.57544 25.4213L11.4078 23.5889L13.2403 25.4213L11.4078 27.2521ZM15.5918 31.8059H12.3979V28.6245H15.5918V31.8059ZM17.7972 31.8059H16.6797V28.6245H17.7972V31.8059Z" fill="#F07F22"/>
</g>
<g style="mix-blend-mode:multiply">
<path d="M29.2359 8.96626C29.3628 9.09791 29.4325 9.27435 29.4299 9.45716C29.4272 9.63997 29.3525 9.81433 29.2219 9.9423C28.6453 10.5049 28.0066 11.1235 27.3336 11.7747H28.148C28.2413 11.7703 28.3345 11.7848 28.4219 11.8175C28.5094 11.8501 28.5894 11.9002 28.657 11.9646C28.7245 12.029 28.7783 12.1065 28.8151 12.1924C28.8518 12.2782 28.8708 12.3706 28.8708 12.464C28.8708 12.5574 28.8518 12.6498 28.8151 12.7356C28.7783 12.8215 28.7245 12.8989 28.657 12.9634C28.5894 13.0278 28.5094 13.0779 28.4219 13.1105C28.3345 13.1432 28.2413 13.1577 28.148 13.1533H26.0016C25.9711 13.1557 25.9405 13.1557 25.9099 13.1533C25.2882 13.7485 24.6588 14.3547 24.0247 14.9624H25.3644C25.5474 14.9624 25.7229 15.0351 25.8524 15.1645C25.9818 15.2939 26.0545 15.4694 26.0545 15.6524C26.0545 15.8355 25.9818 16.011 25.8524 16.1404C25.7229 16.2698 25.5474 16.3425 25.3644 16.3425H22.5839L21.2256 17.6418C20.5588 18.2775 20.3878 18.8525 20.3894 19.3654V22.6293H17.5048V22.6168H17.4038V19.353C17.4038 18.8401 17.2344 18.2651 16.5692 17.6294L15.2077 16.3301H12.4288C12.3355 16.3345 12.2423 16.32 12.1548 16.2873C12.0673 16.2547 11.9874 16.2046 11.9198 16.1402C11.8522 16.0757 11.7984 15.9982 11.7617 15.9124C11.7249 15.8266 11.706 15.7342 11.706 15.6408C11.706 15.5474 11.7249 15.455 11.7617 15.3692C11.7984 15.2833 11.8522 15.2058 11.9198 15.1414C11.9874 15.0769 12.0673 15.0269 12.1548 14.9942C12.2423 14.9616 12.3355 14.9471 12.4288 14.9515H13.7669L11.8833 13.1424C11.8527 13.1448 11.8221 13.1448 11.7916 13.1424H9.65297C9.46996 13.1424 9.29443 13.0697 9.16502 12.9403C9.03561 12.8109 8.96291 12.6354 8.96291 12.4523C8.96291 12.2693 9.03561 12.0938 9.16502 11.9644C9.29443 11.835 9.46996 11.7623 9.65297 11.7623H10.4674C9.79285 11.1111 9.15563 10.4925 8.57746 9.92986C8.45344 9.80078 8.38444 9.62855 8.38501 9.44954C8.38559 9.27054 8.45571 9.09876 8.58056 8.97047C8.70541 8.84219 8.87523 8.76745 9.05416 8.76202C9.23309 8.7566 9.40712 8.82091 9.53952 8.94139C10.1508 9.53717 10.7601 10.1329 11.3673 10.7287V10.1319C11.3673 9.9489 11.44 9.77337 11.5694 9.64396C11.6988 9.51455 11.8743 9.44185 12.0573 9.44185C12.2403 9.44185 12.4159 9.51455 12.5453 9.64396C12.6747 9.77337 12.7474 9.9489 12.7474 10.1319V11.8742C12.7472 11.9346 12.7388 11.9947 12.7225 12.0529L14.8471 14.1355V12.8922C14.8427 12.7989 14.8572 12.7057 14.8899 12.6182C14.9225 12.5307 14.9726 12.4508 15.037 12.3832C15.1015 12.3156 15.1789 12.2618 15.2648 12.2251C15.3506 12.1883 15.443 12.1694 15.5364 12.1694C15.6298 12.1694 15.7222 12.1883 15.808 12.2251C15.8939 12.2618 15.9714 12.3156 16.0358 12.3832C16.1002 12.4508 16.1503 12.5307 16.1829 12.6182C16.2156 12.7057 16.2301 12.7989 16.2257 12.8922V15.4924L18.2011 17.4273V13.6973L18.1793 13.677C16.1558 11.7084 14.1353 9.73196 12.1179 7.74777H9.78663C10.7357 6.88458 11.7386 6.08255 12.7894 5.34652V6.47487C14.5933 8.23734 16.3972 10.0024 18.2011 11.77V9.30663L15.9817 7.14318C15.858 7.01388 15.7894 6.84158 15.7903 6.66265C15.7912 6.48371 15.8616 6.31213 15.9866 6.1841C16.1116 6.05606 16.2815 5.9816 16.4603 5.9764C16.6392 5.97121 16.8131 6.0357 16.9453 6.15626L18.2011 7.37942V5.16624H14.5425C14.3834 5.16602 14.2292 5.11106 14.1058 5.01059C13.9824 4.91012 13.8973 4.77027 13.8649 4.61449C14.3145 4.32748 14.7715 4.05187 15.2357 3.78766H16.8334L16.2614 3.23125C16.6821 3.01367 17.1085 2.80644 17.5406 2.60957C17.7426 2.79919 17.9804 2.98414 18.2011 3.19862V2.31117C18.658 2.1143 19.1217 1.9278 19.5921 1.75165V3.20639C20.1252 2.68728 20.7546 2.34536 20.7546 1.69415V1.34756C21.9332 0.961408 23.1349 0.64995 24.3526 0.415039C24.3166 0.501248 24.2637 0.579435 24.1972 0.645061L23.2336 1.57758H23.9252C24.1024 1.586 24.2695 1.66229 24.3919 1.79064C24.5143 1.91898 24.5825 2.08952 24.5825 2.26687C24.5825 2.44422 24.5143 2.61476 24.3919 2.74311C24.2695 2.87145 24.1024 2.94775 23.9252 2.95616H21.8177L20.9613 3.79232H23.2522C23.4353 3.79232 23.6108 3.86502 23.7402 3.99444C23.8696 4.12385 23.9423 4.29937 23.9423 4.48239C23.9423 4.6654 23.8696 4.84092 23.7402 4.97034C23.6108 5.09975 23.4353 5.17245 23.2522 5.17245H19.5999V7.39185L20.8432 6.1687C20.908 6.10553 20.9846 6.05574 21.0687 6.02218C21.1527 5.98862 21.2426 5.97194 21.333 5.97309C21.4235 5.97425 21.5129 5.99321 21.5961 6.02891C21.6792 6.0646 21.7545 6.11633 21.8177 6.18113C21.8809 6.24593 21.9307 6.32254 21.9642 6.40658C21.9978 6.49063 22.0145 6.58046 22.0133 6.67095C22.0122 6.76144 21.9932 6.85081 21.9575 6.93397C21.9218 7.01713 21.8701 7.09244 21.8053 7.15561L19.5999 9.31906V11.7825C21.4079 10.021 23.2118 8.25392 25.0116 6.48109V1.69415C25.0116 1.51113 25.0843 1.33561 25.2137 1.2062C25.3431 1.07678 25.5187 1.00408 25.7017 1.00408C25.8847 1.00408 26.0602 1.07678 26.1896 1.2062C26.319 1.33561 26.3917 1.51113 26.3917 1.69415V5.13049L27.4672 4.0814C27.532 4.01823 27.6087 3.96845 27.6927 3.93488C27.7767 3.90132 27.8666 3.88464 27.9571 3.8858C28.0475 3.88695 28.1369 3.90592 28.2201 3.94161C28.3032 3.97731 28.3786 4.02903 28.4417 4.09384C28.5049 4.15864 28.5547 4.23525 28.5882 4.31929C28.6218 4.40333 28.6385 4.49316 28.6373 4.58365C28.6362 4.67414 28.6172 4.76352 28.5815 4.84668C28.5458 4.92984 28.4941 5.00515 28.4293 5.06832L27.0849 6.38162H28.4542C28.6372 6.38162 28.8127 6.45433 28.9421 6.58374C29.0715 6.71315 29.1442 6.88867 29.1442 7.07169C29.1442 7.2547 29.0715 7.43023 28.9421 7.55964C28.8127 7.68905 28.6372 7.76175 28.4542 7.76175H25.669C23.6517 9.7387 21.6312 11.7151 19.6076 13.691L19.5859 13.7112V17.4413C20.248 16.7958 20.9085 16.1503 21.5675 15.5048V12.9015C21.5675 12.7185 21.6402 12.543 21.7696 12.4135C21.899 12.2841 22.0745 12.2114 22.2576 12.2114C22.4406 12.2114 22.6161 12.2841 22.7455 12.4135C22.8749 12.543 22.9476 12.7185 22.9476 12.9015V14.1449L25.0722 12.0622C25.056 12.004 25.0476 11.9439 25.0473 11.8835V10.1443C25.0473 9.96133 25.12 9.78581 25.2495 9.65639C25.3789 9.52698 25.5544 9.45428 25.7374 9.45428C25.9204 9.45428 26.096 9.52698 26.2254 9.65639C26.3548 9.78581 26.4275 9.96133 26.4275 10.1443V10.7396L28.2552 8.95538C28.3865 8.82812 28.5627 8.75786 28.7455 8.7599C28.9283 8.76193 29.1029 8.8361 29.2313 8.96626H29.2359Z" fill="#48AC37"/>
</g>
<g style="mix-blend-mode:multiply">
<path d="M54.6115 40.8773L54.5959 40.9038L53.9338 40.4981L53.177 40.0318L53.1925 40.007C53.7108 38.6926 54.4505 37.4768 55.3793 36.4121L55.3917 36.4199L56.1486 36.8861L56.8013 37.2856C55.873 38.35 55.1335 39.5653 54.6146 40.8789L54.6115 40.8773ZM51.643 45.728L51.6585 45.7031L50.9949 45.2975L50.238 44.8312L50.2224 44.8561C49.2898 45.9136 48.5444 47.1225 48.0186 48.4308L48.031 48.4385L48.7863 48.9048L49.4391 49.3058C49.964 47.9943 50.7099 46.7826 51.6445 45.7233L51.643 45.728ZM54.1033 44.0945C53.6005 44.8866 52.9172 45.5481 52.1092 46.0249C51.6908 46.5418 51.3071 47.0859 50.9607 47.6537C50.5819 48.2684 50.2494 48.9105 49.966 49.5746C51.3818 50.2134 53.7924 48.6685 55.6885 45.9565C55.858 45.7125 56.0227 45.4607 56.1828 45.198C58.138 42.0041 58.5949 38.6968 57.2707 37.6353C56.8096 38.1905 56.3893 38.7785 56.0134 39.3946C55.664 39.9615 55.3525 40.5508 55.0809 41.1586C55.0182 42.1572 54.7067 43.1243 54.1747 43.9717L54.097 44.0945H54.1033Z" fill="#DA261D"/>
</g>
<g style="mix-blend-mode:multiply">
<path d="M56.4845 35.3053L54.2154 35.2478C54.1004 35.2449 53.989 35.2878 53.9056 35.3671C53.8222 35.4464 53.7738 35.5555 53.7709 35.6705C53.768 35.7855 53.8109 35.897 53.8902 35.9803C53.9695 36.0637 54.0786 36.1122 54.1936 36.115L56.4628 36.1725C56.5197 36.174 56.5764 36.1642 56.6295 36.1437C56.6827 36.1232 56.7313 36.0925 56.7726 36.0532C56.8139 36.014 56.847 35.967 56.8701 35.9149C56.8932 35.8629 56.9059 35.8067 56.9073 35.7498C56.9087 35.6929 56.8989 35.6362 56.8784 35.583C56.858 35.5299 56.8272 35.4813 56.788 35.44C56.7487 35.3987 56.7017 35.3656 56.6497 35.3425C56.5976 35.3194 56.5415 35.3067 56.4845 35.3053ZM54.3242 16.0705L54.9552 30.5463C54.9543 30.629 54.9217 30.7083 54.8642 30.7677C54.8067 30.8271 54.7286 30.8622 54.646 30.8658C54.5633 30.8694 54.4825 30.8412 54.42 30.7869C54.3576 30.7327 54.3183 30.6566 54.3102 30.5743L53.6668 16.0938C52.8555 16.2415 52.3908 16.8896 51.9478 18.5308L47.4406 38.6375C47.4281 38.6937 47.4046 38.7469 47.3715 38.7941C47.3383 38.8412 47.2963 38.8814 47.2476 38.9123C47.199 38.9432 47.1448 38.9642 47.088 38.9741C47.0313 38.984 46.9731 38.9827 46.9169 38.9701C46.8606 38.9576 46.8074 38.934 46.7603 38.9009C46.7131 38.8678 46.673 38.8257 46.6421 38.7771C46.6112 38.7285 46.5902 38.6742 46.5803 38.6175C46.5704 38.5607 46.5717 38.5026 46.5843 38.4463L51.0821 18.3738C51.3681 16.7155 52.4203 15.2266 54.0351 15.2266C55.5365 15.2266 56.5731 16.3145 57.0161 17.9822C57.0211 17.9974 57.0253 18.013 57.0285 18.0288L57.0363 18.063C57.0627 18.1687 57.086 18.2759 57.1078 18.3847L60.196 32.1596C60.1317 33.0559 60.0281 33.9402 59.8851 34.8126L56.2374 18.4811C55.8458 16.8694 55.2614 16.1684 54.3242 16.0705ZM54.2745 31.1602L55.7261 31.5503L55.7929 31.269C55.8512 31.0205 56.0059 30.8053 56.2229 30.6708C56.4399 30.5362 56.7015 30.4934 56.95 30.5518C57.1986 30.6101 57.4138 30.7648 57.5483 30.9818C57.6828 31.1988 57.7256 31.4603 57.6673 31.7089L57.2119 33.6563C57.0876 34.1878 56.8249 34.9603 56.0867 34.9354L54.663 34.8872C54.0102 34.8872 54.0538 34.7691 53.4834 35.0846L52.4141 35.6768C51.2469 36.3217 50.992 35.0893 51.6214 34.7365C52.2509 34.3837 52.9534 33.9423 53.5766 33.6485C54.0538 33.3998 55.1712 33.9267 55.3375 33.2211L55.5209 32.444L54.0413 32.0477C53.9274 32.0145 53.831 31.9381 53.7727 31.8347C53.7145 31.7313 53.6991 31.6092 53.7298 31.4946C53.7604 31.3799 53.8348 31.2819 53.9369 31.2214C54.039 31.161 54.1608 31.1429 54.276 31.1711L54.2745 31.1602ZM57.0145 27.9881C57.2359 27.9881 57.4523 28.0538 57.6364 28.1768C57.8204 28.2998 57.9639 28.4747 58.0485 28.6793C58.1332 28.8838 58.1552 29.1089 58.1119 29.326C58.0686 29.5431 57.9619 29.7425 57.8052 29.899C57.6486 30.0554 57.4491 30.1619 57.2319 30.2049C57.0147 30.2479 56.7897 30.2255 56.5852 30.1405C56.3808 30.0556 56.2061 29.9119 56.0833 29.7277C55.9606 29.5435 55.8952 29.327 55.8955 29.1056C55.8959 28.8091 56.014 28.5248 56.2238 28.3153C56.4336 28.1058 56.718 27.9881 57.0145 27.9881Z" fill="#E43D3D"/>
</g>
<g style="mix-blend-mode:multiply">
<path d="M25.2883 54.2727C24.9301 55.1396 24.3691 55.9078 23.6526 56.5131C22.936 57.1184 22.0848 57.543 21.1703 57.7513C20.2557 57.9596 19.3046 57.9456 18.3966 57.7104C17.4886 57.4752 16.6502 57.0256 15.9519 56.3995C15.2535 55.7733 14.7155 54.9888 14.3829 54.1118C14.0504 53.2347 13.9331 52.2907 14.0407 51.359C14.1484 50.4272 14.478 49.5348 15.0017 48.7567C15.5255 47.9786 16.2283 47.3375 17.0511 46.8871V48.3046C16.4405 48.7644 15.9521 49.367 15.6286 50.0595C15.3052 50.7521 15.1566 51.5134 15.1959 52.2767C15.2352 53.04 15.4611 53.7821 15.854 54.4377C16.2468 55.0934 16.7945 55.6427 17.4491 56.0374C18.1036 56.4321 18.845 56.6601 19.6082 56.7016C20.3715 56.743 21.1332 56.5966 21.8266 56.2751C22.5201 55.9537 23.1241 55.467 23.5856 54.8577C24.0472 54.2484 24.3522 53.5353 24.4739 52.7807L25.2883 54.2727ZM19.3171 43.5565C19.7347 43.5581 20.1346 43.725 20.4296 44.0205C20.7246 44.3161 20.8907 44.7164 20.8915 45.134V46.18H23.7745C23.9806 46.18 24.1783 46.2618 24.324 46.4076C24.4698 46.5533 24.5516 46.751 24.5516 46.9571C24.5516 47.1632 24.4698 47.3608 24.324 47.5066C24.1783 47.6523 23.9806 47.7342 23.7745 47.7342H20.8915V48.948H24.7164C24.9064 48.9478 25.0931 48.9983 25.2572 49.0941C25.4213 49.1791 25.5573 49.3097 25.6489 49.4702L28.1014 53.7194C28.1682 53.8308 28.2122 53.9545 28.2307 54.0831C28.2492 54.2117 28.242 54.3427 28.2094 54.4684C28.1768 54.5942 28.1195 54.7122 28.0408 54.8156C27.9622 54.919 27.8637 55.0057 27.7512 55.0707C27.6387 55.1357 27.5144 55.1776 27.3855 55.194C27.2566 55.2105 27.1258 55.2011 27.0005 55.1665C26.8753 55.1318 26.7583 55.0726 26.6561 54.9923C26.554 54.912 26.4689 54.8121 26.4058 54.6986L24.3278 51.1021H19.3217C19.2005 51.1022 19.0802 51.0818 18.9658 51.0415C18.6187 50.9607 18.3089 50.7652 18.0867 50.4865C17.8644 50.2079 17.7427 49.8624 17.7411 49.506V45.134C17.7423 44.7164 17.9088 44.3163 18.2041 44.021C18.4994 43.7257 18.8995 43.5593 19.3171 43.558V43.5565ZM19.3917 39.9414C19.7114 39.9414 20.0239 40.0362 20.2897 40.2138C20.5555 40.3914 20.7627 40.6439 20.885 40.9392C21.0074 41.2346 21.0394 41.5596 20.977 41.8731C20.9146 42.1867 20.7607 42.4747 20.5346 42.7007C20.3086 42.9268 20.0206 43.0807 19.707 43.1431C19.3935 43.2055 19.0685 43.1734 18.7731 43.0511C18.4778 42.9288 18.2253 42.7216 18.0477 42.4558C17.8701 42.19 17.7753 41.8775 17.7753 41.5578C17.7753 41.1291 17.9456 40.718 18.2487 40.4148C18.5519 40.1117 18.963 39.9414 19.3917 39.9414Z" fill="#AD4983"/>
</g>
<g style="mix-blend-mode:multiply">
<path d="M24.8844 58.4522H31.0453L31.0577 55.8334L25.1284 55.8116L30.0133 51.6712L27.1069 51.6401L30.7484 48.2877L29.1196 48.2737L31.7229 45.8227L32.2 45.3643L32.3803 45.543L35.2743 48.2737L33.647 48.2877L37.2869 51.6401L34.3821 51.6712L39.2732 55.8069L33.619 55.8163L33.6082 58.446H38.2226C36.146 59.4672 33.863 59.9989 31.549 60.0002C29.2349 60.0016 26.9513 59.4725 24.8735 58.4538L24.8844 58.4522Z" fill="#48AC37"/>
</g>
<g style="mix-blend-mode:multiply">
<path d="M1.16089 35.3114L1.17332 34.3789L3.05235 34.4022L3.03992 35.3425L1.16089 35.3114ZM3.97866 35.3487L3.99109 34.4162L5.87012 34.4411L5.85769 35.3736L3.97866 35.3487ZM6.79643 35.3845L6.80886 34.452L8.68634 34.4753L8.67546 35.4156L6.79643 35.3845ZM9.6142 35.4218L9.62663 34.4893L11.5057 34.5141L11.4932 35.4466L9.6142 35.4218ZM12.432 35.4575L12.4444 34.525L13.1112 34.5328H13.5774V36.2082H12.6449V35.4606L12.432 35.4575ZM12.6356 37.1469H13.5681V39.026H12.6356V37.1469ZM12.6356 39.9647H13.5681V41.8437H12.6356V39.9647ZM13.6629 42.6954V41.7629H15.5419V42.6954H13.6629ZM16.4807 42.6954V41.7629H18.3597V42.6954H16.4807ZM19.2984 42.6954V41.7552H21.1775V42.6877L19.2984 42.6954ZM22.1162 42.6954V41.7552H23.9952V42.6877L22.1162 42.6954ZM24.9355 42.6954V41.7629H26.8146V42.6954H24.9355ZM27.7533 42.6954V41.7629H29.6323V42.6954H27.7533ZM30.5711 42.6954V41.7552H32.4501V42.6877L30.5711 42.6954ZM33.3888 42.6954V41.7629H35.2663V42.6954H33.3888ZM36.2066 42.6954V41.7629H38.0841V42.6954H36.2066ZM39.0275 42.6473V41.7147H40.9065V42.6473H39.0275ZM40.8086 42.7421H41.7411V44.6211H40.8086V42.7421ZM40.8164 45.5598H41.7567V47.4389H40.8241L40.8164 45.5598ZM40.8257 48.3776H41.7582V50.2566H40.8257V48.3776ZM40.8304 51.1954H41.7629V53.0744H40.8304V51.1954ZM40.8397 54.0131H41.7722V55.8906H40.8319L40.8397 54.0131ZM40.8397 56.8309H41.78V57.8396C41.4691 57.9701 41.1583 58.095 40.8474 58.2141L40.8397 56.8309Z" fill="#9E79B4"/>
</g>
<g style="mix-blend-mode:multiply">
<path d="M8.58224 38.665C5.41788 38.665 2.85034 39.4033 2.85034 40.3156C2.85048 40.3751 2.86154 40.4341 2.88298 40.4897L3.28086 43.2453C3.76724 44.2395 4.30628 45.207 4.89567 46.1439L4.76823 45.1974C5.41963 45.3247 6.07833 45.4114 6.74051 45.4569L6.84309 46.8697C6.27317 46.8255 5.7095 46.7213 5.16144 46.5588C5.42876 46.966 5.70386 47.3675 5.98672 47.7633C6.28824 47.8084 6.59908 47.8442 6.91924 47.8706L7.00317 49.0176H6.93945C7.27826 49.4424 7.62796 49.8568 7.98853 50.2609L7.9761 50.0729C8.5123 50.0869 9.05472 50.0729 9.58781 50.0434L9.50233 51.2665C9.32515 51.2805 9.14175 51.2914 8.95369 51.2976C9.44793 51.8063 9.95978 52.298 10.4892 52.7725C11.7217 52.586 12.5859 52.2255 12.6807 51.8027C12.6807 51.7856 12.6807 51.7701 12.6884 51.7545L13.0925 48.9337C13.12 48.828 13.1351 48.7195 13.1376 48.6104L14.311 40.4384C14.3168 40.3977 14.3184 40.3566 14.3157 40.3156C14.3157 39.4033 11.7481 38.665 8.58224 38.665ZM4.61281 44.0954L4.3688 42.3096C5.07757 42.5318 5.80631 42.6843 6.54468 42.765L6.66591 44.4498C5.97074 44.4062 5.28236 44.2874 4.61281 44.0954ZM4.14655 40.6544C4.19628 40.2068 6.16701 39.8478 8.57913 39.8478C10.5079 39.8478 12.1538 40.0763 12.7599 40.3964L12.732 40.4166C11.3487 41.6242 6.07842 41.9071 4.14965 40.6544H4.14655ZM9.65308 49.0191C9.07014 49.0694 8.48488 49.0875 7.89994 49.0735L7.81913 47.925C8.45732 47.9437 9.09607 47.9266 9.73235 47.8737L9.65308 49.0191ZM9.80851 46.8433C9.1256 46.9151 8.43873 46.9421 7.7523 46.9241L7.65283 45.5082C8.40386 45.5298 9.15551 45.5132 9.90486 45.4585L9.80851 46.8433ZM9.97791 44.4203C9.18196 44.496 8.38213 44.523 7.58289 44.5011L7.46788 42.8458C8.34358 42.8918 9.22159 42.8653 10.0929 42.7666L9.97791 44.4203ZM11.6875 50.4816C11.6875 50.7583 11.1778 51.0007 10.3944 51.1515L10.4815 49.9641C10.9337 49.9097 11.372 49.8382 11.787 49.7465L11.6875 50.4816ZM11.9471 48.5529C11.4973 48.717 11.0317 48.8337 10.5576 48.901L10.64 47.7664C11.1294 47.6995 11.6146 47.6045 12.0932 47.482L11.9471 48.5529ZM12.2704 46.1687C11.9502 46.3941 11.3938 46.5744 10.7162 46.7018L10.8141 45.3621C11.3736 45.2937 11.9129 45.2067 12.4149 45.0917L12.2704 46.1687ZM12.5812 43.8234C12.0415 44.0599 11.4703 44.217 10.8856 44.2897L11.0068 42.6158C11.5953 42.5155 12.1751 42.37 12.7413 42.1806C12.7692 42.1694 12.7953 42.1542 12.819 42.1356L12.5812 43.8234Z" fill="#E21F2C"/>
</g>
<g style="mix-blend-mode:multiply">
<path d="M8.40999 15.0031C8.25457 16.0522 7.90643 17.3189 7.66242 18.3757C7.40753 19.473 7.15575 20.5951 6.91485 21.7033C6.52941 23.4813 6.68793 23.2948 5.84556 24.7122C5.33371 25.5701 4.81927 26.4322 4.30223 27.2984C4.02092 27.7647 3.77847 28.2465 4.10951 28.8526C4.24631 29.0897 4.45757 29.2751 4.71048 29.3799C4.9634 29.4847 5.24384 29.5032 5.50829 29.4323C6.22012 29.2287 6.79828 27.9574 7.28319 27.1321C7.79453 26.2648 8.29653 25.4349 8.80165 24.5708C9.24926 23.803 9.40779 21.7188 9.66423 21.3069C10.1849 21.8043 11.2464 23.0274 11.7795 23.6196C12.4587 24.3749 12.2193 23.8854 12.5457 25.5561C12.7245 26.4731 12.8783 27.6885 13.1223 28.5464C13.1783 28.7593 13.2893 28.9538 13.4443 29.1101C13.5993 29.2664 13.7927 29.3792 14.0051 29.437C14.2425 29.4951 14.4916 29.4833 14.7224 29.4031C14.9532 29.3228 15.1559 29.1775 15.306 28.9847C15.7551 28.3382 15.3666 27.0746 15.1692 26.0815C15.0589 25.5219 14.7387 23.458 14.5569 23.1285C14.4745 22.973 13.099 21.3862 12.9343 21.1842C12.6638 20.85 12.3732 20.5625 12.1152 20.219C11.8559 19.8887 11.5788 19.5727 11.2853 19.2725L12.0826 15.6279C12.1478 15.6823 12.1105 15.6434 12.1712 15.7196C12.5628 16.2169 12.4929 16.8293 13.2171 17.3344C13.7673 17.7183 15.1879 18.7332 15.6914 19.044C15.8477 19.146 16.0319 19.1967 16.2183 19.1889C16.4047 19.1811 16.584 19.1152 16.7312 19.0005C16.8764 18.8706 16.9716 18.6938 17 18.501C17.0283 18.3082 16.9882 18.1115 16.8866 17.9452C16.7017 17.6483 14.804 16.4267 14.431 16.1703C14.058 15.9139 14.1668 15.976 13.8575 15.3668L12.4338 12.5692C11.7655 11.2357 10.5097 11.0399 9.25858 12.0517L7.32205 13.609C7.1371 13.7504 5.86265 14.7824 5.79271 14.8819C5.60466 15.1476 5.31091 16.6785 5.20523 17.151C5.084 17.6996 4.65815 18.9819 4.96743 19.4155C5.27672 19.8491 6.2512 20.1118 6.52163 18.8264C6.68793 18.0493 6.85579 17.3002 7.02053 16.5247C7.17595 15.8253 7.14642 15.9962 7.56917 15.6434C7.82547 15.4062 8.10215 15.1919 8.396 15.0031H8.40999Z" fill="#E21F2C"/>
</g>
<g style="mix-blend-mode:multiply">
<path d="M10.9684 7.40596C8.57181 7.88155 9.2339 11.3925 11.5901 10.9993C13.9991 10.5983 13.2888 6.94436 10.9684 7.40596Z" fill="#E21F2C"/>
</g>
<g style="mix-blend-mode:multiply">
<path d="M13.3101 31.4166H15.1954V29.9199H13.2961L13.3101 31.4166Z" fill="#E21F2C"/>
</g>
<g style="mix-blend-mode:multiply">
<path d="M5.0293 25.9903H7.0109L7.22383 25.967V24.2791L7.0109 24.248H5.03707L5.0293 25.9903Z" fill="#E21F2C"/>
</g>
<g style="mix-blend-mode:multiply">
<path d="M5.76758 31.4166H7.64816V29.9199H5.77535L5.76758 31.4166Z" fill="#E21F2C"/>
</g>
<g style="mix-blend-mode:multiply">
<path d="M1.99902 31.4166H3.87961V29.9199H2.00369L1.99902 31.4166Z" fill="#E21F2C"/>
</g>
<g style="mix-blend-mode:multiply">
<path d="M17.0325 31.4166H18.9162V29.9199H17.0434L17.0325 31.4166Z" fill="#E21F2C"/>
</g>
<g style="mix-blend-mode:multiply">
<path d="M16.3877 25.9909H18.5729V24.2549H16.397L16.3877 25.9909Z" fill="#E21F2C"/>
</g>
<g style="mix-blend-mode:multiply">
<path d="M45.9779 46.959C46.0479 47.1145 47.1918 48.2133 47.4078 48.4324C47.658 48.6873 47.8834 48.9111 48.1367 49.1629C49.0863 50.1032 49.6054 50.5943 48.359 51.7693C47.5974 52.4858 46.8996 53.21 46.1536 53.8986L45.4246 54.6306C45.2335 54.8109 44.9211 55.159 44.59 55.2523C44.4007 55.3061 44.2003 55.3075 44.0102 55.2565C43.8201 55.2054 43.6474 55.1037 43.5106 54.9622C43.3737 54.8207 43.2778 54.6447 43.2331 54.4531C43.1883 54.2614 43.1964 54.0611 43.2565 53.8737C43.4321 53.3375 45.0112 52.1392 45.3298 51.6667C43.1539 51.6092 40.9174 51.6667 38.7385 51.6667C38.1168 51.6667 34.2965 51.7553 33.8769 51.5688C33.6834 51.481 33.5201 51.338 33.4075 51.1577C33.295 50.9774 33.2382 50.7679 33.2443 50.5555C33.2832 49.2903 34.7333 49.5173 35.5088 49.5157H42.1002C43.1757 49.5157 44.3149 49.5499 45.3827 49.5157C45.2661 49.2748 44.9335 49.0184 44.733 48.8163C43.8005 47.8683 43.1151 47.5496 43.3979 46.485L43.415 46.4664L43.4321 46.4462L43.5176 46.3265C43.5543 46.2749 43.5965 46.2275 43.6435 46.1851C44.6926 45.2075 45.594 46.7632 45.9748 46.9746L45.9779 46.959Z" fill="#9E79B4"/>
</g>
<g style="mix-blend-mode:multiply">
<path d="M44.3544 43.6417L44.3621 44.5742L42.4831 44.5913L42.4753 43.651L44.3544 43.6417ZM58.8162 38.3574V39.2977H56.9387V38.3574H58.8162ZM55.9985 38.3574V39.2977H54.1194V38.3574H55.9985ZM53.1807 38.3574V39.2977H51.3063V38.3574H53.1807ZM50.3629 38.3574V39.2977H49.8423V39.7111H48.9097V38.8252V38.359L50.3629 38.3574ZM48.9097 40.6545H49.8423L49.8516 42.5336H48.9191L48.9097 40.6545ZM48.9237 43.4723H49.8563V44.0691V44.5354H49.39L48.1109 44.5463L48.1031 43.6137L48.9144 43.606L48.9237 43.4723ZM47.1721 43.6184L47.1799 44.5509L45.3024 44.5665L45.2947 43.6339L47.1721 43.6184Z" fill="#9E79B4"/>
</g>
<g style="mix-blend-mode:multiply">
<path d="M35.6904 24.6187C35.7745 23.8616 36.0412 23.1363 36.4675 22.505C36.7379 22.0978 37.4886 21.2616 37.9502 21.1202C38.1709 21.431 39.1128 23.2106 39.3925 23.7017C39.5773 23.9933 39.736 24.3007 39.8665 24.6203L35.6904 24.6187ZM24.9462 21.3922C26.6652 22.578 27.621 25.5466 25.9906 27.9027C25.8314 28.1263 25.6559 28.3378 25.4653 28.5353C25.2834 28.7432 25.0743 28.9257 24.8436 29.0777C20.868 31.9219 15.4329 27.7131 17.7394 22.9511C19.205 19.9297 23.2226 20.0804 23.9406 20.8125C23.8412 21.0798 22.89 22.721 22.6848 23.0738C22.2481 23.8276 21.3249 25.0757 22.0632 25.4051C22.604 25.646 22.8403 25.0834 23.0376 24.7166C23.3345 24.1758 24.7861 21.5414 24.94 21.3969L24.9462 21.3922ZM38.9869 20.6306C39.7407 20.1737 41.4378 20.3944 42.2118 20.699C45.1275 21.846 46.1984 25.4766 44.4079 27.9478C41.7021 31.6779 36.1163 29.9372 35.6889 25.7331C36.8063 25.744 37.9285 25.7331 39.0459 25.7331C40.0546 25.7331 41.7736 25.9957 41.3384 24.9358C41.0959 24.3483 39.1143 21.0503 38.9869 20.6306ZM27.0755 17.5082L29.9228 22.4288C30.389 23.2759 30.8662 24.0608 31.3386 24.9156C31.6697 25.5233 31.6495 25.7284 32.5152 25.7206C33.0498 25.7206 33.8596 25.6756 34.3631 25.7346C34.5714 26.633 34.5776 27.0246 34.9522 27.8313C35.3102 28.5541 35.7956 29.2064 36.3851 29.7569C38.4242 31.4961 41.4783 31.8613 43.7521 30.3444C49.2788 26.6532 46.0305 18.3087 39.6629 19.1215C39.1656 19.1852 38.7304 19.3655 38.3092 19.4323L37.1141 17.3124C36.9462 16.9783 37.1047 16.8384 37.47 16.1965C37.6114 15.9494 37.9362 15.264 38.1258 15.1288C38.6869 15.1288 40.1852 15.2842 40.4898 14.9454C40.544 14.8822 40.5834 14.8077 40.6052 14.7274C40.6269 14.647 40.6305 14.5628 40.6156 14.4809C40.6007 14.399 40.5678 14.3215 40.5191 14.254C40.4704 14.1864 40.4073 14.1306 40.3344 14.0905C40.0748 13.9693 36.853 14.0159 36.4691 14.0284C36.051 14.0439 35.7619 14.2398 35.8474 14.7091C35.9313 15.1536 36.2919 15.1117 36.7659 15.1381L36.2997 16.0115H27.9489L29.3974 13.3896C30.201 13.3678 31.02 13.3896 31.8251 13.3896C32.913 13.3896 32.7809 12.3017 31.9479 12.2861C31.1428 12.2675 30.3129 12.2861 29.5031 12.2861C28.5395 12.2861 28.7416 12.3203 28.1479 13.357C27.5402 14.42 27.0009 15.438 26.3854 16.4762C25.7699 17.5145 25.226 18.621 24.6043 19.6422C23.6251 19.2987 23.0967 19.0578 21.8735 19.0764C20.9469 19.0898 20.0358 19.317 19.2112 19.7401C18.2628 20.2254 17.4576 20.95 16.8751 21.8421C16.2927 22.7342 15.9533 23.7629 15.8905 24.8264C15.8277 25.89 16.0437 26.9515 16.5171 27.9059C16.9904 28.8603 17.7048 29.6746 18.5895 30.2682C24.2561 34.0776 31.1646 26.8941 26.7662 21.3611C26.2999 20.7767 25.8616 20.497 25.5663 20.1955L27.0755 17.5082ZM32.9099 24.6311C32.9379 24.4182 34.3755 21.8476 34.6102 21.4419C35.0019 20.7581 36.0525 18.7065 36.3603 18.2745C36.539 18.4299 37.2135 19.6981 37.3021 19.9841C37.027 20.0758 36.3898 20.6058 36.2002 20.7752C35.6313 21.2912 35.0034 22.2921 34.7221 23.0801C34.0476 24.9762 35.019 24.5985 32.9099 24.6343V24.6311ZM31.8577 23.6054C31.3573 22.7754 28.2365 17.2534 28.1929 17.1057L35.7153 17.115L32.0334 23.8245L31.8577 23.6054Z" fill="#A6237F"/>
</g>
<g style="mix-blend-mode:multiply">
<path d="M41.5756 23.3047C41.8593 23.3044 42.1368 23.3883 42.373 23.5457C42.6091 23.7031 42.7932 23.9271 42.902 24.1892C43.0108 24.4513 43.0394 24.7398 42.9843 25.0181C42.9291 25.2965 42.7926 25.5523 42.592 25.753C42.3915 25.9538 42.1359 26.0906 41.8575 26.1461C41.5792 26.2015 41.2907 26.1732 41.0285 26.0647C40.7663 25.9562 40.5421 25.7723 40.3844 25.5364C40.2267 25.3004 40.1426 25.023 40.1426 24.7392C40.143 24.3592 40.294 23.9947 40.5626 23.7259C40.8312 23.457 41.1955 23.3055 41.5756 23.3047Z" fill="#F07F22"/>
</g>
<g style="mix-blend-mode:multiply">
<path d="M45.4773 30.3365V32.9491C45.4822 33.0618 45.4641 33.1744 45.4244 33.28C45.3846 33.3856 45.3238 33.482 45.2458 33.5635C45.1677 33.645 45.074 33.7098 44.9702 33.7541C44.8664 33.7984 44.7547 33.8213 44.6419 33.8213C44.5291 33.8213 44.4174 33.7984 44.3136 33.7541C44.2098 33.7098 44.1161 33.645 44.038 33.5635C43.96 33.482 43.8992 33.3856 43.8595 33.28C43.8197 33.1744 43.8017 33.0618 43.8065 32.9491V29.592C43.6048 30.2186 43.5041 30.8734 43.5081 31.5316V40.7512C43.5078 40.9695 43.4221 41.179 43.2693 41.3349C43.1165 41.4909 42.9089 41.5809 42.6906 41.5858H42.6517C42.4335 41.5809 42.2258 41.4909 42.0731 41.3349C41.9203 41.179 41.8346 40.9695 41.8342 40.7512V34.3043C41.8296 34.2427 41.8022 34.1851 41.7574 34.1425C41.7126 34.1 41.6535 34.0757 41.5918 34.0743C41.5302 34.0757 41.4713 34.1001 41.4268 34.1426C41.3822 34.1852 41.3551 34.2429 41.3509 34.3043V40.7527C41.3501 40.9709 41.2643 41.1802 41.1116 41.3361C40.959 41.4919 40.7515 41.5821 40.5334 41.5873H40.493C40.2748 41.5821 40.0674 41.4919 39.9147 41.3361C39.762 41.1802 39.6762 40.9709 39.6755 40.7527V31.5332C39.6802 30.8741 39.5783 30.2186 39.3739 29.592V32.9491C39.3788 33.0618 39.3608 33.1744 39.321 33.28C39.2812 33.3856 39.2205 33.482 39.1424 33.5635C39.0644 33.645 38.9706 33.7098 38.8668 33.7541C38.7631 33.7984 38.6514 33.8213 38.5386 33.8213C38.4257 33.8213 38.314 33.7984 38.2103 33.7541C38.1065 33.7098 38.0127 33.645 37.9347 33.5635C37.8566 33.482 37.7959 33.3856 37.7561 33.28C37.7163 33.1744 37.6983 33.0618 37.7032 32.9491V30.3365C37.8586 27.3602 39.0895 26.4805 41.5887 26.5551C44.0909 26.4805 45.3188 27.3602 45.4742 30.3365H45.4773ZM42.672 41.5873H40.5116H42.672Z" fill="#F07F22"/>
</g>
<g style="mix-blend-mode:multiply">
<path d="M50.4894 36.6988H50.2454H50.0993V40.763C50.0986 40.9812 50.0127 41.1905 49.8601 41.3463C49.7074 41.5022 49.4999 41.5924 49.2818 41.5976H49.243C49.0247 41.5928 48.817 41.5027 48.6643 41.3468C48.5115 41.1908 48.4258 40.9813 48.4255 40.763V36.4392C47.9439 36.3295 47.4699 36.1888 47.0065 36.018L48.4348 30.1696C48.4177 30.0984 48.3964 30.0284 48.3711 29.9598L47.5753 32.7853C47.465 33.1754 47.1961 33.55 46.6847 33.4163C45.8812 33.2065 46.2278 32.2662 46.3739 31.8279C46.8852 30.2302 47.0826 28.9122 47.8147 27.6797C48.1084 27.1855 48.7472 26.8482 50.2532 26.8778H50.3744H50.4972C52.0001 26.8482 52.642 27.1886 52.9357 27.6797C53.6693 28.9122 53.8683 30.2302 54.3765 31.8279C54.5164 32.2662 54.8614 33.2065 54.0657 33.4163C53.5543 33.55 53.2886 33.1754 53.1751 32.7853L52.3778 29.9598C52.3525 30.0284 52.3312 30.0984 52.3141 30.1696L53.7424 36.018C53.2789 36.1888 52.805 36.3295 52.3234 36.4392V40.7521C52.3231 40.9702 52.2376 41.1795 52.0851 41.3354C51.9327 41.4913 51.7254 41.5815 51.5074 41.5867H51.4608C51.2426 41.5819 51.0349 41.4918 50.8821 41.3359C50.7294 41.1799 50.6437 40.9704 50.6433 40.7521V36.6879H50.4972L50.4894 36.6988ZM51.4717 41.5867H49.2632H51.4717Z" fill="#F07F22"/>
</g>
<g style="mix-blend-mode:multiply">
<path d="M50.4586 23.6455C50.7425 23.6452 51.02 23.7291 51.2562 23.8866C51.4923 24.0441 51.6764 24.2682 51.7852 24.5303C51.894 24.7925 51.9225 25.0811 51.8672 25.3595C51.8119 25.6379 51.6752 25.8937 51.4745 26.0944C51.2738 26.2951 51.0181 26.4318 50.7396 26.4871C50.4612 26.5424 50.1727 26.5138 49.9105 26.4051C49.6483 26.2963 49.4243 26.1122 49.2668 25.876C49.1092 25.6399 49.0253 25.3623 49.0256 25.0785C49.0256 24.6984 49.1766 24.334 49.4453 24.0652C49.7141 23.7965 50.0786 23.6455 50.4586 23.6455Z" fill="#F07F22"/>
</g>
<g style="mix-blend-mode:multiply">
<path d="M25.8528 43.9951C26.3113 43.8568 26.5879 43.7526 27.0775 43.7526L39.4598 43.7371C40.0395 43.7371 40.181 43.6532 40.7203 43.4418L42.4998 42.744C42.5623 42.718 42.6293 42.7048 42.697 42.7051C42.7646 42.7054 42.8315 42.7192 42.8938 42.7457C42.956 42.7721 43.0123 42.8108 43.0594 42.8593C43.1066 42.9079 43.1435 42.9653 43.1681 43.0283C43.1928 43.0913 43.2046 43.1586 43.2028 43.2262C43.2011 43.2938 43.1859 43.3604 43.1581 43.4221C43.1303 43.4838 43.0905 43.5393 43.041 43.5854C42.9915 43.6315 42.9332 43.6672 42.8697 43.6905L40.9627 44.438C40.54 44.6028 40.2866 44.7489 39.8297 44.7489C40.0145 44.8744 40.1542 45.0558 40.2283 45.2666C40.3024 45.4773 40.307 45.7063 40.2413 45.9198C40.1757 46.1334 40.0433 46.3202 39.8636 46.453C39.6839 46.5857 39.4664 46.6574 39.243 46.6574C39.0196 46.6574 38.8021 46.5857 38.6224 46.453C38.4427 46.3202 38.3103 46.1334 38.2447 45.9198C38.179 45.7063 38.1836 45.4773 38.2577 45.2666C38.3318 45.0558 38.4715 44.8744 38.6563 44.7489H28.7094C28.8938 44.8746 29.0332 45.0561 29.1069 45.2669C29.1807 45.4776 29.185 45.7064 29.1192 45.9197C29.0534 46.133 28.921 46.3196 28.7413 46.4522C28.5617 46.5848 28.3444 46.6563 28.1211 46.6563C27.8979 46.6563 27.6805 46.5848 27.5009 46.4522C27.3213 46.3196 27.1889 46.133 27.1231 45.9197C27.0573 45.7064 27.0616 45.4776 27.1353 45.2669C27.2091 45.0561 27.3484 44.8746 27.5329 44.7489H27.0106C26.8516 44.7452 26.6933 44.7721 26.5444 44.8281L26.1372 44.9509C26.0123 44.9812 25.8805 44.9624 25.769 44.8985C25.6575 44.8345 25.5748 44.7302 25.5379 44.607C25.5011 44.4839 25.5128 44.3513 25.5708 44.2366C25.6288 44.1219 25.7286 44.0338 25.8497 43.9904L25.8528 43.9951Z" fill="#0AB4DB"/>
</g>
<g style="mix-blend-mode:multiply">
<path d="M25.7686 38.4126H25.7857C25.7819 38.4792 25.7918 38.5457 25.8147 38.6083C25.8375 38.6709 25.8729 38.7281 25.9187 38.7765C25.9644 38.8249 26.0196 38.8635 26.0808 38.8898C26.1419 38.9162 26.2079 38.9298 26.2745 38.9298C26.3411 38.9298 26.407 38.9162 26.4682 38.8898C26.5294 38.8635 26.5845 38.8249 26.6303 38.7765C26.676 38.7281 26.7114 38.6709 26.7343 38.6083C26.7572 38.5457 26.767 38.4792 26.7633 38.4126C26.7595 38.4792 26.7694 38.5457 26.7922 38.6083C26.8151 38.6709 26.8505 38.7281 26.8963 38.7765C26.942 38.8249 26.9972 38.8635 27.0584 38.8898C27.1195 38.9162 27.1854 38.9298 27.2521 38.9298C27.3187 38.9298 27.3846 38.9162 27.4458 38.8898C27.5069 38.8635 27.5621 38.8249 27.6079 38.7765C27.6536 38.7281 27.689 38.6709 27.7119 38.6083C27.7348 38.5457 27.7446 38.4792 27.7409 38.4126H27.7564C27.7598 38.5422 27.8119 38.6657 27.9024 38.7585C27.9928 38.8513 28.115 38.9065 28.2444 38.9131C28.3499 38.9111 28.452 38.8755 28.5358 38.8115C28.6197 38.7475 28.6809 38.6584 28.7107 38.5572C28.7295 38.5646 28.7495 38.5683 28.7697 38.5681C28.8009 38.6658 28.8615 38.7514 28.9434 38.8132C29.0252 38.875 29.1242 38.9099 29.2267 38.9131C29.3577 38.906 29.4811 38.8494 29.572 38.7548C29.6629 38.6602 29.7145 38.5345 29.7163 38.4033C29.7173 38.5348 29.7686 38.6608 29.8596 38.7556C29.9507 38.8504 30.0745 38.9067 30.2058 38.9131C30.3378 38.8958 30.459 38.831 30.5469 38.731C30.6347 38.6309 30.6831 38.5023 30.6831 38.3691C30.6831 38.236 30.6347 38.1074 30.5469 38.0073C30.459 37.9072 30.3378 37.8425 30.2058 37.8252C30.1393 37.8258 30.0736 37.8407 30.0133 37.8689C29.953 37.897 29.8994 37.9378 29.8561 37.9883L29.8359 37.965C30.0395 37.5501 29.9525 36.9455 29.8142 36.3176C29.6836 35.7239 29.5251 34.9328 29.4583 34.8753C29.2826 34.7199 27.7921 34.6624 27.5932 34.7976C27.3943 34.9328 27.3694 35.3959 27.0306 35.7301C26.4229 36.344 24.5594 36.3114 24.3216 37.2548C24.2622 37.4397 24.2682 37.6395 24.3387 37.8205H24.2983C24.1663 37.8378 24.0451 37.9026 23.9573 38.0026C23.8695 38.1027 23.821 38.2313 23.821 38.3645C23.821 38.4976 23.8695 38.6262 23.9573 38.7263C24.0451 38.8264 24.1663 38.8911 24.2983 38.9084C24.4252 38.9021 24.5452 38.8491 24.6353 38.7596C24.7254 38.67 24.7792 38.5503 24.7863 38.4235C24.7934 38.548 24.8478 38.665 24.9384 38.7507C25.029 38.8363 25.1489 38.884 25.2736 38.884C25.3982 38.884 25.5182 38.8363 25.6088 38.7507C25.6994 38.665 25.7538 38.548 25.7608 38.4235L25.7686 38.4126Z" fill="#0AB4DB"/>
</g>
<g style="mix-blend-mode:multiply">
<path d="M46.2053 34.6928V35.0907H47.587C47.8137 35.0907 48.0311 35.1807 48.1914 35.341C48.3517 35.5014 48.4418 35.7188 48.4418 35.9455C48.4418 36.1722 48.3517 36.3896 48.1914 36.5499C48.0311 36.7102 47.8137 36.8003 47.587 36.8003H46.2053V38.1027H48.5164C48.6706 38.1076 48.8166 38.1732 48.9226 38.2853C49.0285 38.3974 49.0859 38.5469 49.0821 38.7011C49.0835 38.8249 49.0464 38.9462 48.976 39.0481C48.9056 39.1499 48.8053 39.2275 48.6889 39.2699C48.6913 39.288 48.6913 39.3063 48.6889 39.3243V43.4243C48.6919 43.4652 48.6864 43.5063 48.6728 43.5449C48.6591 43.5836 48.6377 43.6191 48.6098 43.6491C48.5818 43.6791 48.548 43.703 48.5104 43.7194C48.4728 43.7358 48.4323 43.7442 48.3913 43.7442C48.3503 43.7442 48.3097 43.7358 48.2721 43.7194C48.2345 43.703 48.2007 43.6791 48.1728 43.6491C48.1449 43.6191 48.1234 43.5836 48.1098 43.5449C48.0962 43.5063 48.0907 43.4652 48.0937 43.4243V39.2932H47.4285V42.0022C47.4285 42.0814 47.397 42.1573 47.3411 42.2132C47.2851 42.2692 47.2092 42.3006 47.1301 42.3006C47.0509 42.3006 46.975 42.2692 46.919 42.2132C46.8631 42.1573 46.8316 42.0814 46.8316 42.0022V39.2932H31.6844V42.0022C31.6844 42.0414 31.6767 42.0802 31.6617 42.1164C31.6467 42.1526 31.6247 42.1855 31.597 42.2132C31.5693 42.2409 31.5364 42.2629 31.5002 42.2779C31.464 42.2929 31.4252 42.3006 31.386 42.3006C31.3468 42.3006 31.308 42.2929 31.2718 42.2779C31.2356 42.2629 31.2027 42.2409 31.175 42.2132C31.1473 42.1855 31.1253 42.1526 31.1103 42.1164C31.0953 42.0802 31.0876 42.0414 31.0876 42.0022V39.2932H30.4224C30.4224 39.3026 30.4224 39.3119 30.4224 39.3197V43.4243C30.4224 43.5035 30.3909 43.5794 30.335 43.6353C30.279 43.6913 30.2031 43.7227 30.124 43.7227C30.0448 43.7227 29.9689 43.6913 29.913 43.6353C29.857 43.5794 29.8256 43.5035 29.8256 43.4243V39.3197C29.8248 39.3104 29.8248 39.301 29.8256 39.2917C29.6775 39.2716 29.5422 39.197 29.4462 39.0824C29.3502 38.9678 29.3005 38.8216 29.3067 38.6722C29.3129 38.5229 29.3746 38.3812 29.4798 38.275C29.585 38.1688 29.726 38.1057 29.8753 38.0981H32.1895V36.7956H30.8109C30.5842 36.7956 30.3668 36.7056 30.2065 36.5453C30.0462 36.385 29.9561 36.1675 29.9561 35.9408C29.9561 35.7141 30.0462 35.4967 30.2065 35.3364C30.3668 35.1761 30.5842 35.086 30.8109 35.086H32.1895V34.6881H30.8109C30.5842 34.6881 30.3668 34.5981 30.2065 34.4378C30.0462 34.2775 29.9561 34.06 29.9561 33.8333C29.9561 33.6066 30.0462 33.3892 30.2065 33.2289C30.3668 33.0686 30.5842 32.9785 30.8109 32.9785H47.5963C47.823 32.9785 48.0404 33.0686 48.2008 33.2289C48.3611 33.3892 48.4511 33.6066 48.4511 33.8333C48.4511 34.06 48.3611 34.2775 48.2008 34.4378C48.0404 34.5981 47.823 34.6881 47.5963 34.6881L46.2053 34.6928ZM45.6085 38.0981V36.7956H32.7848V38.0981H45.6085ZM32.7848 35.0907H45.6085V34.6928H32.7848V35.0907Z" fill="#F8AA38"/>
</g>
<g style="mix-blend-mode:multiply">
<path d="M48.3672 18.258V18.6559C48.3664 18.9157 48.2628 19.1647 48.079 19.3484C47.8953 19.5322 47.6463 19.6357 47.3865 19.6366H42.413C42.1532 19.6357 41.9042 19.5322 41.7205 19.3484C41.5367 19.1647 41.4331 18.9157 41.4323 18.6559V14.0088H48.3625H48.4666C49.7691 14.0088 50.8259 14.9522 50.8259 16.1147C50.8259 17.2773 49.7691 18.2222 48.4666 18.2222H48.3625L48.3672 18.258ZM38.843 20.151H51.0917C51.0909 20.5147 50.946 20.8633 50.6888 21.1205C50.4316 21.3777 50.083 21.5225 49.7193 21.5234H40.2154C39.8517 21.5225 39.5031 21.3777 39.2459 21.1205C38.9887 20.8633 38.8438 20.5147 38.843 20.151ZM48.3672 14.6584V17.5726H48.4713C49.3759 17.5726 50.1079 16.9198 50.1079 16.1116C50.1079 15.3034 49.3759 14.6507 48.4713 14.6507C48.4371 14.6507 48.4014 14.6507 48.3672 14.6507V14.6584Z" fill="#FEEB17"/>
</g>
<g style="mix-blend-mode:multiply">
<path d="M9.45881 31.4166H11.3425V29.9199H9.44482L9.45881 31.4166Z" fill="#E21F2C"/>
</g>
<g style="mix-blend-mode:multiply">
<path d="M1.35354 25.9903H3.32116L3.54186 25.9654V24.2807L3.33049 24.248H1.34888L1.35354 25.9903Z" fill="#E21F2C"/>
</g>
<g style="mix-blend-mode:multiply">
<path d="M24.1663 25.9903H26.1416L26.353 25.9654V24.2807L26.1432 24.248H24.1694L24.1663 25.9903Z" fill="#E21F2C"/>
</g>
<g style="mix-blend-mode:multiply">
<path d="M20.3879 25.9903H22.3633L22.5763 25.9654V24.2807L22.3649 24.248H20.391L20.3879 25.9903Z" fill="#E21F2C"/>
</g>
</svg>
