<svg width="24" height="24" viewBox="0 0 24 24" fill="none" xmlns="http://www.w3.org/2000/svg">
<path d="M23.9475 10.347L23.6385 9.438C23.466 8.937 22.9215 8.529 22.4175 8.529H21.3585C20.6955 6.6525 20.007 4.9845 19.7835 4.47C19.368 3.525 18.039 3.3255 17.307 3.117C17.307 3.117 16.086 2.742 12.0105 2.742C7.93499 2.742 6.71549 3.117 6.71549 3.117C5.85899 3.408 4.66799 3.5925 4.19549 4.512C4.00649 4.8765 3.31049 6.5925 2.63549 8.529H1.58699C1.08599 8.529 0.538494 8.937 0.365994 9.438L0.0539941 10.347C-0.118506 10.851 0.149994 11.436 0.650994 11.436H1.69949C1.42049 12.252 1.23149 12.6285 1.23149 12.6285C1.15499 12.7635 1.09949 13.377 1.09949 13.5435V20.3475C1.09949 20.8515 1.50449 21.2565 2.00699 21.2565H4.53449C5.03549 21.2565 5.44349 20.8515 5.44349 20.3475V19.0725H18.576V20.3475C18.576 20.8485 18.984 21.2565 19.485 21.2565H22.0125C22.5135 21.2565 22.9215 20.8515 22.9215 20.3475V13.5435C22.9215 13.3785 22.866 12.7635 22.7865 12.6285C22.7865 12.6285 22.5945 12.249 22.311 11.436H23.3505C23.8515 11.436 24.1185 10.851 23.946 10.347H23.9475ZM6.64499 15.804H5.43599C4.35599 15.804 3.27899 15.645 3.27899 14.895V13.986C3.27899 13.11 3.74249 13.077 4.24649 13.077C4.73549 13.077 5.70749 13.53 6.34949 13.842C7.04849 14.1825 7.82549 14.466 7.82549 15.0345C7.82549 15.5625 7.55399 15.8055 6.64649 15.8055L6.64499 15.804ZM4.12049 9.501C4.75949 6.969 5.45549 6.018 5.60549 5.6205C5.72849 5.3295 5.84849 4.4355 12.006 4.4355C18.1695 4.4355 18.3105 5.46 18.33 5.4705C18.519 6.0135 19.2735 7.167 19.878 9.5025C19.878 9.5025 17.274 10.35 12.009 10.35C6.74099 10.347 4.12049 9.5025 4.12049 9.5025V9.501ZM20.7405 14.895C20.7405 15.6435 19.6605 15.804 18.5805 15.804H17.373C16.461 15.804 16.194 15.561 16.194 15.039C16.194 14.4705 16.974 14.187 17.67 13.8465C18.3105 13.5345 19.281 13.0815 19.77 13.0815C20.271 13.0815 20.739 13.113 20.739 13.9905V14.895H20.7405Z" fill="#18334A"/>
</svg>
