<svg width="24" height="24" viewBox="0 0 24 24" fill="none" xmlns="http://www.w3.org/2000/svg">
<path d="M17.0496 13.3266C15.7849 15.227 14.1141 16.5578 12.143 16.5578C10.1715 16.5578 8.50043 15.2265 7.2356 13.3254C5.89485 13.8676 4 14.8972 4 16.5837C4 18.2409 4.79383 19.7476 6.38175 20.2217C7.75369 20.6314 9.69019 21 12.1429 21C14.5954 21 16.532 20.6313 17.904 20.2217C19.4919 19.7475 20.2857 18.2409 20.2857 16.5837C20.2857 14.8999 18.3905 13.8697 17.0496 13.3266Z" fill="#F9C52E"/>
<path d="M7.7976 11.6329C7.11444 10.0209 6.71429 8.07411 6.71429 6.10846C6.71429 3.87537 9.10438 2 12.1429 2C15.1813 2 17.5714 3.87537 17.5714 6.10846C17.5714 8.07414 17.1713 10.0209 16.4881 11.633L16.4842 11.6309C15.2384 13.9447 13.6877 15.2006 12.143 15.2006C10.5983 15.2006 9.04754 13.9446 7.80173 11.6307L7.7976 11.6329Z" fill="#F9C52E"/>
</svg>
