<svg width="24" height="24" viewBox="0 0 24 24" fill="none" xmlns="http://www.w3.org/2000/svg">
<path d="M6 6.25002C6 5.00711 7.00779 4 8.25002 4C9.49226 4 10.5 5.00711 10.5 6.25002C10.5 7.49226 9.49226 8.50005 8.25002 8.50005C7.00779 8.50005 6 7.49226 6 6.25002Z" fill="#18334A"/>
<path d="M3 13.0001L5.99996 10.0001H10.5V19H9.00014V16H7.50005V19H5.99996V12.1212L4.06066 14.0605L3 13.0001Z" fill="#18334A"/>
<path d="M21.0002 13.0001L18.0002 10.0001H13.5002L12.0001 16.75H13.5002V19H15V16.75H16.5001V19H18.0002V16.75H19.5001L18.6057 12.7276L19.9395 14.0605L21.0002 13.0001Z" fill="#18334A"/>
<path d="M13.5002 6.25002C13.5002 5.00711 14.508 4 15.7502 4C16.9924 4 18.0002 5.00711 18.0002 6.25002C18.0002 7.49226 16.9924 8.50005 15.7502 8.50005C14.508 8.50005 13.5002 7.49226 13.5002 6.25002Z" fill="#18334A"/>
</svg>
