<svg width="24" height="24" viewBox="0 0 24 24" fill="none" xmlns="http://www.w3.org/2000/svg">
<path d="M8.14529 15.6508H13.3288L16.3102 9.77714L17.3927 11.8423C16.4194 12.5162 15.7811 13.6393 15.7811 14.9131C15.7811 16.9758 17.4529 18.6471 19.5159 18.6479C21.5785 18.6471 23.25 16.9758 23.25 14.9131C23.25 12.8501 21.5785 11.1787 19.5159 11.1781C19.1219 11.1781 18.7426 11.24 18.3863 11.3531L15.0549 5H12.5535V6.10652H14.3856L14.9418 7.16701H10.2021L9.37216 9.10345H2.36367L1.53375 10.5789L6.10999 10.5015C7.00683 11.0732 8.60552 12.3325 8.93615 14.1753H8.14514C7.80299 12.4661 6.29499 11.1787 4.48451 11.1781C2.42181 11.1789 0.75 12.8502 0.75 14.9131C0.75 16.395 1.6149 17.671 2.86584 18.2745C3.35574 18.5109 3.90392 18.6474 4.48466 18.6477C6.29514 18.6471 7.80299 17.3597 8.14529 15.6508ZM18.0864 13.165L19.2098 15.3082L20.1899 14.7945L19.0895 12.6955C19.2274 12.6689 19.3697 12.6537 19.5156 12.6534C20.7627 12.656 21.7727 13.6649 21.7741 14.9129C21.7727 16.1601 20.7627 17.1697 19.5156 17.1715C18.2679 17.1697 17.2584 16.1601 17.256 14.9129C17.2575 14.2079 17.5807 13.5793 18.0864 13.165ZM6.61715 15.6508C6.31028 16.5348 5.47309 17.1702 4.48466 17.1717C3.2369 17.1699 2.22757 16.1602 2.225 14.9131C2.22757 13.6649 3.2369 12.656 4.48466 12.6536C5.47309 12.6557 6.31058 13.2908 6.61715 14.1755H4.39246V15.6509L6.61715 15.6508Z" fill="white"/>
<path d="M16.9381 7.27737C17.0764 7.74532 17.5044 8.08928 18.0173 8.08928V5.82992C17.3935 5.82992 16.8878 6.33572 16.8878 6.9596C16.8877 7.07057 16.9086 7.17564 16.9381 7.27737Z" fill="white"/>
</svg>
