<svg width="24" height="24" viewBox="0 0 24 24" fill="none" xmlns="http://www.w3.org/2000/svg">
<path fill-rule="evenodd" clip-rule="evenodd" d="M2 12C2 6.47715 6.47715 2 12 2C17.5228 2 22 6.47715 22 12C22 14.261 21.2497 16.3466 19.9844 18.0217C20.041 17.7795 20.0715 17.5418 20.0715 17.3156C20.0715 15.8632 18.2399 14.9436 16.8484 14.4281C15.6938 16.3218 14.0242 17.75 12 17.75C9.97836 17.75 8.31052 16.3256 7.15614 14.4357C5.80073 14.9519 4.04004 15.8691 4.04004 17.3156C4.04004 17.6027 4.08506 17.9084 4.16792 18.2182C2.81079 16.5112 2 14.3503 2 12ZM12 0C5.37258 0 0 5.37258 0 12C0 18.6274 5.37258 24 12 24C18.6274 24 24 18.6274 24 12C24 5.37258 18.6274 0 12 0ZM16.9461 7.74422C16.9461 9.96095 16.3984 12.1579 15.4858 13.7791C14.4661 15.3921 13.2288 16.25 12 16.25C10.7711 16.25 9.53372 15.3921 8.51401 13.779C7.60157 12.1578 7.05507 9.9609 7.05507 7.74422C7.05507 5.70531 9.22569 4 12 4C14.7742 4 16.9461 5.70531 16.9461 7.74422Z" fill="#18334A" fill-opacity="0.5"/>
</svg>
