<svg width="32" height="32" viewBox="0 0 32 32" fill="none" xmlns="http://www.w3.org/2000/svg">
<path d="M15.9018 0H16.0982C19.4473 0 22.2866 0.668344 24.6333 1.92336C26.98 3.17837 28.8216 5.02004 30.0766 7.36671C31.3317 9.71338 32 12.5527 32 15.9018V16.0982C32 19.4473 31.3317 22.2866 30.0766 24.6333C28.8216 26.98 26.98 28.8216 24.6333 30.0766C22.2866 31.3317 19.4473 32 16.0982 32H15.9018C12.5527 32 9.71338 31.3317 7.36671 30.0766C5.02004 28.8216 3.17837 26.98 1.92336 24.6333C0.72291 22.3887 0.0592259 19.6933 0.00378352 16.5321L0 15.9018C0 12.5527 0.668344 9.71338 1.92336 7.36671C3.17837 5.02004 5.02004 3.17837 7.36671 1.92336C9.71338 0.668344 12.5527 0 15.9018 0Z" fill="#FF001A"/>
<path d="M21.0496 17.3266C19.7849 19.227 18.1141 20.5578 16.143 20.5578C14.1715 20.5578 12.5004 19.2265 11.2356 17.3254C9.89485 17.8676 8 18.8972 8 20.5837C8 22.2409 8.79383 23.7476 10.3818 24.2217C11.7537 24.6314 13.6902 25 16.1429 25C18.5954 25 20.532 24.6313 21.904 24.2217C23.4919 23.7475 24.2857 22.2409 24.2857 20.5837C24.2857 18.8999 22.3905 17.8697 21.0496 17.3266Z" fill="white"/>
<path d="M11.7976 15.6329C11.1144 14.0209 10.7143 12.0741 10.7143 10.1085C10.7143 7.87537 13.1044 6 16.1429 6C19.1813 6 21.5714 7.87537 21.5714 10.1085C21.5714 12.0741 21.1713 14.0209 20.4881 15.633L20.4842 15.6309C19.2384 17.9447 17.6877 19.2006 16.143 19.2006C14.5983 19.2006 13.0475 17.9446 11.8017 15.6307L11.7976 15.6329Z" fill="white"/>
</svg>
