<svg width="17" height="19" viewBox="0 0 17 19" fill="none" xmlns="http://www.w3.org/2000/svg">
<path d="M13.0496 11.3266C11.7849 13.227 10.1141 14.5578 8.14301 14.5578C6.17151 14.5578 4.50043 13.2265 3.2356 11.3254C1.89485 11.8676 0 12.8972 0 14.5837C0 16.2409 0.793832 17.7476 2.38175 18.2217C3.75369 18.6314 5.69019 19 8.14286 19C10.5954 19 12.532 18.6313 13.904 18.2217C15.4919 17.7475 16.2857 16.2409 16.2857 14.5837C16.2857 12.8999 14.3905 11.8697 13.0496 11.3266Z" fill="white"/>
<path d="M3.7976 9.63292C3.11444 8.02088 2.71429 6.07411 2.71429 4.10846C2.71429 1.87537 5.10438 0 8.14286 0C11.1813 0 13.5714 1.87537 13.5714 4.10846C13.5714 6.07414 13.1713 8.02095 12.4881 9.633L12.4842 9.63091C11.2384 11.9447 9.68765 13.2006 8.14301 13.2006C6.59833 13.2006 5.04754 11.9446 3.80173 9.6307L3.7976 9.63292Z" fill="white"/>
</svg>