<svg width="24" height="24" viewBox="0 0 24 24" fill="none" xmlns="http://www.w3.org/2000/svg">
<path d="M14.0131 2.01656C14.5788 3.19718 14.4502 4.89946 13.6275 5.3113C12.8047 5.7506 11.4934 4.73472 10.9792 3.55411C10.6192 2.64805 10.9534 1.57726 11.7762 1.16542C12.6247 0.753575 13.6017 1.13796 14.0131 2.01656Z" fill="#18334A"/>
<path d="M17.2395 18.2607C17.5244 19.6408 17.8515 21.2259 17.9728 21.9223C18.23 23.2677 16.5844 23.2402 16.3016 22.4165C16.0702 21.6477 15.1703 17.8313 15.016 17.1724C15.016 17.1175 14.9903 17.0626 14.9388 17.0077L11.1078 12.8069C10.9792 12.6696 10.8507 12.4774 10.8507 12.2852V8.16676C10.8507 8.02948 10.7993 7.97457 10.7221 8.02948L9.56509 8.85317C9.3594 8.96299 9.30797 9.10027 9.30797 9.53957V12.5598C9.30797 13.5756 7.76527 13.5207 7.76527 12.5598L7.8424 8.44133C7.8424 8.22168 7.94525 8.00203 8.12523 7.8922L11.4678 5.69571C11.9306 5.39369 12.4962 5.50351 12.8562 5.91536L13.7561 7.0136C13.8847 7.2058 13.9361 7.6451 13.9361 7.8922V12.8343L16.6101 15.6623C16.6872 15.7721 16.7644 15.9094 16.7901 16.0467C16.8639 16.4408 17.0415 17.3012 17.2395 18.2607Z" fill="#18334A"/>
<path d="M14.7074 11.736V9.81412C14.7074 9.59447 14.8874 9.53955 14.9645 9.53955C15.1124 9.71725 15.3999 10.076 15.7303 10.4881C16.3186 11.2221 17.0429 12.1257 17.3557 12.4774C17.9214 13.1089 16.9443 14.1522 16.3787 13.5482C16.0958 13.2461 14.7074 11.736 14.7074 11.736Z" fill="#18334A"/>
<path d="M10.9535 14.0424C10.7753 14.3866 10.3313 15.2629 9.80598 16.2995C8.73927 18.4044 7.33766 21.1703 7.14815 21.483C6.50535 22.5813 8.12519 23.5971 8.74228 22.5813C9.12795 21.9498 12.5219 15.4152 12.5219 15.4152L11.1592 14.0149C11.1078 13.9326 11.0049 13.96 10.9535 14.0424Z" fill="#18334A"/>
</svg>
