<svg width="36" height="50" viewBox="0 0 36 50" fill="none" xmlns="http://www.w3.org/2000/svg">
<path fill-rule="evenodd" clip-rule="evenodd" d="M18 50C20.2091 50 22 49.1046 22 48C22 46.8954 20.2091 46 18 46C15.7909 46 14 46.8954 14 48C14 49.1046 15.7909 50 18 50Z" fill="#18334A"/>
<rect x="17" y="30" width="2" height="18" rx="1" fill="#18334A"/>
<path d="M17.8896 0H18.1104C21.8783 0 25.0724 0.751887 27.7124 2.16377C30.3524 3.57566 32.4243 5.64755 33.8362 8.28755C35.2481 10.9275 36 14.1217 36 17.8896V18.1104C36 21.8783 35.2481 25.0724 33.8362 27.7124C32.4243 30.3524 30.3524 32.4243 27.7124 33.8362C25.0724 35.2481 21.8783 36 18.1104 36H17.8896C14.1217 36 10.9275 35.2481 8.28755 33.8362C5.64755 32.4243 3.57566 30.3524 2.16377 27.7124C0.813274 25.1872 0.0666291 22.155 0.00425646 18.5986L0 17.8896C0 14.1217 0.751887 10.9275 2.16377 8.28755C3.57566 5.64755 5.64755 3.57566 8.28755 2.16377C10.9275 0.751887 14.1217 0 17.8896 0Z" fill="#18334A"/>
<path d="M17.9264 6H18.0736C20.5855 6 22.715 6.50126 24.475 7.44252C26.235 8.38377 27.6162 9.76503 28.5575 11.525C29.4987 13.285 30 15.4145 30 17.9264V18.0736C30 20.5855 29.4987 22.715 28.5575 24.475C27.6162 26.235 26.235 27.6162 24.475 28.5575C22.715 29.4987 20.5855 30 18.0736 30H17.9264C15.4145 30 13.285 29.4987 11.525 28.5575C9.76503 27.6162 8.38377 26.235 7.44252 24.475C6.54218 22.7915 6.04442 20.77 6.00284 18.3991L6 17.9264C6 15.4145 6.50126 13.285 7.44252 11.525C8.38377 9.76503 9.76503 8.38377 11.525 7.44252C13.285 6.50126 15.4145 6 17.9264 6Z" fill="#F4F8FA"/>
<path d="M17.9632 12H18.0368C19.2928 12 20.3575 12.2506 21.2375 12.7213C22.1175 13.1919 22.8081 13.8825 23.2787 14.7625C23.7494 15.6425 24 16.7072 24 17.9632V18.0368C24 19.2928 23.7494 20.3575 23.2787 21.2375C22.8081 22.1175 22.1175 22.8081 21.2375 23.2787C20.3575 23.7494 19.2928 24 18.0368 24H17.9632C16.7072 24 15.6425 23.7494 14.7625 23.2787C13.8825 22.8081 13.1919 22.1175 12.7213 21.2375C12.2711 20.3957 12.0222 19.385 12.0014 18.1995L12 17.9632C12 16.7072 12.2506 15.6425 12.7213 14.7625C13.1919 13.8825 13.8825 13.1919 14.7625 12.7213C15.6425 12.2506 16.7072 12 17.9632 12Z" fill="#18334A"/>
<path d="M17.9998 43.9985C17.9998 43.9985 18.4169 42.6676 18.9998 40.9999C18.9998 38.777 21.0565 36.1369 24.9998 34.9998H11.0176C14.9509 36.1369 16.9998 38.8358 16.9998 40.9999C17.5811 42.6676 17.9998 43.9985 17.9998 43.9985Z" fill="#18334A"/>
</svg>
