<svg width="24" height="24" viewBox="0 0 24 24" fill="none" xmlns="http://www.w3.org/2000/svg">
<path d="M22.2129 6.49817C22.1675 6.49824 22.1225 6.50663 22.0801 6.52292V3.84119C22.0803 3.7125 22.066 3.5842 22.0374 3.45873C22.0391 3.43176 22.0391 3.40471 22.0374 3.37774C22.0441 1.92888 17.5333 0.75 11.9674 0.75C6.40143 0.75 1.89064 1.92888 1.89064 3.37999C1.88891 3.40696 1.88891 3.43401 1.89064 3.46098C1.86204 3.58645 1.8477 3.71475 1.84789 3.84344V6.50492C1.8247 6.50267 1.80134 6.50267 1.77815 6.50492C1.21345 6.49818 0.75 7.87054 0.75 9.56687C0.75 11.2632 1.21345 12.6356 1.7849 12.6356C1.80809 12.6378 1.83145 12.6378 1.85464 12.6356V18.8044C1.85583 19.2659 2.03967 19.7081 2.36597 20.0344C2.69228 20.3607 3.1345 20.5446 3.59597 20.5458H3.89968C3.89968 20.5593 3.89968 20.5728 3.89968 20.5863V21.6122C3.89966 21.912 4.01767 22.1997 4.22818 22.4132C4.4387 22.6267 4.72479 22.7487 5.02457 22.7528H6.10671C6.40845 22.7522 6.69766 22.6321 6.91102 22.4187C7.12438 22.2054 7.24451 21.9161 7.2451 21.6144V20.5863C7.2451 20.5728 7.2451 20.5593 7.2451 20.5458H16.6874C16.6874 20.5593 16.6874 20.5728 16.6874 20.5863V21.6122C16.688 21.9139 16.8081 22.2031 17.0215 22.4165C17.2348 22.6298 17.5241 22.75 17.8258 22.7505H18.9057C19.2074 22.75 19.4966 22.6298 19.71 22.4165C19.9233 22.2031 20.0435 21.9139 20.0441 21.6122V20.5863C20.0441 20.5728 20.0441 20.5593 20.0441 20.5458H20.341C20.8025 20.5446 21.2447 20.3607 21.571 20.0344C21.8973 19.7081 22.0812 19.2659 22.0824 18.8044V12.6108C22.1247 12.6271 22.1697 12.6355 22.2151 12.6356C22.7865 12.6356 23.25 11.2609 23.25 9.56687C23.25 7.87279 22.7843 6.49817 22.2129 6.49817ZM8.11801 2.09986H15.8235C15.9929 2.09986 16.1555 2.16718 16.2753 2.287C16.3951 2.40683 16.4624 2.56934 16.4624 2.7388C16.4624 2.90826 16.3951 3.07077 16.2753 3.1906C16.1555 3.31042 15.9929 3.37774 15.8235 3.37774H8.11801C7.94856 3.37774 7.78604 3.31042 7.66622 3.1906C7.54639 3.07077 7.47908 2.90826 7.47908 2.7388C7.47908 2.56934 7.54639 2.40683 7.66622 2.287C7.78604 2.16718 7.94856 2.09986 8.11801 2.09986ZM5.55777 18.7752C5.31348 18.7752 5.07469 18.7028 4.87157 18.567C4.66845 18.4313 4.51014 18.2384 4.41666 18.0127C4.32318 17.787 4.29872 17.5387 4.34638 17.2991C4.39403 17.0595 4.51167 16.8394 4.6844 16.6667C4.85714 16.494 5.07722 16.3763 5.31681 16.3287C5.5564 16.281 5.80474 16.3055 6.03043 16.399C6.25612 16.4924 6.44902 16.6508 6.58474 16.8539C6.72046 17.057 6.7929 17.2958 6.7929 17.5401C6.7929 17.8676 6.66277 18.1818 6.43114 18.4134C6.1995 18.6451 5.88534 18.7752 5.55777 18.7752ZM11.4567 4.55212V14.7638H5.01107C4.66358 14.7627 4.33065 14.6241 4.08493 14.3784C3.83921 14.1327 3.70064 13.7997 3.69945 13.4522V5.76475C3.70064 5.41725 3.83921 5.08432 4.08493 4.8386C4.33065 4.59288 4.66358 4.45432 5.01107 4.45313H11.4679C11.4609 4.48568 11.4572 4.51883 11.4567 4.55212ZM18.3792 18.7752C18.135 18.7752 17.8962 18.7028 17.693 18.567C17.4899 18.4313 17.3316 18.2384 17.2381 18.0127C17.1446 17.787 17.1202 17.5387 17.1678 17.2991C17.2155 17.0595 17.3331 16.8394 17.5059 16.6667C17.6786 16.494 17.8987 16.3763 18.1383 16.3287C18.3779 16.281 18.6262 16.3055 18.8519 16.399C19.0776 16.4924 19.2705 16.6508 19.4062 16.8539C19.5419 17.057 19.6144 17.2958 19.6144 17.5401C19.6144 17.8676 19.4842 18.1818 19.2526 18.4134C19.021 18.6451 18.7068 18.7752 18.3792 18.7752ZM20.2376 13.4522C20.2364 13.7997 20.0978 14.1327 19.8521 14.3784C19.6064 14.6241 19.2734 14.7627 18.9259 14.7638H12.4781V4.55212C12.4816 4.51771 12.4816 4.48304 12.4781 4.44863H18.9259C19.2734 4.44982 19.6064 4.58838 19.8521 4.8341C20.0978 5.07982 20.2364 5.41275 20.2376 5.76025V13.4522Z" fill="#18334A"/>
</svg>
