<svg width="267" height="110" viewBox="0 0 267 110" fill="none" xmlns="http://www.w3.org/2000/svg">
<path d="M9.23 107.19V104.36H0V93.96H1.78V102.79H7.61V93.96H9.39V102.79H11V107.22L9.23 107.19Z" fill="#010101"/>
<path d="M17.2801 93.6698C21.3901 93.6698 22.8901 96.9498 22.2301 99.9098H13.7501C13.9801 102.1 15.9901 103.02 18.1501 103.02C19.3683 103.023 20.5693 102.732 21.6501 102.17V103.86C20.4664 104.393 19.1779 104.653 17.8801 104.62C14.7301 104.62 11.9801 102.86 11.9801 99.1498C11.9474 98.4367 12.0607 97.7244 12.3131 97.0566C12.5655 96.3889 12.9517 95.7797 13.448 95.2666C13.9443 94.7534 14.5402 94.3471 15.1992 94.0725C15.8582 93.7979 16.5663 93.6609 17.2801 93.6698ZM17.3901 95.2798C16.9468 95.2443 16.5008 95.2966 16.0777 95.4338C15.6546 95.571 15.2627 95.7903 14.9246 96.0793C14.5864 96.3682 14.3086 96.721 14.1071 97.1175C13.9055 97.514 13.7842 97.9464 13.7501 98.3898H20.6501C20.8101 97.2798 20.1001 95.2798 17.3901 95.2798V95.2798Z" fill="#010101"/>
<path d="M24.2002 104.36V93.96H26.0002V98.37H32.1602V93.96H33.9402V104.36H32.1402V99.96H26.0002V104.37L24.2002 104.36Z" fill="#010101"/>
<path d="M39.2401 104.36V95.54H35.3101V93.96H44.9201V95.57H41.0001V104.39L39.2401 104.36Z" fill="#010101"/>
<path d="M52.2101 93.67C53.1229 93.6755 54.02 93.9089 54.8198 94.349C55.6196 94.7892 56.2967 95.4222 56.7897 96.1906C57.2827 96.9589 57.5759 97.8382 57.6428 98.7487C57.7096 99.6591 57.548 100.572 57.1725 101.404C56.797 102.236 56.2196 102.961 55.4926 103.513C54.7657 104.066 53.9124 104.428 53.0101 104.566C52.1078 104.705 51.1851 104.616 50.3259 104.308C49.4667 103.999 48.6981 103.481 48.0901 102.8V109.15H46.3101V93.96H47.9101V95.7C48.4288 95.061 49.0846 94.5467 49.8289 94.1953C50.5732 93.844 51.387 93.6644 52.2101 93.67V93.67ZM52.0101 95.2801C51.1797 95.2849 50.3684 95.5289 49.6732 95.983C48.978 96.437 48.4283 97.0817 48.0901 97.84V100.45C48.4251 101.209 48.9723 101.856 49.6659 102.312C50.3596 102.768 51.1701 103.014 52.0001 103.02C53.0264 103.02 54.0108 102.612 54.7366 101.887C55.4623 101.161 55.8701 100.176 55.8701 99.15C55.8701 98.1237 55.4623 97.1393 54.7366 96.4135C54.0108 95.6878 53.0264 95.2801 52.0001 95.2801H52.0101Z" fill="#010101"/>
<path d="M64.3701 104.36V93.96H72.1501V95.57H66.1501V104.39L64.3701 104.36Z" fill="#010101"/>
<path d="M78.5002 93.67C79.5747 93.7092 80.6138 94.0636 81.4883 94.6891C82.3628 95.3146 83.034 96.1836 83.4183 97.1877C83.8025 98.1919 83.8829 99.2869 83.6494 100.336C83.4159 101.386 82.8789 102.344 82.1051 103.09C81.3314 103.837 80.3551 104.339 79.2979 104.535C78.2407 104.73 77.1493 104.611 76.1595 104.191C75.1698 103.771 74.3255 103.069 73.7317 102.173C73.1379 101.276 72.8209 100.225 72.8202 99.15C72.8068 98.4095 72.9461 97.6743 73.2294 96.99C73.5127 96.3058 73.934 95.6873 74.4669 95.1731C74.9999 94.6589 75.6331 94.2601 76.327 94.0015C77.021 93.7428 77.7607 93.63 78.5002 93.67V93.67ZM78.5002 95.32C77.7459 95.3337 77.0124 95.57 76.3918 95.9992C75.7712 96.4283 75.2912 97.0312 75.0121 97.7321C74.7329 98.4331 74.667 99.2009 74.8226 99.9391C74.9781 100.677 75.3483 101.353 75.8866 101.882C76.425 102.411 77.1074 102.768 77.8484 102.911C78.5894 103.053 79.3558 102.973 80.0516 102.681C80.7474 102.389 81.3415 101.899 81.7593 101.27C82.1771 100.642 82.4001 99.9045 82.4002 99.15C82.4222 98.6351 82.3358 98.1215 82.1466 97.6421C81.9574 97.1628 81.6697 96.7286 81.3021 96.3676C80.9344 96.0065 80.495 95.7267 80.0124 95.5462C79.5297 95.3658 79.0146 95.2887 78.5002 95.32V95.32Z" fill="#010101"/>
<path d="M92.0001 93.6701C92.913 93.6755 93.8101 93.9089 94.6098 94.3491C95.4096 94.7892 96.0868 95.4223 96.5798 96.1906C97.0727 96.9589 97.366 97.8383 97.4328 98.7487C97.4997 99.6592 97.338 100.572 96.9625 101.404C96.587 102.236 96.0096 102.961 95.2827 103.513C94.5558 104.066 93.7024 104.428 92.8001 104.566C91.8978 104.705 90.9751 104.616 90.1159 104.308C89.2567 103.999 88.4882 103.481 87.8801 102.8V109.15H86.1001V93.9601H87.7001V95.7001C88.2183 95.0605 88.874 94.5458 89.6184 94.1944C90.3629 93.843 91.1769 93.6637 92.0001 93.6701V93.6701ZM91.8001 95.2801C90.9698 95.2849 90.1584 95.529 89.4632 95.983C88.768 96.437 88.2184 97.0818 87.8801 97.8401V100.45C88.2159 101.211 88.7646 101.859 89.4602 102.315C90.1557 102.771 90.9684 103.016 91.8001 103.02C92.8265 103.02 93.8108 102.612 94.5366 101.887C95.2624 101.161 95.6701 100.176 95.6701 99.1501C95.6701 98.1237 95.2624 97.1393 94.5366 96.4136C93.8108 95.6878 92.8265 95.2801 91.8001 95.2801V95.2801Z" fill="#010101"/>
<path d="M104.2 93.6701C105.275 93.7093 106.314 94.0637 107.188 94.6892C108.063 95.3147 108.734 96.1837 109.118 97.1878C109.502 98.192 109.583 99.287 109.349 100.336C109.116 101.386 108.579 102.344 107.805 103.09C107.031 103.837 106.055 104.339 104.998 104.535C103.941 104.731 102.849 104.611 101.859 104.191C100.87 103.771 100.025 103.069 99.4316 102.173C98.8378 101.276 98.5209 100.225 98.5201 99.15C98.5052 98.4092 98.6435 97.6732 98.9263 96.9883C99.2091 96.3034 99.6303 95.6843 100.164 95.1698C100.697 94.6553 101.331 94.2565 102.025 93.9985C102.72 93.7404 103.46 93.6286 104.2 93.6701V93.6701ZM104.2 95.32C103.446 95.3358 102.714 95.5737 102.095 96.0041C101.475 96.4344 100.997 97.0379 100.719 97.7389C100.442 98.44 100.377 99.2075 100.534 99.9451C100.69 100.683 101.061 101.358 101.6 101.885C102.139 102.413 102.821 102.77 103.562 102.911C104.303 103.053 105.069 102.972 105.764 102.68C106.459 102.388 107.052 101.897 107.47 101.269C107.887 100.641 108.11 99.9041 108.11 99.15C108.132 98.6343 108.046 98.1198 107.856 97.6397C107.666 97.1597 107.377 96.7249 107.009 96.3637C106.64 96.0025 106.199 95.7229 105.715 95.5431C105.232 95.3633 104.715 95.2873 104.2 95.32Z" fill="#010101"/>
<path d="M110.74 107.19V102.8H112.16C113.5 100.5 114.03 97.8002 113.98 93.9302H121.92V102.8H123.48V107.19H121.75V104.36H112.47V107.19H110.74ZM114.09 102.8H120.15V95.5002H115.69C115.711 98.0227 115.164 100.518 114.09 102.8Z" fill="#010101"/>
<path d="M130.26 93.6702C131.415 93.6356 132.556 93.9305 133.55 94.5202V96.2102C132.652 95.5813 131.576 95.2555 130.48 95.2802C128.42 95.2802 126.27 96.4102 126.27 99.1502C126.27 101.89 128.36 103.02 130.44 103.02C131.568 103.017 132.677 102.724 133.66 102.17V103.96C132.576 104.457 131.392 104.7 130.2 104.67C127.4 104.67 124.5 102.96 124.5 99.2402C124.5 95.5202 127.49 93.6702 130.26 93.6702Z" fill="#010101"/>
<path d="M135.63 104.36V93.96H137.4V98.31H139.56L142.93 93.96H145L141 99.16L145.53 104.39H143.44L139.54 99.92H137.4V104.39L135.63 104.36Z" fill="#010101"/>
<path d="M146.61 104.36V93.96H148.38V101.59L154.9 93.96H156.41V104.36H154.64V96.74L148.12 104.36H146.61Z" fill="#010101"/>
<path d="M167.79 93.96L163.89 99.03L168 104.36H166L162.9 100.23L159.77 104.36H157.77L161.92 99L157.92 93.96H159.92L162.83 97.81L165.71 93.96H167.79Z" fill="#010101"/>
<path d="M174.2 104.36V93.96H183.92V104.36H182.14V95.54H176V104.36H174.2Z" fill="#010101"/>
<path d="M192.48 93.6701C193.393 93.6771 194.289 93.912 195.087 94.3532C195.886 94.7945 196.562 95.4282 197.054 96.1968C197.545 96.9655 197.837 97.8448 197.903 98.7549C197.969 99.665 197.806 100.577 197.43 101.408C197.054 102.24 196.477 102.964 195.75 103.516C195.023 104.067 194.17 104.428 193.268 104.567C192.366 104.705 191.443 104.616 190.585 104.307C189.726 103.999 188.958 103.481 188.35 102.8V109.15H186.58V93.96H188.17V95.7001C188.691 95.0608 189.348 94.5465 190.094 94.1952C190.84 93.8438 191.656 93.6644 192.48 93.6701V93.6701ZM192.28 95.2801C191.448 95.283 190.635 95.5261 189.937 95.9803C189.24 96.4344 188.689 97.0802 188.35 97.8401V100.45C188.688 101.212 189.238 101.86 189.935 102.316C190.633 102.772 191.447 103.016 192.28 103.02C193.306 103.02 194.291 102.612 195.017 101.887C195.742 101.161 196.15 100.176 196.15 99.15C196.15 98.1237 195.742 97.1393 195.017 96.4135C194.291 95.6878 193.306 95.2801 192.28 95.2801V95.2801Z" fill="#010101"/>
<path d="M204.68 93.6701C205.755 93.7093 206.794 94.0637 207.668 94.6892C208.543 95.3147 209.214 96.1837 209.598 97.1878C209.982 98.192 210.063 99.287 209.829 100.336C209.596 101.386 209.059 102.344 208.285 103.09C207.511 103.837 206.535 104.339 205.478 104.535C204.421 104.731 203.329 104.611 202.339 104.191C201.35 103.771 200.505 103.069 199.912 102.173C199.318 101.276 199.001 100.225 199 99.15C198.985 98.4092 199.123 97.6732 199.406 96.9883C199.689 96.3034 200.11 95.6843 200.644 95.1698C201.177 94.6553 201.811 94.2565 202.505 93.9985C203.2 93.7404 203.94 93.6286 204.68 93.6701V93.6701ZM204.68 95.32C203.926 95.3338 203.192 95.5701 202.572 95.9993C201.951 96.4284 201.471 97.0313 201.192 97.7322C200.913 98.4332 200.847 99.201 201.002 99.9392C201.158 100.678 201.528 101.353 202.067 101.882C202.605 102.411 203.287 102.769 204.028 102.911C204.769 103.053 205.536 102.973 206.232 102.681C206.927 102.389 207.521 101.899 207.939 101.27C208.357 100.642 208.58 99.9045 208.58 99.15C208.602 98.6352 208.516 98.1215 208.326 97.6422C208.137 97.1629 207.85 96.7287 207.482 96.3677C207.114 96.0066 206.675 95.7268 206.192 95.5463C205.71 95.3659 205.194 95.2888 204.68 95.32Z" fill="#010101"/>
<path d="M216.85 93.6699C220.96 93.6699 222.46 96.9499 221.85 99.9099H213.37C213.6 102.1 215.62 103.02 217.77 103.02C218.988 103.022 220.189 102.731 221.27 102.17V103.86C220.087 104.393 218.798 104.653 217.5 104.62C214.35 104.62 211.6 102.86 211.6 99.1499C211.568 98.441 211.68 97.7329 211.929 97.0686C212.178 96.4042 212.56 95.7974 213.051 95.2849C213.542 94.7725 214.132 94.3651 214.785 94.0875C215.438 93.8099 216.141 93.6678 216.85 93.6699V93.6699ZM216.96 95.2799C216.517 95.2444 216.071 95.2967 215.648 95.4339C215.225 95.5711 214.833 95.7904 214.495 96.0794C214.157 96.3683 213.879 96.7211 213.677 97.1176C213.476 97.5141 213.354 97.9465 213.32 98.3899H220.22C220.38 97.2799 219.67 95.2799 217 95.2799H216.96Z" fill="#010101"/>
<path d="M223.77 104.36V93.96H225.55V98.31H227.7L231.07 93.96H233.13L229.13 99.16L233.66 104.39H231.57L227.67 99.92H225.59V104.39L223.77 104.36Z" fill="#010101"/>
<path d="M237.41 104.36V95.54H233.49V93.96H243.09V95.57H239.19V104.39L237.41 104.36Z" fill="#010101"/>
<path d="M249.43 93.6701C250.505 93.7093 251.544 94.0637 252.418 94.6892C253.293 95.3147 253.964 96.1837 254.348 97.1878C254.732 98.192 254.813 99.287 254.579 100.336C254.346 101.386 253.809 102.344 253.035 103.09C252.261 103.837 251.285 104.339 250.228 104.535C249.171 104.731 248.079 104.611 247.089 104.191C246.1 103.771 245.255 103.069 244.662 102.173C244.068 101.276 243.751 100.225 243.75 99.15C243.735 98.4092 243.873 97.6732 244.156 96.9883C244.439 96.3034 244.86 95.6843 245.394 95.1698C245.927 94.6553 246.561 94.2565 247.255 93.9985C247.95 93.7404 248.69 93.6286 249.43 93.6701V93.6701ZM249.43 95.32C248.676 95.3358 247.944 95.5737 247.325 96.0041C246.705 96.4344 246.227 97.0379 245.949 97.7389C245.672 98.44 245.607 99.2075 245.764 99.9451C245.92 100.683 246.291 101.358 246.83 101.885C247.369 102.413 248.051 102.77 248.792 102.911C249.533 103.053 250.298 102.972 250.994 102.68C251.689 102.388 252.282 101.897 252.7 101.269C253.117 100.641 253.34 99.9041 253.34 99.15C253.362 98.6343 253.276 98.1198 253.086 97.6397C252.896 97.1597 252.607 96.7249 252.239 96.3637C251.87 96.0025 251.429 95.7229 250.945 95.5431C250.462 95.3633 249.945 95.2873 249.43 95.32V95.32Z" fill="#010101"/>
<path d="M257 104.36V93.96H262.83C264.7 93.96 266.12 94.96 266.12 96.79C266.131 97.2696 266.003 97.7422 265.751 98.1504C265.499 98.5587 265.134 98.885 264.7 99.09C265.211 99.2522 265.656 99.5737 265.971 100.007C266.286 100.441 266.454 100.964 266.45 101.5C266.45 103.22 265.32 104.39 263.01 104.39L257 104.36ZM258.77 98.36H262.66C263.59 98.36 264.32 98.02 264.32 96.95C264.32 95.88 263.41 95.47 262.66 95.47H258.77V98.36ZM258.77 102.86H262.77C263.88 102.86 264.67 102.54 264.67 101.38C264.67 100.22 263.72 99.86 262.83 99.86H258.77V102.86Z" fill="#010101"/>
<path d="M65.35 63.2098H47.92V0.799805H32.78V63.2098H15.18V0.799805H0.0400391V78.3598H80.5V0.799805H65.35V63.2098Z" fill="#100C08"/>
<path d="M155.11 78.3598H170.25V60.9598H187.68V78.3598H202.83V0.799805H155.11V78.3598ZM187.68 15.9598V45.7898H170.25V15.9598H187.68Z" fill="#100C08"/>
<path d="M266.12 30.6398H233.54V15.9598H266.12V0.799805H218.4V78.3598H266.12V30.6398ZM251 63.2098H233.54V45.7798H251V63.2098Z" fill="#100C08"/>
<path d="M144.04 0.799805V15.9398H125.64V78.3598H110.49V15.9398H91.5601V0.799805H144.04Z" fill="#100C08"/>
</svg>
