<svg width="467" height="86" viewBox="0 0 467 86" fill="none" xmlns="http://www.w3.org/2000/svg">
<path d="M65.3298 62.8101H47.8998V0.390137H32.7598V62.8101H15.1598V0.390137H0.00976562V77.9501H80.4798V0.390137H65.3298V62.8101Z" fill="#100C08"/>
<path d="M155.09 77.9599H170.23V60.5299H187.66V77.9599H202.81V0.399902H155.09V77.9599ZM187.66 15.5499V45.3799H170.23V15.5499H187.66Z" fill="#100C08"/>
<path d="M266.1 30.2299H233.52V15.5499H266.1V0.399902H218.38V77.9599H266.1V30.2299ZM251 62.8099H233.52V45.3799H251V62.8099Z" fill="#100C08"/>
<path d="M144.02 0.399902V15.5399H125.62V77.9499H110.47V15.5399H91.5396V0.399902H144.02Z" fill="#100C08"/>
<path d="M310.81 20.2999V16.0599H297.23V0.399902H299.84V13.6499H308.43V0.399902H311V13.6499H313.31V20.2999H310.81Z" fill="#100C08"/>
<path d="M324.55 -0.0400391C330.55 -0.0400391 332.81 4.88996 331.83 9.32996H319.36C319.69 12.63 322.66 14 325.82 14C327.621 14.0203 329.4 13.5979 331 12.77V15.31C329.261 16.1084 327.363 16.4983 325.45 16.45C320.82 16.45 316.77 13.81 316.77 8.22996C316.706 7.16849 316.86 6.10512 317.222 5.1052C317.583 4.10529 318.146 3.18994 318.875 2.4154C319.603 1.64086 320.483 1.0235 321.459 0.601242C322.435 0.178986 323.487 -0.0392447 324.55 -0.0400391V-0.0400391ZM324.72 2.37996C322.04 2.37996 319.56 3.97996 319.36 7.04996H329.51C329.74 5.41996 328.7 2.41996 324.72 2.41996V2.37996Z" fill="#100C08"/>
<path d="M337 16.0599V0.399902H339.61V7.0199H348.68V0.399902H351.29V16.0599H348.68V9.4399H339.61V16.0599H337Z" fill="#100C08"/>
<path d="M361.31 16.0599V2.8099H355.53V0.399902H369.66V2.8099H363.92V16.0599H361.31Z" fill="#100C08"/>
<path d="M382.62 -0.0399114C387.09 -0.0399114 390.45 3.49009 390.45 8.19009C390.45 12.8901 387.09 16.4101 382.62 16.4101C381.468 16.4368 380.324 16.2045 379.273 15.7303C378.223 15.256 377.292 14.552 376.55 13.6701V23.2001H373.94V0.400089H376.29V3.01009C377.043 2.05349 378.005 1.28149 379.102 0.752937C380.199 0.22438 381.402 -0.0467906 382.62 -0.0399114V-0.0399114ZM382.33 2.38009C381.097 2.39121 379.893 2.76121 378.867 3.4449C377.841 4.1286 377.035 5.09639 376.55 6.23009V10.1501C377.035 11.2838 377.841 12.2516 378.867 12.9353C379.893 13.619 381.097 13.989 382.33 14.0001C383.082 14.01 383.828 13.8642 384.521 13.5717C385.214 13.2793 385.839 12.8466 386.356 12.3008C386.874 11.7551 387.273 11.1082 387.528 10.4007C387.784 9.69323 387.89 8.94057 387.84 8.19009C387.884 7.44284 387.774 6.69454 387.516 5.99184C387.258 5.28914 386.858 4.64709 386.341 4.10574C385.824 3.56439 385.201 3.13533 384.511 2.84532C383.821 2.5553 383.078 2.41055 382.33 2.42009V2.38009Z" fill="#100C08"/>
<path d="M297.23 47.0399V31.3799H308.69V33.7899H299.84V47.0399H297.23Z" fill="#100C08"/>
<path d="M319.65 30.96C323.93 30.96 328.01 33.84 328.01 39.19C328.01 44.54 323.93 47.41 319.65 47.41C315.37 47.41 311.3 44.54 311.3 39.19C311.3 33.84 315.41 30.96 319.65 30.96ZM319.65 33.45C318.885 33.4096 318.121 33.5305 317.406 33.8047C316.692 34.0789 316.043 34.5003 315.501 35.0416C314.96 35.5828 314.539 36.2319 314.265 36.9465C313.99 37.6612 313.87 38.4256 313.91 39.19C313.972 40.6722 314.604 42.0731 315.675 43.1C316.745 44.1269 318.171 44.7002 319.655 44.7002C321.138 44.7002 322.564 44.1269 323.635 43.1C324.706 42.0731 325.338 40.6722 325.4 39.19C325.437 38.4263 325.314 37.6633 325.038 36.9503C324.762 36.2373 324.339 35.5902 323.797 35.051C323.255 34.5118 322.606 34.0924 321.891 33.8201C321.177 33.5477 320.413 33.4284 319.65 33.47V33.45Z" fill="#100C08"/>
<path d="M341.75 30.9602C346.22 30.9602 349.59 34.4902 349.59 39.1902C349.59 43.8902 346.22 47.4102 341.75 47.4102C340.598 47.4355 339.455 47.2025 338.404 46.7284C337.354 46.2543 336.423 45.551 335.68 44.6702V54.2002H333.07V31.3802H335.42V33.9602C336.181 33.0155 337.145 32.2551 338.241 31.7356C339.338 31.2161 340.537 30.951 341.75 30.9602V30.9602ZM341.46 33.3802C340.227 33.3913 339.023 33.7613 337.997 34.445C336.97 35.1287 336.165 36.0965 335.68 37.2302V41.1502C336.165 42.2839 336.97 43.2517 337.997 43.9354C339.023 44.6191 340.227 44.9891 341.46 45.0002C342.213 45.0141 342.96 44.8719 343.655 44.5825C344.35 44.2931 344.978 43.8629 345.498 43.3189C346.019 42.7749 346.421 42.129 346.679 41.4218C346.938 40.7146 347.047 39.9616 347 39.2102C347.05 38.4571 346.943 37.7019 346.686 36.9924C346.429 36.2828 346.027 35.6344 345.506 35.0882C344.985 34.542 344.357 34.11 343.66 33.8194C342.964 33.5288 342.214 33.3861 341.46 33.4002V33.3802Z" fill="#100C08"/>
<path d="M361.93 30.96C366.2 30.96 370.28 33.84 370.28 39.19C370.28 44.54 366.2 47.41 361.93 47.41C357.66 47.41 353.57 44.54 353.57 39.19C353.57 33.84 357.68 30.96 361.93 30.96ZM361.93 33.45C361.165 33.4082 360.399 33.528 359.683 33.8015C358.967 34.0751 358.317 34.4963 357.775 35.0377C357.232 35.5791 356.81 36.2286 356.535 36.944C356.26 37.6594 356.139 38.4247 356.18 39.19C356.242 40.6722 356.874 42.0731 357.945 43.1C359.015 44.1269 360.441 44.7002 361.925 44.7002C363.408 44.7002 364.834 44.1269 365.905 43.1C366.976 42.0731 367.608 40.6722 367.67 39.19C367.707 38.4272 367.584 37.6651 367.309 36.9528C367.033 36.2405 366.611 35.594 366.07 35.0549C365.529 34.5158 364.881 34.0962 364.168 33.8232C363.455 33.5502 362.692 33.4299 361.93 33.47V33.45Z" fill="#100C08"/>
<path d="M373.35 51.2799V44.6899H375.44C377.44 41.2299 378.18 37.2199 378.12 31.3799H389.8V44.6899H392.09V51.2799H389.54V47.0399H375.9V51.2799H373.35ZM378.28 44.6899H387.19V33.6899H380.63C380.67 37.4852 379.867 41.242 378.28 44.6899V44.6899Z" fill="#100C08"/>
<path d="M404 30.9602C405.699 30.9147 407.376 31.359 408.83 32.2402V34.7802C407.52 33.8409 405.941 33.3498 404.33 33.3802C401.33 33.3802 398.13 35.0802 398.13 39.1902C398.13 43.3002 401.19 45.0002 404.26 45.0002C405.922 45.0063 407.557 44.5752 409 43.7502V46.3602C407.408 47.1023 405.666 47.4684 403.91 47.4302C399.8 47.4302 395.53 44.8502 395.53 39.2702C395.53 33.6902 399.89 30.9602 404 30.9602Z" fill="#100C08"/>
<path d="M414.09 47.0399V31.3799H416.7V37.8999H419.87L424.87 31.3799H427.87L421.93 39.1799L428.59 47.0399H425.52L419.78 40.3199H416.7V47.0399H414.09Z" fill="#100C08"/>
<path d="M432.47 47.0399V31.3799H435.08V42.8299L444.67 31.3799H446.89V47.0399H444.28V35.5899L434.69 47.0399H432.47Z" fill="#100C08"/>
<path d="M465.86 31.3799L460.12 38.9599L466.19 47.0199H463.19L458.62 40.8199L454.02 47.0199H451.02L457.12 38.9599L451.35 31.3599H454.35L458.62 37.1299L462.87 31.3599L465.86 31.3799Z" fill="#100C08"/>
<path d="M297.23 78.0199V62.3599H311.53V78.0199H308.91V64.7699H299.84V78.0199H297.23Z" fill="#100C08"/>
<path d="M326.35 61.9602C330.82 61.9602 334.18 65.4902 334.18 70.1902C334.18 74.8902 330.82 78.4102 326.35 78.4102C325.197 78.4376 324.054 78.2056 323.003 77.7313C321.952 77.2571 321.022 76.5526 320.28 75.6702V85.2002H317.67V62.3602H320V64.9602C320.76 64.01 321.728 63.246 322.828 62.7261C323.928 62.2062 325.133 61.9443 326.35 61.9602V61.9602ZM326.05 64.3802C324.818 64.3919 323.616 64.7623 322.592 65.4461C321.567 66.1298 320.764 67.0972 320.28 68.2302V72.1502C320.77 73.2756 321.576 74.2347 322.6 74.911C323.624 75.5873 324.823 75.9518 326.05 75.9602C326.803 75.9715 327.55 75.8267 328.244 75.5348C328.938 75.243 329.564 74.8105 330.083 74.2646C330.602 73.7187 331.001 73.0713 331.257 72.3631C331.513 71.655 331.62 70.9015 331.57 70.1502C331.614 69.4021 331.503 68.6529 331.245 67.9495C330.986 67.2461 330.585 66.6036 330.067 66.0621C329.549 65.5206 328.925 65.0918 328.234 64.8024C327.543 64.513 326.799 64.3692 326.05 64.3802V64.3802Z" fill="#100C08"/>
<path d="M346.52 61.96C350.79 61.96 354.87 64.84 354.87 70.19C354.87 75.54 350.79 78.41 346.52 78.41C342.25 78.41 338.17 75.54 338.17 70.19C338.17 64.84 342.28 61.96 346.52 61.96ZM346.52 64.44C345.382 64.438 344.27 64.7735 343.323 65.4041C342.376 66.0348 341.637 66.9321 341.2 67.9826C340.764 69.0331 340.648 70.1895 340.869 71.3056C341.09 72.4216 341.637 73.4471 342.441 74.2523C343.244 75.0574 344.269 75.6061 345.384 75.8287C346.5 76.0514 347.657 75.9381 348.708 75.5032C349.759 75.0683 350.658 74.3313 351.29 73.3855C351.922 72.4397 352.26 71.3276 352.26 70.19C352.302 69.4247 352.182 68.6593 351.908 67.9434C351.635 67.2276 351.214 66.5773 350.672 66.0349C350.131 65.4925 349.481 65.0702 348.766 64.7954C348.05 64.5206 347.285 64.3995 346.52 64.44V64.44Z" fill="#100C08"/>
<path d="M366.66 61.96C372.66 61.96 374.92 66.89 373.94 71.33H361.47C361.8 74.63 364.77 76 367.93 76C369.728 76.0047 371.5 75.5686 373.09 74.73V77.27C371.351 78.0674 369.453 78.4573 367.54 78.41C362.91 78.41 358.86 75.77 358.86 70.19C358.801 69.1301 358.96 68.0694 359.326 67.0728C359.691 66.0763 360.257 65.1649 360.987 64.3944C361.717 63.6239 362.597 63.0106 363.572 62.592C364.548 62.1734 365.599 61.9584 366.66 61.96V61.96ZM366.82 64.38C364.15 64.38 361.67 65.98 361.47 69.05H371.62C371.85 67.38 370.8 64.38 366.82 64.38V64.38Z" fill="#100C08"/>
<path d="M379.07 78.0199V62.3599H381.68V68.8799H384.84L389.84 62.3599H392.84L386.9 70.1599L393.56 78.0199H390.49L384.74 71.2999H381.68V78.0199H379.07Z" fill="#100C08"/>
<path d="M401.36 78.0199V64.7699H395.58V62.3599H409.71V64.7699H404V78.0199H401.36Z" fill="#100C08"/>
<path d="M420.75 61.96C425.02 61.96 429.1 64.84 429.1 70.19C429.1 75.54 425.02 78.41 420.75 78.41C416.48 78.41 412.39 75.54 412.39 70.19C412.39 64.84 416.51 61.96 420.75 61.96ZM420.75 64.44C419.612 64.438 418.5 64.7735 417.553 65.4041C416.606 66.0348 415.867 66.9321 415.431 67.9826C414.994 69.0331 414.879 70.1895 415.099 71.3056C415.32 72.4216 415.867 73.4471 416.671 74.2523C417.474 75.0574 418.499 75.6061 419.615 75.8287C420.73 76.0514 421.887 75.9381 422.938 75.5032C423.989 75.0683 424.888 74.3313 425.52 73.3855C426.153 72.4397 426.49 71.3276 426.49 70.19C426.53 69.4251 426.409 68.6604 426.135 67.9452C425.861 67.2301 425.44 66.5804 424.899 66.0384C424.358 65.4964 423.709 65.074 422.994 64.7987C422.28 64.5233 421.515 64.4011 420.75 64.44V64.44Z" fill="#100C08"/>
<path d="M434.17 78.0199V62.3599H442.75C445.49 62.3599 447.58 63.8199 447.58 66.5999C447.602 67.3167 447.417 68.0246 447.046 68.6385C446.675 69.2524 446.135 69.746 445.49 70.0599C446.249 70.3107 446.908 70.7968 447.372 71.4478C447.836 72.0987 448.081 72.8806 448.07 73.6799C448.07 76.2599 446.4 78.0199 443.01 78.0199H434.17ZM436.78 69.0199H442.49C443.86 69.0199 444.94 68.4999 444.94 66.8999C444.953 66.5846 444.897 66.2702 444.775 65.9791C444.654 65.688 444.469 65.4272 444.236 65.2153C444.002 65.0034 443.724 64.8456 443.422 64.7531C443.121 64.6605 442.802 64.6355 442.49 64.6799H436.78V69.0199ZM436.78 75.7799H442.65C444.28 75.7799 445.46 75.2899 445.46 73.5599C445.46 71.8299 444.05 71.2699 442.75 71.2699H436.75L436.78 75.7799Z" fill="#100C08"/>
</svg>
