<svg width="24" height="24" viewBox="0 0 24 24" fill="none" xmlns="http://www.w3.org/2000/svg">
<path d="M12 1C5.95 1 1 5.95 1 12C1 18.05 5.95 23 12 23C18.05 23 23 18.05 23 12C23 5.95 18.05 1 12 1ZM3.3375 8.15C4.85 4.85 8.15 2.65 12 2.65C15.85 2.65 19.15 4.85 20.6625 8.15C20.8 8.425 20.8 8.5625 20.6625 8.8375C20.525 9.1125 20.3875 9.25 20.1125 9.25L16.95 9.9375C16.5375 10.075 16.125 9.8 15.85 9.525C15.025 8.15 13.65 7.325 12 7.325C10.35 7.325 8.975 8.15 8.15 9.3875C7.875 9.8 7.4625 9.9375 7.05 9.8L3.8875 9.1125C3.75 9.1125 3.475 8.975 3.3375 8.7C3.3375 8.5625 3.3375 8.2875 3.3375 8.15ZM10.9 20.525C10.9 20.8 10.7625 20.9375 10.625 21.075C10.4875 21.2125 10.2125 21.2125 9.9375 21.2125C5.675 20.3875 2.5125 16.5375 2.5125 12C2.5125 11.725 2.65 11.5875 2.7875 11.45C2.925 11.3125 3.2 11.3125 3.475 11.3125L6.6375 12C7.05 12 7.325 12.275 7.4625 12.6875C7.7375 14.3375 8.8375 15.7125 10.35 16.2625C10.7625 16.4 11.0375 16.8125 11.0375 17.225V20.525H10.9ZM14.0625 21.2125C13.7875 21.2125 13.65 21.2125 13.375 21.075C13.2375 20.9375 13.1 20.6625 13.1 20.525V17.3625C13.1 16.95 13.375 16.5375 13.7875 16.4C15.3 15.85 16.4 14.475 16.675 12.825C16.675 12.4125 17.0875 12.1375 17.5 12L20.6625 11.3125C20.9375 11.3125 21.075 11.3125 21.35 11.45C21.4875 11.5875 21.625 11.8625 21.625 12C21.4875 16.5375 18.325 20.3875 14.0625 21.2125Z" fill="white"/>
</svg>
